<svg width="40" height="40" viewBox="0 0 40 40" fill="none" xmlns="http://www.w3.org/2000/svg">
<path d="M22.3333 17.7796C23.6478 17.7796 24.9081 18.302 25.8375 19.2314C26.5307 19.9246 27.0037 20.8074 27.195 21.7689C27.3861 22.7301 27.2868 23.7263 26.9118 24.6318C26.5367 25.5373 25.9021 26.3121 25.0872 26.8567C24.2722 27.4013 23.3135 27.6917 22.3333 27.6917C21.353 27.6917 20.3945 27.4014 19.5794 26.8567C18.7643 26.3121 18.1284 25.5375 17.7532 24.6318C17.3784 23.7264 17.2805 22.73 17.4717 21.7689C17.6629 20.8074 18.1359 19.9246 18.8291 19.2314C19.7586 18.302 21.0188 17.7796 22.3333 17.7796Z" fill="#FFF200"/>
<path fill-rule="evenodd" clip-rule="evenodd" d="M26.539 6.32289C26.8019 6.32295 27.0547 6.42838 27.2405 6.61423L38.4547 17.8284C38.6406 18.0143 38.7444 18.267 38.7444 18.5299C38.7444 18.7928 38.6406 19.0455 38.4547 19.2314L18.8291 38.8571C18.6432 39.0429 18.3904 39.1484 18.1276 39.1484C17.8647 39.1484 17.612 39.043 17.4261 38.8571L6.21189 27.6429C6.026 27.457 5.92056 27.2043 5.92055 26.9414C5.92055 26.6785 6.02599 26.4258 6.21189 26.2399L25.8375 6.61423C26.0234 6.42832 26.2761 6.32289 26.539 6.32289ZM29.8984 12.0765C28.8673 12.6369 27.7126 12.9309 26.539 12.931C25.3653 12.931 24.2093 12.6371 23.178 12.0765L11.6741 23.5804C12.2347 24.6116 12.5286 25.7676 12.5286 26.9414C12.5286 28.115 12.2345 29.2696 11.6741 30.3008L14.7666 33.3948C15.7978 32.8342 16.9538 32.5403 18.1276 32.5403C19.3012 32.5404 20.4558 32.8344 21.487 33.3948L32.9925 21.8909C32.4319 20.8597 32.138 19.7037 32.138 18.5299C32.138 17.3563 32.432 16.2017 32.9925 15.1705L29.8984 12.0765Z" fill="#FFF200"/>
<path d="M15.6959 1.12269C15.948 1.04812 16.2202 1.07693 16.4511 1.20244L24.236 5.43096L22.7728 6.89417L20.5495 5.68649C19.7198 6.51625 18.6961 7.12599 17.5709 7.45895C16.4454 7.79197 15.2537 7.83737 14.1058 7.59242L6.33884 21.8877C6.58102 22.1298 6.80132 22.3911 7.00453 22.664L4.81541 24.8548C4.26075 25.4098 3.94802 26.1616 3.94789 26.9463C3.9479 27.4969 4.1043 28.0306 4.38735 28.4925L2.25193 27.332C2.02117 27.2065 1.84962 26.9947 1.77504 26.7428C1.70045 26.4907 1.72929 26.2186 1.85479 25.9876L15.1067 1.59958C15.2323 1.3688 15.444 1.19723 15.6959 1.12269Z" fill="#FFF200"/>
<path d="M16.5602 13.1084L11.3714 18.2972C11.3267 17.3903 11.5291 16.4866 11.9638 15.6865C12.5915 14.5316 13.6527 13.6734 14.9131 13.3004C15.4523 13.1409 16.009 13.0815 16.5602 13.1084Z" fill="#FFF200"/>
</svg>
