<svg width="29" height="28" viewBox="0 0 29 28" fill="none" xmlns="http://www.w3.org/2000/svg">
<mask id="mask0_2752_8143" style="mask-type:alpha" maskUnits="userSpaceOnUse" x="0" y="0" width="29" height="28">
<rect x="0.761719" y="0.197266" width="27.3905" height="27.3905" fill="#D9D9D9"/>
</mask>
<g mask="url(#mask0_2752_8143)">
<path d="M15.9147 20.1682H18.6537V20.0826L13.946 15.0895L13.9745 15.004H14.2599C15.287 15.004 16.1382 14.6901 16.8134 14.0624C17.4887 13.4347 17.9024 12.7024 18.0546 11.8655H19.1958V10.5245H18.026C17.969 10.2392 17.8691 9.9681 17.7265 9.71131C17.5838 9.45453 17.4079 9.2025 17.1986 8.95522H19.1958V7.61423H9.7233V9.24054H14.1743C14.6688 9.24054 15.073 9.36418 15.3869 9.61145C15.7007 9.85873 15.9147 10.1631 16.0288 10.5245H9.7233V11.8655H16.0574C15.9432 12.2459 15.7245 12.574 15.4011 12.8498C15.0778 13.1256 14.6403 13.2635 14.0887 13.2635H11.2355V15.0895L15.9147 20.1682ZM14.4596 25.3039C12.8808 25.3039 11.3972 25.0043 10.0086 24.4052C8.62008 23.806 7.41223 22.9928 6.38509 21.9657C5.35795 20.9386 4.54479 19.7307 3.94563 18.3422C3.34646 16.9536 3.04688 15.47 3.04688 13.8912C3.04688 12.3125 3.34646 10.8288 3.94563 9.44026C4.54479 8.05172 5.35795 6.84387 6.38509 5.81673C7.41223 4.78959 8.62008 3.97643 10.0086 3.37727C11.3972 2.7781 12.8808 2.47852 14.4596 2.47852C16.0383 2.47852 17.522 2.7781 18.9105 3.37727C20.2991 3.97643 21.5069 4.78959 22.5341 5.81673C23.5612 6.84387 24.3744 8.05172 24.9735 9.44026C25.5727 10.8288 25.8723 12.3125 25.8723 13.8912C25.8723 15.47 25.5727 16.9536 24.9735 18.3422C24.3744 19.7307 23.5612 20.9386 22.5341 21.9657C21.5069 22.9928 20.2991 23.806 18.9105 24.4052C17.522 25.0043 16.0383 25.3039 14.4596 25.3039Z" fill="#FFF200"/>
</g>
</svg>
