<svg width="25" height="25" viewBox="0 0 25 25" fill="none" xmlns="http://www.w3.org/2000/svg">
<mask id="mask0_2752_8159" style="mask-type:alpha" maskUnits="userSpaceOnUse" x="0" y="0" width="25" height="25">
<rect x="0.71875" y="0.934814" width="23.4776" height="23.4776" fill="#D9D9D9"/>
</mask>
<g mask="url(#mask0_2752_8159)">
<path d="M7.59139 12.5024L8.39843 10.8394C8.56147 10.497 8.80195 10.228 9.11988 10.0323C9.43781 9.83668 9.78426 9.73885 10.1593 9.73885H11.4799V2.89124H18.3275L17.3493 4.8477L18.3275 6.80416H13.4363V9.73885H14.6836C15.0586 9.73885 15.3969 9.83668 15.6985 10.0323C16.0001 10.228 16.2406 10.4888 16.4199 10.8149L17.2759 12.5268L14.3412 14.4833L12.4581 13.5295L10.575 14.4833L7.59139 12.5024ZM2.67578 22.4559L6.71099 14.2632L10.4283 16.7332L12.4581 15.7305L14.4879 16.7332L18.1563 14.3121L22.2404 22.4559H2.67578Z" fill="#FFF200"/>
</g>
</svg>
