<svg width="21" height="20" viewBox="0 0 21 20" fill="none" xmlns="http://www.w3.org/2000/svg">
<path d="M10.4581 19.8462C9.10487 19.8462 7.83317 19.5895 6.64299 19.0759C5.45281 18.5623 4.41752 17.8653 3.53711 16.9849C2.6567 16.1045 1.95971 15.0692 1.44614 13.879C0.932567 12.6889 0.675781 11.4171 0.675781 10.0639C0.675781 8.71071 0.932567 7.43901 1.44614 6.24883C1.95971 5.05865 2.6567 4.02335 3.53711 3.14294C4.41752 2.26253 5.45281 1.56554 6.64299 1.05197C7.83317 0.538402 9.10487 0.281616 10.4581 0.281616C11.8113 0.281616 13.083 0.538402 14.2732 1.05197C15.4634 1.56554 16.4987 2.26253 17.3791 3.14294C18.2595 4.02335 18.9565 5.05865 19.4701 6.24883C19.9836 7.43901 20.2404 8.71071 20.2404 10.0639C20.2404 11.4171 19.9836 12.6889 19.4701 13.879C18.9565 15.0692 18.2595 16.1045 17.3791 16.9849C16.4987 17.8653 15.4634 18.5623 14.2732 19.0759C13.083 19.5895 11.8113 19.8462 10.4581 19.8462ZM10.4581 17.8898C12.6428 17.8898 14.4933 17.1317 16.0096 15.6154C17.5258 14.0991 18.2839 12.2486 18.2839 10.0639C18.2839 9.9498 18.2799 9.8316 18.2717 9.70932C18.2636 9.58704 18.2595 9.48514 18.2595 9.40362C18.178 9.87644 17.9579 10.2677 17.5992 10.5775C17.2405 10.8873 16.8166 11.0422 16.3275 11.0422H14.371C13.833 11.0422 13.3724 10.8506 12.9893 10.4675C12.6061 10.0843 12.4146 9.62372 12.4146 9.0857V8.10747H8.50163V6.151C8.50163 5.61298 8.6932 5.15239 9.07634 4.76925C9.45948 4.38611 9.92007 4.19454 10.4581 4.19454H11.4363C11.4363 3.81955 11.5382 3.4894 11.742 3.20408C11.9458 2.91876 12.1945 2.68643 12.4879 2.50709C12.1618 2.42557 11.8317 2.36036 11.4975 2.31145C11.1632 2.26253 10.8168 2.23808 10.4581 2.23808C8.27338 2.23808 6.42289 2.99621 4.90663 4.51247C3.39037 6.02873 2.63224 7.87921 2.63224 10.0639H7.5234C8.59945 10.0639 9.52062 10.4471 10.2869 11.2134C11.0532 11.9796 11.4363 12.9008 11.4363 13.9769V14.9551H8.50163V17.6452C8.82771 17.7267 9.14971 17.7879 9.46764 17.8286C9.78556 17.8694 10.1157 17.8898 10.4581 17.8898Z" fill="#FFF200"/>
</svg>
