<svg width="15" height="21" viewBox="0 0 15 21" fill="none" xmlns="http://www.w3.org/2000/svg">
<path d="M7.45936 20.2367C7.03546 20.2367 6.65232 20.1348 6.30994 19.931C5.96756 19.7272 5.69855 19.4542 5.5029 19.1118C4.96487 19.1118 4.50429 18.9202 4.12115 18.5371C3.73801 18.1539 3.54644 17.6933 3.54644 17.1553V13.6826C2.58451 13.0467 1.81415 12.2071 1.23537 11.1637C0.656581 10.1202 0.367188 8.98709 0.367188 7.7643C0.367188 5.79153 1.05603 4.11631 2.4337 2.73863C3.81138 1.36096 5.4866 0.672119 7.45936 0.672119C9.43213 0.672119 11.1074 1.36096 12.485 2.73863C13.8627 4.11631 14.5515 5.79153 14.5515 7.7643C14.5515 9.01969 14.2621 10.161 13.6834 11.1881C13.1046 12.2152 12.3342 13.0467 11.3723 13.6826V17.1553C11.3723 17.6933 11.1807 18.1539 10.7976 18.5371C10.4144 18.9202 9.95385 19.1118 9.41583 19.1118C9.22018 19.4542 8.95117 19.7272 8.60879 19.931C8.26641 20.1348 7.88326 20.2367 7.45936 20.2367ZM5.5029 17.1553H9.41583V16.2749H5.5029V17.1553ZM5.5029 15.2967H9.41583V14.3674H5.5029V15.2967ZM8.19304 12.4109V9.76967L10.3451 7.61756L9.318 6.59042L7.45936 8.44906L5.60072 6.59042L4.57358 7.61756L6.72569 9.76967V12.4109H8.19304Z" fill="#FFF200"/>
</svg>
