<svg width="28" height="28" viewBox="0 0 28 28" fill="none" xmlns="http://www.w3.org/2000/svg">
<mask id="mask0_2834_8817" style="mask-type:alpha" maskUnits="userSpaceOnUse" x="0" y="0" width="28" height="28">
<rect x="0.445312" y="3.78687" width="24" height="24" transform="rotate(-8 0.445312 3.78687)" fill="#D9D9D9"/>
</mask>
<g mask="url(#mask0_2834_8817)">
<path d="M12.1915 17.9793L13.3823 16.3696L10.9201 14.5142L12.7755 12.0519L11.1871 10.8328L8.11603 14.9083L12.1915 17.9793ZM16.9559 17.3098L20.027 13.2343L15.9515 10.1632L14.7607 11.7729L17.2229 13.6284L15.3675 16.0906L16.9559 17.3098ZM8.37893 23.981C7.83301 24.0577 7.33835 23.929 6.89496 23.5949C6.45156 23.2607 6.1915 22.8207 6.11478 22.2748L4.16181 8.37871C4.08508 7.83279 4.21378 7.33814 4.54791 6.89474C4.88203 6.45134 5.32205 6.19128 5.86797 6.11456L19.7641 4.16159C20.31 4.08487 20.8046 4.21357 21.248 4.54769C21.6914 4.88181 21.9515 5.32183 22.0282 5.86775L23.9812 19.7638C24.0579 20.3098 23.9292 20.8044 23.5951 21.2478C23.261 21.6912 22.8209 21.9513 22.275 22.028L8.37893 23.981Z" fill="black"/>
</g>
</svg>
