<svg width="28" height="28" viewBox="0 0 28 28" fill="none" xmlns="http://www.w3.org/2000/svg">
<mask id="mask0_2834_6406" style="mask-type:alpha" maskUnits="userSpaceOnUse" x="0" y="0" width="28" height="28">
<rect x="0.445312" y="3.78687" width="24" height="24" transform="rotate(-8 0.445312 3.78687)" fill="#D9D9D9"/>
</mask>
<g mask="url(#mask0_2834_6406)">
<path d="M12.6687 24.2872L11.8272 21.174C11.6011 21.1216 11.385 21.051 11.1789 20.9622C10.9729 20.8733 10.7698 20.7756 10.5697 20.6691L7.79762 22.321L4.41331 17.9999L6.69186 15.7105C6.65912 15.5973 6.63521 15.4871 6.62014 15.3798L6.52619 14.7114C6.51112 14.6041 6.50371 14.4915 6.50398 14.3737L3.68265 12.801L5.74482 7.71453L8.86483 8.53833C9.02782 8.38077 9.20023 8.23032 9.38204 8.08695C9.56386 7.94358 9.748 7.81672 9.93445 7.70637L9.88521 4.48184L15.3317 3.71639L16.1731 6.82958C16.3993 6.88194 16.6154 6.95256 16.8214 7.04141C17.0275 7.13027 17.2305 7.22796 17.4306 7.33448L20.2027 5.6826L23.587 10.0037L21.3085 12.293C21.3412 12.4063 21.3651 12.5165 21.3802 12.6238L21.4742 13.2922C21.4892 13.3995 21.4884 13.5132 21.4716 13.6334L24.2929 15.206L22.2308 20.2925L19.1355 19.4653C18.9725 19.6228 18.8001 19.7733 18.6183 19.9166C18.4365 20.06 18.2524 20.1869 18.0659 20.2972L18.1151 23.5217L12.6687 24.2872ZM14.5368 17.4608C15.4941 17.3262 16.2635 16.8731 16.8451 16.1013C17.4266 15.3295 17.6502 14.465 17.5156 13.5077C17.3811 12.5505 16.9279 11.781 16.1561 11.1995C15.3844 10.6179 14.5198 10.3944 13.5626 10.5289C12.5888 10.6658 11.8153 11.1195 11.2419 11.8901C10.6686 12.6607 10.4492 13.5247 10.5838 14.4819C10.7183 15.4392 11.1673 16.2092 11.9309 16.7919C12.6944 17.3747 13.563 17.5976 14.5368 17.4608Z" fill="black"/>
</g>
</svg>
