<svg width="28" height="28" viewBox="0 0 28 28" fill="none" xmlns="http://www.w3.org/2000/svg">
<mask id="mask0_2834_4674" style="mask-type:alpha" maskUnits="userSpaceOnUse" x="0" y="0" width="28" height="28">
<rect x="0.445312" y="3.78687" width="24" height="24" transform="rotate(-8 0.445312 3.78687)" fill="#D9D9D9"/>
</mask>
<g mask="url(#mask0_2834_4674)">
<path d="M9.30827 23.7475C8.56557 23.8518 7.8056 23.7735 7.02838 23.5125C6.25115 23.2514 5.59797 22.8552 5.06885 22.3236C5.49797 22.2633 5.91156 22.0327 6.30963 21.6317C6.7077 21.2307 6.8615 20.7084 6.77104 20.0647C6.65506 19.2395 6.84531 18.4975 7.34178 17.8386C7.83825 17.1798 8.4991 16.7924 9.32432 16.6764C10.1495 16.5604 10.8916 16.7507 11.5504 17.2472C12.2093 17.7436 12.5967 18.4045 12.7126 19.2297C12.8657 20.319 12.6089 21.306 11.9422 22.1907C11.2756 23.0755 10.3976 23.5944 9.30827 23.7475ZM14.1673 17.0056L11.0613 14.6651L18.6786 4.5566C18.8346 4.34953 19.0482 4.22274 19.3194 4.17621C19.5906 4.12969 19.8391 4.19154 20.065 4.36175L21.5897 5.51073C21.8156 5.68095 21.9471 5.8981 21.9842 6.16217C22.0213 6.42624 21.9548 6.67122 21.7846 6.89711L14.1673 17.0056Z" fill="black"/>
</g>
</svg>
