<svg width="28" height="28" viewBox="0 0 28 28" fill="none" xmlns="http://www.w3.org/2000/svg">
<mask id="mask0_2834_7053" style="mask-type:alpha" maskUnits="userSpaceOnUse" x="0" y="0" width="28" height="28">
<rect x="0.445312" y="3.78687" width="24" height="24" transform="rotate(-8 0.445312 3.78687)" fill="#D9D9D9"/>
</mask>
<g mask="url(#mask0_2834_7053)">
<path d="M16.8747 23.6949C15.0922 23.9454 13.4856 23.5316 12.055 22.4535C10.6244 21.3755 9.78381 19.9452 9.5333 18.1627L9.45328 17.5933C8.00142 17.5618 6.72799 17.0633 5.63298 16.098C4.53798 15.1326 3.8861 13.9073 3.67734 12.4219L2.8423 6.48026L5.8131 6.06274L5.67393 5.07247L7.65447 4.79412L8.21116 8.7552L6.23062 9.03354L6.09145 8.04328L5.10118 8.18245L5.65787 12.1435C5.81096 13.2328 6.32987 14.1108 7.2146 14.7775C8.09933 15.4442 9.08634 15.701 10.1756 15.5479C11.2649 15.3948 12.1429 14.8759 12.8096 13.9912C13.4763 13.1064 13.7331 12.1194 13.58 11.0301L13.0233 7.06906L12.0331 7.20824L12.1722 8.1985L10.1917 8.47685L9.635 4.51578L11.6155 4.23743L11.7547 5.2277L14.7255 4.81018L15.5606 10.7518C15.7693 12.2372 15.4804 13.5948 14.6939 14.8245C13.9074 16.0543 12.8207 16.8844 11.4338 17.315L11.5138 17.8844C11.6878 19.1222 12.2689 20.1135 13.2572 20.8582C14.2454 21.6029 15.3585 21.8883 16.5963 21.7143C17.8342 21.5404 18.8254 20.9592 19.5701 19.971C20.3148 18.9827 20.6002 17.8697 20.4263 16.6318L20.1931 14.9731C19.5876 14.8563 19.0633 14.5681 18.62 14.1087C18.1768 13.6492 17.9099 13.0977 17.8194 12.454C17.7035 11.6288 17.8937 10.8867 18.3902 10.2279C18.8866 9.56904 19.5475 9.18163 20.3727 9.06566C21.1979 8.94968 21.94 9.13993 22.5988 9.6364C23.2577 10.1329 23.6451 10.7937 23.761 11.6189C23.8515 12.2626 23.747 12.8664 23.4476 13.4302C23.1481 13.994 22.7235 14.4156 22.1737 14.6948L22.4068 16.3535C22.6573 18.136 22.2435 19.7425 21.1655 21.1732C20.0874 22.6038 18.6572 23.4443 16.8747 23.6949Z" fill="black"/>
</g>
</svg>
