<svg width="40" height="40" viewBox="0 0 40 40" fill="none" xmlns="http://www.w3.org/2000/svg">
<path d="M10.0163 23.0935C10.0206 23.1782 10.0075 23.2628 9.97803 23.3423C9.94852 23.4218 9.90316 23.4944 9.84469 23.5558C9.78623 23.6172 9.71589 23.666 9.63795 23.6994C9.56001 23.7327 9.4761 23.7499 9.39132 23.7498H2.49758C2.21544 23.7502 1.94146 23.6551 1.72019 23.4801C1.49892 23.3051 1.34336 23.0603 1.27883 22.7857C1.23864 22.5977 1.24049 22.4032 1.28425 22.216C1.32801 22.0288 1.41259 21.8536 1.53195 21.7029C2.63478 20.2403 4.09803 19.0888 5.77883 18.3607C5.0409 17.6879 4.47493 16.848 4.12832 15.9115C3.78171 14.975 3.66455 13.9691 3.78666 12.978C3.90877 11.9868 4.26658 11.0394 4.83014 10.215C5.39369 9.39065 6.14658 8.7133 7.02575 8.23972C7.90491 7.76614 8.88475 7.51012 9.88321 7.4931C10.8817 7.47607 11.8697 7.69854 12.7645 8.14188C13.6593 8.58521 14.4348 9.2365 15.0261 10.0412C15.6175 10.8459 16.0074 11.7806 16.1632 12.7669C16.1833 12.8996 16.1596 13.0352 16.0955 13.1531C16.0315 13.271 15.9307 13.3647 15.8085 13.4201C14.0747 14.2216 12.6064 15.5023 11.5768 17.1111C10.5472 18.7199 9.99922 20.5897 9.99757 22.4998C9.99757 22.6997 9.99758 22.8966 10.0163 23.0935ZM38.4538 21.7013C37.3535 20.2405 35.8936 19.0896 34.2163 18.3607C34.9543 17.6879 35.5202 16.848 35.8668 15.9115C36.2134 14.975 36.3306 13.9691 36.2085 12.978C36.0864 11.9868 35.7286 11.0394 35.165 10.215C34.6015 9.39065 33.8486 8.7133 32.9694 8.23972C32.0902 7.76614 31.1104 7.51012 30.1119 7.4931C29.1135 7.47607 28.1255 7.69854 27.2307 8.14188C26.3359 8.58521 25.5603 9.2365 24.969 10.0412C24.3777 10.8459 23.9878 11.7806 23.8319 12.7669C23.8118 12.8996 23.8356 13.0352 23.8996 13.1531C23.9636 13.271 24.0644 13.3647 24.1866 13.4201C25.9204 14.2216 27.3887 15.5023 28.4183 17.1111C29.448 18.7199 29.9959 20.5897 29.9976 22.4998C29.9976 22.6997 29.9976 22.8966 29.9788 23.0935C29.9746 23.1782 29.9876 23.2628 30.0171 23.3423C30.0466 23.4218 30.092 23.4944 30.1505 23.5558C30.2089 23.6172 30.2793 23.666 30.3572 23.6994C30.4351 23.7327 30.5191 23.7499 30.6038 23.7498H37.4976C37.7797 23.7502 38.0537 23.6551 38.275 23.4801C38.4962 23.3051 38.6518 23.0603 38.7163 22.7857C38.7568 22.5974 38.7549 22.4024 38.7108 22.2149C38.6668 22.0274 38.5817 21.852 38.4616 21.7013H38.4538ZM24.5476 28.4482C25.7922 27.495 26.7068 26.1758 27.1629 24.6759C27.6191 23.1761 27.5937 21.571 27.0905 20.0863C26.5873 18.6016 25.6315 17.3119 24.3574 16.3984C23.0834 15.485 21.5551 14.9938 19.9874 14.9938C18.4197 14.9938 16.8915 15.485 15.6174 16.3984C14.3433 17.3119 13.3875 18.6016 12.8843 20.0863C12.3811 21.571 12.3558 23.1761 12.8119 24.6759C13.268 26.1758 14.1827 27.495 15.4273 28.4482C13.2187 29.4051 11.3746 31.0439 10.1648 33.1248C10.055 33.3148 9.99728 33.5304 9.99729 33.7498C9.99731 33.9693 10.0551 34.1848 10.1648 34.3749C10.2746 34.5649 10.4324 34.7227 10.6225 34.8324C10.8125 34.9421 11.0281 34.9998 11.2476 34.9998H28.7476C28.967 34.9998 29.1826 34.9421 29.3727 34.8324C29.5627 34.7227 29.7206 34.5649 29.8303 34.3749C29.9401 34.1848 29.9978 33.9693 29.9979 33.7498C29.9979 33.5304 29.9401 33.3148 29.8304 33.1248C28.618 31.0426 26.7704 29.4036 24.5585 28.4482H24.5476Z" fill="#FFF200"/>
</svg>
