<svg width="135" height="41" viewBox="0 0 135 41" fill="none" xmlns="http://www.w3.org/2000/svg">
<g clip-path="url(#clip0_1719_1124)">
<path d="M130.196 40.3975H4.72802C2.12102 40.3975 -0.000976562 38.2695 -0.000976562 35.6645V5.12346C-0.000976562 2.51746 2.12102 0.397461 4.72802 0.397461H130.196C132.802 0.397461 134.999 2.51746 134.999 5.12346V35.6645C134.999 38.2695 132.802 40.3975 130.196 40.3975Z" fill="#A6A6A6"/>
<path d="M134.031 35.6654C134.031 37.7814 132.317 39.4954 130.197 39.4954H4.72767C2.60867 39.4954 0.888672 37.7814 0.888672 35.6654V5.12235C0.888672 3.00735 2.60867 1.28735 4.72767 1.28735H130.196C132.317 1.28735 134.03 3.00735 134.03 5.12235L134.031 35.6654Z" fill="black"/>
<path d="M30.1271 20.1814C30.0981 16.9584 32.7661 15.3904 32.8881 15.3174C31.3771 13.1144 29.0351 12.8134 28.2121 12.7894C26.2451 12.5824 24.3371 13.9664 23.3351 13.9664C22.3131 13.9664 20.7701 12.8094 19.1071 12.8434C16.9671 12.8764 14.9651 14.1154 13.8671 16.0394C11.6011 19.9624 13.2911 25.7274 15.4621 28.8984C16.5481 30.4514 17.8171 32.1854 19.4781 32.1244C21.1031 32.0574 21.7101 31.0884 23.6711 31.0884C25.6141 31.0884 26.1841 32.1244 27.8781 32.0854C29.6221 32.0574 30.7201 30.5254 31.7681 28.9584C33.0231 27.1784 33.5271 25.4254 33.5471 25.3354C33.5061 25.3214 30.1601 24.0444 30.1271 20.1814Z" fill="white"/>
<path d="M26.9271 10.7035C27.8011 9.6105 28.3991 8.1235 28.2331 6.6145C26.9681 6.6705 25.3861 7.4895 24.4751 8.5585C23.6691 9.5005 22.9491 11.0445 23.1351 12.4965C24.5561 12.6025 26.0151 11.7795 26.9271 10.7035Z" fill="white"/>
<path d="M53.6442 31.9015H51.3732L50.1292 27.9925H45.8052L44.6202 31.9015H42.4092L46.6932 18.5935H49.3392L53.6442 31.9015ZM49.7542 26.3525L48.6292 22.8775C48.5102 22.5225 48.2872 21.6865 47.9582 20.3705H47.9182C47.7872 20.9365 47.5762 21.7725 47.2862 22.8775L46.1812 26.3525H49.7542Z" fill="white"/>
<path d="M64.6609 26.9854C64.6609 28.6174 64.2199 29.9074 63.3379 30.8544C62.5479 31.6974 61.5669 32.1184 60.3959 32.1184C59.1319 32.1184 58.2239 31.6644 57.6709 30.7564H57.6309V35.8114H55.4989V25.4644C55.4989 24.4384 55.4719 23.3854 55.4199 22.3054H57.2949L57.4139 23.8264H57.4539C58.1649 22.6804 59.2439 22.1084 60.6919 22.1084C61.8239 22.1084 62.7689 22.5554 63.5249 23.4504C64.2829 24.3464 64.6609 25.5244 64.6609 26.9854ZM62.4889 27.0634C62.4889 26.1294 62.2789 25.3594 61.8569 24.7534C61.3959 24.1214 60.7769 23.8054 60.0009 23.8054C59.4749 23.8054 58.9969 23.9814 58.5699 24.3284C58.1419 24.6784 57.8619 25.1354 57.7309 25.7014C57.6649 25.9654 57.6319 26.1814 57.6319 26.3514V27.9514C57.6319 28.6494 57.8459 29.2384 58.2739 29.7194C58.7019 30.2004 59.2579 30.4404 59.9419 30.4404C60.7449 30.4404 61.3699 30.1304 61.8169 29.5124C62.2649 28.8934 62.4889 28.0774 62.4889 27.0634Z" fill="white"/>
<path d="M75.698 26.9854C75.698 28.6174 75.257 29.9074 74.374 30.8544C73.585 31.6974 72.604 32.1184 71.433 32.1184C70.169 32.1184 69.261 31.6644 68.709 30.7564H68.669V35.8114H66.537V25.4644C66.537 24.4384 66.51 23.3854 66.458 22.3054H68.333L68.452 23.8264H68.492C69.202 22.6804 70.281 22.1084 71.73 22.1084C72.861 22.1084 73.806 22.5554 74.564 23.4504C75.319 24.3464 75.698 25.5244 75.698 26.9854ZM73.526 27.0634C73.526 26.1294 73.315 25.3594 72.893 24.7534C72.432 24.1214 71.815 23.8054 71.038 23.8054C70.511 23.8054 70.034 23.9814 69.606 24.3284C69.178 24.6784 68.899 25.1354 68.768 25.7014C68.703 25.9654 68.669 26.1814 68.669 26.3514V27.9514C68.669 28.6494 68.883 29.2384 69.309 29.7194C69.737 30.1994 70.293 30.4404 70.979 30.4404C71.782 30.4404 72.407 30.1304 72.854 29.5124C73.302 28.8934 73.526 28.0774 73.526 27.0634Z" fill="white"/>
<path d="M88.0382 28.1694C88.0382 29.3014 87.6452 30.2224 86.8562 30.9334C85.9892 31.7104 84.7822 32.0984 83.2312 32.0984C81.7992 32.0984 80.6512 31.8224 79.7822 31.2694L80.2762 29.4924C81.2122 30.0584 82.2392 30.3424 83.3582 30.3424C84.1612 30.3424 84.7862 30.1604 85.2352 29.7984C85.6822 29.4364 85.9052 28.9504 85.9052 28.3444C85.9052 27.8044 85.7212 27.3494 85.3522 26.9804C84.9852 26.6114 84.3722 26.2684 83.5162 25.9514C81.1862 25.0824 80.0222 23.8094 80.0222 22.1354C80.0222 21.0414 80.4302 20.1444 81.2472 19.4464C82.0612 18.7474 83.1472 18.3984 84.5052 18.3984C85.7162 18.3984 86.7222 18.6094 87.5252 19.0304L86.9922 20.7684C86.2422 20.3604 85.3942 20.1564 84.4452 20.1564C83.6952 20.1564 83.1092 20.3414 82.6892 20.7094C82.3342 21.0384 82.1562 21.4394 82.1562 21.9144C82.1562 22.4404 82.3592 22.8754 82.7672 23.2174C83.1222 23.5334 83.7672 23.8754 84.7032 24.2444C85.8482 24.7054 86.6892 25.2444 87.2302 25.8624C87.7692 26.4784 88.0382 27.2494 88.0382 28.1694Z" fill="white"/>
<path d="M95.0872 23.9056H92.7372V28.5646C92.7372 29.7495 93.1512 30.3416 93.9812 30.3416C94.3622 30.3416 94.6782 30.3085 94.9282 30.2425L94.9872 31.8616C94.5672 32.0186 94.0142 32.0976 93.3292 32.0976C92.4872 32.0976 91.8292 31.8406 91.3542 31.3276C90.8812 30.8136 90.6432 29.9516 90.6432 28.7406V23.9036H89.2432V22.3036H90.6432V20.5466L92.7372 19.9146V22.3036H95.0872V23.9056Z" fill="white"/>
<path d="M105.69 27.0244C105.69 28.4994 105.268 29.7104 104.426 30.6574C103.543 31.6324 102.371 32.1184 100.91 32.1184C99.502 32.1184 98.381 31.6514 97.545 30.7174C96.709 29.7834 96.291 28.6044 96.291 27.1834C96.291 25.6964 96.721 24.4784 97.584 23.5314C98.445 22.5834 99.607 22.1094 101.068 22.1094C102.476 22.1094 103.609 22.5764 104.464 23.5114C105.282 24.4184 105.69 25.5894 105.69 27.0244ZM103.478 27.0934C103.478 26.2084 103.289 25.4494 102.906 24.8164C102.459 24.0504 101.82 23.6684 100.992 23.6684C100.135 23.6684 99.484 24.0514 99.037 24.8164C98.654 25.4504 98.465 26.2214 98.465 27.1334C98.465 28.0184 98.654 28.7774 99.037 29.4094C99.498 30.1754 100.142 30.5574 100.973 30.5574C101.787 30.5574 102.426 30.1674 102.887 29.3894C103.28 28.7444 103.478 27.9774 103.478 27.0934Z" fill="white"/>
<path d="M112.62 24.1804C112.409 24.1414 112.184 24.1214 111.948 24.1214C111.198 24.1214 110.618 24.4044 110.21 24.9714C109.855 25.4714 109.677 26.1034 109.677 26.8664V31.9014H107.546L107.566 25.3274C107.566 24.2214 107.539 23.2144 107.486 22.3064H109.343L109.421 24.1424H109.48C109.705 23.5114 110.06 23.0034 110.546 22.6224C111.021 22.2794 111.534 22.1084 112.087 22.1084C112.284 22.1084 112.462 22.1224 112.62 22.1474V24.1804Z" fill="white"/>
<path d="M122.155 26.6493C122.155 27.0313 122.13 27.3533 122.077 27.6163H115.681C115.706 28.5643 116.015 29.2893 116.609 29.7893C117.148 30.2363 117.845 30.4603 118.701 30.4603C119.648 30.4603 120.512 30.3093 121.289 30.0063L121.623 31.4863C120.715 31.8823 119.643 32.0793 118.406 32.0793C116.918 32.0793 115.75 31.6413 114.9 30.7663C114.052 29.8913 113.627 28.7163 113.627 27.2423C113.627 25.7953 114.022 24.5903 114.813 23.6293C115.641 22.6033 116.76 22.0903 118.168 22.0903C119.551 22.0903 120.598 22.6033 121.309 23.6293C121.872 24.4443 122.155 25.4523 122.155 26.6493ZM120.122 26.0963C120.136 25.4643 119.997 24.9183 119.708 24.4573C119.339 23.8643 118.772 23.5683 118.009 23.5683C117.312 23.5683 116.745 23.8573 116.312 24.4373C115.957 24.8983 115.746 25.4513 115.681 26.0953L120.122 26.0963Z" fill="white"/>
<path d="M49.0488 10.4064C49.0488 11.5834 48.6958 12.4694 47.9908 13.0644C47.3378 13.6134 46.4098 13.8884 45.2078 13.8884C44.6118 13.8884 44.1018 13.8624 43.6748 13.8104V7.37941C44.2318 7.28941 44.8318 7.24341 45.4798 7.24341C46.6248 7.24341 47.4878 7.49241 48.0698 7.99041C48.7218 8.55341 49.0488 9.35841 49.0488 10.4064ZM47.9438 10.4354C47.9438 9.67241 47.7418 9.08741 47.3378 8.67941C46.9338 8.27241 46.3438 8.06841 45.5668 8.06841C45.2368 8.06841 44.9558 8.09041 44.7228 8.13641V13.0254C44.8518 13.0454 45.0878 13.0544 45.4308 13.0544C46.2328 13.0544 46.8518 12.8314 47.2878 12.3854C47.7238 11.9394 47.9438 11.2894 47.9438 10.4354Z" fill="white"/>
<path d="M54.908 11.4343C54.908 12.1593 54.701 12.7533 54.287 13.2193C53.853 13.6983 53.278 13.9373 52.56 13.9373C51.868 13.9373 51.317 13.7083 50.906 13.2483C50.496 12.7893 50.291 12.2103 50.291 11.5123C50.291 10.7823 50.502 10.1833 50.926 9.71826C51.35 9.25326 51.92 9.02026 52.638 9.02026C53.33 9.02026 53.886 9.24926 54.307 9.70826C54.707 10.1543 54.908 10.7303 54.908 11.4343ZM53.821 11.4683C53.821 11.0333 53.727 10.6603 53.54 10.3493C53.32 9.97326 53.007 9.78526 52.6 9.78526C52.179 9.78526 51.859 9.97326 51.639 10.3493C51.451 10.6603 51.358 11.0393 51.358 11.4873C51.358 11.9223 51.452 12.2953 51.639 12.6063C51.866 12.9823 52.182 13.1703 52.59 13.1703C52.99 13.1703 53.304 12.9793 53.53 12.5963C53.724 12.2793 53.821 11.9033 53.821 11.4683Z" fill="white"/>
<path d="M62.7636 9.11646L61.2886 13.8305H60.3286L59.7176 11.7835C59.5626 11.2725 59.4366 10.7645 59.3386 10.2605H59.3196C59.2286 10.7785 59.1026 11.2855 58.9406 11.7835L58.2916 13.8305H57.3206L55.9336 9.11646H57.0106L57.5436 11.3575C57.6726 11.8875 57.7786 12.3925 57.8636 12.8705H57.8826C57.9606 12.4765 58.0896 11.9745 58.2716 11.3675L58.9406 9.11746H59.7946L60.4356 11.3195C60.5906 11.8565 60.7166 12.3735 60.8136 12.8715H60.8426C60.9136 12.3865 61.0206 11.8695 61.1626 11.3195L61.7346 9.11746H62.7636V9.11646Z" fill="white"/>
<path d="M68.1964 13.8303H67.1485V11.1303C67.1485 10.2983 66.8324 9.88233 66.1984 9.88233C65.8874 9.88233 65.6365 9.99633 65.4415 10.2253C65.2485 10.4543 65.1505 10.7243 65.1505 11.0333V13.8293H64.1024V10.4633C64.1024 10.0493 64.0895 9.60033 64.0645 9.11433H64.9855L65.0345 9.85133H65.0635C65.1855 9.62233 65.3675 9.43333 65.6065 9.28233C65.8905 9.10633 66.2084 9.01733 66.5564 9.01733C66.9964 9.01733 67.3625 9.15933 67.6535 9.44433C68.0155 9.79333 68.1964 10.3143 68.1964 11.0063V13.8303Z" fill="white"/>
<path d="M71.087 13.8304H70.04V6.95337H71.087V13.8304Z" fill="white"/>
<path d="M77.2567 11.4343C77.2567 12.1593 77.0497 12.7533 76.6357 13.2193C76.2017 13.6983 75.6257 13.9373 74.9087 13.9373C74.2157 13.9373 73.6646 13.7083 73.2546 13.2483C72.8446 12.7893 72.6396 12.2103 72.6396 11.5123C72.6396 10.7823 72.8507 10.1833 73.2747 9.71826C73.6987 9.25326 74.2686 9.02026 74.9856 9.02026C75.6786 9.02026 76.2336 9.24926 76.6556 9.70826C77.0556 10.1543 77.2567 10.7303 77.2567 11.4343ZM76.1686 11.4683C76.1686 11.0333 76.0746 10.6603 75.8876 10.3493C75.6686 9.97326 75.3546 9.78526 74.9486 9.78526C74.5266 9.78526 74.2066 9.97326 73.9876 10.3493C73.7996 10.6603 73.7066 11.0393 73.7066 11.4873C73.7066 11.9223 73.8006 12.2953 73.9876 12.6063C74.2146 12.9823 74.5307 13.1703 74.9387 13.1703C75.3387 13.1703 75.6516 12.9793 75.8776 12.5963C76.0726 12.2793 76.1686 11.9033 76.1686 11.4683Z" fill="white"/>
<path d="M82.329 13.8303H81.388L81.31 13.2873H81.281C80.959 13.7203 80.5 13.9373 79.904 13.9373C79.459 13.9373 79.099 13.7943 78.828 13.5103C78.582 13.2523 78.459 12.9313 78.459 12.5503C78.459 11.9743 78.699 11.5353 79.182 11.2313C79.664 10.9273 80.342 10.7783 81.215 10.7853V10.6973C81.215 10.0763 80.889 9.76626 80.236 9.76626C79.771 9.76626 79.361 9.88326 79.007 10.1153L78.794 9.42726C79.232 9.15626 79.773 9.02026 80.411 9.02026C81.643 9.02026 82.261 9.67026 82.261 10.9703V12.7063C82.261 13.1773 82.284 13.5523 82.329 13.8303ZM81.241 12.2103V11.4833C80.085 11.4633 79.507 11.7803 79.507 12.4333C79.507 12.6793 79.573 12.8633 79.708 12.9863C79.843 13.1093 80.015 13.1703 80.22 13.1703C80.45 13.1703 80.665 13.0973 80.861 12.9523C81.058 12.8063 81.179 12.6213 81.224 12.3943C81.235 12.3433 81.241 12.2813 81.241 12.2103Z" fill="white"/>
<path d="M88.2842 13.8304H87.3542L87.3052 13.0734H87.2762C86.9792 13.6494 86.4732 13.9374 85.7622 13.9374C85.1942 13.9374 84.7212 13.7144 84.3462 13.2684C83.9712 12.8224 83.7842 12.2434 83.7842 11.5324C83.7842 10.7694 83.9872 10.1514 84.3952 9.67937C84.7902 9.23937 85.2742 9.01937 85.8502 9.01937C86.4832 9.01937 86.9262 9.23237 87.1782 9.65937H87.1982V6.95337H88.2472V12.5604C88.2472 13.0194 88.2592 13.4424 88.2842 13.8304ZM87.1982 11.8424V11.0564C87.1982 10.9204 87.1882 10.8104 87.1692 10.7264C87.1102 10.4744 86.9832 10.2624 86.7902 10.0914C86.5952 9.92037 86.3602 9.83437 86.0892 9.83437C85.6982 9.83437 85.3922 9.98937 85.1672 10.3004C84.9442 10.6114 84.8312 11.0084 84.8312 11.4934C84.8312 11.9594 84.9382 12.3374 85.1532 12.6284C85.3802 12.9384 85.6862 13.0934 86.0692 13.0934C86.4132 13.0934 86.6882 12.9644 86.8972 12.7054C87.0992 12.4664 87.1982 12.1784 87.1982 11.8424Z" fill="white"/>
<path d="M97.2469 11.4343C97.2469 12.1593 97.0399 12.7533 96.6259 13.2193C96.1919 13.6983 95.6179 13.9373 94.8989 13.9373C94.2079 13.9373 93.6569 13.7083 93.2449 13.2483C92.8349 12.7893 92.6299 12.2103 92.6299 11.5123C92.6299 10.7823 92.8409 10.1833 93.2649 9.71826C93.6889 9.25326 94.2589 9.02026 94.9779 9.02026C95.6689 9.02026 96.2259 9.24926 96.6459 9.70826C97.0459 10.1543 97.2469 10.7303 97.2469 11.4343ZM96.1609 11.4683C96.1609 11.0333 96.0669 10.6603 95.8799 10.3493C95.6589 9.97326 95.3469 9.78526 94.9389 9.78526C94.5189 9.78526 94.1989 9.97326 93.9779 10.3493C93.7899 10.6603 93.6969 11.0393 93.6969 11.4873C93.6969 11.9223 93.7909 12.2953 93.9779 12.6063C94.2049 12.9823 94.5209 13.1703 94.9289 13.1703C95.3289 13.1703 95.6439 12.9793 95.8699 12.5963C96.0629 12.2793 96.1609 11.9033 96.1609 11.4683Z" fill="white"/>
<path d="M102.882 13.8303H101.835V11.1303C101.835 10.2983 101.519 9.88233 100.884 9.88233C100.573 9.88233 100.322 9.99633 100.128 10.2253C99.934 10.4543 99.837 10.7243 99.837 11.0333V13.8293H98.788V10.4633C98.788 10.0493 98.776 9.60033 98.751 9.11433H99.671L99.72 9.85133H99.749C99.872 9.62233 100.054 9.43333 100.292 9.28233C100.577 9.10633 100.894 9.01733 101.243 9.01733C101.682 9.01733 102.048 9.15933 102.339 9.44433C102.702 9.79333 102.882 10.3143 102.882 11.0063V13.8303Z" fill="white"/>
<path d="M109.934 9.90138H108.78V12.1914C108.78 12.7734 108.985 13.0644 109.391 13.0644C109.579 13.0644 109.735 13.0484 109.858 13.0154L109.885 13.8104C109.678 13.8884 109.406 13.9274 109.071 13.9274C108.657 13.9274 108.335 13.8014 108.102 13.5494C107.868 13.2974 107.752 12.8734 107.752 12.2784V9.90138H107.063V9.11638H107.752V8.25238L108.779 7.94238V9.11538H109.933L109.934 9.90138Z" fill="white"/>
<path d="M115.483 13.8304H114.434V11.1504C114.434 10.3054 114.118 9.88237 113.485 9.88237C112.999 9.88237 112.667 10.1274 112.485 10.6174C112.454 10.7204 112.436 10.8464 112.436 10.9944V13.8294H111.389V6.95337H112.436V9.79437H112.456C112.786 9.27737 113.259 9.01937 113.872 9.01937C114.306 9.01937 114.665 9.16137 114.95 9.44637C115.305 9.80137 115.483 10.3294 115.483 11.0274V13.8304Z" fill="white"/>
<path d="M121.206 11.2505C121.206 11.4385 121.192 11.5965 121.167 11.7255H118.024C118.038 12.1915 118.188 12.5465 118.479 12.7925C118.745 13.0125 119.088 13.1225 119.508 13.1225C119.973 13.1225 120.397 13.0485 120.779 12.8995L120.943 13.6275C120.496 13.8215 119.97 13.9185 119.361 13.9185C118.631 13.9185 118.056 13.7035 117.64 13.2735C117.222 12.8435 117.015 12.2665 117.015 11.5425C117.015 10.8315 117.208 10.2395 117.597 9.76747C118.003 9.26347 118.552 9.01147 119.245 9.01147C119.923 9.01147 120.438 9.26347 120.786 9.76747C121.067 10.1675 121.206 10.6625 121.206 11.2505ZM120.206 10.9795C120.214 10.6685 120.145 10.4005 120.003 10.1745C119.821 9.88347 119.544 9.73747 119.169 9.73747C118.827 9.73747 118.548 9.87947 118.335 10.1645C118.161 10.3915 118.058 10.6625 118.024 10.9795H120.206Z" fill="white"/>
</g>
<defs>
<clipPath id="clip0_1719_1124">
<rect width="135" height="40" fill="white" transform="translate(-0.000976562 0.397461)"/>
</clipPath>
</defs>
</svg>
