<svg width="20" height="20" viewBox="0 0 20 20" fill="none" xmlns="http://www.w3.org/2000/svg">
<mask id="mask0_1138_3460" style="mask-type:alpha" maskUnits="userSpaceOnUse" x="0" y="0" width="20" height="20">
<rect width="20" height="20" fill="#D9D9D9"/>
</mask>
<g mask="url(#mask0_1138_3460)">
<path d="M4.9987 18.3327C4.54036 18.3327 4.148 18.1695 3.82161 17.8431C3.49523 17.5167 3.33203 17.1243 3.33203 16.666V3.33268C3.33203 2.87435 3.49523 2.48199 3.82161 2.1556C4.148 1.82921 4.54036 1.66602 4.9987 1.66602H14.9987C15.457 1.66602 15.8494 1.82921 16.1758 2.1556C16.5022 2.48199 16.6654 2.87435 16.6654 3.33268V16.666C16.6654 17.1243 16.5022 17.5167 16.1758 17.8431C15.8494 18.1695 15.457 18.3327 14.9987 18.3327H4.9987ZM4.9987 16.666H14.9987V3.33268H13.332V9.16602L11.2487 7.91602L9.16536 9.16602V3.33268H4.9987V16.666Z" fill="#8A8A8A"/>
</g>
</svg>
