<svg width="630" height="10" viewBox="0 0 630 10" fill="none" xmlns="http://www.w3.org/2000/svg">
<g clip-path="url(#clip0_1522_3708)">
<rect y="5" width="5" height="5" fill="#323232"/>
<rect x="10" y="5" width="5" height="5" fill="#323232"/>
<rect x="20" y="5" width="5" height="5" fill="#323232"/>
<rect x="30" y="5" width="5" height="5" fill="#323232"/>
<rect x="40" y="5" width="5" height="5" fill="#323232"/>
<rect x="50" y="5" width="5" height="5" fill="#323232"/>
<rect x="60" y="5" width="5" height="5" fill="#323232"/>
<rect x="70" y="5" width="5" height="5" fill="#323232"/>
<rect x="80" y="5" width="5" height="5" fill="#323232"/>
<rect x="90" y="5" width="5" height="5" fill="#323232"/>
<rect x="100" y="5" width="5" height="5" fill="#323232"/>
<rect x="110" y="5" width="5" height="5" fill="#323232"/>
<rect x="120" y="5" width="5" height="5" fill="#323232"/>
<rect x="130" y="5" width="5" height="5" fill="#323232"/>
<rect x="140" y="5" width="5" height="5" fill="#323232"/>
<rect x="150" y="5" width="5" height="5" fill="#323232"/>
<rect x="5" width="5" height="5" fill="#323232"/>
<rect x="15" width="5" height="5" fill="#323232"/>
<rect x="25" width="5" height="5" fill="#323232"/>
<rect x="35" width="5" height="5" fill="#323232"/>
<rect x="45" width="5" height="5" fill="#323232"/>
<rect x="55" width="5" height="5" fill="#323232"/>
<rect x="65" width="5" height="5" fill="#323232"/>
<rect x="75" width="5" height="5" fill="#323232"/>
<rect x="85" width="5" height="5" fill="#323232"/>
<rect x="95" width="5" height="5" fill="#323232"/>
<rect x="105" width="5" height="5" fill="#323232"/>
<rect x="115" width="5" height="5" fill="#323232"/>
<rect x="125" width="5" height="5" fill="#323232"/>
<rect x="135" width="5" height="5" fill="#323232"/>
<rect x="145" width="5" height="5" fill="#323232"/>
<rect x="155" width="5" height="5" fill="#323232"/>
<rect x="160" y="5" width="5" height="5" fill="#323232"/>
<rect x="170" y="5" width="5" height="5" fill="#323232"/>
<rect x="180" y="5" width="5" height="5" fill="#323232"/>
<rect x="190" y="5" width="5" height="5" fill="#323232"/>
<rect x="200" y="5" width="5" height="5" fill="#323232"/>
<rect x="210" y="5" width="5" height="5" fill="#323232"/>
<rect x="220" y="5" width="5" height="5" fill="#323232"/>
<rect x="230" y="5" width="5" height="5" fill="#323232"/>
<rect x="240" y="5" width="5" height="5" fill="#323232"/>
<rect x="250" y="5" width="5" height="5" fill="#323232"/>
<rect x="260" y="5" width="5" height="5" fill="#323232"/>
<rect x="270" y="5" width="5" height="5" fill="#323232"/>
<rect x="280" y="5" width="5" height="5" fill="#323232"/>
<rect x="290" y="5" width="5" height="5" fill="#323232"/>
<rect x="300" y="5" width="5" height="5" fill="#323232"/>
<rect x="310" y="5" width="5" height="5" fill="#323232"/>
<rect x="165" width="5" height="5" fill="#323232"/>
<rect x="175" width="5" height="5" fill="#323232"/>
<rect x="185" width="5" height="5" fill="#323232"/>
<rect x="195" width="5" height="5" fill="#323232"/>
<rect x="205" width="5" height="5" fill="#323232"/>
<rect x="215" width="5" height="5" fill="#323232"/>
<rect x="225" width="5" height="5" fill="#323232"/>
<rect x="235" width="5" height="5" fill="#323232"/>
<rect x="245" width="5" height="5" fill="#323232"/>
<rect x="255" width="5" height="5" fill="#323232"/>
<rect x="265" width="5" height="5" fill="#323232"/>
<rect x="275" width="5" height="5" fill="#323232"/>
<rect x="285" width="5" height="5" fill="#323232"/>
<rect x="295" width="5" height="5" fill="#323232"/>
<rect x="305" width="5" height="5" fill="#323232"/>
<rect x="315" width="5" height="5" fill="#323232"/>
<rect x="320" y="5" width="5" height="5" fill="#323232"/>
<rect x="330" y="5" width="5" height="5" fill="#323232"/>
<rect x="340" y="5" width="5" height="5" fill="#323232"/>
<rect x="350" y="5" width="5" height="5" fill="#323232"/>
<rect x="360" y="5" width="5" height="5" fill="#323232"/>
<rect x="370" y="5" width="5" height="5" fill="#323232"/>
<rect x="380" y="5" width="5" height="5" fill="#323232"/>
<rect x="390" y="5" width="5" height="5" fill="#323232"/>
<rect x="400" y="5" width="5" height="5" fill="#323232"/>
<rect x="410" y="5" width="5" height="5" fill="#323232"/>
<rect x="420" y="5" width="5" height="5" fill="#323232"/>
<rect x="430" y="5" width="5" height="5" fill="#323232"/>
<rect x="440" y="5" width="5" height="5" fill="#323232"/>
<rect x="450" y="5" width="5" height="5" fill="#323232"/>
<rect x="460" y="5" width="5" height="5" fill="#323232"/>
<rect x="470" y="5" width="5" height="5" fill="#323232"/>
<rect x="325" width="5" height="5" fill="#323232"/>
<rect x="335" width="5" height="5" fill="#323232"/>
<rect x="345" width="5" height="5" fill="#323232"/>
<rect x="355" width="5" height="5" fill="#323232"/>
<rect x="365" width="5" height="5" fill="#323232"/>
<rect x="375" width="5" height="5" fill="#323232"/>
<rect x="385" width="5" height="5" fill="#323232"/>
<rect x="395" width="5" height="5" fill="#323232"/>
<rect x="405" width="5" height="5" fill="#323232"/>
<rect x="415" width="5" height="5" fill="#323232"/>
<rect x="425" width="5" height="5" fill="#323232"/>
<rect x="435" width="5" height="5" fill="#323232"/>
<rect x="445" width="5" height="5" fill="#323232"/>
<rect x="455" width="5" height="5" fill="#323232"/>
<rect x="465" width="5" height="5" fill="#323232"/>
<rect x="475" width="5" height="5" fill="#323232"/>
<rect x="480" y="5" width="5" height="5" fill="#323232"/>
<rect x="490" y="5" width="5" height="5" fill="#323232"/>
<rect x="500" y="5" width="5" height="5" fill="#323232"/>
<rect x="510" y="5" width="5" height="5" fill="#323232"/>
<rect x="520" y="5" width="5" height="5" fill="#323232"/>
<rect x="530" y="5" width="5" height="5" fill="#323232"/>
<rect x="540" y="5" width="5" height="5" fill="#323232"/>
<rect x="550" y="5" width="5" height="5" fill="#323232"/>
<rect x="560" y="5" width="5" height="5" fill="#323232"/>
<rect x="570" y="5" width="5" height="5" fill="#323232"/>
<rect x="580" y="5" width="5" height="5" fill="#323232"/>
<rect x="590" y="5" width="5" height="5" fill="#323232"/>
<rect x="600" y="5" width="5" height="5" fill="#323232"/>
<rect x="610" y="5" width="5" height="5" fill="#323232"/>
<rect x="620" y="5" width="5" height="5" fill="#323232"/>
<rect x="485" width="5" height="5" fill="#323232"/>
<rect x="495" width="5" height="5" fill="#323232"/>
<rect x="505" width="5" height="5" fill="#323232"/>
<rect x="515" width="5" height="5" fill="#323232"/>
<rect x="525" width="5" height="5" fill="#323232"/>
<rect x="535" width="5" height="5" fill="#323232"/>
<rect x="545" width="5" height="5" fill="#323232"/>
<rect x="555" width="5" height="5" fill="#323232"/>
<rect x="565" width="5" height="5" fill="#323232"/>
<rect x="575" width="5" height="5" fill="#323232"/>
<rect x="585" width="5" height="5" fill="#323232"/>
<rect x="595" width="5" height="5" fill="#323232"/>
<rect x="605" width="5" height="5" fill="#323232"/>
<rect x="615" width="5" height="5" fill="#323232"/>
<rect x="625" width="5" height="5" fill="#323232"/>
</g>
<defs>
<clipPath id="clip0_1522_3708">
<rect width="630" height="10" fill="white"/>
</clipPath>
</defs>
</svg>
