<svg width="20" height="20" viewBox="0 0 20 20" fill="none" xmlns="http://www.w3.org/2000/svg">
<mask id="mask0_1138_3452" style="mask-type:alpha" maskUnits="userSpaceOnUse" x="0" y="0" width="20" height="20">
<rect width="20" height="20" fill="#D9D9D9"/>
</mask>
<g mask="url(#mask0_1138_3452)">
<path d="M4.16602 16.6666V15H15.8327V16.6666H4.16602ZM4.16602 13.75L3.10352 7.06246C3.07574 7.06246 3.04449 7.06593 3.00977 7.07288C2.97504 7.07982 2.94379 7.08329 2.91602 7.08329C2.56879 7.08329 2.27365 6.96176 2.0306 6.71871C1.78754 6.47565 1.66602 6.18051 1.66602 5.83329C1.66602 5.48607 1.78754 5.19093 2.0306 4.94788C2.27365 4.70482 2.56879 4.58329 2.91602 4.58329C3.26324 4.58329 3.55838 4.70482 3.80143 4.94788C4.04449 5.19093 4.16602 5.48607 4.16602 5.83329C4.16602 5.93051 4.1556 6.02079 4.13477 6.10413C4.11393 6.18746 4.08963 6.26385 4.06185 6.33329L6.66602 7.49996L9.27018 3.93746C9.1174 3.82635 8.9924 3.68051 8.89518 3.49996C8.79796 3.3194 8.74935 3.12496 8.74935 2.91663C8.74935 2.5694 8.87088 2.27426 9.11393 2.03121C9.35699 1.78815 9.65213 1.66663 9.99935 1.66663C10.3466 1.66663 10.6417 1.78815 10.8848 2.03121C11.1278 2.27426 11.2493 2.5694 11.2493 2.91663C11.2493 3.12496 11.2007 3.3194 11.1035 3.49996C11.0063 3.68051 10.8813 3.82635 10.7285 3.93746L13.3327 7.49996L15.9368 6.33329C15.9091 6.26385 15.8848 6.18746 15.8639 6.10413C15.8431 6.02079 15.8327 5.93051 15.8327 5.83329C15.8327 5.48607 15.9542 5.19093 16.1973 4.94788C16.4403 4.70482 16.7355 4.58329 17.0827 4.58329C17.4299 4.58329 17.725 4.70482 17.9681 4.94788C18.2112 5.19093 18.3327 5.48607 18.3327 5.83329C18.3327 6.18051 18.2112 6.47565 17.9681 6.71871C17.725 6.96176 17.4299 7.08329 17.0827 7.08329C17.0549 7.08329 17.0237 7.07982 16.9889 7.07288C16.9542 7.06593 16.923 7.06246 16.8952 7.06246L15.8327 13.75H4.16602Z" fill="#FFF200"/>
</g>
</svg>
