<svg width="135" height="41" viewBox="0 0 135 41" fill="none" xmlns="http://www.w3.org/2000/svg">
<g clip-path="url(#clip0_1727_1115)">
<path d="M129.998 40.3979H5.00186C2.25189 40.3979 0.00195312 38.148 0.00195312 35.398V5.39859C0.00195312 2.64862 2.25189 0.398682 5.00186 0.398682H129.998C132.748 0.398682 134.998 2.64862 134.998 5.39859V35.398C134.998 38.148 132.748 40.3979 129.998 40.3979Z" fill="black"/>
<path d="M129.998 0.398682H5.00186C2.25189 0.398682 0.00195312 2.64862 0.00195312 5.39859V35.398C0.00195312 38.148 2.25189 40.3979 5.00186 40.3979H129.998C132.748 40.3979 134.998 38.148 134.998 35.398V5.39859C134.998 2.64862 132.748 0.398682 129.998 0.398682ZM129.998 1.19826C132.314 1.19826 134.198 3.08265 134.198 5.39859V35.398C134.198 37.714 132.314 39.5984 129.998 39.5984H5.00186C2.68592 39.5984 0.802358 37.714 0.802358 35.398V5.39859C0.802358 3.08265 2.68592 1.19826 5.00186 1.19826H129.998Z" fill="#A2A2A1"/>
<path d="M106.934 30.3979H108.8V17.896H106.934V30.3979ZM123.741 22.3998L121.602 27.8197H121.538L119.318 22.3998H117.308L120.638 29.9749L118.739 34.1888H120.685L125.816 22.4002L123.741 22.3998ZM113.158 28.9778C112.548 28.9778 111.695 28.6719 111.695 27.9161C111.695 26.9512 112.757 26.5813 113.673 26.5813C114.493 26.5813 114.88 26.7579 115.378 26.9993C115.233 28.1575 114.236 28.9778 113.158 28.9778ZM113.384 22.1264C112.033 22.1264 110.634 22.7217 110.055 24.0405L111.711 24.7318C112.065 24.0405 112.724 23.8155 113.416 23.8155C114.381 23.8155 115.362 24.394 115.378 25.4236V25.5521C115.04 25.3591 114.316 25.0698 113.432 25.0698C111.646 25.0698 109.829 26.0505 109.829 27.8841C109.829 29.5567 111.293 30.6344 112.933 30.6344C114.187 30.6344 114.88 30.0715 115.313 29.4118H115.378V30.3774H117.18V25.5841C117.18 23.3646 115.522 22.1264 113.384 22.1264ZM101.852 23.9217H99.1981V19.6367H101.852C103.247 19.6367 104.039 20.7914 104.039 21.7791C104.039 22.7479 103.247 23.9217 101.852 23.9217ZM101.804 17.8963H97.333V30.3982H99.1982V25.662H101.804C103.872 25.662 105.905 24.1651 105.905 21.7796C105.905 19.3945 103.872 17.8963 101.804 17.8963ZM77.4237 28.9799C76.1346 28.9799 75.0557 27.9002 75.0557 26.4187C75.0557 24.9198 76.1346 23.8249 77.4237 23.8249C78.6964 23.8249 79.6951 24.9199 79.6951 26.4187C79.6951 27.9002 78.6964 28.9799 77.4237 28.9799ZM79.5662 23.0997H79.5017C79.083 22.6004 78.2771 22.1492 77.2627 22.1492C75.1358 22.1492 73.1866 24.0183 73.1866 26.4187C73.1866 28.8026 75.1358 30.6553 77.2627 30.6553C78.2771 30.6553 79.083 30.2041 79.5017 29.6889H79.5662V30.3006C79.5662 31.9283 78.6964 32.7978 77.2947 32.7978C76.1514 32.7978 75.4425 31.9763 75.1522 31.2837L73.5254 31.9602C73.9922 33.0875 75.2323 34.4735 77.2948 34.4735C79.4862 34.4735 81.3388 33.1844 81.3388 30.0427V22.4069H79.5663L79.5662 23.0997ZM82.6279 30.3975H84.4958V17.8957H82.6279V30.3975ZM87.2509 26.2734C87.2028 24.63 88.5243 23.7925 89.4743 23.7925C90.2157 23.7925 90.8434 24.1632 91.0536 24.6945L87.2509 26.2734ZM93.0504 24.8554C92.6961 23.9055 91.6168 22.1492 89.4098 22.1492C87.2184 22.1492 85.3982 23.873 85.3982 26.4023C85.3982 28.7866 87.2028 30.6554 89.6188 30.6554C91.568 30.6554 92.6962 29.4636 93.1636 28.7706L91.7137 27.8038C91.2302 28.5128 90.57 28.98 89.6188 28.98C88.6689 28.98 87.9919 28.5449 87.5576 27.691L93.2437 25.3391L93.0504 24.8554ZM47.7434 23.4543V25.2585H52.0608C51.9319 26.2734 51.5936 27.0144 51.078 27.53C50.4495 28.1581 49.4667 28.8511 47.7433 28.8511C45.085 28.8511 43.007 26.7085 43.007 24.0504C43.007 21.3922 45.085 19.2494 47.7433 19.2494C49.1771 19.2494 50.2241 19.8133 50.9974 20.5383L52.2705 19.2653C51.1908 18.2344 49.7572 17.4451 47.7433 17.4451C44.1019 17.4451 41.041 20.4094 41.041 24.0504C41.041 27.691 44.1019 30.6554 47.7433 30.6554C49.7084 30.6554 51.1908 30.0109 52.3506 28.8027C53.5428 27.6105 53.9134 25.9351 53.9134 24.5817C53.9134 24.1633 53.8809 23.7766 53.8165 23.4543H47.7434ZM58.8224 28.9799C57.5333 28.9799 56.4217 27.9166 56.4217 26.4023C56.4217 24.8718 57.5333 23.825 58.8224 23.825C60.111 23.825 61.2227 24.8718 61.2227 26.4023C61.2227 27.9166 60.111 28.9799 58.8224 28.9799ZM58.8224 22.1492C56.4697 22.1492 54.5529 23.9374 54.5529 26.4023C54.5529 28.8511 56.4697 30.6554 58.8224 30.6554C61.1743 30.6554 63.0915 28.8511 63.0915 26.4023C63.0915 23.9374 61.1743 22.1492 58.8224 22.1492ZM68.1352 28.9799C66.847 28.9799 65.735 27.9166 65.735 26.4023C65.735 24.8718 66.8471 23.825 68.1352 23.825C69.4243 23.825 70.5356 24.8718 70.5356 26.4023C70.5356 27.9166 69.4243 28.9799 68.1352 28.9799ZM68.1352 22.1492C65.7834 22.1492 63.8666 23.9374 63.8666 26.4023C63.8666 28.8511 65.7834 30.6554 68.1352 30.6554C70.488 30.6554 72.4048 28.8511 72.4048 26.4023C72.4048 23.9374 70.488 22.1492 68.1352 22.1492Z" fill="white"/>
<path d="M20.7169 19.8219L10.0713 31.1215C10.0717 31.1238 10.0725 31.1258 10.0729 31.1282C10.3994 32.3552 11.5201 33.2586 12.8501 33.2586C13.3818 33.2586 13.881 33.1149 14.3091 32.8625L14.3431 32.8426L26.3267 25.9276L20.7169 19.8219Z" fill="#EB3131"/>
<path d="M31.4844 17.8988L31.4742 17.8918L26.3005 14.8926L20.4717 20.0793L26.3207 25.9276L31.4671 22.9582C32.3694 22.4711 32.9819 21.5199 32.9819 20.423C32.9819 19.334 32.3777 18.3875 31.4844 17.8988Z" fill="#F6B60B"/>
<path d="M10.0693 9.67554C10.0053 9.91153 9.97168 10.1587 9.97168 10.4154V30.3828C9.97168 30.639 10.0049 30.8871 10.0697 31.1222L21.0828 20.1114L10.0693 9.67554Z" fill="#5778C5"/>
<path d="M20.7964 20.399L26.3069 14.8902L14.3368 7.95006C13.9017 7.68946 13.3939 7.53906 12.8505 7.53906C11.5205 7.53906 10.3982 8.44417 10.0717 9.6726C10.0713 9.6738 10.0713 9.67463 10.0713 9.67568L20.7964 20.399Z" fill="#3BAD49"/>
<path d="M47.3952 10.1796H44.4781V10.9015H46.6641C46.6047 11.4906 46.3703 11.953 45.975 12.289C45.5797 12.625 45.075 12.7937 44.4781 12.7937C43.8234 12.7937 43.2687 12.5656 42.8142 12.1125C42.3688 11.65 42.1423 11.0781 42.1423 10.389C42.1423 9.70006 42.3688 9.12814 42.8142 8.66568C43.2687 8.21259 43.8234 7.986 44.4781 7.986C44.8141 7.986 45.1344 8.0438 45.4281 8.17039C45.7219 8.29689 45.9578 8.47349 46.1422 8.70009L46.6968 8.1454C46.4452 7.85941 46.1266 7.6407 45.7311 7.48131C45.3358 7.32191 44.9234 7.24541 44.478 7.24541C43.6047 7.24541 42.8641 7.54851 42.2594 8.15322C41.6547 8.75941 41.3516 9.5063 41.3516 10.3891C41.3516 11.2718 41.6547 12.0203 42.2594 12.625C42.8641 13.2296 43.6047 13.5329 44.478 13.5329C45.3952 13.5329 46.1265 13.2391 46.689 12.6421C47.1843 12.1454 47.4374 11.4735 47.4374 10.6329C47.4374 10.4907 47.4202 10.339 47.3952 10.1796ZM48.5253 7.37966V13.3984H52.0393V12.6593H49.2988V10.75H51.7706V10.0281H49.2988V8.12032H52.0393V7.37963L48.5253 7.37966ZM56.9667 8.12035V7.37966H52.8308V8.12035H54.512V13.3984H55.2854V8.12035H56.9667ZM60.7111 7.37966H59.9376V13.3984H60.7111V7.37966ZM65.816 8.12035V7.37966H61.6802V8.12035H63.3613V13.3984H64.1347V8.12035H65.816ZM73.6206 8.16254C73.0237 7.54846 72.2925 7.24536 71.419 7.24536C70.5441 7.24536 69.8129 7.54845 69.216 8.15317C68.6191 8.75006 68.3254 9.49845 68.3254 10.389C68.3254 11.2796 68.6191 12.0281 69.216 12.625C69.8128 13.2296 70.5441 13.5328 71.419 13.5328C72.2846 13.5328 73.0237 13.2296 73.6206 12.625C74.2175 12.0281 74.5111 11.2796 74.5111 10.389C74.5111 9.50625 74.2174 8.75932 73.6206 8.16254ZM69.7707 8.66563C70.216 8.21254 70.7628 7.98595 71.419 7.98595C72.0737 7.98595 72.6206 8.21255 73.0581 8.66563C73.5034 9.11092 73.7221 9.69209 73.7221 10.389C73.7221 11.0875 73.5034 11.6671 73.0581 12.1124C72.6206 12.5655 72.0737 12.7936 71.419 12.7936C70.7628 12.7936 70.2159 12.5655 69.7707 12.1124C69.3347 11.6577 69.116 11.0875 69.116 10.389C69.116 9.6921 69.3347 9.12028 69.7707 8.66563ZM76.3487 9.65001L76.3159 8.489H76.3487L79.408 13.3983H80.2157V7.3796H79.4423V10.9014L79.4751 12.0624H79.4423L76.5174 7.3796H75.5752V13.3983H76.3487V9.65001Z" fill="white" stroke="white" stroke-width="0.199996" stroke-miterlimit="10"/>
</g>
<defs>
<clipPath id="clip0_1727_1115">
<rect width="135.001" height="40" fill="white" transform="translate(-0.000976562 0.397461)"/>
</clipPath>
</defs>
</svg>
