<svg width="612" height="413" viewBox="0 0 612 413" fill="none" xmlns="http://www.w3.org/2000/svg">
<path d="M16.6683 410.194C15.8497 410.194 15.147 409.987 14.5604 409.572C13.977 409.155 13.5279 408.553 13.2131 407.768C12.9015 406.979 12.7457 406.029 12.7457 404.919C12.7491 403.809 12.9065 402.864 13.218 402.085C13.5329 401.303 13.982 400.706 14.5653 400.295C15.152 399.884 15.853 399.679 16.6683 399.679C17.4837 399.679 18.1847 399.884 18.7713 400.295C19.358 400.706 19.8071 401.303 20.1186 402.085C20.4335 402.867 20.5909 403.812 20.5909 404.919C20.5909 406.033 20.4335 406.984 20.1186 407.773C19.8071 408.558 19.358 409.158 18.7713 409.572C18.188 409.987 17.487 410.194 16.6683 410.194ZM16.6683 408.638C17.3047 408.638 17.8068 408.325 18.1747 407.698C18.5459 407.068 18.7315 406.142 18.7315 404.919C18.7315 404.11 18.647 403.431 18.478 402.881C18.3089 402.33 18.0703 401.916 17.7621 401.638C17.4538 401.356 17.0893 401.215 16.6683 401.215C16.0353 401.215 15.5348 401.53 15.1669 402.16C14.799 402.786 14.6134 403.706 14.6101 404.919C14.6068 405.731 14.688 406.414 14.8537 406.967C15.0227 407.521 15.2614 407.938 15.5696 408.22C15.8778 408.499 16.2441 408.638 16.6683 408.638ZM22.3422 410V399.818H24.1866V408.454H28.671V410H22.3422ZM30.2718 410V399.818H34.09C34.8722 399.818 35.5285 399.964 36.0588 400.256C36.5924 400.547 36.9951 400.948 37.2669 401.459C37.542 401.966 37.6795 402.543 37.6795 403.189C37.6795 403.842 37.542 404.422 37.2669 404.929C36.9918 405.436 36.5858 405.835 36.0488 406.127C35.5119 406.415 34.8507 406.56 34.0652 406.56H31.5346V405.043H33.8166C34.274 405.043 34.6485 404.964 34.9402 404.805C35.2318 404.646 35.4473 404.427 35.5865 404.148C35.729 403.87 35.8002 403.55 35.8002 403.189C35.8002 402.828 35.729 402.509 35.5865 402.234C35.4473 401.959 35.2302 401.746 34.9352 401.593C34.6435 401.437 34.2673 401.359 33.8066 401.359H32.1163V410H30.2718ZM39.4544 410H37.4856L41.0701 399.818H43.3471L46.9366 410H44.9679L42.2484 401.906H42.1689L39.4544 410ZM39.519 406.008H44.8883V407.489H39.519V406.008Z" fill="#8A8A8A"/>
<path d="M92.7369 410V408.668L96.2717 405.202C96.6097 404.861 96.8915 404.558 97.1168 404.293C97.3422 404.027 97.5112 403.771 97.6239 403.522C97.7366 403.273 97.793 403.008 97.793 402.727C97.793 402.405 97.7201 402.13 97.5742 401.901C97.4284 401.669 97.2279 401.49 96.9727 401.364C96.7174 401.238 96.4274 401.175 96.1026 401.175C95.7679 401.175 95.4746 401.245 95.2227 401.384C94.9708 401.52 94.7752 401.714 94.636 401.966C94.5001 402.218 94.4322 402.518 94.4322 402.866H92.6772C92.6772 402.219 92.8247 401.658 93.1197 401.18C93.4147 400.703 93.8207 400.334 94.3377 400.072C94.8581 399.81 95.4547 399.679 96.1275 399.679C96.8103 399.679 97.4102 399.807 97.9272 400.062C98.4442 400.317 98.8453 400.667 99.1303 401.111C99.4187 401.555 99.5629 402.062 99.5629 402.632C99.5629 403.013 99.4899 403.388 99.3441 403.756C99.1983 404.124 98.9414 404.531 98.5735 404.979C98.2089 405.426 97.6969 405.968 97.0373 406.604L95.2823 408.389V408.459H99.717V410H92.7369ZM101.532 410V399.818H103.376V408.454H107.86V410H101.532ZM109.461 410V399.818H113.279C114.062 399.818 114.718 399.964 115.248 400.256C115.782 400.547 116.185 400.948 116.456 401.459C116.731 401.966 116.869 402.543 116.869 403.189C116.869 403.842 116.731 404.422 116.456 404.929C116.181 405.436 115.775 405.835 115.238 406.127C114.701 406.415 114.04 406.56 113.255 406.56H110.724V405.043H113.006C113.463 405.043 113.838 404.964 114.13 404.805C114.421 404.646 114.637 404.427 114.776 404.148C114.918 403.87 114.99 403.55 114.99 403.189C114.99 402.828 114.918 402.509 114.776 402.234C114.637 401.959 114.42 401.746 114.125 401.593C113.833 401.437 113.457 401.359 112.996 401.359H111.306V410H109.461ZM118.644 410H116.675L120.26 399.818H122.537L126.126 410H124.157L121.438 401.906H121.358L118.644 410ZM118.708 406.008H124.078V407.489H118.708V406.008Z" fill="#8A8A8A"/>
<path d="M171.389 408.111V406.644L175.709 399.818H176.932V401.906H176.186L173.278 406.515V406.594H179.309V408.111H171.389ZM176.246 410V407.663L176.266 407.007V399.818H178.006V410H176.246ZM184.469 410V399.818H186.314V408.454H190.798V410H184.469ZM192.399 410V399.818H196.217C196.999 399.818 197.655 399.964 198.186 400.256C198.719 400.547 199.122 400.948 199.394 401.459C199.669 401.966 199.806 402.543 199.806 403.189C199.806 403.842 199.669 404.422 199.394 404.929C199.119 405.436 198.713 405.835 198.176 406.127C197.639 406.415 196.978 406.56 196.192 406.56H193.662V405.043H195.944C196.401 405.043 196.775 404.964 197.067 404.805C197.359 404.646 197.574 404.427 197.713 404.148C197.856 403.87 197.927 403.55 197.927 403.189C197.927 402.828 197.856 402.509 197.713 402.234C197.574 401.959 197.357 401.746 197.062 401.593C196.77 401.437 196.394 401.359 195.934 401.359H194.243V410H192.399ZM201.581 410H199.613L203.197 399.818H205.474L209.064 410H207.095L204.375 401.906H204.296L201.581 410ZM201.646 406.008H207.015V407.489H201.646V406.008Z" fill="#8A8A8A"/>
<path d="M257.945 410.139C257.282 410.139 256.688 410.015 256.165 409.766C255.641 409.514 255.225 409.17 254.917 408.732C254.612 408.295 254.45 407.794 254.43 407.231H256.219C256.253 407.648 256.433 407.99 256.761 408.255C257.089 408.517 257.484 408.648 257.945 408.648C258.306 408.648 258.627 408.565 258.909 408.399C259.191 408.233 259.413 408.003 259.575 407.708C259.738 407.413 259.817 407.077 259.814 406.699C259.817 406.314 259.736 405.973 259.57 405.675C259.405 405.376 259.178 405.143 258.889 404.974C258.601 404.801 258.269 404.715 257.895 404.715C257.59 404.712 257.29 404.768 256.995 404.884C256.7 405 256.466 405.153 256.294 405.342L254.629 405.068L255.161 399.818H261.067V401.359H256.687L256.393 404.059H256.453C256.642 403.837 256.909 403.653 257.254 403.507C257.598 403.358 257.976 403.283 258.387 403.283C259.004 403.283 259.554 403.429 260.038 403.721C260.522 404.009 260.903 404.407 261.181 404.914C261.46 405.421 261.599 406.001 261.599 406.654C261.599 407.327 261.443 407.927 261.131 408.454C260.823 408.978 260.394 409.39 259.844 409.692C259.297 409.99 258.664 410.139 257.945 410.139ZM264.051 410.109C263.749 410.109 263.491 410.003 263.275 409.791C263.06 409.579 262.954 409.321 262.957 409.016C262.954 408.717 263.06 408.462 263.275 408.25C263.491 408.038 263.749 407.932 264.051 407.932C264.343 407.932 264.596 408.038 264.812 408.25C265.03 408.462 265.141 408.717 265.145 409.016C265.141 409.218 265.088 409.402 264.986 409.567C264.886 409.733 264.754 409.866 264.588 409.965C264.425 410.061 264.247 410.109 264.051 410.109ZM270.4 410.139C269.737 410.139 269.144 410.015 268.62 409.766C268.096 409.514 267.68 409.17 267.372 408.732C267.067 408.295 266.905 407.794 266.885 407.231H268.675C268.708 407.648 268.888 407.99 269.216 408.255C269.545 408.517 269.939 408.648 270.4 408.648C270.761 408.648 271.082 408.565 271.364 408.399C271.646 408.233 271.868 408.003 272.03 407.708C272.193 407.413 272.272 407.077 272.269 406.699C272.272 406.314 272.191 405.973 272.025 405.675C271.86 405.376 271.633 405.143 271.344 404.974C271.056 404.801 270.724 404.715 270.35 404.715C270.045 404.712 269.745 404.768 269.45 404.884C269.155 405 268.921 405.153 268.749 405.342L267.084 405.068L267.616 399.818H273.522V401.359H269.142L268.849 404.059H268.908C269.097 403.837 269.364 403.653 269.709 403.507C270.053 403.358 270.431 403.283 270.842 403.283C271.459 403.283 272.009 403.429 272.493 403.721C272.977 404.009 273.358 404.407 273.636 404.914C273.915 405.421 274.054 406.001 274.054 406.654C274.054 407.327 273.898 407.927 273.586 408.454C273.278 408.978 272.849 409.39 272.299 409.692C271.752 409.99 271.119 410.139 270.4 410.139ZM279.291 410V399.818H281.136V408.454H285.62V410H279.291ZM287.221 410V399.818H291.039C291.821 399.818 292.478 399.964 293.008 400.256C293.542 400.547 293.944 400.948 294.216 401.459C294.491 401.966 294.629 402.543 294.629 403.189C294.629 403.842 294.491 404.422 294.216 404.929C293.941 405.436 293.535 405.835 292.998 406.127C292.461 406.415 291.8 406.56 291.014 406.56H288.484V405.043H290.766C291.223 405.043 291.598 404.964 291.889 404.805C292.181 404.646 292.396 404.427 292.536 404.148C292.678 403.87 292.749 403.55 292.749 403.189C292.749 402.828 292.678 402.509 292.536 402.234C292.396 401.959 292.179 401.746 291.884 401.593C291.593 401.437 291.217 401.359 290.756 401.359H289.066V410H287.221ZM296.404 410H294.435L298.019 399.818H300.296L303.886 410H301.917L299.198 401.906H299.118L296.404 410ZM296.468 406.008H301.838V407.489H296.468V406.008Z" fill="#FFF200"/>
<path d="M352.856 410.139C352.117 410.139 351.461 410.015 350.887 409.766C350.317 409.518 349.87 409.178 349.545 408.747C349.224 408.313 349.065 407.821 349.068 407.271C349.065 406.843 349.157 406.45 349.346 406.092C349.535 405.734 349.79 405.436 350.112 405.197C350.437 404.955 350.798 404.801 351.196 404.735V404.665C350.672 404.549 350.248 404.283 349.923 403.865C349.601 403.444 349.442 402.959 349.446 402.408C349.442 401.885 349.588 401.417 349.883 401.006C350.178 400.595 350.583 400.272 351.096 400.037C351.61 399.798 352.197 399.679 352.856 399.679C353.509 399.679 354.091 399.798 354.601 400.037C355.115 400.272 355.519 400.595 355.814 401.006C356.113 401.417 356.262 401.885 356.262 402.408C356.262 402.959 356.098 403.444 355.77 403.865C355.445 404.283 355.025 404.549 354.512 404.665V404.735C354.909 404.801 355.267 404.955 355.586 405.197C355.907 405.436 356.162 405.734 356.351 406.092C356.543 406.45 356.64 406.843 356.64 407.271C356.64 407.821 356.477 408.313 356.152 408.747C355.828 409.178 355.38 409.518 354.81 409.766C354.243 410.015 353.592 410.139 352.856 410.139ZM352.856 408.717C353.237 408.717 353.569 408.653 353.85 408.523C354.132 408.391 354.351 408.205 354.507 407.967C354.663 407.728 354.742 407.453 354.745 407.141C354.742 406.817 354.658 406.53 354.492 406.281C354.329 406.029 354.106 405.832 353.821 405.69C353.539 405.547 353.217 405.476 352.856 405.476C352.492 405.476 352.167 405.547 351.882 405.69C351.597 405.832 351.371 406.029 351.206 406.281C351.043 406.53 350.964 406.817 350.967 407.141C350.964 407.453 351.04 407.728 351.196 407.967C351.351 408.202 351.57 408.386 351.852 408.518C352.137 408.651 352.472 408.717 352.856 408.717ZM352.856 404.079C353.168 404.079 353.443 404.016 353.681 403.89C353.923 403.764 354.114 403.588 354.253 403.363C354.392 403.138 354.464 402.877 354.467 402.582C354.464 402.291 354.394 402.036 354.258 401.817C354.122 401.595 353.933 401.424 353.691 401.305C353.449 401.182 353.171 401.121 352.856 401.121C352.535 401.121 352.251 401.182 352.006 401.305C351.764 401.424 351.575 401.595 351.439 401.817C351.307 402.036 351.242 402.291 351.245 402.582C351.242 402.877 351.308 403.138 351.444 403.363C351.583 403.585 351.774 403.761 352.016 403.89C352.261 404.016 352.541 404.079 352.856 404.079ZM359.102 410.109C358.8 410.109 358.542 410.003 358.326 409.791C358.111 409.579 358.005 409.321 358.008 409.016C358.005 408.717 358.111 408.462 358.326 408.25C358.542 408.038 358.8 407.932 359.102 407.932C359.393 407.932 359.647 408.038 359.862 408.25C360.081 408.462 360.192 408.717 360.195 409.016C360.192 409.218 360.139 409.402 360.036 409.567C359.937 409.733 359.804 409.866 359.639 409.965C359.476 410.061 359.297 410.109 359.102 410.109ZM362.034 410V408.668L365.569 405.202C365.907 404.861 366.188 404.558 366.414 404.293C366.639 404.027 366.808 403.771 366.921 403.522C367.033 403.273 367.09 403.008 367.09 402.727C367.09 402.405 367.017 402.13 366.871 401.901C366.725 401.669 366.525 401.49 366.27 401.364C366.014 401.238 365.724 401.175 365.4 401.175C365.065 401.175 364.771 401.245 364.52 401.384C364.268 401.52 364.072 401.714 363.933 401.966C363.797 402.218 363.729 402.518 363.729 402.866H361.974C361.974 402.219 362.122 401.658 362.417 401.18C362.712 400.703 363.118 400.334 363.635 400.072C364.155 399.81 364.752 399.679 365.424 399.679C366.107 399.679 366.707 399.807 367.224 400.062C367.741 400.317 368.142 400.667 368.427 401.111C368.716 401.555 368.86 402.062 368.86 402.632C368.86 403.013 368.787 403.388 368.641 403.756C368.495 404.124 368.238 404.531 367.87 404.979C367.506 405.426 366.994 405.968 366.334 406.604L364.579 408.389V408.459H369.014V410H362.034ZM374.301 410V399.818H376.146V408.454H380.63V410H374.301ZM382.231 410V399.818H386.049C386.831 399.818 387.487 399.964 388.018 400.256C388.551 400.547 388.954 400.948 389.226 401.459C389.501 401.966 389.638 402.543 389.638 403.189C389.638 403.842 389.501 404.422 389.226 404.929C388.951 405.436 388.545 405.835 388.008 406.127C387.471 406.415 386.81 406.56 386.024 406.56H383.494V405.043H385.776C386.233 405.043 386.607 404.964 386.899 404.805C387.191 404.646 387.406 404.427 387.545 404.148C387.688 403.87 387.759 403.55 387.759 403.189C387.759 402.828 387.688 402.509 387.545 402.234C387.406 401.959 387.189 401.746 386.894 401.593C386.603 401.437 386.226 401.359 385.766 401.359H384.075V410H382.231ZM391.413 410H389.445L393.029 399.818H395.306L398.896 410H396.927L394.207 401.906H394.128L391.413 410ZM391.478 406.008H396.847V407.489H391.478V406.008Z" fill="#FFF200"/>
<path d="M448.214 399.818V410H446.37V401.613H446.31L443.929 403.134V401.444L446.459 399.818H448.214ZM454.563 410.194C453.744 410.194 453.042 409.987 452.455 409.572C451.872 409.155 451.422 408.553 451.108 407.768C450.796 406.979 450.64 406.029 450.64 404.919C450.644 403.809 450.801 402.864 451.113 402.085C451.427 401.303 451.877 400.706 452.46 400.295C453.047 399.884 453.748 399.679 454.563 399.679C455.378 399.679 456.079 399.884 456.666 400.295C457.252 400.706 457.702 401.303 458.013 402.085C458.328 402.867 458.485 403.812 458.485 404.919C458.485 406.033 458.328 406.984 458.013 407.773C457.702 408.558 457.252 409.158 456.666 409.572C456.083 409.987 455.382 410.194 454.563 410.194ZM454.563 408.638C455.199 408.638 455.701 408.325 456.069 407.698C456.44 407.068 456.626 406.142 456.626 404.919C456.626 404.11 456.542 403.431 456.373 402.881C456.203 402.33 455.965 401.916 455.657 401.638C455.348 401.356 454.984 401.215 454.563 401.215C453.93 401.215 453.429 401.53 453.061 402.16C452.694 402.786 452.508 403.706 452.505 404.919C452.501 405.731 452.583 406.414 452.748 406.967C452.917 407.521 453.156 407.938 453.464 408.22C453.772 408.499 454.139 408.638 454.563 408.638ZM463.709 410V399.818H465.554V408.454H470.038V410H463.709ZM471.639 410V399.818H475.457C476.239 399.818 476.896 399.964 477.426 400.256C477.96 400.547 478.362 400.948 478.634 401.459C478.909 401.966 479.047 402.543 479.047 403.189C479.047 403.842 478.909 404.422 478.634 404.929C478.359 405.436 477.953 405.835 477.416 406.127C476.879 406.415 476.218 406.56 475.432 406.56H472.902V405.043H475.184C475.641 405.043 476.016 404.964 476.307 404.805C476.599 404.646 476.814 404.427 476.954 404.148C477.096 403.87 477.167 403.55 477.167 403.189C477.167 402.828 477.096 402.509 476.954 402.234C476.814 401.959 476.597 401.746 476.302 401.593C476.011 401.437 475.635 401.359 475.174 401.359H473.483V410H471.639ZM480.822 410H478.853L482.437 399.818H484.714L488.304 410H486.335L483.616 401.906H483.536L480.822 410ZM480.886 406.008H486.256V407.489H480.886V406.008Z" fill="#8A8A8A"/>
<path d="M538.046 399.818V410H536.202V401.613H536.142L533.761 403.134V401.444L536.291 399.818H538.046ZM540.631 410V408.668L544.166 405.202C544.504 404.861 544.786 404.558 545.011 404.293C545.237 404.027 545.406 403.771 545.518 403.522C545.631 403.273 545.688 403.008 545.688 402.727C545.688 402.405 545.615 402.13 545.469 401.901C545.323 401.669 545.122 401.49 544.867 401.364C544.612 401.238 544.322 401.175 543.997 401.175C543.662 401.175 543.369 401.245 543.117 401.384C542.865 401.52 542.67 401.714 542.531 401.966C542.395 402.218 542.327 402.518 542.327 402.866H540.572C540.572 402.219 540.719 401.658 541.014 401.18C541.309 400.703 541.715 400.334 542.232 400.072C542.753 399.81 543.349 399.679 544.022 399.679C544.705 399.679 545.305 399.807 545.822 400.062C546.339 400.317 546.74 400.667 547.025 401.111C547.313 401.555 547.457 402.062 547.457 402.632C547.457 403.013 547.384 403.388 547.239 403.756C547.093 404.124 546.836 404.531 546.468 404.979C546.103 405.426 545.591 405.968 544.932 406.604L543.177 408.389V408.459H547.612V410H540.631ZM552.899 410V399.818H554.743V408.454H559.228V410H552.899ZM560.828 410V399.818H564.647C565.429 399.818 566.085 399.964 566.615 400.256C567.149 400.547 567.552 400.948 567.824 401.459C568.099 401.966 568.236 402.543 568.236 403.189C568.236 403.842 568.099 404.422 567.824 404.929C567.548 405.436 567.142 405.835 566.605 406.127C566.069 406.415 565.407 406.56 564.622 406.56H562.091V405.043H564.373C564.831 405.043 565.205 404.964 565.497 404.805C565.788 404.646 566.004 404.427 566.143 404.148C566.286 403.87 566.357 403.55 566.357 403.189C566.357 402.828 566.286 402.509 566.143 402.234C566.004 401.959 565.787 401.746 565.492 401.593C565.2 401.437 564.824 401.359 564.363 401.359H562.673V410H560.828ZM570.011 410H568.042L571.627 399.818H573.904L577.493 410H575.525L572.805 401.906H572.725L570.011 410ZM570.076 406.008H575.445V407.489H570.076V406.008Z" fill="#8A8A8A"/>
<path d="M1 317L103.701 281.707C131.57 272.131 155.857 254.285 173.324 230.551C211.156 179.144 264.139 140.879 324.833 121.127L331.771 118.869C363.137 108.662 395.644 102.372 428.553 100.14L454.166 98.404C500.649 95.2526 544.204 74.5816 576.039 40.5645L614 0" stroke="#FFF200" stroke-width="3"/>
<path d="M103.701 281.707L1 317V383.5H614V0L576.039 40.5645C544.204 74.5816 500.649 95.2526 454.166 98.404L428.553 100.14C395.644 102.372 363.137 108.662 331.771 118.869L324.833 121.127C264.139 140.879 211.156 179.144 173.324 230.551C155.857 254.285 131.57 272.131 103.701 281.707Z" fill="url(#paint0_radial_3900_11496)" fill-opacity="0.3"/>
<path d="M103.701 281.707L1 317V383.5H614V0L576.039 40.5645C544.204 74.5816 500.649 95.2526 454.166 98.404L428.553 100.14C395.644 102.372 363.137 108.662 331.771 118.869L324.833 121.127C264.139 140.879 211.156 179.144 173.324 230.551C155.857 254.285 131.57 272.131 103.701 281.707Z" fill="url(#paint1_radial_3900_11496)" fill-opacity="0.8"/>
<mask id="mask0_3900_11496" style="mask-type:alpha" maskUnits="userSpaceOnUse" x="254" y="69" width="288" height="321">
<rect x="254" y="69" width="288" height="321" fill="#D9D9D9"/>
</mask>
<g mask="url(#mask0_3900_11496)">
<path d="M103.701 281.707L1 317V383.5H614V0L576.039 40.5645C544.204 74.5816 500.649 95.2526 454.166 98.404L428.553 100.14C395.644 102.372 363.137 108.662 331.771 118.869L324.833 121.127C264.139 140.879 211.156 179.144 173.324 230.551C155.857 254.285 131.57 272.131 103.701 281.707Z" fill="url(#paint2_radial_3900_11496)" fill-opacity="0.3"/>
<path d="M103.701 281.707L1 317V383.5H614V0L576.039 40.5645C544.204 74.5816 500.649 95.2526 454.166 98.404L428.553 100.14C395.644 102.372 363.137 108.662 331.771 118.869L324.833 121.127C264.139 140.879 211.156 179.144 173.324 230.551C155.857 254.285 131.57 272.131 103.701 281.707Z" fill="url(#paint3_radial_3900_11496)" fill-opacity="0.8"/>
<path d="M103.701 281.707L1 317V383.5H614V0L576.039 40.5645C544.204 74.5816 500.649 95.2526 454.166 98.404L428.553 100.14C395.644 102.372 363.137 108.662 331.771 118.869L324.833 121.127C264.139 140.879 211.156 179.144 173.324 230.551C155.857 254.285 131.57 272.131 103.701 281.707Z" fill="url(#paint4_radial_3900_11496)" fill-opacity="0.3"/>
<path d="M103.701 281.707L1 317V383.5H614V0L576.039 40.5645C544.204 74.5816 500.649 95.2526 454.166 98.404L428.553 100.14C395.644 102.372 363.137 108.662 331.771 118.869L324.833 121.127C264.139 140.879 211.156 179.144 173.324 230.551C155.857 254.285 131.57 272.131 103.701 281.707Z" fill="url(#paint5_radial_3900_11496)" fill-opacity="0.8"/>
</g>
<circle cx="7" cy="7" r="7" transform="matrix(-1 0 0 1 549 60)" fill="#FEF103"/>
<circle cx="7" cy="7" r="7" transform="matrix(-1 0 0 1 261 147)" fill="#FEF103"/>
<path d="M12 378.5H577.5" stroke="#454545"/>
<path d="M13 379V385" stroke="#454545"/>
<path d="M24.5117 379V385" stroke="#454545"/>
<path d="M36.0195 379V385" stroke="#454545"/>
<path d="M47.5312 379V385" stroke="#454545"/>
<path d="M59.0391 379V385" stroke="#454545"/>
<path d="M70.5508 379V385" stroke="#454545"/>
<path d="M82.0625 379V385" stroke="#454545"/>
<path d="M93.5703 379V385" stroke="#454545"/>
<path d="M105.082 379V385" stroke="#454545"/>
<path d="M116.594 379V385" stroke="#454545"/>
<path d="M128.102 379V385" stroke="#454545"/>
<path d="M139.613 379V385" stroke="#454545"/>
<path d="M151.121 379V385" stroke="#454545"/>
<path d="M162.633 379V385" stroke="#454545"/>
<path d="M174.145 379V385" stroke="#454545"/>
<path d="M185.652 379V385" stroke="#454545"/>
<path d="M197.164 379V385" stroke="#454545"/>
<path d="M208.672 379V385" stroke="#454545"/>
<path d="M220.184 379V385" stroke="#454545"/>
<path d="M231.695 379V385" stroke="#454545"/>
<path d="M243.203 379V385" stroke="#454545"/>
<path d="M254.715 379V385" stroke="#454545"/>
<path d="M266.223 379V385" stroke="#454545"/>
<path d="M277.734 379V385" stroke="#454545"/>
<path d="M289.246 379V385" stroke="#454545"/>
<path d="M300.754 379V385" stroke="#454545"/>
<path d="M312.266 379V385" stroke="#454545"/>
<path d="M323.777 379V385" stroke="#454545"/>
<path d="M335.285 379V385" stroke="#454545"/>
<path d="M346.797 379V385" stroke="#454545"/>
<path d="M358.305 379V385" stroke="#454545"/>
<path d="M369.816 379V385" stroke="#454545"/>
<path d="M381.328 379V385" stroke="#454545"/>
<path d="M392.836 379V385" stroke="#454545"/>
<path d="M404.348 379V385" stroke="#454545"/>
<path d="M415.855 379V385" stroke="#454545"/>
<path d="M427.367 379V385" stroke="#454545"/>
<path d="M438.879 379V385" stroke="#454545"/>
<path d="M450.387 379V385" stroke="#454545"/>
<path d="M461.898 379V385" stroke="#454545"/>
<path d="M473.406 379V385" stroke="#454545"/>
<path d="M484.918 379V385" stroke="#454545"/>
<path d="M496.43 379V385" stroke="#454545"/>
<path d="M507.938 379V385" stroke="#454545"/>
<path d="M519.449 379V385" stroke="#454545"/>
<path d="M530.961 379V385" stroke="#454545"/>
<path d="M542.469 379V385" stroke="#454545"/>
<path d="M553.98 379V385" stroke="#454545"/>
<path d="M565.488 379V385" stroke="#454545"/>
<path d="M577 379V385" stroke="#454545"/>
<path opacity="0.5" d="M254 380L254 156" stroke="url(#paint6_linear_3900_11496)" stroke-dasharray="5 5"/>
<path opacity="0.5" d="M542 381L542 69" stroke="url(#paint7_linear_3900_11496)" stroke-dasharray="5 5"/>
<path d="M279.242 78.594C279.026 78.474 278.906 78.342 278.882 78.198C278.87 78.054 278.954 77.802 279.134 77.442C279.314 77.082 279.596 76.524 279.98 75.768C280.268 75.228 280.484 74.808 280.628 74.508C280.784 74.196 280.886 73.974 280.934 73.842C280.994 73.71 281.024 73.626 281.024 73.59C281 73.482 281.012 73.398 281.06 73.338C281.108 73.266 281.186 73.206 281.294 73.158C281.354 73.098 281.45 72.99 281.582 72.834C281.726 72.678 281.858 72.492 281.978 72.276C282.086 72.024 282.212 71.766 282.356 71.502C282.5 71.238 282.692 70.908 282.932 70.512C283.172 70.104 283.484 69.576 283.868 68.928C284.108 68.508 284.372 68.082 284.66 67.65C284.948 67.206 285.254 66.768 285.578 66.336C285.71 66.168 285.83 66.036 285.938 65.94C286.046 65.832 286.154 65.784 286.262 65.796C286.406 65.796 286.568 65.844 286.748 65.94C286.94 66.036 287.114 66.162 287.27 66.318C287.426 66.474 287.54 66.642 287.612 66.822C287.672 66.918 287.696 67.122 287.684 67.434C287.672 67.746 287.648 68.124 287.612 68.568C287.576 69.012 287.534 69.486 287.486 69.99C287.45 70.482 287.396 71.064 287.324 71.736C287.252 72.408 287.18 73.11 287.108 73.842C287.048 74.574 287 75.282 286.964 75.966C286.928 76.638 286.928 77.226 286.964 77.73C286.976 77.838 286.976 77.94 286.964 78.036C286.952 78.132 286.946 78.21 286.946 78.27C286.874 78.342 286.754 78.372 286.586 78.36C286.43 78.36 286.274 78.324 286.118 78.252C285.974 78.18 285.89 78.09 285.866 77.982C285.83 77.946 285.806 77.898 285.794 77.838C285.794 77.766 285.8 77.622 285.812 77.406C285.824 77.19 285.836 76.848 285.848 76.38L285.938 73.464L285.704 73.482C285.596 73.482 285.392 73.494 285.092 73.518C284.792 73.542 284.468 73.578 284.12 73.626C283.772 73.662 283.448 73.704 283.148 73.752C282.86 73.788 282.662 73.824 282.554 73.86C282.446 73.86 282.314 73.932 282.158 74.076C282.014 74.22 281.876 74.406 281.744 74.634C281.696 74.802 281.606 74.982 281.474 75.174C281.354 75.354 281.294 75.474 281.294 75.534C281.21 75.594 281.138 75.666 281.078 75.75C281.03 75.834 281.006 75.876 281.006 75.876C281.006 75.948 280.946 76.128 280.826 76.416C280.718 76.692 280.58 77.004 280.412 77.352C280.244 77.688 280.076 77.982 279.908 78.234L279.53 78.81L279.242 78.594ZM282.968 72.798C282.968 72.798 283.028 72.786 283.148 72.762C283.28 72.738 283.43 72.714 283.598 72.69C283.778 72.654 283.94 72.636 284.084 72.636C284.588 72.516 284.954 72.438 285.182 72.402C285.41 72.354 285.566 72.33 285.65 72.33C285.746 72.33 285.83 72.348 285.902 72.384C285.95 72.444 285.992 72.48 286.028 72.492C286.076 72.504 286.1 72.51 286.1 72.51C286.112 72.486 286.13 72.348 286.154 72.096C286.178 71.844 286.208 71.532 286.244 71.16C286.292 70.788 286.334 70.404 286.37 70.008C286.418 69.6 286.454 69.228 286.478 68.892C286.502 68.544 286.52 68.28 286.532 68.1C286.544 67.872 286.556 67.668 286.568 67.488C286.58 67.296 286.586 67.2 286.586 67.2C286.514 67.2 286.358 67.332 286.118 67.596C285.89 67.86 285.632 68.208 285.344 68.64C285.056 69.072 284.786 69.534 284.534 70.026C284.414 70.254 284.3 70.458 284.192 70.638C284.084 70.818 284 70.908 283.94 70.908C283.916 70.932 283.844 71.04 283.724 71.232C283.616 71.412 283.496 71.622 283.364 71.862C283.232 72.09 283.124 72.3 283.04 72.492C282.956 72.672 282.932 72.774 282.968 72.798ZM290.241 76.902C290.157 76.83 290.049 76.614 289.917 76.254C289.797 75.894 289.677 75.474 289.557 74.994C289.449 74.502 289.359 74.052 289.287 73.644C289.239 73.404 289.185 73.2 289.125 73.032C289.077 72.864 289.035 72.726 288.999 72.618C288.939 72.402 288.921 72.222 288.945 72.078C288.969 71.934 289.053 71.82 289.197 71.736C289.257 71.7 289.329 71.676 289.413 71.664C289.509 71.64 289.581 71.634 289.629 71.646C289.773 71.694 289.905 71.916 290.025 72.312C290.145 72.696 290.253 73.206 290.349 73.842C290.397 74.214 290.457 74.532 290.529 74.796C290.601 75.06 290.637 75.216 290.637 75.264C290.685 75.36 290.739 75.456 290.799 75.552C290.871 75.636 290.955 75.63 291.051 75.534C291.099 75.486 291.195 75.378 291.339 75.21C291.495 75.042 291.645 74.862 291.789 74.67C292.041 74.334 292.239 74.058 292.383 73.842C292.539 73.626 292.713 73.398 292.905 73.158C292.989 73.038 293.085 72.906 293.193 72.762C293.301 72.618 293.409 72.486 293.517 72.366C293.637 72.234 293.745 72.156 293.841 72.132C294.129 72.084 294.285 72.144 294.309 72.312C294.333 72.48 294.225 72.732 293.985 73.068C293.889 73.212 293.811 73.35 293.751 73.482C293.703 73.602 293.655 73.686 293.607 73.734C293.511 73.926 293.361 74.172 293.157 74.472C292.953 74.76 292.755 75.03 292.563 75.282C292.371 75.522 292.239 75.678 292.167 75.75C292.119 75.798 292.011 75.888 291.843 76.02C291.687 76.152 291.537 76.32 291.393 76.524C291.105 76.8 290.877 76.968 290.709 77.028C290.541 77.088 290.385 77.046 290.241 76.902ZM297.874 77.37C297.622 77.586 297.328 77.712 296.992 77.748C296.668 77.784 296.35 77.736 296.038 77.604C295.726 77.46 295.468 77.244 295.264 76.956C295.06 76.692 294.928 76.392 294.868 76.056C294.808 75.708 294.802 75.258 294.85 74.706C294.886 74.238 295.036 73.77 295.3 73.302C295.564 72.822 295.882 72.396 296.254 72.024C296.638 71.652 297.016 71.394 297.388 71.25C297.568 71.13 297.718 71.076 297.838 71.088C297.97 71.088 298.168 71.1 298.432 71.124C298.708 71.16 298.912 71.214 299.044 71.286C299.188 71.358 299.302 71.454 299.386 71.574C299.566 71.754 299.686 71.934 299.746 72.114C299.806 72.282 299.836 72.45 299.836 72.618C299.788 72.882 299.608 73.206 299.296 73.59C298.996 73.962 298.6 74.268 298.108 74.508C297.844 74.592 297.556 74.628 297.244 74.616C296.932 74.604 296.674 74.526 296.47 74.382C296.242 74.286 296.092 74.304 296.02 74.436C295.948 74.556 295.882 74.856 295.822 75.336C295.774 75.792 295.81 76.128 295.93 76.344C296.05 76.548 296.212 76.668 296.416 76.704C296.656 76.752 296.842 76.788 296.974 76.812C297.118 76.824 297.292 76.77 297.496 76.65C297.688 76.53 297.808 76.464 297.856 76.452C297.904 76.428 297.94 76.404 297.964 76.38C298 76.344 298.078 76.266 298.198 76.146C298.282 76.062 298.348 76.002 298.396 75.966C298.444 75.918 298.498 75.894 298.558 75.894C298.618 75.894 298.672 75.924 298.72 75.984C298.768 76.032 298.816 76.068 298.864 76.092C298.984 76.092 299.008 76.164 298.936 76.308C298.876 76.452 298.75 76.626 298.558 76.83C298.366 77.022 298.138 77.202 297.874 77.37ZM297.856 73.554C297.988 73.494 298.126 73.41 298.27 73.302C298.414 73.182 298.534 73.056 298.63 72.924C298.738 72.78 298.792 72.66 298.792 72.564C298.792 72.396 298.714 72.258 298.558 72.15C298.402 72.03 298.168 72.012 297.856 72.096C297.724 72.132 297.574 72.222 297.406 72.366C297.238 72.498 297.076 72.648 296.92 72.816C296.776 72.984 296.656 73.134 296.56 73.266C296.476 73.398 296.446 73.476 296.47 73.5C296.506 73.56 296.608 73.608 296.776 73.644C296.944 73.668 297.13 73.674 297.334 73.662C297.55 73.65 297.724 73.614 297.856 73.554ZM301.658 77.442C301.622 77.454 301.562 77.448 301.478 77.424C301.394 77.4 301.31 77.37 301.226 77.334C301.142 77.298 301.088 77.268 301.064 77.244C301.016 77.196 300.968 77.124 300.92 77.028C300.884 76.932 300.884 76.794 300.92 76.614C300.956 76.422 301.076 76.176 301.28 75.876C301.34 75.756 301.412 75.576 301.496 75.336C301.58 75.096 301.664 74.844 301.748 74.58C301.844 74.304 301.928 74.058 302 73.842C302.084 73.626 302.144 73.476 302.18 73.392C302.204 73.188 302.192 73.044 302.144 72.96C302.108 72.864 302.006 72.81 301.838 72.798C301.718 72.798 301.622 72.786 301.55 72.762C301.49 72.738 301.46 72.618 301.46 72.402C301.484 72.234 301.526 72.12 301.586 72.06C301.658 71.988 301.754 71.91 301.874 71.826C301.994 71.766 302.114 71.724 302.234 71.7C302.366 71.676 302.492 71.67 302.612 71.682C302.732 71.694 302.828 71.736 302.9 71.808C302.984 71.856 303.038 71.964 303.062 72.132C303.086 72.288 303.098 72.45 303.098 72.618C303.11 72.786 303.122 72.912 303.134 72.996C303.254 72.9 303.416 72.768 303.62 72.6C303.836 72.42 304.022 72.252 304.178 72.096C304.37 71.964 304.598 71.832 304.862 71.7C305.126 71.556 305.318 71.484 305.438 71.484C305.57 71.484 305.702 71.52 305.834 71.592C305.966 71.652 306.056 71.73 306.104 71.826C306.224 72.03 306.278 72.21 306.266 72.366C306.266 72.522 306.2 72.684 306.068 72.852C305.948 73.008 305.798 73.116 305.618 73.176C305.45 73.236 305.342 73.266 305.294 73.266C305.222 73.266 305.132 73.212 305.024 73.104C304.916 72.996 304.856 72.906 304.844 72.834C304.844 72.798 304.766 72.834 304.61 72.942C304.466 73.038 304.304 73.164 304.124 73.32C303.944 73.464 303.794 73.596 303.674 73.716C303.47 73.968 303.254 74.31 303.026 74.742C302.798 75.174 302.528 75.696 302.216 76.308C302.072 76.608 301.97 76.866 301.91 77.082C301.85 77.286 301.766 77.406 301.658 77.442ZM308.576 77.478C308.48 77.502 308.354 77.514 308.198 77.514C308.042 77.502 307.904 77.484 307.784 77.46C307.676 77.424 307.622 77.388 307.622 77.352C307.622 77.292 307.592 77.262 307.532 77.262C307.532 77.262 307.502 77.238 307.442 77.19C307.394 77.142 307.316 77.094 307.208 77.046C307.1 76.878 307.046 76.698 307.046 76.506C307.046 76.302 307.1 75.984 307.208 75.552C307.244 75.252 307.358 74.904 307.55 74.508C307.754 74.1 308 73.686 308.288 73.266C308.576 72.846 308.876 72.468 309.188 72.132C309.512 71.796 309.806 71.55 310.07 71.394C310.238 71.226 310.442 71.136 310.682 71.124C310.922 71.112 311.15 71.166 311.366 71.286C311.486 71.346 311.606 71.442 311.726 71.574C311.846 71.706 311.96 71.85 312.068 72.006C312.176 72.162 312.266 72.318 312.338 72.474C312.374 72.606 312.392 72.726 312.392 72.834C312.404 72.93 312.404 73.05 312.392 73.194C312.392 73.338 312.374 73.554 312.338 73.842C312.278 74.058 312.224 74.322 312.176 74.634C312.14 74.946 312.122 75.216 312.122 75.444C312.098 75.672 312.122 75.834 312.194 75.93C312.278 76.026 312.398 76.032 312.554 75.948C312.698 75.876 312.836 75.846 312.968 75.858C313.1 75.858 313.202 75.894 313.274 75.966C313.358 76.038 313.4 76.146 313.4 76.29C313.4 76.434 313.328 76.584 313.184 76.74C313.052 76.884 312.884 77.01 312.68 77.118C312.488 77.214 312.302 77.262 312.122 77.262C311.99 77.262 311.864 77.184 311.744 77.028C311.624 76.86 311.516 76.662 311.42 76.434C311.336 76.194 311.258 75.966 311.186 75.75L311.078 75.336L310.304 76.074C310.148 76.242 309.992 76.398 309.836 76.542C309.692 76.674 309.602 76.77 309.566 76.83C309.506 76.938 309.392 77.046 309.224 77.154C309.068 77.262 308.852 77.37 308.576 77.478ZM308.63 76.416C308.834 76.296 309.068 76.122 309.332 75.894C309.596 75.654 309.854 75.396 310.106 75.12C310.358 74.832 310.568 74.568 310.736 74.328C310.94 74.052 311.096 73.794 311.204 73.554C311.312 73.314 311.39 73.086 311.438 72.87C311.39 72.738 311.312 72.6 311.204 72.456C311.096 72.3 311 72.216 310.916 72.204C310.652 72.204 310.37 72.372 310.07 72.708C309.782 73.032 309.5 73.386 309.224 73.77C309.176 73.83 309.11 73.926 309.026 74.058C308.942 74.19 308.858 74.316 308.774 74.436C308.702 74.544 308.654 74.616 308.63 74.652C308.594 74.7 308.522 74.838 308.414 75.066C308.318 75.282 308.222 75.504 308.126 75.732C308.03 75.948 307.982 76.092 307.982 76.164C307.982 76.236 307.988 76.314 308 76.398C308.024 76.482 308.084 76.536 308.18 76.56C308.276 76.584 308.426 76.536 308.63 76.416ZM316.485 81.438C316.257 81.534 316.005 81.564 315.729 81.528C315.465 81.504 315.201 81.426 314.937 81.294C314.685 81.162 314.457 81 314.253 80.808C314.169 80.724 314.079 80.592 313.983 80.412C313.899 80.244 313.833 80.082 313.785 79.926C313.749 79.77 313.755 79.68 313.803 79.656C313.851 79.62 313.917 79.608 314.001 79.62C314.085 79.632 314.163 79.65 314.235 79.674C314.319 79.71 314.361 79.752 314.361 79.8C314.433 79.86 314.559 79.95 314.739 80.07C314.919 80.202 315.057 80.28 315.153 80.304C315.405 80.388 315.591 80.424 315.711 80.412C315.831 80.4 315.939 80.358 316.035 80.286C316.227 80.118 316.377 79.914 316.485 79.674C316.593 79.434 316.707 79.104 316.827 78.684L316.881 78.45C316.977 78.006 317.085 77.532 317.205 77.028C317.325 76.524 317.427 76.128 317.511 75.84C317.571 75.564 317.589 75.378 317.565 75.282C317.553 75.186 317.499 75.204 317.403 75.336C317.355 75.348 317.289 75.372 317.205 75.408C317.133 75.444 317.049 75.486 316.953 75.534C316.809 75.606 316.665 75.678 316.521 75.75C316.377 75.81 316.257 75.852 316.161 75.876C316.065 75.876 315.975 75.882 315.891 75.894C315.807 75.894 315.765 75.894 315.765 75.894C315.669 75.954 315.495 75.948 315.243 75.876C315.003 75.792 314.787 75.672 314.595 75.516C314.487 75.372 314.409 75.264 314.361 75.192C314.313 75.108 314.283 75.024 314.271 74.94C314.259 74.844 314.253 74.7 314.253 74.508C314.241 74.316 314.331 74.04 314.523 73.68C314.727 73.308 314.973 72.96 315.261 72.636C315.489 72.408 315.783 72.174 316.143 71.934C316.503 71.694 316.863 71.496 317.223 71.34C317.595 71.184 317.901 71.112 318.141 71.124C318.261 71.136 318.375 71.154 318.483 71.178C318.591 71.19 318.711 71.244 318.843 71.34C319.011 71.424 319.131 71.514 319.203 71.61C319.275 71.706 319.371 71.892 319.491 72.168C319.563 72.36 319.617 72.552 319.653 72.744C319.689 72.924 319.707 73.098 319.707 73.266C319.707 73.446 319.683 73.608 319.635 73.752C319.587 73.896 319.521 74.01 319.437 74.094C319.413 74.094 319.383 74.1 319.347 74.112C319.323 74.112 319.299 74.118 319.275 74.13C319.203 74.154 319.143 74.166 319.095 74.166C319.059 74.166 319.017 74.208 318.969 74.292C318.921 74.364 318.885 74.46 318.861 74.58C318.849 74.652 318.831 74.724 318.807 74.796C318.795 74.868 318.777 74.934 318.753 74.994C318.729 75.054 318.705 75.108 318.681 75.156C318.669 75.192 318.663 75.222 318.663 75.246C318.663 75.282 318.657 75.312 318.645 75.336C318.633 75.36 318.615 75.39 318.591 75.426C318.555 75.486 318.519 75.564 318.483 75.66C318.459 75.744 318.447 75.834 318.447 75.93L318.375 76.128C318.339 76.248 318.303 76.356 318.267 76.452C318.243 76.548 318.231 76.608 318.231 76.632L318.159 76.992C318.135 77.076 318.105 77.154 318.069 77.226C318.045 77.286 318.021 77.382 317.997 77.514C317.973 77.634 317.943 77.832 317.907 78.108C317.667 79.14 317.427 79.914 317.187 80.43C316.947 80.958 316.713 81.294 316.485 81.438ZM315.243 74.904C315.555 75.024 315.879 75.036 316.215 74.94C316.551 74.844 316.935 74.628 317.367 74.292C317.643 74.088 317.871 73.854 318.051 73.59C318.243 73.314 318.381 73.032 318.465 72.744C318.525 72.564 318.543 72.438 318.519 72.366C318.495 72.282 318.417 72.234 318.285 72.222C318.081 72.174 317.823 72.21 317.511 72.33C317.199 72.438 316.881 72.594 316.557 72.798C316.497 72.882 316.425 72.96 316.341 73.032C316.257 73.104 316.179 73.164 316.107 73.212C316.047 73.248 316.017 73.266 316.017 73.266C316.005 73.29 315.987 73.32 315.963 73.356C315.951 73.392 315.921 73.422 315.873 73.446C315.753 73.554 315.633 73.716 315.513 73.932C315.393 74.148 315.303 74.352 315.243 74.544C315.195 74.736 315.195 74.856 315.243 74.904ZM321.929 77.568C321.461 77.376 321.155 77.112 321.011 76.776C320.879 76.428 320.855 75.894 320.939 75.174C320.963 74.802 320.975 74.556 320.975 74.436C320.975 74.316 320.909 74.196 320.777 74.076C320.741 74.028 320.675 73.962 320.579 73.878C320.495 73.794 320.459 73.722 320.471 73.662C320.459 73.578 320.465 73.488 320.489 73.392C320.513 73.284 320.549 73.23 320.597 73.23C320.645 73.23 320.693 73.218 320.741 73.194C320.801 73.17 320.855 73.17 320.903 73.194C320.951 73.194 321.005 73.2 321.065 73.212C321.125 73.224 321.155 73.254 321.155 73.302C321.203 73.386 321.281 73.398 321.389 73.338C321.497 73.266 321.611 73.11 321.731 72.87C321.851 72.678 322.007 72.486 322.199 72.294C322.403 72.102 322.601 71.928 322.793 71.772C322.997 71.604 323.165 71.484 323.297 71.412C323.357 71.388 323.447 71.358 323.567 71.322C323.687 71.286 323.813 71.256 323.945 71.232C324.089 71.208 324.209 71.202 324.305 71.214C324.521 71.226 324.701 71.286 324.845 71.394C325.001 71.502 325.145 71.628 325.277 71.772C325.433 71.88 325.529 72.024 325.565 72.204C325.613 72.384 325.625 72.576 325.601 72.78C325.577 72.984 325.523 73.17 325.439 73.338C325.403 73.458 325.301 73.602 325.133 73.77C324.965 73.938 324.773 74.1 324.557 74.256C324.341 74.412 324.143 74.526 323.963 74.598C323.807 74.634 323.603 74.664 323.351 74.688C323.111 74.712 322.883 74.724 322.667 74.724C322.463 74.712 322.325 74.688 322.253 74.652C322.169 74.604 322.103 74.67 322.055 74.85C322.007 75.03 321.971 75.288 321.947 75.624C321.923 75.888 321.923 76.08 321.947 76.2C321.971 76.32 321.995 76.404 322.019 76.452C322.103 76.536 322.217 76.644 322.361 76.776C322.517 76.896 322.733 76.914 323.009 76.83C323.237 76.77 323.459 76.614 323.675 76.362C323.903 76.11 324.113 75.906 324.305 75.75C324.353 75.666 324.431 75.618 324.539 75.606C324.659 75.582 324.785 75.588 324.917 75.624C325.049 75.708 325.103 75.81 325.079 75.93C325.067 76.038 325.007 76.206 324.899 76.434C324.863 76.518 324.779 76.626 324.647 76.758C324.527 76.878 324.389 77.004 324.233 77.136C324.089 77.256 323.957 77.352 323.837 77.424C323.477 77.616 323.141 77.718 322.829 77.73C322.517 77.73 322.217 77.676 321.929 77.568ZM322.991 73.914C323.255 73.854 323.465 73.812 323.621 73.788C323.777 73.764 323.927 73.698 324.071 73.59C324.215 73.47 324.395 73.248 324.611 72.924C324.659 72.792 324.671 72.66 324.647 72.528C324.635 72.396 324.605 72.306 324.557 72.258C324.449 72.138 324.317 72.102 324.161 72.15C324.017 72.186 323.879 72.252 323.747 72.348C323.663 72.384 323.537 72.474 323.369 72.618C323.213 72.75 323.057 72.906 322.901 73.086C322.745 73.254 322.619 73.41 322.523 73.554C322.427 73.698 322.403 73.782 322.451 73.806C322.427 73.854 322.493 73.884 322.649 73.896C322.817 73.908 322.931 73.914 322.991 73.914ZM330.324 78.594C330.108 78.474 329.988 78.342 329.964 78.198C329.952 78.054 330.036 77.802 330.216 77.442C330.396 77.082 330.678 76.524 331.062 75.768C331.35 75.228 331.566 74.808 331.71 74.508C331.866 74.196 331.968 73.974 332.016 73.842C332.076 73.71 332.106 73.626 332.106 73.59C332.082 73.482 332.094 73.398 332.142 73.338C332.19 73.266 332.268 73.206 332.376 73.158C332.436 73.098 332.532 72.99 332.664 72.834C332.808 72.678 332.94 72.492 333.06 72.276C333.168 72.024 333.294 71.766 333.438 71.502C333.582 71.238 333.774 70.908 334.014 70.512C334.254 70.104 334.566 69.576 334.95 68.928C335.19 68.508 335.454 68.082 335.742 67.65C336.03 67.206 336.336 66.768 336.66 66.336C336.792 66.168 336.912 66.036 337.02 65.94C337.128 65.832 337.236 65.784 337.344 65.796C337.488 65.796 337.65 65.844 337.83 65.94C338.022 66.036 338.196 66.162 338.352 66.318C338.508 66.474 338.622 66.642 338.694 66.822C338.754 66.918 338.778 67.122 338.766 67.434C338.754 67.746 338.73 68.124 338.694 68.568C338.658 69.012 338.616 69.486 338.568 69.99C338.532 70.482 338.478 71.064 338.406 71.736C338.334 72.408 338.262 73.11 338.19 73.842C338.13 74.574 338.082 75.282 338.046 75.966C338.01 76.638 338.01 77.226 338.046 77.73C338.058 77.838 338.058 77.94 338.046 78.036C338.034 78.132 338.028 78.21 338.028 78.27C337.956 78.342 337.836 78.372 337.668 78.36C337.512 78.36 337.356 78.324 337.2 78.252C337.056 78.18 336.972 78.09 336.948 77.982C336.912 77.946 336.888 77.898 336.876 77.838C336.876 77.766 336.882 77.622 336.894 77.406C336.906 77.19 336.918 76.848 336.93 76.38L337.02 73.464L336.786 73.482C336.678 73.482 336.474 73.494 336.174 73.518C335.874 73.542 335.55 73.578 335.202 73.626C334.854 73.662 334.53 73.704 334.23 73.752C333.942 73.788 333.744 73.824 333.636 73.86C333.528 73.86 333.396 73.932 333.24 74.076C333.096 74.22 332.958 74.406 332.826 74.634C332.778 74.802 332.688 74.982 332.556 75.174C332.436 75.354 332.376 75.474 332.376 75.534C332.292 75.594 332.22 75.666 332.16 75.75C332.112 75.834 332.088 75.876 332.088 75.876C332.088 75.948 332.028 76.128 331.908 76.416C331.8 76.692 331.662 77.004 331.494 77.352C331.326 77.688 331.158 77.982 330.99 78.234L330.612 78.81L330.324 78.594ZM334.05 72.798C334.05 72.798 334.11 72.786 334.23 72.762C334.362 72.738 334.512 72.714 334.68 72.69C334.86 72.654 335.022 72.636 335.166 72.636C335.67 72.516 336.036 72.438 336.264 72.402C336.492 72.354 336.648 72.33 336.732 72.33C336.828 72.33 336.912 72.348 336.984 72.384C337.032 72.444 337.074 72.48 337.11 72.492C337.158 72.504 337.182 72.51 337.182 72.51C337.194 72.486 337.212 72.348 337.236 72.096C337.26 71.844 337.29 71.532 337.326 71.16C337.374 70.788 337.416 70.404 337.452 70.008C337.5 69.6 337.536 69.228 337.56 68.892C337.584 68.544 337.602 68.28 337.614 68.1C337.626 67.872 337.638 67.668 337.65 67.488C337.662 67.296 337.668 67.2 337.668 67.2C337.596 67.2 337.44 67.332 337.2 67.596C336.972 67.86 336.714 68.208 336.426 68.64C336.138 69.072 335.868 69.534 335.616 70.026C335.496 70.254 335.382 70.458 335.274 70.638C335.166 70.818 335.082 70.908 335.022 70.908C334.998 70.932 334.926 71.04 334.806 71.232C334.698 71.412 334.578 71.622 334.446 71.862C334.314 72.09 334.206 72.3 334.122 72.492C334.038 72.672 334.014 72.774 334.05 72.798ZM346.113 77.172C345.873 77.172 345.675 77.124 345.519 77.028C345.363 76.92 345.231 76.746 345.123 76.506C345.075 76.338 345.033 76.152 344.997 75.948C344.973 75.732 344.961 75.534 344.961 75.354C344.961 75.162 344.979 75.036 345.015 74.976C345.063 74.928 345.081 74.844 345.069 74.724C345.069 74.592 345.069 74.454 345.069 74.31C345.057 74.07 344.997 73.938 344.889 73.914C344.793 73.878 344.649 73.914 344.457 74.022C344.241 74.154 343.959 74.334 343.611 74.562C343.263 74.778 342.897 75.018 342.513 75.282C342.141 75.546 341.787 75.822 341.451 76.11C341.187 76.398 341.025 76.62 340.965 76.776C340.917 76.92 340.845 76.992 340.749 76.992C340.653 77.04 340.569 77.046 340.497 77.01C340.437 76.962 340.347 76.89 340.227 76.794C340.143 76.698 340.059 76.608 339.975 76.524C339.891 76.428 339.837 76.356 339.813 76.308C339.813 76.248 339.831 76.122 339.867 75.93C339.903 75.738 339.945 75.546 339.993 75.354C340.053 75.162 340.095 75.036 340.119 74.976C340.179 74.976 340.227 74.916 340.263 74.796C340.311 74.676 340.383 74.544 340.479 74.4C340.503 74.256 340.563 74.064 340.659 73.824C340.767 73.572 340.863 73.35 340.947 73.158C341.115 72.87 341.229 72.63 341.289 72.438C341.361 72.246 341.409 72.006 341.433 71.718C341.421 71.67 341.433 71.628 341.469 71.592C341.505 71.544 341.547 71.52 341.595 71.52C341.691 71.424 341.805 71.4 341.937 71.448C342.069 71.484 342.189 71.574 342.297 71.718C342.513 72.006 342.597 72.306 342.549 72.618C342.513 72.918 342.321 73.35 341.973 73.914C341.889 74.106 341.823 74.256 341.775 74.364C341.739 74.46 341.721 74.538 341.721 74.598C341.721 74.598 341.781 74.556 341.901 74.472C342.033 74.388 342.177 74.292 342.333 74.184C342.501 74.064 342.633 73.974 342.729 73.914C342.789 73.854 342.927 73.746 343.143 73.59C343.359 73.434 343.587 73.284 343.827 73.14C344.079 72.984 344.265 72.894 344.385 72.87C344.481 72.822 344.583 72.78 344.691 72.744C344.799 72.696 344.877 72.672 344.925 72.672C345.021 72.672 345.141 72.726 345.285 72.834C345.441 72.93 345.585 73.05 345.717 73.194C345.849 73.326 345.927 73.44 345.951 73.536C345.951 73.584 345.951 73.632 345.951 73.68C345.963 73.728 345.975 73.776 345.987 73.824C346.035 73.98 346.059 74.19 346.059 74.454C346.071 74.718 346.065 74.958 346.041 75.174C346.017 75.39 345.975 75.516 345.915 75.552C345.915 75.552 345.915 75.57 345.915 75.606C345.927 75.63 345.957 75.642 346.005 75.642C346.005 75.69 346.005 75.72 346.005 75.732C345.945 75.732 345.921 75.786 345.933 75.894C345.945 75.99 345.981 76.098 346.041 76.218C346.113 76.338 346.185 76.434 346.257 76.506C346.401 76.65 346.461 76.788 346.437 76.92C346.413 77.04 346.305 77.124 346.113 77.172ZM353.425 77.784C353.305 77.784 353.179 77.718 353.047 77.586C352.927 77.454 352.819 77.292 352.723 77.1C352.639 76.896 352.597 76.704 352.597 76.524C352.597 76.344 352.639 76.008 352.723 75.516C352.819 75.024 352.933 74.526 353.065 74.022C353.161 73.71 353.191 73.53 353.155 73.482C353.119 73.434 352.957 73.5 352.669 73.68C352.501 73.764 352.351 73.854 352.219 73.95C352.087 74.034 351.973 74.13 351.877 74.238C351.817 74.286 351.727 74.364 351.607 74.472C351.487 74.58 351.361 74.682 351.229 74.778C351.073 74.898 350.875 75.066 350.635 75.282C350.395 75.498 350.155 75.714 349.915 75.93C349.687 76.146 349.513 76.314 349.393 76.434C349.369 76.482 349.333 76.524 349.285 76.56C349.237 76.596 349.183 76.62 349.123 76.632C349.063 76.632 348.997 76.62 348.925 76.596C348.793 76.56 348.667 76.482 348.547 76.362C348.439 76.242 348.385 76.104 348.385 75.948C348.385 75.828 348.433 75.624 348.529 75.336C348.625 75.036 348.751 74.676 348.907 74.256C349.075 73.836 349.267 73.392 349.483 72.924C349.519 72.864 349.549 72.792 349.573 72.708C349.597 72.612 349.615 72.51 349.627 72.402C349.651 72.294 349.663 72.192 349.663 72.096C349.663 72.036 349.669 71.976 349.681 71.916C349.705 71.844 349.729 71.778 349.753 71.718C349.789 71.646 349.819 71.598 349.843 71.574C349.891 71.478 349.975 71.454 350.095 71.502C350.215 71.538 350.317 71.622 350.401 71.754C350.581 71.922 350.671 72.132 350.671 72.384C350.683 72.636 350.623 72.948 350.491 73.32C350.443 73.404 350.401 73.488 350.365 73.572C350.341 73.644 350.317 73.71 350.293 73.77C350.269 73.818 350.251 73.86 350.239 73.896C350.227 73.92 350.221 73.932 350.221 73.932C350.269 73.932 350.377 73.878 350.545 73.77C350.713 73.662 350.911 73.542 351.139 73.41C351.319 73.278 351.475 73.158 351.607 73.05C351.751 72.93 351.871 72.84 351.967 72.78C352.063 72.708 352.123 72.672 352.147 72.672C352.195 72.672 352.255 72.654 352.327 72.618C352.399 72.582 352.459 72.54 352.507 72.492C352.555 72.444 352.591 72.42 352.615 72.42C352.651 72.408 352.669 72.402 352.669 72.402C352.669 72.402 352.693 72.402 352.741 72.402C352.789 72.39 352.837 72.36 352.885 72.312C352.981 72.24 353.107 72.222 353.263 72.258C353.419 72.282 353.563 72.342 353.695 72.438C353.827 72.534 353.893 72.642 353.893 72.762C353.893 72.81 353.905 72.852 353.929 72.888C353.965 72.912 353.983 72.924 353.983 72.924C354.079 72.924 354.139 73.074 354.163 73.374C354.199 73.674 354.169 73.962 354.073 74.238C354.073 74.418 354.037 74.634 353.965 74.886C353.905 75.138 353.851 75.378 353.803 75.606C353.707 75.906 353.641 76.17 353.605 76.398C353.569 76.626 353.563 76.818 353.587 76.974C353.611 77.13 353.653 77.256 353.713 77.352C353.761 77.436 353.761 77.532 353.713 77.64C353.665 77.736 353.569 77.784 353.425 77.784ZM360.25 77.964C360.13 77.844 360.01 77.682 359.89 77.478C359.77 77.262 359.674 77.016 359.602 76.74C359.578 76.644 359.566 76.512 359.566 76.344C359.578 76.176 359.578 76.056 359.566 75.984C359.53 76.068 359.47 76.158 359.386 76.254C359.314 76.338 359.242 76.41 359.17 76.47C359.122 76.518 359.014 76.614 358.846 76.758C358.678 76.89 358.51 76.998 358.342 77.082C357.946 77.334 357.616 77.472 357.352 77.496C357.1 77.52 356.86 77.388 356.632 77.1C356.44 76.944 356.302 76.77 356.218 76.578C356.146 76.386 356.146 76.122 356.218 75.786C356.242 75.366 356.302 74.958 356.398 74.562C356.494 74.154 356.692 73.614 356.992 72.942C357.244 72.45 357.436 72.09 357.568 71.862C357.7 71.622 357.784 71.478 357.82 71.43C358 71.37 358.15 71.376 358.27 71.448C358.39 71.508 358.462 71.622 358.486 71.79C358.558 71.91 358.546 72.114 358.45 72.402C358.366 72.69 358.216 73.044 358 73.464C357.832 73.872 357.676 74.28 357.532 74.688C357.4 75.096 357.322 75.444 357.298 75.732C357.274 76.02 357.346 76.194 357.514 76.254C357.622 76.314 357.808 76.296 358.072 76.2C358.348 76.104 358.654 75.864 358.99 75.48C359.338 75.096 359.674 74.514 359.998 73.734C360.094 73.494 360.166 73.284 360.214 73.104C360.262 72.912 360.292 72.702 360.304 72.474C360.28 72.33 360.286 72.204 360.322 72.096C360.37 71.976 360.466 71.874 360.61 71.79C360.658 71.73 360.724 71.676 360.808 71.628C360.892 71.568 360.946 71.568 360.97 71.628L361.258 71.61C361.306 71.598 361.336 71.628 361.348 71.7C361.372 71.76 361.414 71.814 361.474 71.862C361.606 71.97 361.642 72.204 361.582 72.564C361.522 72.924 361.354 73.428 361.078 74.076C360.85 74.568 360.694 74.94 360.61 75.192C360.538 75.444 360.496 75.69 360.484 75.93C360.484 76.146 360.526 76.35 360.61 76.542C360.694 76.734 360.826 76.908 361.006 77.064C361.138 77.148 361.21 77.244 361.222 77.352C361.246 77.46 361.252 77.586 361.24 77.73C361.216 77.838 361.144 77.928 361.024 78C360.916 78.06 360.79 78.09 360.646 78.09C360.502 78.09 360.37 78.048 360.25 77.964ZM364.141 77.478C364.045 77.502 363.919 77.514 363.763 77.514C363.607 77.502 363.469 77.484 363.349 77.46C363.241 77.424 363.187 77.388 363.187 77.352C363.187 77.292 363.157 77.262 363.097 77.262C363.097 77.262 363.067 77.238 363.007 77.19C362.959 77.142 362.881 77.094 362.773 77.046C362.665 76.878 362.611 76.698 362.611 76.506C362.611 76.302 362.665 75.984 362.773 75.552C362.809 75.252 362.923 74.904 363.115 74.508C363.319 74.1 363.565 73.686 363.853 73.266C364.141 72.846 364.441 72.468 364.753 72.132C365.077 71.796 365.371 71.55 365.635 71.394C365.803 71.226 366.007 71.136 366.247 71.124C366.487 71.112 366.715 71.166 366.931 71.286C367.051 71.346 367.171 71.442 367.291 71.574C367.411 71.706 367.525 71.85 367.633 72.006C367.741 72.162 367.831 72.318 367.903 72.474C367.939 72.606 367.957 72.726 367.957 72.834C367.969 72.93 367.969 73.05 367.957 73.194C367.957 73.338 367.939 73.554 367.903 73.842C367.843 74.058 367.789 74.322 367.741 74.634C367.705 74.946 367.687 75.216 367.687 75.444C367.663 75.672 367.687 75.834 367.759 75.93C367.843 76.026 367.963 76.032 368.119 75.948C368.263 75.876 368.401 75.846 368.533 75.858C368.665 75.858 368.767 75.894 368.839 75.966C368.923 76.038 368.965 76.146 368.965 76.29C368.965 76.434 368.893 76.584 368.749 76.74C368.617 76.884 368.449 77.01 368.245 77.118C368.053 77.214 367.867 77.262 367.687 77.262C367.555 77.262 367.429 77.184 367.309 77.028C367.189 76.86 367.081 76.662 366.985 76.434C366.901 76.194 366.823 75.966 366.751 75.75L366.643 75.336L365.869 76.074C365.713 76.242 365.557 76.398 365.401 76.542C365.257 76.674 365.167 76.77 365.131 76.83C365.071 76.938 364.957 77.046 364.789 77.154C364.633 77.262 364.417 77.37 364.141 77.478ZM364.195 76.416C364.399 76.296 364.633 76.122 364.897 75.894C365.161 75.654 365.419 75.396 365.671 75.12C365.923 74.832 366.133 74.568 366.301 74.328C366.505 74.052 366.661 73.794 366.769 73.554C366.877 73.314 366.955 73.086 367.003 72.87C366.955 72.738 366.877 72.6 366.769 72.456C366.661 72.3 366.565 72.216 366.481 72.204C366.217 72.204 365.935 72.372 365.635 72.708C365.347 73.032 365.065 73.386 364.789 73.77C364.741 73.83 364.675 73.926 364.591 74.058C364.507 74.19 364.423 74.316 364.339 74.436C364.267 74.544 364.219 74.616 364.195 74.652C364.159 74.7 364.087 74.838 363.979 75.066C363.883 75.282 363.787 75.504 363.691 75.732C363.595 75.948 363.547 76.092 363.547 76.164C363.547 76.236 363.553 76.314 363.565 76.398C363.589 76.482 363.649 76.536 363.745 76.56C363.841 76.584 363.991 76.536 364.195 76.416ZM369.853 78.162C369.697 78.102 369.583 78.012 369.511 77.892C369.439 77.76 369.397 77.574 369.385 77.334C369.385 77.19 369.409 76.998 369.457 76.758C369.505 76.518 369.559 76.242 369.619 75.93C369.619 75.906 369.619 75.882 369.619 75.858C369.631 75.822 369.637 75.798 369.637 75.786C369.649 75.738 369.661 75.666 369.673 75.57C369.697 75.474 369.715 75.402 369.727 75.354C369.739 75.294 369.745 75.294 369.745 75.354L369.871 74.868C369.931 74.652 369.991 74.436 370.051 74.22C370.111 74.004 370.165 73.818 370.213 73.662C370.261 73.494 370.291 73.398 370.303 73.374C370.303 73.374 370.327 73.308 370.375 73.176C370.423 73.032 370.471 72.894 370.519 72.762C370.723 72.198 370.909 71.724 371.077 71.34C371.245 70.944 371.395 70.656 371.527 70.476C371.539 70.44 371.557 70.398 371.581 70.35C371.605 70.29 371.623 70.242 371.635 70.206C371.647 70.11 371.659 70.038 371.671 69.99C371.695 69.93 371.725 69.876 371.761 69.828C371.785 69.78 371.821 69.72 371.869 69.648C371.917 69.564 371.971 69.462 372.031 69.342L372.103 69.144C372.175 68.988 372.265 68.814 372.373 68.622C372.481 68.43 372.559 68.292 372.607 68.208C372.655 68.1 372.727 67.974 372.823 67.83C372.919 67.674 372.991 67.572 373.039 67.524L373.021 67.506C373.081 67.398 373.153 67.338 373.237 67.326C373.333 67.302 373.435 67.29 373.543 67.29C373.711 67.29 373.807 67.314 373.831 67.362C373.855 67.41 373.867 67.518 373.867 67.686C373.867 67.866 373.861 67.998 373.849 68.082C373.849 68.154 373.801 68.238 373.705 68.334H373.723C373.747 68.31 373.741 68.34 373.705 68.424C373.669 68.496 373.639 68.55 373.615 68.586C373.591 68.646 373.561 68.712 373.525 68.784C373.501 68.856 373.471 68.91 373.435 68.946C373.399 68.994 373.309 69.156 373.165 69.432C373.033 69.696 372.877 70.008 372.697 70.368C372.529 70.728 372.367 71.076 372.211 71.412C372.055 71.748 371.941 72.006 371.869 72.186L371.779 72.456C371.755 72.504 371.743 72.54 371.743 72.564C371.707 72.648 371.671 72.732 371.635 72.816C371.599 72.9 371.563 72.972 371.527 73.032L371.221 74.076L371.131 74.454L370.969 74.85L370.861 75.192C370.837 75.264 370.819 75.33 370.807 75.39C370.795 75.45 370.771 75.498 370.735 75.534C370.735 75.546 370.729 75.564 370.717 75.588C370.717 75.6 370.717 75.612 370.717 75.624C370.669 75.816 370.615 76.086 370.555 76.434C370.495 76.782 370.453 77.148 370.429 77.532C370.429 77.544 370.423 77.556 370.411 77.568C370.411 77.58 370.411 77.592 370.411 77.604C370.375 77.856 370.315 78.024 370.231 78.108C370.147 78.192 370.021 78.21 369.853 78.162ZM380.008 78.9C379.792 78.84 379.618 78.786 379.486 78.738C379.354 78.702 379.288 78.684 379.288 78.684C379.312 78.624 379.3 78.57 379.252 78.522C379.216 78.474 379.132 78.444 379 78.432C378.82 78.324 378.652 78.186 378.496 78.018C378.352 77.862 378.232 77.706 378.136 77.55C378.04 77.394 377.968 77.262 377.92 77.154C377.836 76.974 377.794 76.866 377.794 76.83C377.806 76.782 377.878 76.728 378.01 76.668C378.142 76.572 378.238 76.542 378.298 76.578C378.37 76.614 378.454 76.734 378.55 76.938C378.706 77.214 378.97 77.424 379.342 77.568C379.726 77.712 380.152 77.778 380.62 77.766C381.1 77.742 381.556 77.634 381.988 77.442C382.432 77.262 382.708 77.076 382.816 76.884C382.936 76.68 382.894 76.422 382.69 76.11C382.654 76.014 382.612 75.936 382.564 75.876C382.516 75.816 382.438 75.738 382.33 75.642C382.234 75.546 382.072 75.39 381.844 75.174C381.664 75.09 381.496 75.012 381.34 74.94C381.196 74.868 381.04 74.79 380.872 74.706C380.68 74.61 380.446 74.472 380.17 74.292C379.906 74.1 379.654 73.89 379.414 73.662C379.174 73.434 379 73.224 378.892 73.032C378.7 72.852 378.556 72.606 378.46 72.294C378.364 71.97 378.328 71.628 378.352 71.268C378.376 70.908 378.466 70.584 378.622 70.296C378.694 70.128 378.814 69.924 378.982 69.684C379.162 69.432 379.36 69.18 379.576 68.928C379.792 68.676 380.002 68.448 380.206 68.244C380.41 68.04 380.578 67.896 380.71 67.812C380.806 67.716 380.908 67.62 381.016 67.524C381.124 67.416 381.178 67.362 381.178 67.362C381.19 67.302 381.208 67.272 381.232 67.272C381.268 67.272 381.286 67.272 381.286 67.272C381.346 67.236 381.478 67.176 381.682 67.092C381.886 67.008 382.108 66.852 382.348 66.624C383.152 66.24 383.806 65.958 384.31 65.778C384.814 65.598 385.228 65.508 385.552 65.508C385.852 65.52 386.122 65.592 386.362 65.724C386.614 65.844 386.818 66.006 386.974 66.21C387.142 66.414 387.244 66.66 387.28 66.948C387.364 67.236 387.34 67.572 387.208 67.956C387.076 68.328 386.878 68.682 386.614 69.018C386.362 69.342 386.086 69.588 385.786 69.756C385.45 69.9 385.222 69.966 385.102 69.954C384.994 69.93 384.946 69.804 384.958 69.576C384.958 69.48 384.988 69.366 385.048 69.234C385.12 69.102 385.306 68.868 385.606 68.532C385.99 67.968 386.224 67.518 386.308 67.182C386.392 66.846 386.314 66.66 386.074 66.624C386.002 66.6 385.87 66.6 385.678 66.624C385.498 66.648 385.294 66.684 385.066 66.732C384.85 66.768 384.664 66.81 384.508 66.858C384.352 66.894 384.274 66.924 384.274 66.948C384.274 66.948 384.274 66.966 384.274 67.002C384.274 67.038 384.25 67.05 384.202 67.038C384.178 67.038 384.076 67.086 383.896 67.182C383.716 67.278 383.5 67.404 383.248 67.56C382.996 67.716 382.744 67.872 382.492 68.028C382.24 68.184 382.024 68.322 381.844 68.442C381.676 68.55 381.586 68.616 381.574 68.64C381.55 68.772 381.412 68.892 381.16 69C380.92 69.144 380.698 69.354 380.494 69.63C380.302 69.906 380.086 70.248 379.846 70.656C379.642 70.932 379.498 71.232 379.414 71.556C379.33 71.868 379.33 72.12 379.414 72.312C379.474 72.504 379.66 72.75 379.972 73.05C380.284 73.35 380.674 73.638 381.142 73.914C381.55 74.142 381.916 74.37 382.24 74.598C382.564 74.814 382.828 75.024 383.032 75.228C383.248 75.432 383.392 75.612 383.464 75.768C383.608 75.972 383.71 76.182 383.77 76.398C383.842 76.602 383.878 76.8 383.878 76.992C383.89 77.184 383.872 77.358 383.824 77.514C383.74 77.706 383.59 77.904 383.374 78.108C383.17 78.312 382.996 78.408 382.852 78.396C382.72 78.432 382.618 78.474 382.546 78.522C382.486 78.57 382.414 78.612 382.33 78.648C382.246 78.696 382.066 78.744 381.79 78.792C381.526 78.84 381.232 78.87 380.908 78.882C380.584 78.906 380.284 78.912 380.008 78.9ZM387.105 77.406C386.961 77.43 386.805 77.406 386.637 77.334C386.469 77.262 386.319 77.16 386.187 77.028C386.067 76.896 385.989 76.758 385.953 76.614C385.905 76.362 385.935 76.05 386.043 75.678C386.163 75.294 386.331 74.892 386.547 74.472C386.775 74.04 387.027 73.626 387.303 73.23C387.591 72.834 387.885 72.492 388.185 72.204C388.497 71.904 388.785 71.7 389.049 71.592C389.181 71.508 389.283 71.454 389.355 71.43C389.439 71.394 389.523 71.388 389.607 71.412C389.703 71.436 389.841 71.496 390.021 71.592C390.189 71.64 390.315 71.694 390.399 71.754C390.483 71.814 390.591 71.934 390.723 72.114C390.819 72.294 390.891 72.474 390.939 72.654C390.987 72.834 391.029 73.038 391.065 73.266C391.161 73.566 391.197 73.764 391.173 73.86C391.149 73.944 391.113 74.01 391.065 74.058C390.969 74.178 390.945 74.238 390.993 74.238C390.993 74.238 390.987 74.262 390.975 74.31C390.975 74.346 390.951 74.406 390.903 74.49C390.819 74.754 390.753 75.03 390.705 75.318C390.669 75.594 390.675 75.822 390.723 76.002C390.819 76.266 390.993 76.422 391.245 76.47C391.497 76.518 391.755 76.41 392.019 76.146C392.151 76.05 392.277 75.966 392.397 75.894C392.517 75.81 392.577 75.816 392.577 75.912C392.577 75.912 392.595 75.93 392.631 75.966C392.667 75.99 392.709 76.002 392.757 76.002C392.817 76.002 392.853 76.026 392.865 76.074C392.889 76.122 392.889 76.188 392.865 76.272C392.853 76.344 392.817 76.428 392.757 76.524C392.577 76.704 392.487 76.824 392.487 76.884C392.487 76.884 392.463 76.908 392.415 76.956C392.379 76.992 392.313 77.052 392.217 77.136C392.001 77.268 391.725 77.334 391.389 77.334C391.065 77.334 390.813 77.268 390.633 77.136C390.453 77.004 390.285 76.824 390.129 76.596C389.985 76.368 389.889 76.17 389.841 76.002L389.751 75.822L389.229 76.164C389.097 76.296 388.953 76.422 388.797 76.542C388.653 76.662 388.557 76.746 388.509 76.794C388.473 76.842 388.431 76.884 388.383 76.92C388.347 76.956 388.305 76.974 388.257 76.974C388.209 76.974 388.167 76.974 388.131 76.974C388.095 76.974 388.077 76.974 388.077 76.974C388.077 77.022 388.017 77.082 387.897 77.154C387.789 77.226 387.657 77.286 387.501 77.334C387.357 77.382 387.225 77.406 387.105 77.406ZM386.925 76.434C386.997 76.434 387.123 76.38 387.303 76.272C387.495 76.152 387.705 76.014 387.933 75.858C388.173 75.702 388.383 75.546 388.563 75.39C388.755 75.234 388.887 75.114 388.959 75.03C389.007 74.982 389.085 74.904 389.193 74.796C389.301 74.676 389.397 74.574 389.481 74.49C389.757 74.178 389.949 73.836 390.057 73.464C390.165 73.08 390.153 72.78 390.021 72.564C389.973 72.432 389.913 72.36 389.841 72.348C389.769 72.336 389.619 72.378 389.391 72.474C389.247 72.558 389.067 72.72 388.851 72.96C388.647 73.188 388.425 73.458 388.185 73.77C387.957 74.07 387.741 74.382 387.537 74.706C387.333 75.03 387.165 75.33 387.033 75.606C386.901 75.882 386.835 76.098 386.835 76.254C386.835 76.302 386.847 76.344 386.871 76.38C386.907 76.416 386.925 76.434 386.925 76.434ZM393.912 78C393.684 78.06 393.498 78.012 393.354 77.856C393.222 77.7 393.144 77.46 393.12 77.136C393.096 76.812 393.132 76.428 393.228 75.984C393.288 75.84 393.336 75.702 393.372 75.57C393.408 75.426 393.426 75.312 393.426 75.228C393.45 75.108 393.498 74.934 393.57 74.706C393.642 74.466 393.72 74.22 393.804 73.968C393.888 73.716 393.966 73.494 394.038 73.302C394.122 73.098 394.176 72.972 394.2 72.924C394.248 72.924 394.29 72.882 394.326 72.798C394.362 72.714 394.38 72.63 394.38 72.546C394.38 72.45 394.398 72.342 394.434 72.222C394.482 72.102 394.53 72.018 394.578 71.97C394.578 71.91 394.59 71.844 394.614 71.772C394.65 71.688 394.668 71.622 394.668 71.574C394.668 71.526 394.68 71.478 394.704 71.43C394.74 71.382 394.758 71.334 394.758 71.286C394.842 71.13 394.95 70.884 395.082 70.548C395.226 70.2 395.376 69.816 395.532 69.396C395.7 68.976 395.856 68.562 396 68.154C396.144 67.746 396.258 67.404 396.342 67.128C396.438 66.84 396.486 66.666 396.486 66.606C396.486 66.51 396.51 66.438 396.558 66.39C396.606 66.342 396.678 66.318 396.774 66.318C396.81 66.282 396.852 66.258 396.9 66.246C396.96 66.234 397.014 66.228 397.062 66.228C397.062 66.228 397.086 66.252 397.134 66.3C397.182 66.348 397.254 66.42 397.35 66.516C397.446 66.6 397.5 66.696 397.512 66.804C397.536 66.912 397.548 67.038 397.548 67.182C397.548 67.338 397.53 67.476 397.494 67.596C397.458 67.716 397.386 67.89 397.278 68.118C397.17 68.346 397.002 68.7 396.774 69.18C396.678 69.42 396.576 69.648 396.468 69.864C396.36 70.068 396.306 70.194 396.306 70.242C396.306 70.29 396.282 70.362 396.234 70.458C396.198 70.554 396.156 70.674 396.108 70.818C396.06 70.914 395.994 71.058 395.91 71.25C395.826 71.43 395.736 71.628 395.64 71.844C395.556 72.048 395.484 72.228 395.424 72.384C395.364 72.528 395.334 72.612 395.334 72.636C395.334 72.684 395.328 72.732 395.316 72.78C395.316 72.828 395.292 72.876 395.244 72.924C395.196 72.924 395.166 72.96 395.154 73.032C395.154 73.092 395.154 73.122 395.154 73.122C395.154 73.242 395.058 73.56 394.866 74.076C394.674 74.736 394.494 75.342 394.326 75.894C394.17 76.446 394.092 76.89 394.092 77.226C394.092 77.514 394.086 77.706 394.074 77.802C394.062 77.886 394.008 77.952 393.912 78ZM396.539 77.352C396.491 77.256 396.431 77.184 396.359 77.136C396.287 77.076 396.251 77.022 396.251 76.974C396.251 76.926 396.245 76.878 396.233 76.83C396.233 76.77 396.209 76.716 396.161 76.668C396.101 76.596 396.107 76.434 396.179 76.182C396.251 75.918 396.371 75.6 396.539 75.228C396.707 74.844 396.905 74.442 397.133 74.022C397.229 73.926 397.325 73.8 397.421 73.644C397.517 73.488 397.589 73.386 397.637 73.338C397.637 73.29 397.655 73.248 397.691 73.212C397.727 73.164 397.769 73.14 397.817 73.14V73.032C397.817 72.972 397.871 72.87 397.979 72.726C398.099 72.582 398.243 72.426 398.411 72.258C398.579 72.078 398.753 71.91 398.933 71.754C399.113 71.586 399.263 71.466 399.383 71.394C399.635 71.226 399.893 71.124 400.157 71.088C400.433 71.052 400.667 71.112 400.859 71.268C400.895 71.304 400.955 71.364 401.039 71.448C401.123 71.532 401.219 71.628 401.327 71.736C401.447 71.832 401.567 71.934 401.687 72.042L402.353 72.636L402.029 73.536C401.873 74.016 401.831 74.436 401.903 74.796C401.987 75.156 402.107 75.468 402.263 75.732C402.323 75.864 402.443 75.99 402.623 76.11C402.815 76.23 402.995 76.302 403.163 76.326C403.259 76.338 403.349 76.374 403.433 76.434C403.517 76.494 403.559 76.59 403.559 76.722C403.559 76.842 403.535 76.938 403.487 77.01C403.439 77.082 403.355 77.13 403.235 77.154C402.839 77.202 402.467 77.106 402.119 76.866C401.783 76.626 401.471 76.23 401.183 75.678C401.135 75.606 401.069 75.474 400.985 75.282C400.913 75.078 400.871 74.946 400.859 74.886C400.811 74.946 400.721 75.06 400.589 75.228C400.457 75.384 400.355 75.498 400.283 75.57C399.431 76.434 398.693 77.016 398.069 77.316C397.457 77.604 396.947 77.616 396.539 77.352ZM397.187 76.344C397.187 76.428 397.313 76.428 397.565 76.344C397.829 76.248 398.111 76.08 398.411 75.84C398.819 75.492 399.227 75.108 399.635 74.688C400.055 74.268 400.391 73.878 400.643 73.518L401.039 72.87C400.919 72.594 400.787 72.408 400.643 72.312C400.511 72.204 400.397 72.15 400.301 72.15C400.145 72.15 399.911 72.294 399.599 72.582C399.299 72.87 398.975 73.254 398.627 73.734C398.279 74.214 397.949 74.742 397.637 75.318C397.517 75.558 397.409 75.792 397.313 76.02C397.229 76.236 397.187 76.344 397.187 76.344ZM405.369 77.442C405.333 77.454 405.273 77.448 405.189 77.424C405.105 77.4 405.021 77.37 404.937 77.334C404.853 77.298 404.799 77.268 404.775 77.244C404.727 77.196 404.679 77.124 404.631 77.028C404.595 76.932 404.595 76.794 404.631 76.614C404.667 76.422 404.787 76.176 404.991 75.876C405.051 75.756 405.123 75.576 405.207 75.336C405.291 75.096 405.375 74.844 405.459 74.58C405.555 74.304 405.639 74.058 405.711 73.842C405.795 73.626 405.855 73.476 405.891 73.392C405.915 73.188 405.903 73.044 405.855 72.96C405.819 72.864 405.717 72.81 405.549 72.798C405.429 72.798 405.333 72.786 405.261 72.762C405.201 72.738 405.171 72.618 405.171 72.402C405.195 72.234 405.237 72.12 405.297 72.06C405.369 71.988 405.465 71.91 405.585 71.826C405.705 71.766 405.825 71.724 405.945 71.7C406.077 71.676 406.203 71.67 406.323 71.682C406.443 71.694 406.539 71.736 406.611 71.808C406.695 71.856 406.749 71.964 406.773 72.132C406.797 72.288 406.809 72.45 406.809 72.618C406.821 72.786 406.833 72.912 406.845 72.996C406.965 72.9 407.127 72.768 407.331 72.6C407.547 72.42 407.733 72.252 407.889 72.096C408.081 71.964 408.309 71.832 408.573 71.7C408.837 71.556 409.029 71.484 409.149 71.484C409.281 71.484 409.413 71.52 409.545 71.592C409.677 71.652 409.767 71.73 409.815 71.826C409.935 72.03 409.989 72.21 409.977 72.366C409.977 72.522 409.911 72.684 409.779 72.852C409.659 73.008 409.509 73.116 409.329 73.176C409.161 73.236 409.053 73.266 409.005 73.266C408.933 73.266 408.843 73.212 408.735 73.104C408.627 72.996 408.567 72.906 408.555 72.834C408.555 72.798 408.477 72.834 408.321 72.942C408.177 73.038 408.015 73.164 407.835 73.32C407.655 73.464 407.505 73.596 407.385 73.716C407.181 73.968 406.965 74.31 406.737 74.742C406.509 75.174 406.239 75.696 405.927 76.308C405.783 76.608 405.681 76.866 405.621 77.082C405.561 77.286 405.477 77.406 405.369 77.442ZM412.017 82.14C412.005 82.164 411.951 82.14 411.855 82.068C411.771 81.996 411.687 81.906 411.603 81.798C411.519 81.702 411.483 81.618 411.495 81.546C411.447 81.378 411.453 81.168 411.513 80.916C411.585 80.676 411.735 80.316 411.963 79.836C412.083 79.644 412.191 79.416 412.287 79.152C412.395 78.888 412.515 78.624 412.647 78.36C412.707 78.252 412.839 78.018 413.043 77.658C413.247 77.298 413.463 76.89 413.691 76.434C413.931 75.978 414.129 75.546 414.285 75.138C413.973 75.462 413.685 75.792 413.421 76.128C413.157 76.452 412.911 76.716 412.683 76.92C412.467 77.124 412.263 77.22 412.071 77.208C411.915 77.172 411.747 77.118 411.567 77.046C411.399 76.962 411.285 76.818 411.225 76.614C411.177 76.35 411.159 76.014 411.171 75.606C411.195 75.198 411.273 74.58 411.405 73.752C411.501 73.344 411.555 73.032 411.567 72.816C411.591 72.588 411.585 72.42 411.549 72.312C411.513 72.204 411.447 72.108 411.351 72.024C411.195 71.88 411.111 71.754 411.099 71.646C411.099 71.526 411.183 71.424 411.351 71.34C411.603 71.28 411.783 71.262 411.891 71.286C411.999 71.298 412.131 71.394 412.287 71.574C412.383 71.73 412.467 71.88 412.539 72.024C412.623 72.156 412.665 72.39 412.665 72.726C412.665 72.87 412.641 73.062 412.593 73.302C412.557 73.542 412.521 73.77 412.485 73.986C412.461 74.19 412.443 74.334 412.431 74.418C412.311 74.862 412.233 75.246 412.197 75.57C412.173 75.894 412.191 76.056 412.251 76.056C412.491 75.864 412.719 75.648 412.935 75.408C413.163 75.156 413.397 74.874 413.637 74.562C413.889 74.238 414.165 73.872 414.465 73.464C414.573 73.26 414.681 73.062 414.789 72.87C414.897 72.678 414.987 72.48 415.059 72.276C415.131 72.12 415.203 71.994 415.275 71.898C415.347 71.802 415.407 71.748 415.455 71.736C415.515 71.712 415.587 71.718 415.671 71.754C415.767 71.79 415.851 71.832 415.923 71.88C416.007 71.916 416.049 71.946 416.049 71.97C416.061 71.982 416.091 71.994 416.139 72.006C416.187 72.018 416.235 72.03 416.283 72.042C416.343 72.042 416.373 72.06 416.373 72.096C416.373 72.12 416.343 72.198 416.283 72.33C416.235 72.462 416.175 72.612 416.103 72.78C416.043 72.936 415.989 73.08 415.941 73.212C415.893 73.332 415.875 73.404 415.887 73.428C415.911 73.452 415.893 73.542 415.833 73.698C415.773 73.842 415.701 74.004 415.617 74.184C415.545 74.364 415.479 74.526 415.419 74.67C415.299 75.066 415.161 75.462 415.005 75.858C414.849 76.242 414.663 76.626 414.447 77.01C414.375 77.154 414.267 77.376 414.123 77.676C413.991 77.976 413.859 78.27 413.727 78.558C413.607 78.858 413.511 79.086 413.439 79.242C413.391 79.338 413.319 79.488 413.223 79.692C413.139 79.908 413.043 80.142 412.935 80.394C412.839 80.646 412.743 80.88 412.647 81.096C412.551 81.324 412.479 81.498 412.431 81.618C412.407 81.846 412.353 82.014 412.269 82.122C412.221 82.122 412.167 82.122 412.107 82.122C412.047 82.134 412.017 82.14 412.017 82.14Z" fill="url(#paint8_linear_3900_11496)"/>
<defs>
<radialGradient id="paint0_radial_3900_11496" cx="0" cy="0" r="1" gradientUnits="userSpaceOnUse" gradientTransform="translate(307.5) rotate(90) scale(383.5 613)">
<stop stop-color="#FFF30C"/>
<stop offset="1" stop-opacity="0"/>
</radialGradient>
<radialGradient id="paint1_radial_3900_11496" cx="0" cy="0" r="1" gradientUnits="userSpaceOnUse" gradientTransform="translate(297.816 0.568181) rotate(90) scale(397.701 475.047)">
<stop stop-color="#FFF200" stop-opacity="0.4"/>
<stop offset="1" stop-color="#202020" stop-opacity="0"/>
</radialGradient>
<radialGradient id="paint2_radial_3900_11496" cx="0" cy="0" r="1" gradientUnits="userSpaceOnUse" gradientTransform="translate(307.5) rotate(90) scale(383.5 613)">
<stop stop-color="#FFF30C"/>
<stop offset="1" stop-opacity="0"/>
</radialGradient>
<radialGradient id="paint3_radial_3900_11496" cx="0" cy="0" r="1" gradientUnits="userSpaceOnUse" gradientTransform="translate(297.816 0.568181) rotate(90) scale(397.701 475.047)">
<stop stop-color="#FFF200" stop-opacity="0.4"/>
<stop offset="1" stop-color="#202020" stop-opacity="0"/>
</radialGradient>
<radialGradient id="paint4_radial_3900_11496" cx="0" cy="0" r="1" gradientUnits="userSpaceOnUse" gradientTransform="translate(307.5) rotate(90) scale(383.5 613)">
<stop stop-color="#FFF30C"/>
<stop offset="1" stop-opacity="0"/>
</radialGradient>
<radialGradient id="paint5_radial_3900_11496" cx="0" cy="0" r="1" gradientUnits="userSpaceOnUse" gradientTransform="translate(297.816 0.568181) rotate(90) scale(397.701 475.047)">
<stop stop-color="#FFF200" stop-opacity="0.4"/>
<stop offset="1" stop-color="#202020" stop-opacity="0"/>
</radialGradient>
<linearGradient id="paint6_linear_3900_11496" x1="254.5" y1="156" x2="254.5" y2="380" gradientUnits="userSpaceOnUse">
<stop stop-color="#FFF200"/>
<stop offset="1" stop-color="#FFF200" stop-opacity="0.25"/>
</linearGradient>
<linearGradient id="paint7_linear_3900_11496" x1="542.5" y1="69" x2="542.5" y2="381" gradientUnits="userSpaceOnUse">
<stop stop-color="#FFF200"/>
<stop offset="1" stop-color="#FFF200" stop-opacity="0.25"/>
</linearGradient>
<linearGradient id="paint8_linear_3900_11496" x1="278" y1="71.5" x2="416" y2="71.5" gradientUnits="userSpaceOnUse">
<stop stop-color="#FFFBA8"/>
<stop offset="1" stop-color="#FFF200"/>
</linearGradient>
</defs>
</svg>
