<svg width="482" height="180" viewBox="0 0 482 180" fill="none" xmlns="http://www.w3.org/2000/svg">
<g clip-path="url(#clip0_3766_10607)">
<g filter="url(#filter0_i_3766_10607)">
<rect width="482" height="252" rx="40" fill="#1F1F20"/>
<rect width="482" height="252" rx="40" fill="url(#paint0_radial_3766_10607)" fill-opacity="0.3"/>
<rect width="482" height="252" rx="40" fill="url(#paint1_radial_3766_10607)" fill-opacity="0.1"/>
<rect width="482" height="252" rx="40" fill="url(#paint2_radial_3766_10607)" fill-opacity="0.2"/>
<rect x="0.5" y="0.5" width="481" height="251" rx="39.5" stroke="url(#paint3_linear_3766_10607)" style="mix-blend-mode:overlay"/>
<path opacity="0.2" d="M447.5 32.5V125.5H417.1V84.458L416.248 85.3037L345.99 155.021L345.989 155.021C336.926 164.065 325.933 168.583 312.98 168.583C300.028 168.583 289.034 164.066 279.971 155.021L261.523 136.612C258.542 133.637 254.747 132.158 250.18 132.158C245.613 132.158 241.818 133.638 238.837 136.612L155.979 219.294L134.708 198.066L217.563 115.388C226.627 106.344 237.62 101.825 250.572 101.825C263.525 101.825 274.519 106.344 283.582 115.388L301.637 133.404C304.867 136.628 308.722 138.25 313.176 138.25C317.63 138.25 321.485 136.628 324.716 133.404L394.581 63.6875L395.437 62.833H354.3V32.5H447.5Z" stroke="url(#paint4_linear_3766_10607)"/>
<path d="M178.237 105H144.917V99.624C144.917 97.4213 145.253 95.536 145.925 93.968C146.634 92.4 147.773 91.0747 149.341 89.992C150.946 88.872 153.056 87.864 155.669 86.968L165.301 83.832C166.458 83.4213 167.354 83.0107 167.989 82.6C168.661 82.1893 169.146 81.704 169.445 81.144C169.744 80.584 169.893 79.8933 169.893 79.072C169.893 78.1387 169.669 77.336 169.221 76.664C168.81 75.992 168.045 75.488 166.925 75.152C165.805 74.7787 164.218 74.592 162.165 74.592C159.85 74.592 158.04 74.8347 156.733 75.32C155.464 75.768 154.549 76.4587 153.989 77.392C153.466 78.288 153.205 79.4267 153.205 80.808V81.536H144.973V80.808C144.973 78.344 145.552 76.0667 146.709 73.976C147.904 71.8853 149.77 70.1867 152.309 68.88C154.885 67.5733 158.264 66.92 162.445 66.92C166.216 66.92 169.258 67.4613 171.573 68.544C173.925 69.5893 175.642 71.0267 176.725 72.856C177.808 74.6853 178.349 76.7947 178.349 79.184C178.349 81.424 177.882 83.3093 176.949 84.84C176.053 86.3333 174.784 87.584 173.141 88.592C171.498 89.5627 169.557 90.3653 167.317 91L159.141 93.24C157.909 93.576 156.882 93.968 156.061 94.416C155.277 94.8267 154.698 95.3493 154.325 95.984C153.952 96.5813 153.765 97.384 153.765 98.392L163.565 97.44H178.237V105ZM199.828 105.56C195.796 105.56 192.38 104.757 189.58 103.152C186.817 101.547 184.708 99.3067 183.252 96.432C181.796 93.52 181.068 90.1227 181.068 86.24C181.068 82.32 181.796 78.9227 183.252 76.048C184.708 73.1733 186.817 70.9333 189.58 69.328C192.38 67.7227 195.796 66.92 199.828 66.92C203.86 66.92 207.257 67.7227 210.02 69.328C212.82 70.9333 214.948 73.1733 216.404 76.048C217.86 78.9227 218.588 82.32 218.588 86.24C218.588 90.1227 217.86 93.52 216.404 96.432C214.948 99.3067 212.82 101.547 210.02 103.152C207.257 104.757 203.86 105.56 199.828 105.56ZM199.828 97.384C202.217 97.384 204.121 97.0293 205.54 96.32C206.959 95.5733 207.985 94.3787 208.62 92.736C209.255 91.0933 209.572 88.928 209.572 86.24C209.572 83.552 209.255 81.3867 208.62 79.744C207.985 78.1013 206.959 76.9253 205.54 76.216C204.121 75.4693 202.217 75.096 199.828 75.096C197.439 75.096 195.535 75.4693 194.116 76.216C192.697 76.9253 191.671 78.1013 191.036 79.744C190.401 81.3867 190.084 83.552 190.084 86.24C190.084 88.928 190.401 91.0933 191.036 92.736C191.671 94.3787 192.697 95.5733 194.116 96.32C195.535 97.0293 197.439 97.384 199.828 97.384ZM232.406 105H221.598V95.2H232.406V105ZM251.33 105H241.642C241.642 101.64 241.978 98.6347 242.65 95.984C243.359 93.296 244.293 90.9253 245.45 88.872C246.645 86.7813 247.97 84.9333 249.426 83.328C250.882 81.7227 252.375 80.304 253.906 79.072C255.474 77.8027 256.949 76.664 258.33 75.656V75.04H234.642V67.48H267.066V74.256C264.453 76.72 262.157 79.0533 260.178 81.256C258.237 83.4587 256.594 85.7173 255.25 88.032C253.943 90.3093 252.954 92.8293 252.282 95.592C251.647 98.3547 251.33 101.491 251.33 105ZM301.16 105H291.248L284.248 94.864H273.944V87.36H284.192L291.36 76.944H301.328L291.08 90.496L301.16 105ZM277.808 105H269.408V67.48H277.808V105ZM327.69 98.728H320.466V73.752H327.69V98.728ZM336.594 89.712H311.562V82.768H336.594V89.712ZM152.529 145H149.689V118.2H152.769L166.849 136.4L170.089 140.88H170.329L170.249 136.48V118.2H173.089V145H169.969L156.009 127L152.649 122.48H152.449L152.529 126.96V145ZM187.253 145.4C185.146 145.4 183.306 144.987 181.733 144.16C180.16 143.307 178.946 142.107 178.093 140.56C177.266 139.013 176.853 137.2 176.853 135.12C176.853 133.12 177.266 131.347 178.093 129.8C178.946 128.253 180.146 127.04 181.693 126.16C183.266 125.28 185.106 124.84 187.213 124.84C189.16 124.84 190.866 125.2 192.333 125.92C193.826 126.64 195 127.693 195.853 129.08C196.706 130.44 197.133 132.107 197.133 134.08C197.133 134.427 197.106 134.76 197.053 135.08C197.026 135.373 196.986 135.653 196.933 135.92H178.613V134.16H195.213L194.373 135.2C194.4 134.933 194.413 134.667 194.413 134.4C194.44 134.133 194.453 133.853 194.453 133.56C194.453 131.48 193.826 129.907 192.573 128.84C191.32 127.747 189.52 127.2 187.173 127.2C184.48 127.2 182.533 127.88 181.333 129.24C180.133 130.573 179.533 132.413 179.533 134.76V135.4C179.533 137.773 180.133 139.64 181.333 141C182.533 142.36 184.493 143.04 187.213 143.04C189.533 143.04 191.24 142.64 192.333 141.84C193.453 141.013 194.013 139.88 194.013 138.44V138.16H196.853V138.44C196.853 139.827 196.44 141.04 195.613 142.08C194.786 143.12 193.64 143.933 192.173 144.52C190.733 145.107 189.093 145.4 187.253 145.4ZM208.74 145H205.22L198.9 125.24H201.82L206.02 138.32L207.02 142.52H207.26L208.62 138.08L213.82 125.24H217.46L222.62 138.08L223.98 142.48H224.22L225.18 138.32L229.42 125.24H232.34L225.94 145H222.38L217.26 132.08L215.7 127.68H215.5L213.94 132.08L208.74 145ZM251.783 145.4C249.223 145.4 247.143 144.96 245.543 144.08C243.969 143.173 242.823 141.973 242.103 140.48C241.409 138.96 241.063 137.253 241.063 135.36V134H244.023V135.48C244.023 137.027 244.276 138.333 244.783 139.4C245.289 140.467 246.103 141.267 247.223 141.8C248.369 142.333 249.889 142.6 251.783 142.6C253.676 142.6 255.183 142.347 256.303 141.84C257.449 141.307 258.276 140.52 258.783 139.48C259.289 138.413 259.543 137.12 259.543 135.6V118.2H262.503V135.44C262.503 137.333 262.143 139.027 261.423 140.52C260.703 142.013 259.556 143.2 257.983 144.08C256.409 144.96 254.343 145.4 251.783 145.4ZM276.791 145.4C274.658 145.4 272.778 144.96 271.151 144.08C269.551 143.2 268.298 141.987 267.391 140.44C266.511 138.893 266.071 137.12 266.071 135.12C266.071 133.12 266.511 131.347 267.391 129.8C268.298 128.253 269.551 127.04 271.151 126.16C272.778 125.28 274.658 124.84 276.791 124.84C278.978 124.84 280.871 125.28 282.471 126.16C284.071 127.04 285.311 128.253 286.191 129.8C287.098 131.347 287.551 133.12 287.551 135.12C287.551 137.12 287.098 138.893 286.191 140.44C285.311 141.987 284.071 143.2 282.471 144.08C280.871 144.96 278.978 145.4 276.791 145.4ZM276.791 142.84C279.538 142.84 281.551 142.16 282.831 140.8C284.111 139.413 284.751 137.52 284.751 135.12C284.751 132.72 284.111 130.84 282.831 129.48C281.551 128.093 279.538 127.4 276.791 127.4C274.098 127.4 272.098 128.093 270.791 129.48C269.511 130.84 268.871 132.72 268.871 135.12C268.871 137.52 269.511 139.413 270.791 140.8C272.098 142.16 274.098 142.84 276.791 142.84ZM302.57 145.4C300.356 145.4 298.503 144.853 297.01 143.76C295.543 142.667 294.57 141.133 294.09 139.16H293.25L293.41 135.44H294.17C294.17 136.987 294.476 138.32 295.09 139.44C295.73 140.533 296.623 141.373 297.77 141.96C298.916 142.52 300.276 142.8 301.85 142.8C303.45 142.8 304.823 142.56 305.97 142.08C307.116 141.573 307.996 140.773 308.61 139.68C309.223 138.56 309.53 137.04 309.53 135.12C309.53 133.2 309.21 131.693 308.57 130.6C307.956 129.48 307.076 128.68 305.93 128.2C304.81 127.72 303.49 127.48 301.97 127.48C299.463 127.48 297.53 128.147 296.17 129.48C294.836 130.787 294.17 132.653 294.17 135.08H293.41V130.76H294.33C294.783 129.053 295.716 127.64 297.13 126.52C298.543 125.4 300.436 124.84 302.81 124.84C304.89 124.84 306.636 125.28 308.05 126.16C309.463 127.04 310.543 128.253 311.29 129.8C312.036 131.347 312.41 133.12 312.41 135.12C312.41 137.12 312.036 138.893 311.29 140.44C310.543 141.987 309.436 143.2 307.97 144.08C306.53 144.96 304.73 145.4 302.57 145.4ZM293.89 145H291.33V118.2H294.17V138L293.89 138.52V145ZM324.58 145.4C321.567 145.4 319.207 144.813 317.5 143.64C315.82 142.44 314.98 140.693 314.98 138.4V138.32H317.82V138.56C317.82 140.213 318.34 141.373 319.38 142.04C320.447 142.707 322.193 143.04 324.62 143.04C326.833 143.04 328.38 142.773 329.26 142.24C330.14 141.68 330.58 140.84 330.58 139.72C330.58 138.68 330.233 137.947 329.54 137.52C328.873 137.067 327.713 136.707 326.06 136.44L320.78 135.68C318.967 135.44 317.527 134.933 316.46 134.16C315.42 133.387 314.9 132.173 314.9 130.52C314.9 129.347 315.247 128.347 315.94 127.52C316.66 126.667 317.673 126.013 318.98 125.56C320.287 125.08 321.847 124.84 323.66 124.84C325.553 124.84 327.193 125.107 328.58 125.64C329.993 126.147 331.087 126.92 331.86 127.96C332.633 129 333.02 130.307 333.02 131.88V131.96H330.18V131.76C330.18 130.747 329.98 129.907 329.58 129.24C329.18 128.573 328.5 128.067 327.54 127.72C326.58 127.373 325.26 127.2 323.58 127.2C321.5 127.2 319.993 127.467 319.06 128C318.153 128.533 317.7 129.387 317.7 130.56C317.7 131.573 318.007 132.307 318.62 132.76C319.26 133.187 320.393 133.533 322.02 133.8L326.86 134.48C328.967 134.773 330.58 135.32 331.7 136.12C332.82 136.92 333.38 138.12 333.38 139.72C333.38 140.947 332.993 141.987 332.22 142.84C331.473 143.693 330.433 144.333 329.1 144.76C327.793 145.187 326.287 145.4 324.58 145.4Z" fill="url(#paint5_linear_3766_10607)"/>
</g>
</g>
<defs>
<filter id="filter0_i_3766_10607" x="0" y="0" width="482" height="252" filterUnits="userSpaceOnUse" color-interpolation-filters="sRGB">
<feFlood flood-opacity="0" result="BackgroundImageFix"/>
<feBlend mode="normal" in="SourceGraphic" in2="BackgroundImageFix" result="shape"/>
<feColorMatrix in="SourceAlpha" type="matrix" values="0 0 0 0 0 0 0 0 0 0 0 0 0 0 0 0 0 0 127 0" result="hardAlpha"/>
<feOffset/>
<feGaussianBlur stdDeviation="3"/>
<feComposite in2="hardAlpha" operator="arithmetic" k2="-1" k3="1"/>
<feColorMatrix type="matrix" values="0 0 0 0 1 0 0 0 0 1 0 0 0 0 1 0 0 0 0.15 0"/>
<feBlend mode="normal" in2="shape" result="effect1_innerShadow_3766_10607"/>
</filter>
<radialGradient id="paint0_radial_3766_10607" cx="0" cy="0" r="1" gradientUnits="userSpaceOnUse" gradientTransform="translate(241) rotate(90) scale(252 482)">
<stop stop-color="#FFF30C"/>
<stop offset="1" stop-opacity="0"/>
</radialGradient>
<radialGradient id="paint1_radial_3766_10607" cx="0" cy="0" r="1" gradientUnits="userSpaceOnUse" gradientTransform="translate(241) rotate(90) scale(283.5 542.25)">
<stop stop-opacity="0"/>
<stop offset="1" stop-color="#FFF30C"/>
</radialGradient>
<radialGradient id="paint2_radial_3766_10607" cx="0" cy="0" r="1" gradientTransform="matrix(-233.526 122.092 -222.055 -161.779 241 126)" gradientUnits="userSpaceOnUse">
<stop stop-color="#FFF200"/>
<stop offset="1" stop-color="#202020" stop-opacity="0"/>
</radialGradient>
<linearGradient id="paint3_linear_3766_10607" x1="241" y1="0" x2="241" y2="252" gradientUnits="userSpaceOnUse">
<stop stop-color="white"/>
<stop offset="1" stop-color="#C7C7C7"/>
</linearGradient>
<linearGradient id="paint4_linear_3766_10607" x1="134" y1="126" x2="448" y2="126" gradientUnits="userSpaceOnUse">
<stop stop-color="#FFF200"/>
<stop offset="1" stop-color="#FFFBA8"/>
</linearGradient>
<linearGradient id="paint5_linear_3766_10607" x1="134.5" y1="106" x2="347.5" y2="106" gradientUnits="userSpaceOnUse">
<stop stop-color="#FFF200"/>
<stop offset="1" stop-color="#FFFBA8"/>
</linearGradient>
<clipPath id="clip0_3766_10607">
<rect width="482" height="180" fill="white"/>
</clipPath>
</defs>
</svg>
