<svg width="20" height="21" viewBox="0 0 20 21" fill="none" xmlns="http://www.w3.org/2000/svg">
<g clip-path="url(#clip0_1727_1112)">
<path d="M5.85842 0.467399C4.79442 0.517599 4.06782 0.687399 3.43262 0.936999C2.77522 1.1932 2.21802 1.537 1.66362 2.0934C1.10922 2.6498 0.767816 3.2074 0.513416 3.8658C0.267216 4.5024 0.100416 5.2296 0.0534162 6.2942C0.00641622 7.3588 -0.00398378 7.701 0.00121621 10.4166C0.00641621 13.1322 0.0184162 13.4726 0.0700162 14.5394C0.120816 15.6032 0.290016 16.3296 0.539616 16.965C0.796216 17.6224 1.13962 18.1794 1.69622 18.734C2.25282 19.2886 2.81002 19.6292 3.47002 19.884C4.10602 20.1298 4.83342 20.2974 5.89782 20.344C6.96222 20.3906 7.30482 20.4014 10.0196 20.3962C12.7344 20.391 13.0762 20.379 14.1428 20.3284C15.2094 20.2778 15.932 20.1074 16.5676 19.859C17.225 19.6018 17.7824 19.259 18.3366 18.7022C18.8908 18.1454 19.232 17.5874 19.4862 16.9286C19.7326 16.2926 19.9 15.5652 19.9462 14.5016C19.9928 13.4342 20.0038 13.0934 19.9986 10.3782C19.9934 7.663 19.9812 7.3226 19.9306 6.2562C19.88 5.1898 19.7106 4.4656 19.4612 3.8298C19.2042 3.1724 18.8612 2.6158 18.3048 2.0608C17.7484 1.5058 17.19 1.1648 16.5314 0.911199C15.895 0.664999 15.168 0.497199 14.1036 0.451199C13.0392 0.405199 12.6966 0.393399 9.98082 0.398599C7.26502 0.403799 6.92502 0.415399 5.85842 0.467399ZM5.97522 18.545C5.00022 18.5026 4.47082 18.3406 4.11802 18.205C3.65082 18.025 3.31802 17.8074 2.96642 17.4592C2.61482 17.111 2.39882 16.777 2.21642 16.3108C2.07942 15.958 1.91442 15.4292 1.86882 14.4542C1.81922 13.4004 1.80882 13.084 1.80302 10.4142C1.79722 7.7444 1.80742 7.4284 1.85362 6.3742C1.89522 5.4 2.05822 4.87 2.19362 4.5174C2.37362 4.0496 2.59042 3.7174 2.93942 3.366C3.28842 3.0146 3.62142 2.7982 4.08802 2.6158C4.44042 2.4782 4.96922 2.3146 5.94382 2.2682C6.99842 2.2182 7.31442 2.2082 9.98382 2.2024C12.6532 2.1966 12.97 2.2066 14.025 2.253C14.9992 2.2954 15.5294 2.4568 15.8816 2.593C16.349 2.773 16.6816 2.9892 17.033 3.3388C17.3844 3.6884 17.601 4.0202 17.7834 4.4878C17.9212 4.8392 18.0848 5.3678 18.1308 6.343C18.181 7.3976 18.1924 7.7138 18.1972 10.383C18.202 13.0522 18.1926 13.3692 18.1464 14.423C18.1038 15.398 17.9422 15.9276 17.8064 16.2808C17.6264 16.7478 17.4094 17.0808 17.0602 17.432C16.711 17.7832 16.3784 17.9996 15.9116 18.182C15.5596 18.3194 15.0302 18.4834 14.0564 18.5298C13.0018 18.5794 12.6858 18.5898 10.0154 18.5956C7.34502 18.6014 7.03002 18.5906 5.97542 18.545M14.1274 5.0528C14.1278 5.29015 14.1986 5.52206 14.3308 5.71919C14.463 5.91631 14.6507 6.06981 14.8701 6.16025C15.0896 6.2507 15.3309 6.27404 15.5636 6.22732C15.7963 6.18059 16.01 6.06591 16.1775 5.89777C16.345 5.72963 16.4589 5.51558 16.5048 5.2827C16.5507 5.04982 16.5264 4.80857 16.4352 4.58945C16.3439 4.37034 16.1898 4.18321 15.9921 4.05173C15.7945 3.92025 15.5624 3.85032 15.325 3.8508C15.0068 3.85143 14.7019 3.97842 14.4773 4.20383C14.2527 4.42923 14.1269 4.73461 14.1274 5.0528ZM4.86542 10.4074C4.87102 13.2434 7.17422 15.5372 10.0096 15.5318C12.845 15.5264 15.1404 13.2234 15.135 10.3874C15.1296 7.5514 12.8258 5.257 9.99002 5.2626C7.15422 5.2682 4.86002 7.5718 4.86542 10.4074ZM6.66662 10.4038C6.66531 9.74452 6.85954 9.09965 7.22473 8.55075C7.58992 8.00186 8.10968 7.57358 8.71828 7.32008C9.32688 7.06657 9.99698 6.99924 10.6438 7.12657C11.2907 7.25391 11.8853 7.57021 12.3524 8.03547C12.8195 8.50073 13.1382 9.09406 13.2681 9.74042C13.398 10.3868 13.3333 11.0571 13.0822 11.6667C12.8311 12.2763 12.4049 12.7978 11.8574 13.1652C11.31 13.5325 10.6659 13.7293 10.0066 13.7306C9.56885 13.7315 9.1352 13.6462 8.73041 13.4795C8.32563 13.3128 7.95765 13.068 7.64749 12.7591C7.33734 12.4501 7.09107 12.0831 6.92277 11.679C6.75447 11.2749 6.66743 10.8416 6.66662 10.4038Z" fill="white"/>
</g>
<defs>
<clipPath id="clip0_1727_1112">
<rect width="20" height="20" fill="white" transform="translate(0 0.397461)"/>
</clipPath>
</defs>
</svg>
