<svg width="37" height="36" viewBox="0 0 37 36" fill="none" xmlns="http://www.w3.org/2000/svg">
<mask id="mask0_1927_5505" style="mask-type:alpha" maskUnits="userSpaceOnUse" x="0" y="0" width="37" height="36">
<rect x="0.375" width="36" height="36" fill="#D9D9D9"/>
</mask>
<g mask="url(#mask0_1927_5505)">
<path d="M11.8242 9.59487L16.0242 4.15737C16.3242 3.75737 16.6805 3.46362 17.093 3.27612C17.5055 3.08862 17.9367 2.99487 18.3867 2.99487C18.8367 2.99487 19.268 3.08862 19.6805 3.27612C20.093 3.46362 20.4492 3.75737 20.7492 4.15737L24.9492 9.59487L31.3242 11.7324C31.9742 11.9324 32.4867 12.3011 32.8617 12.8386C33.2367 13.3761 33.4242 13.9699 33.4242 14.6199C33.4242 14.9199 33.3805 15.2199 33.293 15.5199C33.2055 15.8199 33.0617 16.1074 32.8617 16.3824L28.7367 22.2324L28.8867 28.3824C28.9117 29.2574 28.6242 29.9949 28.0242 30.5949C27.4242 31.1949 26.7242 31.4949 25.9242 31.4949C25.8742 31.4949 25.5992 31.4574 25.0992 31.3824L18.3867 29.5074L11.6742 31.3824C11.5492 31.4324 11.4117 31.4636 11.2617 31.4761C11.1117 31.4886 10.9742 31.4949 10.8492 31.4949C10.0492 31.4949 9.34922 31.1949 8.74922 30.5949C8.14922 29.9949 7.86172 29.2574 7.88672 28.3824L8.03672 22.1949L3.94922 16.3824C3.74922 16.1074 3.60547 15.8199 3.51797 15.5199C3.43047 15.2199 3.38672 14.9199 3.38672 14.6199C3.38672 13.9949 3.56797 13.4136 3.93047 12.8761C4.29297 12.3386 4.79922 11.9574 5.44922 11.7324L11.8242 9.59487Z" fill="#FFF200"/>
</g>
</svg>
