<svg width="20" height="18" viewBox="0 0 20 18" fill="none" xmlns="http://www.w3.org/2000/svg">
<path d="M9.91634 17.3333L13.708 7.33329H15.458L19.2497 17.3333H17.4997L16.6038 14.7916H12.5622L11.6663 17.3333H9.91634ZM3.33301 14.8333L2.16634 13.6666L6.37467 9.45829C5.88856 8.97218 5.44759 8.41663 5.05176 7.79163C4.65592 7.16663 4.29134 6.45829 3.95801 5.66663H5.70801C5.98579 6.20829 6.26356 6.68051 6.54134 7.08329C6.81912 7.48607 7.15245 7.88885 7.54134 8.29163C7.99967 7.83329 8.47537 7.19093 8.96842 6.36454C9.46148 5.53815 9.83301 4.74996 10.083 3.99996H0.833008V2.33329H6.66634V0.666626H8.33301V2.33329H14.1663V3.99996H11.7497C11.458 4.99996 11.0205 6.02774 10.4372 7.08329C9.85384 8.13885 9.27745 8.9444 8.70801 9.49996L10.708 11.5416L10.083 13.25L7.54134 10.6458L3.33301 14.8333ZM13.083 13.3333H16.083L14.583 9.08329L13.083 13.3333Z" fill="#8A8A8A"/>
</svg>
