<svg width="24" height="24" viewBox="0 0 24 24" fill="none" xmlns="http://www.w3.org/2000/svg">
<mask id="mask0_2106_5066" style="mask-type:alpha" maskUnits="userSpaceOnUse" x="0" y="0" width="24" height="24">
<rect width="24" height="24" fill="#D9D9D9"/>
</mask>
<g mask="url(#mask0_2106_5066)">
<path d="M12 22C9.71667 22 7.97917 21.7042 6.7875 21.1125C5.59583 20.5208 5 19.65 5 18.5C5 18.0167 5.10833 17.575 5.325 17.175C5.54167 16.775 5.86667 16.4333 6.3 16.15C6.2 16.2833 6.12083 16.4458 6.0625 16.6375C6.00417 16.8292 5.975 17.0417 5.975 17.275C5.975 17.9083 6.20417 18.4083 6.6625 18.775C7.12083 19.1417 7.67083 19.4167 8.3125 19.6C8.95417 19.7833 9.61667 19.8958 10.3 19.9375C10.9833 19.9792 11.55 20 12 20C12.45 20 13.0167 19.9792 13.7 19.9375C14.3833 19.8958 15.0458 19.7833 15.6875 19.6C16.3292 19.4167 16.8792 19.1417 17.3375 18.775C17.7958 18.4083 18.025 17.9083 18.025 17.275C18.025 17.0417 17.9958 16.8292 17.9375 16.6375C17.8792 16.4458 17.8 16.2833 17.7 16.15C18.1333 16.4333 18.4583 16.775 18.675 17.175C18.8917 17.575 19 18.0167 19 18.5C19 19.65 18.4042 20.5208 17.2125 21.1125C16.0208 21.7042 14.2833 22 12 22ZM12 19C10.4667 19 9.25 18.8208 8.35 18.4625C7.45 18.1042 7 17.6167 7 17C7 16.4167 7.4625 15.9375 8.3875 15.5625C9.3125 15.1875 10.5167 15 12 15C13.5333 15 14.75 15.1792 15.65 15.5375C16.55 15.8958 17 16.3833 17 17C17 17.6167 16.55 18.1042 15.65 18.4625C14.75 18.8208 13.5333 19 12 19ZM11 14V9H9L13 2V7H15L11 14Z" fill="#FFF200"/>
</g>
</svg>
