<svg width="18" height="19" viewBox="0 0 18 19" fill="none" xmlns="http://www.w3.org/2000/svg">
<path d="M4.15625 18.3975H0.523438V6.71777H4.15625V18.3975ZM2.32031 5.15527C1.1875 5.15527 0.25 4.17871 0.25 3.00684C0.25 1.87402 1.1875 0.936523 2.32031 0.936523C3.49219 0.936523 4.42969 1.87402 4.42969 3.00684C4.42969 4.17871 3.49219 5.15527 2.32031 5.15527ZM17.7109 18.3975H14.1172V12.7334C14.1172 11.3662 14.0781 9.64746 12.2031 9.64746C10.3281 9.64746 10.0547 11.0928 10.0547 12.6162V18.3975H6.42188V6.71777H9.89844V8.31934H9.9375C10.4453 7.4209 11.6172 6.44434 13.375 6.44434C17.0469 6.44434 17.75 8.86621 17.75 11.9912V18.3975H17.7109Z" fill="white"/>
</svg>
