<svg width="24" height="24" viewBox="0 0 24 24" fill="none" xmlns="http://www.w3.org/2000/svg">
<mask id="mask0_2106_5411" style="mask-type:alpha" maskUnits="userSpaceOnUse" x="0" y="0" width="24" height="24">
<rect width="24" height="24" fill="#D9D9D9"/>
</mask>
<g mask="url(#mask0_2106_5411)">
<path d="M21.9992 19.15L7.99922 5.15V4C7.99922 3.45 8.19505 2.97917 8.58672 2.5875C8.97839 2.19583 9.44922 2 9.99922 2H13.9992C14.5492 2 15.0201 2.19583 15.4117 2.5875C15.8034 2.97917 15.9992 3.45 15.9992 4V6H19.9992C20.5492 6 21.0201 6.19583 21.4117 6.5875C21.8034 6.97917 21.9992 7.45 21.9992 8V19.15ZM9.99922 6H13.9992V4H9.99922V6ZM20.4992 23.3L18.1992 21H3.99922C3.44922 21 2.97839 20.8042 2.58672 20.4125C2.19505 20.0208 1.99922 19.55 1.99922 19V8C1.99922 7.45 2.19505 6.97917 2.58672 6.5875C2.97839 6.19583 3.44922 6 3.99922 6H5.99922V8.8L0.699219 3.5L2.09922 2.1L21.8992 21.9L20.4992 23.3Z" fill="#FF0909"/>
</g>
</svg>
