<svg width="24" height="24" viewBox="0 0 24 24" fill="none" xmlns="http://www.w3.org/2000/svg">
<mask id="mask0_2106_5406" style="mask-type:alpha" maskUnits="userSpaceOnUse" x="0" y="0" width="24" height="24">
<rect width="24" height="24" fill="#D9D9D9"/>
</mask>
<g mask="url(#mask0_2106_5406)">
<path d="M19.775 22.625L17.5 20.35C16.6833 20.8833 15.8125 21.2917 14.8875 21.575C13.9625 21.8583 13 22 12 22C10.6167 22 9.31667 21.7375 8.1 21.2125C6.88333 20.6875 5.825 19.975 4.925 19.075C4.025 18.175 3.3125 17.1167 2.7875 15.9C2.2625 14.6833 2 13.3833 2 12C2 11 2.14167 10.0375 2.425 9.1125C2.70833 8.1875 3.11667 7.31667 3.65 6.5L1.375 4.225L2.8 2.8L21.2 21.2L19.775 22.625ZM8.875 11.725L7.5 16.5L12.275 15.125L8.875 11.725ZM20.35 17.5L15.125 12.275L16.5 7.5L11.725 8.875L6.5 3.65C7.31667 3.11667 8.1875 2.70833 9.1125 2.425C10.0375 2.14167 11 2 12 2C13.3833 2 14.6833 2.2625 15.9 2.7875C17.1167 3.3125 18.175 4.025 19.075 4.925C19.975 5.825 20.6875 6.88333 21.2125 8.1C21.7375 9.31667 22 10.6167 22 12C22 13 21.8583 13.9625 21.575 14.8875C21.2917 15.8125 20.8833 16.6833 20.35 17.5Z" fill="#FF0909"/>
</g>
</svg>
