<svg width="37" height="36" viewBox="0 0 37 36" fill="none" xmlns="http://www.w3.org/2000/svg">
<mask id="mask0_1927_5498" style="mask-type:alpha" maskUnits="userSpaceOnUse" x="0" y="0" width="37" height="36">
<rect x="0.625" width="36" height="36" fill="#D9D9D9"/>
</mask>
<g mask="url(#mask0_1927_5498)">
<path d="M2.125 30V25.8C2.125 24.95 2.34375 24.1687 2.78125 23.4562C3.21875 22.7437 3.8 22.2 4.525 21.825C6.075 21.05 7.65 20.4688 9.25 20.0812C10.85 19.6937 12.475 19.5 14.125 19.5C15.775 19.5 17.4 19.6937 19 20.0812C20.6 20.4688 22.175 21.05 23.725 21.825C24.45 22.2 25.0312 22.7437 25.4688 23.4562C25.9062 24.1687 26.125 24.95 26.125 25.8V30H2.125ZM29.125 30V25.5C29.125 24.4 28.8188 23.3438 28.2063 22.3312C27.5938 21.3187 26.725 20.45 25.6 19.725C26.875 19.875 28.075 20.1313 29.2 20.4938C30.325 20.8563 31.375 21.3 32.35 21.825C33.25 22.325 33.9375 22.8813 34.4125 23.4938C34.8875 24.1063 35.125 24.775 35.125 25.5V30H29.125ZM14.125 18C12.475 18 11.0625 17.4125 9.8875 16.2375C8.7125 15.0625 8.125 13.65 8.125 12C8.125 10.35 8.7125 8.9375 9.8875 7.7625C11.0625 6.5875 12.475 6 14.125 6C15.775 6 17.1875 6.5875 18.3625 7.7625C19.5375 8.9375 20.125 10.35 20.125 12C20.125 13.65 19.5375 15.0625 18.3625 16.2375C17.1875 17.4125 15.775 18 14.125 18ZM29.125 12C29.125 13.65 28.5375 15.0625 27.3625 16.2375C26.1875 17.4125 24.775 18 23.125 18C22.85 18 22.5 17.9688 22.075 17.9062C21.65 17.8438 21.3 17.775 21.025 17.7C21.7 16.9 22.2188 16.0125 22.5812 15.0375C22.9438 14.0625 23.125 13.05 23.125 12C23.125 10.95 22.9438 9.9375 22.5812 8.9625C22.2188 7.9875 21.7 7.1 21.025 6.3C21.375 6.175 21.725 6.09375 22.075 6.05625C22.425 6.01875 22.775 6 23.125 6C24.775 6 26.1875 6.5875 27.3625 7.7625C28.5375 8.9375 29.125 10.35 29.125 12Z" fill="#FFF200"/>
</g>
</svg>
