<svg width="37" height="36" viewBox="0 0 37 36" fill="none" xmlns="http://www.w3.org/2000/svg">
<mask id="mask0_3916_12426" style="mask-type:alpha" maskUnits="userSpaceOnUse" x="0" y="0" width="37" height="36">
<rect x="0.375" width="36" height="36" fill="#D9D9D9"/>
</mask>
<g mask="url(#mask0_3916_12426)">
<path d="M6.375 31.5C5.55 31.5 4.84375 31.2063 4.25625 30.6188C3.66875 30.0313 3.375 29.325 3.375 28.5V12C3.375 11.175 3.66875 10.4688 4.25625 9.88125C4.84375 9.29375 5.55 9 6.375 9H12.375V6C12.375 5.175 12.6688 4.46875 13.2563 3.88125C13.8438 3.29375 14.55 3 15.375 3H21.375C22.2 3 22.9063 3.29375 23.4938 3.88125C24.0813 4.46875 24.375 5.175 24.375 6V9H30.375C31.2 9 31.9063 9.29375 32.4938 9.88125C33.0813 10.4688 33.375 11.175 33.375 12V28.5C33.375 29.325 33.0813 30.0313 32.4938 30.6188C31.9063 31.2063 31.2 31.5 30.375 31.5H6.375ZM15.375 9H21.375V6H15.375V9Z" fill="#FFF200"/>
</g>
</svg>
