<svg width="135" height="41" viewBox="0 0 135 41" fill="none" xmlns="http://www.w3.org/2000/svg">
<rect x="0.499023" y="0.897461" width="134.001" height="39" rx="3.5" fill="#101010"/>
<rect x="0.499023" y="0.897461" width="134.001" height="39" rx="3.5" stroke="#353535"/>
<mask id="mask0_1727_1156" style="mask-type:alpha" maskUnits="userSpaceOnUse" x="15" y="12" width="17" height="17">
<rect x="15.499" y="12.3975" width="16" height="16" fill="#D9D9D9"/>
</mask>
<g mask="url(#mask0_1727_1156)">
<path d="M18.1634 27.0647V19.7314H16.8301V15.7314H20.2967C20.2412 15.6314 20.2051 15.5258 20.1884 15.4147C20.1717 15.3036 20.1634 15.1869 20.1634 15.0647C20.1634 14.5091 20.3579 14.0369 20.7467 13.648C21.1356 13.2591 21.6079 13.0647 22.1634 13.0647C22.419 13.0647 22.6579 13.1119 22.8801 13.2064C23.1023 13.3008 23.3079 13.4314 23.4967 13.598C23.6856 13.4203 23.8912 13.2869 24.1134 13.198C24.3356 13.1091 24.5745 13.0647 24.8301 13.0647C25.3856 13.0647 25.8579 13.2591 26.2467 13.648C26.6356 14.0369 26.8301 14.5091 26.8301 15.0647C26.8301 15.1869 26.819 15.3008 26.7967 15.4064C26.7745 15.5119 26.7412 15.6203 26.6967 15.7314H30.1634V19.7314H28.8301V27.0647H18.1634ZM24.8301 14.398C24.6412 14.398 24.4829 14.4619 24.3551 14.5897C24.2273 14.7175 24.1634 14.8758 24.1634 15.0647C24.1634 15.2536 24.2273 15.4119 24.3551 15.5397C24.4829 15.6675 24.6412 15.7314 24.8301 15.7314C25.019 15.7314 25.1773 15.6675 25.3051 15.5397C25.4329 15.4119 25.4967 15.2536 25.4967 15.0647C25.4967 14.8758 25.4329 14.7175 25.3051 14.5897C25.1773 14.4619 25.019 14.398 24.8301 14.398ZM21.4967 15.0647C21.4967 15.2536 21.5606 15.4119 21.6884 15.5397C21.8162 15.6675 21.9745 15.7314 22.1634 15.7314C22.3523 15.7314 22.5106 15.6675 22.6384 15.5397C22.7662 15.4119 22.8301 15.2536 22.8301 15.0647C22.8301 14.8758 22.7662 14.7175 22.6384 14.5897C22.5106 14.4619 22.3523 14.398 22.1634 14.398C21.9745 14.398 21.8162 14.4619 21.6884 14.5897C21.5606 14.7175 21.4967 14.8758 21.4967 15.0647ZM18.1634 17.0647V18.398H22.8301V17.0647H18.1634ZM22.8301 25.7314V19.7314H19.4967V25.7314H22.8301ZM24.1634 25.7314H27.4967V19.7314H24.1634V25.7314ZM28.8301 18.398V17.0647H24.1634V18.398H28.8301Z" fill="white"/>
</g>
<path d="M38.732 25.3975V15.2156H42.1723C42.9678 15.2156 43.6207 15.3515 44.1311 15.6233C44.6415 15.8918 45.0194 16.2613 45.2646 16.732C45.5099 17.2026 45.6325 17.7379 45.6325 18.3378C45.6325 18.9377 45.5099 19.4697 45.2646 19.9337C45.0194 20.3977 44.6432 20.7623 44.1361 21.0274C43.629 21.2893 42.981 21.4202 42.1922 21.4202H39.4081V20.3066H42.1524C42.696 20.3066 43.1335 20.227 43.4649 20.0679C43.7997 19.9088 44.0416 19.6834 44.1908 19.3918C44.3432 19.0968 44.4195 18.7455 44.4195 18.3378C44.4195 17.9301 44.3432 17.5738 44.1908 17.2689C44.0383 16.964 43.7947 16.7287 43.46 16.5629C43.1252 16.3939 42.6827 16.3094 42.1325 16.3094H39.9649V25.3975H38.732ZM43.5246 20.8236L46.0303 25.3975H44.5985L42.1325 20.8236H43.5246ZM50.6476 25.5566C49.9118 25.5566 49.2771 25.3941 48.7435 25.0693C48.2132 24.7412 47.8039 24.2838 47.5155 23.6972C47.2305 23.1072 47.088 22.4211 47.088 21.6389C47.088 20.8567 47.2305 20.1673 47.5155 19.5708C47.8039 18.9709 48.2049 18.5035 48.7187 18.1688C49.2357 17.8307 49.8389 17.6617 50.5283 17.6617C50.926 17.6617 51.3188 17.728 51.7066 17.8605C52.0944 17.9931 52.4474 18.2085 52.7655 18.5068C53.0837 18.8018 53.3373 19.1929 53.5262 19.6801C53.7151 20.1673 53.8096 20.7673 53.8096 21.4798V21.977H47.9232V20.9628H52.6164C52.6164 20.5319 52.5302 20.1475 52.3579 19.8094C52.1888 19.4713 51.9469 19.2045 51.632 19.009C51.3205 18.8134 50.9526 18.7156 50.5283 18.7156C50.061 18.7156 49.6566 18.8316 49.3153 19.0637C48.9772 19.2923 48.717 19.5906 48.5347 19.9585C48.3524 20.3264 48.2613 20.7209 48.2613 21.1418V21.8179C48.2613 22.3946 48.3607 22.8835 48.5596 23.2845C48.7617 23.6823 49.0418 23.9855 49.3998 24.1943C49.7577 24.3998 50.1737 24.5026 50.6476 24.5026C50.9559 24.5026 51.2343 24.4595 51.4829 24.3733C51.7348 24.2838 51.9519 24.1512 52.1341 23.9756C52.3164 23.7966 52.4573 23.5745 52.5567 23.3094L53.6903 23.6276C53.5709 24.012 53.3704 24.3501 53.0887 24.6418C52.807 24.9301 52.459 25.1555 52.0447 25.3179C51.6304 25.477 51.1647 25.5566 50.6476 25.5566ZM58.9949 17.7611V18.7554H54.8785V17.7611H58.9949ZM56.1114 25.3975V16.7071C56.1114 16.2696 56.2142 15.905 56.4197 15.6134C56.6251 15.3217 56.892 15.103 57.2201 14.9571C57.5482 14.8113 57.8946 14.7384 58.2591 14.7384C58.5475 14.7384 58.7828 14.7616 58.9651 14.808C59.1474 14.8544 59.2833 14.8975 59.3728 14.9372L59.0347 15.9514C58.9751 15.9316 58.8922 15.9067 58.7861 15.8769C58.6834 15.847 58.5475 15.8321 58.3785 15.8321C57.9907 15.8321 57.7106 15.9299 57.5383 16.1254C57.3692 16.321 57.2847 16.6077 57.2847 16.9855V25.3975H56.1114ZM63.5265 25.5566C62.7907 25.5566 62.156 25.3941 61.6224 25.0693C61.0921 24.7412 60.6828 24.2838 60.3944 23.6972C60.1094 23.1072 59.9669 22.4211 59.9669 21.6389C59.9669 20.8567 60.1094 20.1673 60.3944 19.5708C60.6828 18.9709 61.0838 18.5035 61.5976 18.1688C62.1146 17.8307 62.7178 17.6617 63.4072 17.6617C63.805 17.6617 64.1977 17.728 64.5855 17.8605C64.9733 17.9931 65.3263 18.2085 65.6444 18.5068C65.9626 18.8018 66.2162 19.1929 66.4051 19.6801C66.594 20.1673 66.6885 20.7673 66.6885 21.4798V21.977H60.8021V20.9628H65.4953C65.4953 20.5319 65.4091 20.1475 65.2368 19.8094C65.0677 19.4713 64.8258 19.2045 64.5109 19.009C64.1994 18.8134 63.8315 18.7156 63.4072 18.7156C62.9399 18.7156 62.5355 18.8316 62.1942 19.0637C61.8561 19.2923 61.5959 19.5906 61.4136 19.9585C61.2313 20.3264 61.1402 20.7209 61.1402 21.1418V21.8179C61.1402 22.3946 61.2396 22.8835 61.4385 23.2845C61.6407 23.6823 61.9207 23.9855 62.2787 24.1943C62.6366 24.3998 63.0526 24.5026 63.5265 24.5026C63.8348 24.5026 64.1132 24.4595 64.3618 24.3733C64.6137 24.2838 64.8308 24.1512 65.0131 23.9756C65.1953 23.7966 65.3362 23.5745 65.4356 23.3094L66.5692 23.6276C66.4498 24.012 66.2493 24.3501 65.9676 24.6418C65.6859 24.9301 65.3379 25.1555 64.9236 25.3179C64.5093 25.477 64.0436 25.5566 63.5265 25.5566ZM68.4733 25.3975V17.7611H69.6068V18.9145H69.6863C69.8256 18.5367 70.0774 18.2301 70.442 17.9948C70.8066 17.7594 71.2176 17.6418 71.675 17.6418C71.7612 17.6418 71.8689 17.6434 71.9981 17.6468C72.1274 17.6501 72.2252 17.655 72.2915 17.6617V18.8548C72.2517 18.8449 72.1605 18.83 72.018 18.8101C71.8788 18.7869 71.7313 18.7753 71.5756 18.7753C71.2043 18.7753 70.8729 18.8532 70.5812 19.009C70.2929 19.1614 70.0642 19.3735 69.8952 19.6453C69.7294 19.9138 69.6466 20.2204 69.6466 20.5651V25.3975H68.4733ZM80.5033 25.5367C79.8338 25.5367 79.2571 25.414 78.7732 25.1688C78.2893 24.9235 77.9164 24.5871 77.6546 24.1595C77.3927 23.732 77.2618 23.2431 77.2618 22.6929C77.2618 22.2687 77.3513 21.8925 77.5303 21.5644C77.7126 21.2329 77.9628 20.9263 78.281 20.6446C78.6025 20.3596 78.972 20.0745 79.3896 19.7895L80.8612 18.6958C81.1496 18.5068 81.3799 18.3047 81.5523 18.0892C81.728 17.8738 81.8158 17.5921 81.8158 17.2441C81.8158 16.9855 81.7014 16.7353 81.4727 16.4933C81.2474 16.2514 80.9507 16.1304 80.5828 16.1304C80.3243 16.1304 80.0956 16.1967 79.8968 16.3293C79.7012 16.4585 79.5471 16.6243 79.4344 16.8264C79.325 17.0253 79.2703 17.2308 79.2703 17.4429C79.2703 17.6816 79.335 17.9235 79.4642 18.1688C79.5968 18.4107 79.7642 18.6593 79.9664 18.9145C80.1718 19.1664 80.384 19.4249 80.6027 19.6901L85.276 25.3975H83.8641L80.0061 20.7441C79.6482 20.3132 79.3234 19.9221 79.0317 19.5708C78.74 19.2194 78.508 18.8731 78.3357 18.5317C78.1633 18.1903 78.0771 17.8208 78.0771 17.423C78.0771 16.9656 78.1782 16.5646 78.3804 16.2199C78.5859 15.8719 78.8726 15.6018 79.2405 15.4095C79.6117 15.214 80.0459 15.1162 80.5431 15.1162C81.0535 15.1162 81.4926 15.2156 81.8605 15.4145C82.2284 15.6101 82.5118 15.8702 82.7107 16.195C82.9095 16.5165 83.009 16.8662 83.009 17.2441C83.009 17.7313 82.888 18.1539 82.646 18.5118C82.4041 18.8698 82.0743 19.2029 81.6567 19.5111L79.6283 21.0225C79.1709 21.3605 78.861 21.6887 78.6986 22.0068C78.5362 22.325 78.455 22.5537 78.455 22.6929C78.455 23.0111 78.5378 23.3077 78.7036 23.5828C78.8693 23.8579 79.103 24.08 79.4046 24.249C79.7062 24.4181 80.0592 24.5026 80.4635 24.5026C80.848 24.5026 81.2225 24.4214 81.5871 24.259C81.9517 24.0932 82.2815 23.8546 82.5764 23.5431C82.8747 23.2315 83.1101 22.857 83.2824 22.4195C83.4581 21.982 83.5459 21.4898 83.5459 20.9429H84.6794C84.6794 21.6191 84.6015 22.1709 84.4458 22.5985C84.29 23.026 84.1143 23.3608 83.9188 23.6027C83.7232 23.8447 83.5658 24.0253 83.4465 24.1446C83.4067 24.1943 83.3702 24.2441 83.3371 24.2938C83.3039 24.3435 83.2675 24.3932 83.2277 24.4429C82.8996 24.8108 82.4853 25.0859 81.9848 25.2682C81.4843 25.4472 80.9905 25.5367 80.5033 25.5367ZM90.6714 25.3975V15.2156H96.8163V16.3094H91.9044V19.7497H96.4981V20.8435H91.9044V24.3037H96.8959V25.3975H90.6714ZM101.127 25.5764C100.643 25.5764 100.204 25.4853 99.8092 25.303C99.4148 25.1174 99.1016 24.8506 98.8696 24.5026C98.6376 24.1512 98.5216 23.727 98.5216 23.2298C98.5216 22.7923 98.6077 22.4377 98.7801 22.1659C98.9524 21.8908 99.1828 21.6754 99.4711 21.5196C99.7595 21.3638 100.078 21.2478 100.426 21.1716C100.777 21.0921 101.13 21.0291 101.485 20.9827C101.949 20.923 102.325 20.8783 102.613 20.8485C102.905 20.8153 103.117 20.7606 103.25 20.6844C103.385 20.6082 103.453 20.4756 103.453 20.2867V20.2469C103.453 19.7564 103.319 19.3752 103.051 19.1034C102.786 18.8316 102.383 18.6958 101.843 18.6958C101.282 18.6958 100.843 18.8184 100.525 19.0637C100.207 19.3089 99.9832 19.5708 99.854 19.8492L98.7403 19.4514C98.9392 18.9874 99.2043 18.6262 99.5358 18.3676C99.8705 18.1058 100.235 17.9235 100.63 17.8208C101.027 17.7147 101.418 17.6617 101.803 17.6617C102.048 17.6617 102.33 17.6915 102.648 17.7512C102.969 17.8075 103.279 17.9252 103.578 18.1041C103.879 18.2831 104.13 18.5532 104.328 18.9145C104.527 19.2758 104.627 19.7597 104.627 20.3662V25.3975H103.453V24.3634H103.394C103.314 24.5291 103.182 24.7064 102.996 24.8953C102.81 25.0843 102.563 25.245 102.255 25.3776C101.947 25.5102 101.571 25.5764 101.127 25.5764ZM101.306 24.5225C101.77 24.5225 102.161 24.4313 102.479 24.249C102.8 24.0667 103.042 23.8314 103.205 23.5431C103.371 23.2547 103.453 22.9514 103.453 22.6333V21.5594C103.404 21.6191 103.294 21.6737 103.125 21.7235C102.96 21.7699 102.767 21.8113 102.549 21.8477C102.333 21.8809 102.123 21.9107 101.917 21.9372C101.715 21.9604 101.551 21.9803 101.425 21.9969C101.12 22.0367 100.835 22.1013 100.57 22.1908C100.308 22.277 100.096 22.4079 99.9335 22.5835C99.7744 22.7559 99.6949 22.9912 99.6949 23.2895C99.6949 23.6972 99.8457 24.0054 100.147 24.2142C100.452 24.4197 100.838 24.5225 101.306 24.5225ZM106.768 25.3975V17.7611H107.902V18.9145H107.981C108.12 18.5367 108.372 18.2301 108.737 17.9948C109.102 17.7594 109.513 17.6418 109.97 17.6418C110.056 17.6418 110.164 17.6434 110.293 17.6468C110.422 17.6501 110.52 17.655 110.586 17.6617V18.8548C110.547 18.8449 110.455 18.83 110.313 18.8101C110.174 18.7869 110.026 18.7753 109.87 18.7753C109.499 18.7753 109.168 18.8532 108.876 19.009C108.588 19.1614 108.359 19.3735 108.19 19.6453C108.024 19.9138 107.941 20.2204 107.941 20.5651V25.3975H106.768ZM113.15 20.8037V25.3975H111.977V17.7611H113.111V18.9543H113.21C113.389 18.5665 113.661 18.2549 114.025 18.0196C114.39 17.781 114.861 17.6617 115.437 17.6617C115.954 17.6617 116.407 17.7677 116.795 17.9798C117.182 18.1887 117.484 18.5068 117.699 18.9344C117.915 19.3586 118.023 19.8956 118.023 20.5452V25.3975H116.849V20.6247C116.849 20.0248 116.694 19.5575 116.382 19.2227C116.07 18.8847 115.643 18.7156 115.099 18.7156C114.725 18.7156 114.39 18.7968 114.095 18.9593C113.803 19.1217 113.573 19.3586 113.404 19.6702C113.235 19.9817 113.15 20.3596 113.15 20.8037Z" fill="white"/>
</svg>
