<svg width="37" height="36" viewBox="0 0 37 36" fill="none" xmlns="http://www.w3.org/2000/svg">
<mask id="mask0_3916_12432" style="mask-type:alpha" maskUnits="userSpaceOnUse" x="0" y="0" width="37" height="36">
<rect x="0.125" width="36" height="36" fill="#D9D9D9"/>
</mask>
<g mask="url(#mask0_3916_12432)">
<path d="M20.0375 26.25H23.6375V26.1375L17.45 19.575L17.4875 19.4625H17.8625C19.2125 19.4625 20.3312 19.05 21.2188 18.225C22.1063 17.4 22.65 16.4375 22.85 15.3375H24.35V13.575H22.8125C22.7375 13.2 22.6063 12.8438 22.4188 12.5063C22.2313 12.1687 22 11.8375 21.725 11.5125H24.35V9.75H11.9V11.8875H17.75C18.4 11.8875 18.9312 12.05 19.3438 12.375C19.7563 12.7 20.0375 13.1 20.1875 13.575H11.9V15.3375H20.225C20.075 15.8375 19.7875 16.2688 19.3625 16.6313C18.9375 16.9938 18.3625 17.175 17.6375 17.175H13.8875V19.575L20.0375 26.25ZM18.125 33C16.05 33 14.1 32.6062 12.275 31.8187C10.45 31.0312 8.8625 29.9625 7.5125 28.6125C6.1625 27.2625 5.09375 25.675 4.30625 23.85C3.51875 22.025 3.125 20.075 3.125 18C3.125 15.925 3.51875 13.975 4.30625 12.15C5.09375 10.325 6.1625 8.7375 7.5125 7.3875C8.8625 6.0375 10.45 4.96875 12.275 4.18125C14.1 3.39375 16.05 3 18.125 3C20.2 3 22.15 3.39375 23.975 4.18125C25.8 4.96875 27.3875 6.0375 28.7375 7.3875C30.0875 8.7375 31.1562 10.325 31.9437 12.15C32.7312 13.975 33.125 15.925 33.125 18C33.125 20.075 32.7312 22.025 31.9437 23.85C31.1562 25.675 30.0875 27.2625 28.7375 28.6125C27.3875 29.9625 25.8 31.0312 23.975 31.8187C22.15 32.6062 20.2 33 18.125 33Z" fill="#FFF200"/>
</g>
</svg>
