<svg width="22" height="16" viewBox="0 0 22 16" fill="none" xmlns="http://www.w3.org/2000/svg">
<path d="M21.1953 2.78027C21.6641 4.4209 21.6641 7.93652 21.6641 7.93652C21.6641 7.93652 21.6641 11.4131 21.1953 13.0928C20.9609 14.0303 20.2188 14.7334 19.3203 14.9678C17.6406 15.3975 11 15.3975 11 15.3975C11 15.3975 4.32031 15.3975 2.64062 14.9678C1.74219 14.7334 1 14.0303 0.765625 13.0928C0.296875 11.4131 0.296875 7.93652 0.296875 7.93652C0.296875 7.93652 0.296875 4.4209 0.765625 2.78027C1 1.84277 1.74219 1.10059 2.64062 0.866211C4.32031 0.397461 11 0.397461 11 0.397461C11 0.397461 17.6406 0.397461 19.3203 0.866211C20.2188 1.10059 20.9609 1.84277 21.1953 2.78027ZM8.8125 11.1006L14.3594 7.93652L8.8125 4.77246V11.1006Z" fill="white"/>
</svg>
