<svg width="374" height="283" viewBox="0 0 374 283" fill="none" xmlns="http://www.w3.org/2000/svg">
<g filter="url(#filter0_d_3113_13437)">
<g clip-path="url(#clip0_3113_13437)">
<rect x="3" width="368" height="276" rx="8" fill="url(#paint0_radial_3113_13437)" style="mix-blend-mode:screen" shape-rendering="crispEdges"/>
<path d="M140.651 127.812C144.068 123.474 150.355 122.728 154.694 126.145C159.032 129.562 159.779 135.849 156.362 140.188L125.652 179.178C124.667 180.429 125.468 182.274 127.055 182.408L145.93 184H168.283C173.445 188.363 180.16 191 187.502 191C194.844 191 201.559 188.363 206.722 184H229.002V184.053C229.057 184.047 229.111 184.04 229.165 184.035L248.457 182.408C250.044 182.274 250.846 180.429 249.86 179.178L219.151 140.188C215.734 135.849 216.48 129.562 220.819 126.145C225.157 122.727 231.444 123.474 234.862 127.812L274.765 178.476C281.664 187.235 276.054 200.152 264.944 201.089C254.578 201.963 242.913 204.532 232.309 204.166C230.535 204.105 229.002 205.488 229.002 207.263V289H145.002V206.835C145.002 205.238 143.75 203.922 142.156 203.824C131.621 203.179 121.08 201.975 110.57 201.089C99.4591 200.152 93.8483 187.235 100.747 178.476L140.651 127.812Z" fill="url(#paint1_linear_3113_13437)"/>
<path d="M187.502 121C203.795 121 217.002 133.984 217.002 150C217.002 166.016 203.795 179 187.502 179C171.21 179 158.002 166.016 158.002 150C158.002 133.984 171.21 121 187.502 121Z" fill="url(#paint2_linear_3113_13437)"/>
<path d="M161.5 96.5L169.5 109" stroke="#D9D9D9" stroke-width="2" stroke-linecap="round"/>
<path d="M186.5 89L185.926 109.668" stroke="#D9D9D9" stroke-width="2" stroke-linecap="round"/>
<path d="M205.5 103L200 110.5" stroke="#D9D9D9" stroke-width="2" stroke-linecap="round"/>
<circle cx="98" cy="70" r="22.5" stroke="#D9D9D9" stroke-dasharray="5 5"/>
<circle cx="294" cy="122" r="22.5" stroke="#D9D9D9" stroke-dasharray="5 5"/>
<circle cx="47" cy="160" r="22.5" stroke="#D9D9D9" stroke-dasharray="5 5"/>
<path d="M95.7849 74.1699V74.0604C95.7971 72.8976 95.9188 71.9723 96.1502 71.2844C96.3815 70.5965 96.7102 70.0395 97.1364 69.6133C97.5625 69.1872 98.0739 68.7945 98.6705 68.4354C99.0296 68.2162 99.3523 67.9575 99.6384 67.6592C99.9245 67.3548 100.15 67.0048 100.314 66.6091C100.485 66.2134 100.57 65.7751 100.57 65.2941C100.57 64.6975 100.43 64.1801 100.15 63.7418C99.8697 63.3035 99.4953 62.9656 99.0266 62.7282C98.5578 62.4908 98.0373 62.3721 97.4651 62.3721C96.9659 62.3721 96.485 62.4755 96.0223 62.6825C95.5597 62.8895 95.1731 63.2152 94.8626 63.6596C94.5522 64.104 94.3726 64.6854 94.3239 65.4037H92.0227C92.0714 64.3688 92.3393 63.4831 92.8263 62.7464C93.3194 62.0098 93.9677 61.4467 94.7713 61.0571C95.581 60.6675 96.4789 60.4727 97.4651 60.4727C98.5365 60.4727 99.4679 60.6858 100.259 61.1119C101.057 61.538 101.672 62.1225 102.104 62.8652C102.542 63.6079 102.761 64.454 102.761 65.4037C102.761 66.0734 102.658 66.6791 102.451 67.2209C102.25 67.7627 101.958 68.2467 101.574 68.6728C101.197 69.0989 100.74 69.4764 100.205 69.8051C99.6688 70.1399 99.2397 70.493 98.917 70.8643C98.5944 71.2296 98.36 71.6649 98.2139 72.1702C98.0678 72.6754 97.9886 73.3055 97.9765 74.0604V74.1699H95.7849ZM96.9537 79.5758C96.5032 79.5758 96.1167 79.4145 95.794 79.0918C95.4714 78.7692 95.3101 78.3826 95.3101 77.9321C95.3101 77.4816 95.4714 77.0951 95.794 76.7724C96.1167 76.4498 96.5032 76.2885 96.9537 76.2885C97.4042 76.2885 97.7908 76.4498 98.1134 76.7724C98.4361 77.0951 98.5974 77.4816 98.5974 77.9321C98.5974 78.2304 98.5213 78.5044 98.3691 78.754C98.223 79.0036 98.0252 79.2044 97.7756 79.3566C97.5321 79.5027 97.2581 79.5758 96.9537 79.5758Z" fill="white"/>
<path d="M294.821 112.728L294.639 126.17H292.52L292.338 112.728H294.821ZM293.58 131.576C293.129 131.576 292.742 131.414 292.42 131.092C292.097 130.769 291.936 130.383 291.936 129.932C291.936 129.482 292.097 129.095 292.42 128.772C292.742 128.45 293.129 128.288 293.58 128.288C294.03 128.288 294.417 128.45 294.739 128.772C295.062 129.095 295.223 129.482 295.223 129.932C295.223 130.23 295.147 130.504 294.995 130.754C294.849 131.004 294.651 131.204 294.401 131.357C294.158 131.503 293.884 131.576 293.58 131.576Z" fill="white"/>
<path d="M39.543 162.146C39.0925 162.146 38.706 161.985 38.3833 161.662C38.0607 161.339 37.8994 160.953 37.8994 160.502C37.8994 160.052 38.0607 159.665 38.3833 159.343C38.706 159.02 39.0925 158.859 39.543 158.859C39.9935 158.859 40.3801 159.02 40.7027 159.343C41.0254 159.665 41.1867 160.052 41.1867 160.502C41.1867 160.801 41.1106 161.075 40.9584 161.324C40.8123 161.574 40.6144 161.775 40.3649 161.927C40.1213 162.073 39.8474 162.146 39.543 162.146ZM46.6245 162.146C46.174 162.146 45.7874 161.985 45.4648 161.662C45.1421 161.339 44.9808 160.953 44.9808 160.502C44.9808 160.052 45.1421 159.665 45.4648 159.343C45.7874 159.02 46.174 158.859 46.6245 158.859C47.075 158.859 47.4615 159.02 47.7842 159.343C48.1068 159.665 48.2682 160.052 48.2682 160.502C48.2682 160.801 48.1921 161.075 48.0399 161.324C47.8938 161.574 47.6959 161.775 47.4463 161.927C47.2028 162.073 46.9289 162.146 46.6245 162.146ZM53.706 162.146C53.2555 162.146 52.8689 161.985 52.5463 161.662C52.2236 161.339 52.0623 160.953 52.0623 160.502C52.0623 160.052 52.2236 159.665 52.5463 159.343C52.8689 159.02 53.2555 158.859 53.706 158.859C54.1565 158.859 54.543 159.02 54.8657 159.343C55.1883 159.665 55.3496 160.052 55.3496 160.502C55.3496 160.801 55.2735 161.075 55.1213 161.324C54.9752 161.574 54.7774 161.775 54.5278 161.927C54.2843 162.073 54.0103 162.146 53.706 162.146Z" fill="white"/>
</g>
<rect x="3.5" y="0.5" width="367" height="275" rx="7.5" stroke="#323232" shape-rendering="crispEdges"/>
</g>
<defs>
<filter id="filter0_d_3113_13437" x="0" y="0" width="374" height="283" filterUnits="userSpaceOnUse" color-interpolation-filters="sRGB">
<feFlood flood-opacity="0" result="BackgroundImageFix"/>
<feColorMatrix in="SourceAlpha" type="matrix" values="0 0 0 0 0 0 0 0 0 0 0 0 0 0 0 0 0 0 127 0" result="hardAlpha"/>
<feMorphology radius="1" operator="erode" in="SourceAlpha" result="effect1_dropShadow_3113_13437"/>
<feOffset dy="4"/>
<feGaussianBlur stdDeviation="2"/>
<feComposite in2="hardAlpha" operator="out"/>
<feColorMatrix type="matrix" values="0 0 0 0 0.0470588 0 0 0 0 0.0470588 0 0 0 0 0.0509804 0 0 0 0.05 0"/>
<feBlend mode="normal" in2="BackgroundImageFix" result="effect1_dropShadow_3113_13437"/>
<feBlend mode="normal" in="SourceGraphic" in2="effect1_dropShadow_3113_13437" result="shape"/>
</filter>
<radialGradient id="paint0_radial_3113_13437" cx="0" cy="0" r="1" gradientTransform="matrix(-0.445501 -238.05 399.217 -1.94451 187.446 276)" gradientUnits="userSpaceOnUse">
<stop stop-color="#303030"/>
<stop offset="0.660824" stop-opacity="0.3"/>
</radialGradient>
<linearGradient id="paint1_linear_3113_13437" x1="187.756" y1="121" x2="187.756" y2="289" gradientUnits="userSpaceOnUse">
<stop stop-color="#5D5D5D"/>
<stop offset="1" stop-color="#979797"/>
</linearGradient>
<linearGradient id="paint2_linear_3113_13437" x1="187.756" y1="121" x2="187.756" y2="289" gradientUnits="userSpaceOnUse">
<stop stop-color="#5D5D5D"/>
<stop offset="1" stop-color="#979797"/>
</linearGradient>
<clipPath id="clip0_3113_13437">
<rect x="3" width="368" height="276" rx="8" fill="white"/>
</clipPath>
</defs>
</svg>
