<svg width="17" height="16" viewBox="0 0 17 16" fill="none" xmlns="http://www.w3.org/2000/svg">
<path opacity="0.2" d="M13.5 5.5H10V2L13.5 5.5Z" fill="white"/>
<path d="M13.8538 5.14625L10.3538 1.64625C10.3073 1.59983 10.2521 1.56303 10.1914 1.53793C10.1307 1.51284 10.0657 1.49995 10 1.5H4C3.73478 1.5 3.48043 1.60536 3.29289 1.79289C3.10536 1.98043 3 2.23478 3 2.5V13.5C3 13.7652 3.10536 14.0196 3.29289 14.2071C3.48043 14.3946 3.73478 14.5 4 14.5H13C13.2652 14.5 13.5196 14.3946 13.7071 14.2071C13.8946 14.0196 14 13.7652 14 13.5V5.5C14.0001 5.43432 13.9872 5.36927 13.9621 5.30858C13.937 5.24788 13.9002 5.19272 13.8538 5.14625ZM10.5 3.20688L12.2931 5H10.5V3.20688ZM13 13.5H4V2.5H9.5V5.5C9.5 5.63261 9.55268 5.75979 9.64645 5.85355C9.74021 5.94732 9.86739 6 10 6H13V13.5ZM11 8.5C11 8.63261 10.9473 8.75979 10.8536 8.85355C10.7598 8.94732 10.6326 9 10.5 9H6.5C6.36739 9 6.24021 8.94732 6.14645 8.85355C6.05268 8.75979 6 8.63261 6 8.5C6 8.36739 6.05268 8.24021 6.14645 8.14645C6.24021 8.05268 6.36739 8 6.5 8H10.5C10.6326 8 10.7598 8.05268 10.8536 8.14645C10.9473 8.24021 11 8.36739 11 8.5ZM11 10.5C11 10.6326 10.9473 10.7598 10.8536 10.8536C10.7598 10.9473 10.6326 11 10.5 11H6.5C6.36739 11 6.24021 10.9473 6.14645 10.8536C6.05268 10.7598 6 10.6326 6 10.5C6 10.3674 6.05268 10.2402 6.14645 10.1464C6.24021 10.0527 6.36739 10 6.5 10H10.5C10.6326 10 10.7598 10.0527 10.8536 10.1464C10.9473 10.2402 11 10.3674 11 10.5Z" fill="white"/>
</svg>
