<svg width="17" height="16" viewBox="0 0 17 16" fill="none" xmlns="http://www.w3.org/2000/svg">
<path opacity="0.2" d="M14 6V13C14 13.1326 13.9473 13.2598 13.8536 13.3536C13.7598 13.4473 13.6326 13.5 13.5 13.5H3.5C3.36739 13.5 3.24021 13.4473 3.14645 13.3536C3.05268 13.2598 3 13.1326 3 13V6C3 5.86739 3.05268 5.74021 3.14645 5.64645C3.24021 5.55268 3.36739 5.5 3.5 5.5H13.5C13.6326 5.5 13.7598 5.55268 13.8536 5.64645C13.9473 5.74021 14 5.86739 14 6Z" fill="white"/>
<path d="M13.5 5H11.5V3.5C11.5 2.70435 11.1839 1.94129 10.6213 1.37868C10.0587 0.81607 9.29565 0.5 8.5 0.5C7.70435 0.5 6.94129 0.81607 6.37868 1.37868C5.81607 1.94129 5.5 2.70435 5.5 3.5V5H3.5C3.23478 5 2.98043 5.10536 2.79289 5.29289C2.60536 5.48043 2.5 5.73478 2.5 6V13C2.5 13.2652 2.60536 13.5196 2.79289 13.7071C2.98043 13.8946 3.23478 14 3.5 14H13.5C13.7652 14 14.0196 13.8946 14.2071 13.7071C14.3946 13.5196 14.5 13.2652 14.5 13V6C14.5 5.73478 14.3946 5.48043 14.2071 5.29289C14.0196 5.10536 13.7652 5 13.5 5ZM6.5 3.5C6.5 2.96957 6.71071 2.46086 7.08579 2.08579C7.46086 1.71071 7.96957 1.5 8.5 1.5C9.03043 1.5 9.53914 1.71071 9.91421 2.08579C10.2893 2.46086 10.5 2.96957 10.5 3.5V5H6.5V3.5ZM13.5 13H3.5V6H13.5V13Z" fill="white"/>
</svg>
