<svg width="24" height="24" viewBox="0 0 24 24" fill="none" xmlns="http://www.w3.org/2000/svg">
<g clip-path="url(#clip0_4891_14656)">
<path d="M11.9553 -0.014716C12.0018 -0.014615 12.0483 -0.0145139 12.0963 -0.0144098C12.7912 -0.0119896 13.4718 0.0034053 14.1555 0.140557C14.2252 0.154527 14.2252 0.154527 14.2964 0.168779C15.6846 0.457446 17.0228 0.943478 18.2336 1.68743C18.5669 1.41275 18.864 1.10518 19.1655 0.796441C19.2057 0.755715 19.2459 0.714989 19.2873 0.673028C19.3236 0.636033 19.3598 0.599038 19.3971 0.560922C19.6025 0.375355 19.7697 0.354568 20.0395 0.359735C20.2087 0.381912 20.3086 0.453088 20.4367 0.562432C20.4773 0.592887 20.4773 0.592887 20.5187 0.623956C20.6814 0.843586 20.6908 1.15242 20.711 1.41589C20.714 1.45177 20.717 1.48765 20.7201 1.52461C20.7263 1.60012 20.7323 1.67564 20.7382 1.75116C20.7472 1.86536 20.7567 1.97951 20.7663 2.09365C20.7963 2.45918 20.8199 2.82035 20.8117 3.18743C20.8715 3.18616 20.9313 3.18489 20.993 3.18359C21.3352 3.18377 21.6753 3.21193 22.0162 3.23979C22.1301 3.24896 22.2441 3.25734 22.358 3.26571C22.4316 3.27161 22.5051 3.27756 22.5787 3.28356C22.6122 3.28591 22.6457 3.28826 22.6802 3.29068C22.9818 3.31692 23.2776 3.37301 23.4806 3.61224C23.5991 3.78093 23.633 3.86341 23.6389 4.06634C23.6406 4.10574 23.6424 4.14513 23.6442 4.18572C23.5993 4.47022 23.3708 4.67279 23.1723 4.86724C23.1476 4.89181 23.1229 4.91639 23.0974 4.9417C23.0193 5.01928 22.9409 5.09652 22.8625 5.17376C22.8091 5.22666 22.7558 5.27957 22.7024 5.33251C22.5724 5.46149 22.4422 5.59016 22.3117 5.71868C22.4988 6.09463 22.4988 6.09463 22.6893 6.46887C23.5756 8.20161 24.0212 10.0333 24.0139 11.9794C24.0138 12.0273 24.0137 12.0751 24.0135 12.1244C24.0112 12.8108 23.9967 13.4816 23.8586 14.1562C23.8495 14.2029 23.8405 14.2496 23.8311 14.2977C23.4505 16.2238 22.6364 17.9626 21.4211 19.4999C21.383 19.5486 21.3449 19.5972 21.3057 19.6473C20.7121 20.3768 20.03 21.061 19.2648 21.6093C19.2018 21.6557 19.1387 21.7021 19.0757 21.7485C17.6082 22.8172 15.9414 23.5306 14.1555 23.8593C14.1179 23.8668 14.0804 23.8744 14.0417 23.8821C12.7261 24.1395 11.1554 24.1288 9.84295 23.8593C9.79549 23.85 9.74803 23.8407 9.69912 23.8311C7.77291 23.4459 6.04156 22.6284 4.4992 21.4218C4.47393 21.4022 4.44866 21.3825 4.42262 21.3623C3.68881 20.7856 2.99372 20.1 2.44652 19.3431C2.3873 19.2621 2.3261 19.183 2.2644 19.1039C1.19831 17.7206 0.523716 16.0343 0.174985 14.332C0.164364 14.2806 0.164364 14.2806 0.153528 14.2282C0.0113969 13.4926 -0.0182903 12.7649 -0.0154445 12.0175C-0.0153435 11.9698 -0.0152425 11.9221 -0.0151384 11.8729C-0.0128085 11.1874 0.00191895 10.5174 0.139829 9.84368C0.153425 9.77361 0.153425 9.77361 0.167295 9.70212C0.524888 7.89236 1.26143 6.19767 2.38983 4.73431C2.43506 4.67557 2.43506 4.67557 2.4812 4.61565C3.14227 3.77406 3.90886 2.96836 4.78045 2.34368C4.80585 2.32531 4.83124 2.30694 4.8574 2.28802C6.30653 1.24348 7.91784 0.535579 9.66717 0.175714C9.70142 0.168625 9.73566 0.161537 9.77095 0.154233C10.4978 0.0138962 11.2168 -0.0176028 11.9553 -0.014716ZM8.90545 1.87493C8.84672 1.89215 8.78799 1.90937 8.72748 1.92712C6.11757 2.74201 3.90589 4.68326 2.6242 7.07806C2.34035 7.62372 2.10854 8.18012 1.92108 8.76556C1.9107 8.79705 1.90032 8.82854 1.88963 8.86098C1.61784 9.69092 1.44955 10.5701 1.44116 11.4446C1.4407 11.4844 1.44025 11.5242 1.43977 11.5652C1.43161 12.4612 1.44406 13.3243 1.63983 14.2031C1.65299 14.2631 1.65299 14.2631 1.66642 14.3244C1.72518 14.5843 1.79544 14.8392 1.8742 15.0937C1.89112 15.1489 1.89112 15.1489 1.90838 15.2051C2.40258 16.7847 3.27325 18.1934 4.42454 19.3762C4.49094 19.4446 4.55648 19.5138 4.62188 19.5831C4.92975 19.903 5.26958 20.172 5.6242 20.4374C5.6508 20.4575 5.67739 20.4776 5.70479 20.4982C7.92098 22.1615 10.7315 22.8623 13.4728 22.4882C15.7131 22.155 17.7533 21.1536 19.3755 19.5746C19.4438 19.5082 19.513 19.4427 19.5823 19.3773C19.9023 19.0694 20.1713 18.7296 20.4367 18.3749C20.4568 18.3483 20.4768 18.3217 20.4975 18.2943C21.5064 16.9501 22.2054 15.354 22.4523 13.6874C22.4645 13.6138 22.4645 13.6138 22.4769 13.5387C22.5544 13.0308 22.5628 12.5304 22.5607 12.0175C22.5606 11.9739 22.5606 11.9303 22.5605 11.8854C22.5584 11.257 22.5396 10.6472 22.4055 10.0312C22.3977 9.9925 22.3899 9.95382 22.3818 9.91397C22.1646 8.84396 21.7718 7.8625 21.2805 6.89056C21.0993 6.87145 21.0993 6.87145 21.0058 6.95792C20.9765 6.98874 20.9473 7.01957 20.9172 7.05132C20.8848 7.08474 20.8524 7.11815 20.819 7.15258C20.769 7.2056 20.769 7.2056 20.718 7.2597C20.6518 7.32912 20.5854 7.39834 20.5187 7.46734C20.4895 7.49827 20.4602 7.5292 20.4301 7.56107C20.1702 7.79807 19.8783 7.74621 19.5461 7.73431C19.2959 7.72197 19.046 7.7054 18.7961 7.68743C18.8115 7.71378 18.8269 7.74012 18.8428 7.76727C19.2571 8.49931 19.5751 9.26232 19.7805 10.0781C19.7903 10.1153 19.8002 10.1525 19.8103 10.1909C20.1101 11.3606 20.0889 12.7572 19.7805 13.9218C19.7658 13.9802 19.7658 13.9802 19.7508 14.0397C19.2176 16.1229 17.8499 17.8415 16.0217 18.9433C15.4531 19.2754 14.8539 19.5169 14.2228 19.7021C14.1864 19.7129 14.15 19.7237 14.1125 19.7348C13.4192 19.927 12.728 19.9948 12.0109 19.9892C11.9722 19.989 11.9335 19.9889 11.8936 19.9888C11.2717 19.9854 10.6808 19.941 10.0773 19.7812C10.0384 19.7714 9.9995 19.7616 9.95941 19.7515C7.87621 19.2183 6.15767 17.8506 5.05584 16.0224C4.72376 15.4539 4.48228 14.8546 4.29706 14.2236C4.28625 14.1871 4.27545 14.1507 4.26433 14.1132C4.08162 13.454 4.00669 12.7947 4.01212 12.1122C4.01288 11.9999 4.01212 11.8877 4.01123 11.7754C4.01027 11.0967 4.10205 10.4342 4.29413 9.78216C4.30599 9.74166 4.31785 9.70115 4.33007 9.65942C4.71234 8.40443 5.38241 7.32561 6.28045 6.37493C6.31302 6.33989 6.34559 6.30484 6.37915 6.26873C7.6043 4.99225 9.526 4.10239 11.293 4.02289C11.36 4.02166 11.427 4.02071 11.494 4.02001C11.5303 4.01955 11.5666 4.01909 11.604 4.01862C12.3938 4.01069 13.1523 4.01511 13.9211 4.21868C13.96 4.22848 13.9989 4.23828 14.039 4.24837C14.8399 4.45336 15.5985 4.78596 16.3117 5.20306C16.3083 5.15991 16.3049 5.11677 16.3014 5.07232C16.2788 4.76368 16.2591 4.45481 16.2502 4.14544C16.2484 4.09414 16.2467 4.04284 16.2449 3.98998C16.2915 3.64829 16.5798 3.42326 16.8156 3.19329C16.8646 3.14489 16.8646 3.14489 16.9147 3.09551C16.9947 3.01656 17.075 2.93783 17.1555 2.85931C17.1238 2.71691 17.1238 2.71691 17.0266 2.66282C14.4776 1.3957 11.6501 1.04753 8.90545 1.87493ZM19.2648 2.76556C18.2263 3.53145 18.2263 3.53145 17.6071 4.59815C17.5596 5.0538 17.6092 5.7423 17.8679 6.13126C18.2811 6.40607 19.043 6.46252 19.5205 6.36846C20.2195 6.13173 20.7887 5.29057 21.2336 4.73431C21.2181 4.70337 21.2026 4.67243 21.1867 4.64056C21.083 4.62008 21.083 4.62008 20.9578 4.61419C20.9108 4.61069 20.8638 4.60718 20.8154 4.60357C20.7658 4.60031 20.7163 4.59704 20.6652 4.59368C19.8911 4.54156 19.8911 4.54156 19.6486 4.34759C19.3898 4.02222 19.4205 3.60022 19.3956 3.20272C19.3921 3.15338 19.3886 3.10405 19.3849 3.05322C19.3821 3.00812 19.3793 2.96302 19.3763 2.91656C19.3705 2.8822 19.3646 2.84784 19.3586 2.81243C19.3276 2.79696 19.2967 2.7815 19.2648 2.76556ZM7.78045 6.93743C7.75668 6.95754 7.7329 6.97765 7.7084 6.99836C6.63445 7.91646 5.96062 9.10217 5.57733 10.4531C5.56819 10.4852 5.55905 10.5173 5.54963 10.5504C5.30985 11.4495 5.32322 12.6534 5.57733 13.5468C5.59358 13.6041 5.59358 13.6041 5.61015 13.6625C6.14079 15.4733 7.28628 16.9222 8.93533 17.8478C10.0851 18.4661 11.4552 18.7167 12.7492 18.5624C12.7807 18.5588 12.8123 18.5551 12.8448 18.5513C14.5211 18.3402 16.0902 17.4288 17.1555 16.1249C18.2907 14.6283 18.7766 12.8311 18.5297 10.9604C18.3526 9.87947 17.8894 8.74469 17.1555 7.92181C16.9027 8.13265 16.6682 8.35593 16.4364 8.58941C16.4004 8.62543 16.3645 8.66144 16.3275 8.69855C16.2137 8.81257 16.1001 8.92676 15.9865 9.04095C15.909 9.11872 15.8314 9.19648 15.7539 9.27422C15.5647 9.46392 15.3756 9.65375 15.1867 9.84368C15.2554 10.0182 15.3325 10.1851 15.4152 10.3534C15.8058 11.2142 15.9226 12.2369 15.6269 13.1509C15.1931 14.2257 14.5512 15.018 13.4774 15.4938C12.5746 15.8551 11.4981 15.9074 10.5935 15.5228C9.66013 15.1102 8.91157 14.4758 8.50537 13.5177C8.31792 13.01 8.23084 12.5587 8.23163 12.0175C8.23174 11.9368 8.23174 11.9368 8.23185 11.8544C8.23785 11.4379 8.28806 11.0794 8.4367 10.6874C8.45078 10.6491 8.46486 10.6108 8.47937 10.5713C8.52245 10.4658 8.5711 10.3664 8.6242 10.2656C8.6462 10.2224 8.66819 10.1793 8.69085 10.1348C9.19451 9.20665 10.0132 8.63212 11.0157 8.33416C11.9628 8.08096 12.9702 8.21692 13.8144 8.6968C13.9133 8.75329 13.9133 8.75329 14.0617 8.81243C14.2206 8.75777 14.3213 8.65796 14.4383 8.54022C14.4749 8.50363 14.5115 8.46704 14.5492 8.42933C14.5882 8.38983 14.6272 8.35033 14.6674 8.30962C14.7077 8.26918 14.748 8.22874 14.7896 8.18707C14.9183 8.05785 15.0466 7.92831 15.175 7.79876C15.2622 7.71109 15.3494 7.62345 15.4366 7.53582C15.6505 7.32098 15.864 7.10587 16.0773 6.89056C15.0336 5.83645 13.476 5.47745 12.0461 5.39056C10.4888 5.39056 8.96798 5.93142 7.78045 6.93743ZM10.3117 10.3124C9.81696 10.8417 9.61723 11.4097 9.628 12.1218C9.66007 12.8239 9.97118 13.3748 10.4805 13.8475C11.0759 14.3164 11.7311 14.4297 12.468 14.3437C13.0638 14.2415 13.5763 13.862 13.9445 13.3945C14.3338 12.8032 14.4635 12.1314 14.3235 11.4345C14.2811 11.2734 14.2244 11.1202 14.1555 10.9687C14.0182 11.0305 13.9222 11.097 13.817 11.2042C13.7887 11.2329 13.7604 11.2615 13.7312 11.291C13.7011 11.3219 13.671 11.3527 13.64 11.3845C13.6086 11.4163 13.5771 11.4481 13.5448 11.4808C13.4105 11.6166 13.2768 11.753 13.1431 11.8893C13.0452 11.9888 12.9471 12.088 12.849 12.1872C12.819 12.218 12.789 12.2488 12.7581 12.2805C12.4029 12.6396 12.4029 12.6396 12.1428 12.6749C12.0954 12.6745 12.048 12.6741 11.9992 12.6738C11.9518 12.6741 11.9045 12.6745 11.8556 12.6749C11.6452 12.6463 11.529 12.5749 11.4003 12.4066C11.3357 12.2654 11.3196 12.1637 11.3166 12.0087C11.3146 11.963 11.3126 11.9172 11.3105 11.8701C11.3861 11.5172 11.7083 11.247 11.9593 11.0027C11.9901 10.9723 12.0209 10.9418 12.0527 10.9104C12.1499 10.8144 12.2473 10.7186 12.3449 10.623C12.4744 10.4959 12.6037 10.3686 12.7327 10.241C12.7626 10.2119 12.7925 10.1828 12.8233 10.1528C12.8941 10.0828 12.9625 10.0103 13.0305 9.93743C13.0305 9.9065 13.0305 9.87556 13.0305 9.84368C12.0375 9.47688 11.1216 9.59237 10.3117 10.3124Z" fill="white"/>
</g>
<defs>
<clipPath id="clip0_4891_14656">
<rect width="24" height="24" fill="white"/>
</clipPath>
</defs>
</svg>
