<svg width="24" height="24" viewBox="0 0 24 24" fill="none" xmlns="http://www.w3.org/2000/svg">
<g clip-path="url(#clip0_4891_14650)">
<path d="M21.8332 10.672L17.1662 5.23205C17.1038 5.15936 17.0269 5.10107 16.9407 5.06105C16.8545 5.02104 16.7609 5.00023 16.6662 5H7.3322C7.23747 5.00023 7.14388 5.02104 7.05766 5.06105C6.97144 5.10107 6.89457 5.15936 6.83217 5.23205L2.16518 10.672C2.0563 10.7987 1.99747 10.9622 2.00008 11.1308C2.0027 11.2993 2.06658 11.4608 2.17934 11.584L11.5133 21.7838C11.5757 21.852 11.6512 21.9064 11.7351 21.9436C11.8189 21.9808 11.9094 22 12.0009 22C12.0923 22 12.1828 21.9808 12.2667 21.9436C12.3505 21.9064 12.426 21.852 12.4884 21.7838L21.8224 11.584C21.9347 11.4604 21.9979 11.2986 22 11.1301C22.002 10.9616 21.9425 10.7983 21.8332 10.672ZM19.8639 10.4399H16.3328L13.3326 6.35998H16.3637L19.8639 10.4399ZM7.54722 11.7999L10.0582 18.2028L4.19948 11.7999H7.54722ZM16.4512 11.7999H19.7989L13.9402 18.2028L16.4512 11.7999ZM7.63472 6.35998H10.6658L7.66556 10.4399H4.13448L7.63472 6.35998Z" fill="white"/>
<path d="M21.5 4C21.303 4.73158 20.7316 5.30302 20 5.5C20.7316 5.69698 21.303 6.26842 21.5 7C21.697 6.26842 22.2684 5.69698 23 5.5C22.2684 5.30302 21.697 4.73158 21.5 4Z" fill="#D9D9D9"/>
<path d="M2.5 1C2.17171 2.21929 1.21929 3.17171 0 3.5C1.21929 3.82829 2.17171 4.78071 2.5 6C2.82829 4.78071 3.78071 3.82829 5 3.5C3.78071 3.17171 2.82829 2.21929 2.5 1Z" fill="#D9D9D9"/>
</g>
<defs>
<clipPath id="clip0_4891_14650">
<rect width="24" height="24" fill="white"/>
</clipPath>
</defs>
</svg>
