<svg width="271" height="271" viewBox="0 0 271 271" fill="none" xmlns="http://www.w3.org/2000/svg">
<rect x="0.75" y="0.5" width="270" height="270" rx="18" fill="#FFF200"/>
<path d="M71.6367 87.7128C73.2013 86.1482 74.0802 84.0261 74.0802 81.8135V68H126.194V90.7046H82.9893C80.7766 90.7046 78.6545 91.5836 77.0899 93.1482C75.5253 94.7128 74.6464 96.8348 74.6464 99.0475V115.888C74.6464 118.101 75.5253 120.223 77.0899 121.788C78.6545 123.352 80.7766 124.231 82.9893 124.231H126.194V146.876H82.9893C80.7766 146.876 78.6545 147.755 77.0899 149.32C75.5253 150.884 74.6464 153.006 74.6464 155.219V172.06C74.6464 174.272 75.5253 176.394 77.0899 177.959C78.6545 179.524 80.7766 180.403 82.9893 180.403H126.194V203.107H74.0981V189.318C74.0981 187.105 73.2191 184.983 71.6545 183.418C70.0899 181.854 67.9679 180.975 65.7552 180.975H47.7227V90.1564H65.7373C67.95 90.1564 70.0721 89.2774 71.6367 87.7128Z" fill="black"/>
<path d="M217.066 147.502H199.027C196.82 147.502 194.702 148.377 193.138 149.935C191.575 151.493 190.692 153.607 190.684 155.815V172.036C190.684 174.249 191.563 176.371 193.128 177.935C194.692 179.5 196.814 180.379 199.027 180.379H217.101V203.083H190.148V189.294C190.148 187.081 189.269 184.959 187.704 183.395C186.14 181.83 184.018 180.951 181.805 180.951H172.681C170.469 180.951 168.347 181.83 166.782 183.395C165.218 184.959 164.339 187.081 164.339 189.294V203.155H137.391V180.45H155.435C157.648 180.45 159.77 179.571 161.335 178.007C162.899 176.442 163.778 174.32 163.778 172.107V155.875C163.778 153.662 162.899 151.54 161.335 149.975C159.77 148.411 157.648 147.532 155.435 147.532H137.391V124.827H164.339V138.593C164.339 140.806 165.218 142.928 166.782 144.492C168.347 146.057 170.469 146.936 172.681 146.936H181.769C183.982 146.936 186.104 146.057 187.669 144.492C189.233 142.928 190.112 140.806 190.112 138.593V124.827H217.066V147.502Z" fill="black"/>
<path d="M152.493 91.354C158.077 93.1958 170.467 97.1932 177.671 99.5101C177.914 99.5882 178.169 99.5857 178.411 99.5067L197.928 93.1549V107.144C197.493 107.285 197.16 107.666 197.093 108.143L196.22 114.308C196.115 115.051 196.686 115.716 197.43 115.716H200.722C201.466 115.716 202.037 115.051 201.932 114.308L201.059 108.143C200.982 107.598 200.558 107.178 200.032 107.098L199.822 92.5384L202.785 91.5741C203.92 91.2046 203.912 89.5817 202.773 89.2235L178.402 81.5559C178.165 81.4814 177.912 81.4814 177.675 81.5559L152.521 89.4695C151.471 89.8 151.447 91.0091 152.493 91.354Z" fill="black"/>
<path d="M177.671 101.36C173.708 100.085 168.174 98.3014 163.068 96.6482V108.251C163.068 110.297 164.319 112.148 166.24 112.803C176.193 116.201 183.476 116.434 190.114 112.994C191.582 112.233 192.398 110.647 192.398 108.982V96.8041L178.411 101.356C178.169 101.435 177.914 101.438 177.671 101.36Z" fill="black"/>
</svg>
