<svg width="564" height="192" viewBox="0 0 564 192" fill="none" xmlns="http://www.w3.org/2000/svg">
<g filter="url(#filter0_i_2468_6031)">
<circle cx="282.151" cy="96.1524" r="53.1513" fill="#1F1F20"/>
<circle cx="282.151" cy="96.1524" r="53.1513" fill="url(#paint0_radial_2468_6031)" fill-opacity="0.3"/>
<circle cx="282.151" cy="96.1524" r="53.1513" fill="url(#paint1_radial_2468_6031)" fill-opacity="0.1"/>
<circle cx="282.151" cy="96.1524" r="53.1513" fill="url(#paint2_radial_2468_6031)" fill-opacity="0.8"/>
</g>
<circle cx="282.151" cy="96.1524" r="52.6513" stroke="url(#paint3_linear_2468_6031)" style="mix-blend-mode:overlay"/>
<path d="M290.349 90.1699H295.96L294.517 95.7354H290.268C289.143 101.937 284.634 103.654 279.39 105.645L291.492 121H282.178L268.653 104.704L268.672 99.6992C272.946 99.6992 279.859 101.007 281.712 95.7354H268L269.424 90.1699H281.451C279.212 85.5495 272.105 87.0269 268 87.0269L269.621 80H296L294.517 85.6455H288.674C289.513 86.9688 290.077 88.4776 290.349 90.1699Z" fill="url(#paint4_linear_2468_6031)"/>
<g filter="url(#filter1_i_2468_6031)">
<circle cx="397.87" cy="101.316" r="37.2059" fill="#1F1F20"/>
<circle cx="397.87" cy="101.316" r="37.2059" fill="url(#paint5_radial_2468_6031)" fill-opacity="0.4"/>
</g>
<g filter="url(#filter2_i_2468_6031)">
<circle cx="166.128" cy="101.316" r="37.2059" fill="#1F1F20"/>
<circle cx="166.128" cy="101.316" r="37.2059" fill="url(#paint6_radial_2468_6031)" fill-opacity="0.4"/>
</g>
<g filter="url(#filter3_i_2468_6031)">
<circle cx="66.2059" cy="101.316" r="37.2059" fill="#1F1F20"/>
<circle cx="66.2059" cy="101.316" r="37.2059" fill="url(#paint7_radial_2468_6031)" fill-opacity="0.4"/>
</g>
<g filter="url(#filter4_i_2468_6031)">
<circle cx="497.792" cy="101.316" r="37.2059" fill="#1F1F20"/>
<circle cx="497.792" cy="101.316" r="37.2059" fill="url(#paint8_radial_2468_6031)" fill-opacity="0.4"/>
</g>
<g filter="url(#filter5_d_2468_6031)">
<path d="M239.626 48.4258C239.843 49.2648 238.963 49.9637 238.195 49.5626L216.991 38.4878C216.108 38.0269 216.368 36.7002 217.359 36.6059L227.601 35.6313C227.994 35.5939 228.329 35.3282 228.454 34.9534L231.721 25.1982C232.037 24.2542 233.388 24.3016 233.638 25.2654L239.626 48.4258Z" fill="#FFF200"/>
</g>
<g filter="url(#filter6_d_2468_6031)">
<path d="M240.626 133.641C240.843 132.802 239.963 132.103 239.195 132.504L217.991 143.579C217.108 144.039 217.368 145.366 218.359 145.46L228.601 146.435C228.994 146.473 229.329 146.738 229.454 147.113L232.721 156.868C233.037 157.812 234.388 157.765 234.638 156.801L240.626 133.641Z" fill="#FFF200"/>
</g>
<g filter="url(#filter7_d_2468_6031)">
<path d="M35.6261 133.641C35.8431 132.802 34.9631 132.103 34.195 132.504L12.9909 143.579C12.1085 144.039 12.368 145.366 13.3591 145.46L23.6006 146.435C23.9941 146.473 24.3286 146.738 24.4541 147.113L27.7212 156.868C28.0374 157.812 29.3884 157.765 29.6376 156.801L35.6261 133.641Z" fill="url(#paint9_linear_2468_6031)"/>
</g>
<g filter="url(#filter8_d_2468_6031)">
<path d="M485.626 75.4274C485.843 76.2663 484.963 76.9653 484.195 76.5642L462.991 65.4894C462.108 65.0285 462.368 63.7018 463.359 63.6075L473.601 62.6329C473.994 62.5955 474.329 62.3298 474.454 61.955L477.721 52.1998C478.037 51.2558 479.388 51.3032 479.638 52.267L485.626 75.4274Z" fill="url(#paint10_linear_2468_6031)"/>
</g>
<g filter="url(#filter9_d_2468_6031)">
<path d="M303.96 39.4274C303.743 40.2663 304.623 40.9653 305.391 40.5642L326.595 29.4894C327.477 29.0285 327.218 27.7018 326.227 27.6075L315.985 26.6329C315.592 26.5955 315.257 26.3298 315.132 25.955L311.865 16.1998C311.549 15.2558 310.198 15.3032 309.948 16.267L303.96 39.4274Z" fill="#FFF200"/>
</g>
<g filter="url(#filter10_d_2468_6031)">
<path d="M317.96 107.642C317.743 106.803 318.623 106.104 319.391 106.505L340.595 117.58C341.477 118.041 341.218 119.368 340.227 119.462L329.985 120.436C329.592 120.474 329.257 120.74 329.132 121.114L325.865 130.87C325.549 131.814 324.198 131.766 323.948 130.802L317.96 107.642Z" fill="#FFF200"/>
</g>
<path d="M175 91L174.483 92.9493H168.958C170.114 94.7525 170.94 96.3644 171.285 98.4936H174.976L174.48 100.384H171.245C169.93 105.215 167.752 108.331 162.25 108.292L170.785 119H166.674L157.188 107.701L157.196 105.543C160.752 105.689 165.415 105.91 166.856 101.855L167.379 100.384H157.023L157.512 98.4936H167.391L166.613 96.9062C164.875 93.3591 160.354 93.7277 157 93.915L157.68 91H175Z" fill="url(#paint11_linear_2468_6031)"/>
<path d="M508 91L507.483 92.9493H501.958C503.114 94.7525 503.94 96.3644 504.285 98.4936H507.976L507.48 100.384H504.245C502.93 105.215 500.752 108.331 495.25 108.292L503.785 119H499.674L490.188 107.701L490.196 105.543C493.752 105.689 498.415 105.91 499.856 101.855L500.379 100.384H490.023L490.512 98.4936H500.391L499.613 96.9062C497.875 93.3591 493.354 93.7277 490 93.915L490.68 91H508Z" fill="url(#paint12_linear_2468_6031)"/>
<path d="M75 91L74.4826 92.9493H68.958C70.1143 94.7525 70.9404 96.3644 71.2854 98.4936H74.976L74.4796 100.384H71.2447C69.9302 105.215 67.7522 108.331 62.2502 108.292L70.7855 119H66.6736L57.1885 107.701L57.1965 105.543C60.7518 105.689 65.4151 105.91 66.8562 101.855L67.3795 100.384H57.0226L57.5124 98.4936H67.3911L66.6131 96.9062C64.8747 93.3591 60.3539 93.7277 57 93.915L57.6805 91H75Z" fill="url(#paint13_linear_2468_6031)"/>
<path d="M408 91L407.483 92.9493H401.958C403.114 94.7525 403.94 96.3644 404.285 98.4936H407.976L407.48 100.384H404.245C402.93 105.215 400.752 108.331 395.25 108.292L403.785 119H399.674L390.188 107.701L390.196 105.543C393.752 105.689 398.415 105.91 399.856 101.855L400.379 100.384H390.023L390.512 98.4936H400.391L399.613 96.9062C397.875 93.3591 393.354 93.7277 390 93.915L390.68 91H408Z" fill="url(#paint14_linear_2468_6031)"/>
<path d="M248.94 173.194L248.31 172.402C248.07 172.042 247.878 171.706 247.734 171.394C247.59 171.082 247.488 170.698 247.428 170.242C247.344 169.954 247.29 169.684 247.266 169.432C247.242 169.18 247.23 168.892 247.23 168.568C247.242 168.232 247.254 167.818 247.266 167.326C247.278 166.87 247.326 166.54 247.41 166.336C247.506 166.132 247.578 165.982 247.626 165.886C247.746 165.742 247.854 165.724 247.95 165.832C248.058 165.94 248.142 166.126 248.202 166.39C248.274 166.642 248.304 166.942 248.292 167.29C248.328 168.574 248.418 169.594 248.562 170.35C248.718 171.106 248.928 171.568 249.192 171.736C249.336 171.772 249.462 171.766 249.57 171.718C249.69 171.658 249.858 171.514 250.074 171.286C250.302 171.046 250.638 170.686 251.082 170.206C251.406 169.858 251.736 169.486 252.072 169.09C252.42 168.694 252.744 168.316 253.044 167.956C253.356 167.596 253.632 167.29 253.872 167.038C254.124 166.774 254.322 166.6 254.466 166.516C254.514 166.444 254.562 166.39 254.61 166.354C254.67 166.318 254.724 166.3 254.772 166.3C254.82 166.288 254.844 166.282 254.844 166.282C254.94 166.306 254.994 166.384 255.006 166.516C255.018 166.636 255.066 166.756 255.15 166.876C255.174 166.924 255.192 166.978 255.204 167.038C255.216 167.086 255.216 167.14 255.204 167.2C255.204 167.236 255.18 167.284 255.132 167.344C255.084 167.392 255.03 167.446 254.97 167.506C254.922 167.554 254.868 167.608 254.808 167.668C254.652 167.8 254.406 168.034 254.07 168.37C253.746 168.694 253.41 169.048 253.062 169.432C252.714 169.804 252.42 170.14 252.18 170.44C251.652 171.052 251.178 171.58 250.758 172.024C250.35 172.468 250.098 172.732 250.002 172.816C249.99 172.84 249.906 172.924 249.75 173.068C249.594 173.212 249.486 173.332 249.426 173.428L248.94 173.194ZM247.662 179.224C247.614 179.212 247.542 179.17 247.446 179.098C247.35 179.038 247.242 178.966 247.122 178.882C247.038 178.786 246.984 178.696 246.96 178.612C246.948 178.528 246.966 178.408 247.014 178.252C247.062 178.096 247.128 177.856 247.212 177.532C247.224 177.256 247.278 176.92 247.374 176.524C247.482 176.128 247.608 175.798 247.752 175.534C247.752 175.402 247.782 175.222 247.842 174.994C247.902 174.766 247.974 174.532 248.058 174.292C248.154 174.04 248.238 173.824 248.31 173.644L248.634 172.708L249.354 172.096L249.858 172.654C249.81 172.726 249.768 172.81 249.732 172.906C249.696 173.002 249.648 173.164 249.588 173.392C249.528 173.62 249.438 173.974 249.318 174.454C249.222 174.778 249.114 175.126 248.994 175.498C248.886 175.87 248.784 176.218 248.688 176.542C248.592 176.866 248.508 177.13 248.436 177.334C248.292 177.874 248.184 178.288 248.112 178.576C248.04 178.864 247.974 179.05 247.914 179.134C247.866 179.23 247.782 179.26 247.662 179.224ZM254.04 177.73C253.884 177.73 253.758 177.7 253.662 177.64C253.578 177.58 253.47 177.496 253.338 177.388C253.11 177.148 252.948 176.92 252.852 176.704C252.756 176.476 252.726 176.26 252.762 176.056C252.798 175.96 252.81 175.87 252.798 175.786C252.798 175.69 252.798 175.642 252.798 175.642C252.738 175.582 252.72 175.546 252.744 175.534C252.768 175.51 252.792 175.474 252.816 175.426C252.888 175.426 252.912 175.36 252.888 175.228C252.864 175.132 252.912 174.922 253.032 174.598C253.152 174.274 253.302 173.968 253.482 173.68C253.554 173.56 253.662 173.404 253.806 173.212C253.95 173.008 254.106 172.81 254.274 172.618C254.454 172.414 254.616 172.252 254.76 172.132C255.06 171.88 255.324 171.694 255.552 171.574C255.78 171.454 256.026 171.364 256.29 171.304C256.554 171.244 256.734 171.214 256.83 171.214C256.938 171.214 257.082 171.31 257.262 171.502C257.538 171.622 257.736 171.766 257.856 171.934C257.988 172.102 258.072 172.348 258.108 172.672C258.144 173.032 258.114 173.446 258.018 173.914C257.934 174.37 257.652 174.94 257.172 175.624C256.872 176.056 256.596 176.38 256.344 176.596C256.092 176.8 255.792 177.004 255.444 177.208C255.192 177.376 254.964 177.502 254.76 177.586C254.556 177.658 254.316 177.706 254.04 177.73ZM255.768 175.822C256.056 175.498 256.284 175.192 256.452 174.904C256.632 174.616 256.8 174.25 256.956 173.806C257.004 173.674 257.034 173.512 257.046 173.32C257.058 173.116 257.052 172.93 257.028 172.762C257.016 172.582 256.974 172.48 256.902 172.456C256.758 172.372 256.584 172.348 256.38 172.384C256.176 172.408 255.954 172.522 255.714 172.726C255.342 173.038 255.018 173.428 254.742 173.896C254.466 174.352 254.196 174.874 253.932 175.462C253.752 175.894 253.71 176.242 253.806 176.506C253.914 176.758 254.136 176.848 254.472 176.776C254.82 176.692 255.252 176.374 255.768 175.822ZM263.374 177.964C263.29 178.012 263.176 177.994 263.032 177.91C262.9 177.826 262.768 177.7 262.636 177.532C262.552 177.388 262.492 177.232 262.456 177.064C262.432 176.896 262.42 176.662 262.42 176.362C262.432 176.122 262.42 175.966 262.384 175.894C262.36 175.822 262.294 175.834 262.186 175.93C262.078 176.014 261.892 176.188 261.628 176.452C261.328 176.752 261.04 176.986 260.764 177.154C260.5 177.322 260.284 177.4 260.116 177.388C260.032 177.388 259.936 177.346 259.828 177.262C259.732 177.166 259.642 177.052 259.558 176.92C259.474 176.776 259.402 176.632 259.342 176.488C259.27 176.224 259.258 175.888 259.306 175.48C259.366 175.06 259.462 174.622 259.594 174.166C259.726 173.71 259.876 173.278 260.044 172.87C260.224 172.462 260.404 172.132 260.584 171.88C260.776 171.628 260.944 171.502 261.088 171.502C261.184 171.502 261.268 171.55 261.34 171.646C261.424 171.742 261.508 171.892 261.592 172.096C261.64 172.18 261.658 172.252 261.646 172.312C261.646 172.372 261.598 172.444 261.502 172.528C261.394 172.672 261.268 172.888 261.124 173.176C260.992 173.464 260.86 173.776 260.728 174.112C260.608 174.448 260.5 174.772 260.404 175.084C260.308 175.396 260.242 175.654 260.206 175.858C260.17 176.05 260.176 176.146 260.224 176.146C260.392 176.146 260.59 176.08 260.818 175.948C261.058 175.804 261.286 175.63 261.502 175.426C261.754 175.174 261.976 174.898 262.168 174.598C262.372 174.298 262.576 173.98 262.78 173.644C262.936 173.404 263.098 173.14 263.266 172.852C263.446 172.564 263.56 172.36 263.608 172.24C263.776 171.928 263.902 171.718 263.986 171.61C264.07 171.49 264.172 171.412 264.292 171.376C264.352 171.376 264.406 171.376 264.454 171.376C264.514 171.376 264.544 171.376 264.544 171.376C264.616 171.388 264.7 171.442 264.796 171.538C264.892 171.586 264.946 171.634 264.958 171.682C264.97 171.718 264.976 171.766 264.976 171.826C264.928 171.946 264.85 172.126 264.742 172.366C264.646 172.594 264.574 172.762 264.526 172.87C264.298 173.386 264.07 173.896 263.842 174.4C263.626 174.892 263.47 175.396 263.374 175.912C263.35 176.08 263.344 176.278 263.356 176.506C263.38 176.722 263.416 176.878 263.464 176.974C263.5 177.046 263.542 177.13 263.59 177.226C263.65 177.31 263.716 177.382 263.788 177.442C263.896 177.514 263.914 177.592 263.842 177.676C263.782 177.76 263.698 177.832 263.59 177.892C263.482 177.94 263.41 177.964 263.374 177.964ZM266.148 177.37C266.04 177.286 265.962 177.202 265.914 177.118C265.878 177.034 265.878 176.872 265.914 176.632C265.95 176.296 265.998 176.002 266.058 175.75C266.118 175.486 266.19 175.186 266.274 174.85C266.298 174.706 266.364 174.46 266.472 174.112C266.592 173.764 266.736 173.386 266.904 172.978C267.072 172.57 267.24 172.186 267.408 171.826C267.576 171.454 267.72 171.178 267.84 170.998C267.936 170.926 268.05 170.896 268.182 170.908C268.326 170.92 268.446 170.974 268.542 171.07C268.674 171.178 268.692 171.37 268.596 171.646C268.512 171.91 268.332 172.33 268.056 172.906C267.912 173.23 267.804 173.476 267.732 173.644C267.66 173.8 267.63 173.896 267.642 173.932C267.654 173.956 267.708 173.938 267.804 173.878C267.876 173.746 268.008 173.596 268.2 173.428C268.392 173.248 268.596 173.074 268.812 172.906C269.028 172.738 269.232 172.588 269.424 172.456C269.616 172.324 269.748 172.24 269.82 172.204C269.916 172.144 270.024 172.096 270.144 172.06C270.276 172.012 270.366 171.976 270.414 171.952C270.69 171.82 270.972 171.772 271.26 171.808C271.548 171.844 271.728 171.952 271.8 172.132C271.812 172.228 271.848 172.3 271.908 172.348C271.98 172.396 272.016 172.42 272.016 172.42C272.064 172.42 272.088 172.438 272.088 172.474C272.1 172.51 272.106 172.528 272.106 172.528C272.106 172.612 272.04 172.666 271.908 172.69C271.788 172.702 271.632 172.714 271.44 172.726C271.284 172.738 271.146 172.768 271.026 172.816C270.906 172.864 270.762 172.924 270.594 172.996C270.138 173.26 269.7 173.518 269.28 173.77C268.872 174.022 268.476 174.358 268.092 174.778C268.008 174.874 267.924 174.988 267.84 175.12C267.756 175.252 267.666 175.396 267.57 175.552C267.51 175.612 267.45 175.744 267.39 175.948C267.33 176.152 267.276 176.35 267.228 176.542C267.192 176.722 267.174 176.83 267.174 176.866C267.174 176.866 267.156 176.926 267.12 177.046C267.084 177.154 267.024 177.262 266.94 177.37C266.796 177.562 266.676 177.658 266.58 177.658C266.484 177.658 266.34 177.562 266.148 177.37ZM277.552 178.45C277.492 178.45 277.42 178.42 277.336 178.36C277.252 178.312 277.174 178.246 277.102 178.162C277.042 178.078 277.012 177.988 277.012 177.892C277.012 177.892 277.006 177.856 276.994 177.784C276.994 177.7 276.97 177.616 276.922 177.532C276.922 177.436 276.922 177.328 276.922 177.208C276.934 177.076 276.964 176.944 277.012 176.812C277.012 176.68 277.03 176.536 277.066 176.38C277.102 176.212 277.144 176.086 277.192 176.002C277.192 175.87 277.222 175.702 277.282 175.498C277.354 175.282 277.414 175.084 277.462 174.904C277.594 174.508 277.69 174.22 277.75 174.04C277.822 173.86 277.87 173.728 277.894 173.644C277.918 173.548 277.93 173.452 277.93 173.356C277.966 173.26 278.02 173.086 278.092 172.834C278.164 172.582 278.236 172.324 278.308 172.06C278.392 171.784 278.446 171.586 278.47 171.466C278.518 171.418 278.542 171.376 278.542 171.34C278.554 171.292 278.56 171.244 278.56 171.196C278.56 171.196 278.602 171.058 278.686 170.782C278.77 170.506 278.878 170.188 279.01 169.828C279.226 169.192 279.37 168.73 279.442 168.442C279.526 168.154 279.562 167.95 279.55 167.83C279.55 167.71 279.52 167.59 279.46 167.47C279.376 167.314 279.376 167.194 279.46 167.11C279.508 167.062 279.55 167.008 279.586 166.948C279.622 166.876 279.64 166.84 279.64 166.84C279.64 166.816 279.718 166.774 279.874 166.714C280.03 166.654 280.222 166.588 280.45 166.516C280.678 166.432 280.906 166.354 281.134 166.282C281.374 166.21 281.572 166.15 281.728 166.102C281.764 166.102 281.818 166.102 281.89 166.102C281.974 166.102 282.064 166.102 282.16 166.102C282.268 166.102 282.37 166.102 282.466 166.102C282.778 166.15 283.096 166.24 283.42 166.372C283.756 166.504 284.038 166.69 284.266 166.93C284.41 167.062 284.536 167.218 284.644 167.398C284.764 167.578 284.914 167.872 285.094 168.28C285.094 168.328 285.106 168.43 285.13 168.586C285.166 168.73 285.184 168.874 285.184 169.018C285.184 169.378 285.094 169.756 284.914 170.152C284.734 170.548 284.476 170.95 284.14 171.358C283.804 171.754 283.396 172.15 282.916 172.546C282.412 172.954 281.89 173.23 281.35 173.374C280.81 173.518 280.33 173.548 279.91 173.464C279.826 173.428 279.748 173.356 279.676 173.248C279.616 173.14 279.574 173.032 279.55 172.924C279.526 172.816 279.532 172.744 279.568 172.708C279.664 172.684 279.808 172.678 280 172.69C280.192 172.69 280.498 172.612 280.918 172.456C281.05 172.408 281.188 172.354 281.332 172.294C281.476 172.222 281.59 172.162 281.674 172.114C281.914 171.958 282.19 171.748 282.502 171.484C282.814 171.22 283.102 170.878 283.366 170.458C283.474 170.29 283.582 170.092 283.69 169.864C283.798 169.624 283.888 169.384 283.96 169.144C284.044 168.904 284.086 168.706 284.086 168.55C284.182 168.238 284.122 167.98 283.906 167.776C283.702 167.56 283.372 167.428 282.916 167.38C282.772 167.344 282.55 167.356 282.25 167.416C281.95 167.464 281.662 167.53 281.386 167.614C281.11 167.698 280.924 167.77 280.828 167.83C280.78 167.83 280.75 167.866 280.738 167.938C280.726 168.01 280.696 168.094 280.648 168.19C280.648 168.274 280.612 168.454 280.54 168.73C280.468 168.994 280.384 169.24 280.288 169.468C280.204 169.732 280.102 170.026 279.982 170.35C279.862 170.662 279.778 170.908 279.73 171.088C279.682 171.28 279.622 171.466 279.55 171.646C279.49 171.826 279.46 171.916 279.46 171.916C279.46 171.964 279.424 172.066 279.352 172.222C279.292 172.378 279.238 172.546 279.19 172.726C279.142 172.954 279.076 173.212 278.992 173.5C278.92 173.788 278.836 174.046 278.74 174.274C278.608 174.718 278.494 175.162 278.398 175.606C278.302 176.038 278.296 176.32 278.38 176.452C278.512 176.452 278.56 176.56 278.524 176.776C278.488 176.98 278.38 177.262 278.2 177.622C278.08 177.922 277.99 178.126 277.93 178.234C277.87 178.354 277.816 178.42 277.768 178.432C277.72 178.444 277.648 178.45 277.552 178.45ZM285.888 177.442C285.852 177.454 285.792 177.448 285.708 177.424C285.624 177.4 285.54 177.37 285.456 177.334C285.372 177.298 285.318 177.268 285.294 177.244C285.246 177.196 285.198 177.124 285.15 177.028C285.114 176.932 285.114 176.794 285.15 176.614C285.186 176.422 285.306 176.176 285.51 175.876C285.57 175.756 285.642 175.576 285.726 175.336C285.81 175.096 285.894 174.844 285.978 174.58C286.074 174.304 286.158 174.058 286.23 173.842C286.314 173.626 286.374 173.476 286.41 173.392C286.434 173.188 286.422 173.044 286.374 172.96C286.338 172.864 286.236 172.81 286.068 172.798C285.948 172.798 285.852 172.786 285.78 172.762C285.72 172.738 285.69 172.618 285.69 172.402C285.714 172.234 285.756 172.12 285.816 172.06C285.888 171.988 285.984 171.91 286.104 171.826C286.224 171.766 286.344 171.724 286.464 171.7C286.596 171.676 286.722 171.67 286.842 171.682C286.962 171.694 287.058 171.736 287.13 171.808C287.214 171.856 287.268 171.964 287.292 172.132C287.316 172.288 287.328 172.45 287.328 172.618C287.34 172.786 287.352 172.912 287.364 172.996C287.484 172.9 287.646 172.768 287.85 172.6C288.066 172.42 288.252 172.252 288.408 172.096C288.6 171.964 288.828 171.832 289.092 171.7C289.356 171.556 289.548 171.484 289.668 171.484C289.8 171.484 289.932 171.52 290.064 171.592C290.196 171.652 290.286 171.73 290.334 171.826C290.454 172.03 290.508 172.21 290.496 172.366C290.496 172.522 290.43 172.684 290.298 172.852C290.178 173.008 290.028 173.116 289.848 173.176C289.68 173.236 289.572 173.266 289.524 173.266C289.452 173.266 289.362 173.212 289.254 173.104C289.146 172.996 289.086 172.906 289.074 172.834C289.074 172.798 288.996 172.834 288.84 172.942C288.696 173.038 288.534 173.164 288.354 173.32C288.174 173.464 288.024 173.596 287.904 173.716C287.7 173.968 287.484 174.31 287.256 174.742C287.028 175.174 286.758 175.696 286.446 176.308C286.302 176.608 286.2 176.866 286.14 177.082C286.08 177.286 285.996 177.406 285.888 177.442ZM293.095 177.892C292.939 177.904 292.813 177.892 292.717 177.856C292.621 177.808 292.501 177.742 292.357 177.658C292.093 177.454 291.895 177.25 291.763 177.046C291.643 176.83 291.589 176.62 291.601 176.416C291.625 176.308 291.625 176.212 291.601 176.128C291.589 176.044 291.583 176.002 291.583 176.002C291.511 175.942 291.487 175.906 291.511 175.894C291.535 175.87 291.553 175.834 291.565 175.786C291.661 175.762 291.673 175.696 291.601 175.588C291.565 175.492 291.583 175.276 291.655 174.94C291.739 174.592 291.847 174.268 291.979 173.968C292.039 173.836 292.123 173.662 292.231 173.446C292.351 173.23 292.483 173.014 292.627 172.798C292.771 172.57 292.903 172.39 293.023 172.258C293.287 171.958 293.521 171.736 293.725 171.592C293.941 171.436 294.181 171.31 294.445 171.214C294.685 171.118 294.859 171.064 294.967 171.052C295.075 171.04 295.225 171.112 295.417 171.268C295.705 171.352 295.921 171.472 296.065 171.628C296.221 171.772 296.341 172 296.425 172.312C296.521 172.66 296.551 173.074 296.515 173.554C296.491 174.022 296.287 174.628 295.903 175.372C295.675 175.84 295.447 176.194 295.219 176.434C295.003 176.674 294.739 176.926 294.427 177.19C294.199 177.382 293.989 177.532 293.797 177.64C293.605 177.748 293.371 177.832 293.095 177.892ZM294.535 175.75C294.775 175.39 294.961 175.06 295.093 174.76C295.237 174.448 295.351 174.058 295.435 173.59C295.459 173.458 295.465 173.296 295.453 173.104C295.441 172.9 295.411 172.714 295.363 172.546C295.327 172.378 295.273 172.288 295.201 172.276C295.045 172.216 294.871 172.216 294.679 172.276C294.487 172.324 294.277 172.468 294.049 172.708C293.845 172.948 293.659 173.218 293.491 173.518C293.335 173.818 293.191 174.148 293.059 174.508C292.927 174.868 292.801 175.252 292.681 175.66C292.561 176.116 292.567 176.464 292.699 176.704C292.843 176.944 293.077 177.004 293.401 176.884C293.725 176.752 294.103 176.374 294.535 175.75ZM301.636 177.946C301.504 177.994 301.408 178.012 301.348 178C301.3 177.976 301.174 177.886 300.97 177.73C300.886 177.586 300.832 177.46 300.808 177.352C300.796 177.232 300.79 177.022 300.79 176.722C300.814 176.542 300.862 176.284 300.934 175.948C301.018 175.612 301.114 175.258 301.222 174.886C301.33 174.514 301.426 174.178 301.51 173.878C301.606 173.578 301.678 173.374 301.726 173.266C301.81 172.978 301.828 172.804 301.78 172.744C301.732 172.672 301.588 172.624 301.348 172.6C300.868 172.54 300.436 172.696 300.052 173.068C299.668 173.44 299.284 173.926 298.9 174.526C298.612 174.97 298.438 175.354 298.378 175.678C298.33 175.99 298.324 176.206 298.36 176.326C298.396 176.422 298.48 176.476 298.612 176.488C298.744 176.488 298.888 176.458 299.044 176.398C299.212 176.338 299.356 176.278 299.476 176.218C299.56 176.17 299.662 176.122 299.782 176.074C299.914 176.014 300.04 175.96 300.16 175.912C300.232 175.912 300.28 175.936 300.304 175.984C300.34 176.02 300.358 176.098 300.358 176.218C300.358 176.266 300.376 176.308 300.412 176.344C300.448 176.38 300.49 176.41 300.538 176.434C300.586 176.482 300.514 176.59 300.322 176.758C300.142 176.926 299.86 177.118 299.476 177.334C299.116 177.418 298.822 177.46 298.594 177.46C298.378 177.46 298.168 177.382 297.964 177.226C297.628 177.022 297.436 176.692 297.388 176.236C297.352 175.768 297.448 175.198 297.676 174.526C297.904 173.986 298.156 173.548 298.432 173.212C298.708 172.864 299.002 172.528 299.314 172.204C299.362 172.156 299.47 172.084 299.638 171.988C299.818 171.88 300.04 171.784 300.304 171.7C300.604 171.604 300.886 171.544 301.15 171.52C301.414 171.496 301.642 171.55 301.834 171.682C302.05 171.73 302.188 171.724 302.248 171.664C302.308 171.592 302.41 171.376 302.554 171.016C302.794 170.416 303.028 169.81 303.256 169.198C303.484 168.574 303.73 167.944 303.994 167.308C304.114 167.08 304.186 166.906 304.21 166.786C304.246 166.654 304.288 166.564 304.336 166.516H304.678C304.726 166.516 304.81 166.558 304.93 166.642C305.05 166.726 305.134 166.84 305.182 166.984C305.182 167.092 305.134 167.332 305.038 167.704C304.942 168.064 304.786 168.496 304.57 169C304.378 169.444 304.186 169.894 303.994 170.35C303.814 170.794 303.64 171.268 303.472 171.772C303.34 172.144 303.22 172.444 303.112 172.672C303.004 172.9 302.932 173.098 302.896 173.266C302.824 173.578 302.734 173.86 302.626 174.112C302.53 174.352 302.464 174.52 302.428 174.616C302.272 175.072 302.146 175.444 302.05 175.732C301.954 176.008 301.882 176.242 301.834 176.434C301.786 176.614 301.756 176.8 301.744 176.992C301.744 177.172 301.762 177.388 301.798 177.64C301.798 177.688 301.792 177.736 301.78 177.784C301.768 177.832 301.72 177.886 301.636 177.946ZM308.991 177.964C308.871 177.844 308.751 177.682 308.631 177.478C308.511 177.262 308.415 177.016 308.343 176.74C308.319 176.644 308.307 176.512 308.307 176.344C308.319 176.176 308.319 176.056 308.307 175.984C308.271 176.068 308.211 176.158 308.127 176.254C308.055 176.338 307.983 176.41 307.911 176.47C307.863 176.518 307.755 176.614 307.587 176.758C307.419 176.89 307.251 176.998 307.083 177.082C306.687 177.334 306.357 177.472 306.093 177.496C305.841 177.52 305.601 177.388 305.373 177.1C305.181 176.944 305.043 176.77 304.959 176.578C304.887 176.386 304.887 176.122 304.959 175.786C304.983 175.366 305.043 174.958 305.139 174.562C305.235 174.154 305.433 173.614 305.733 172.942C305.985 172.45 306.177 172.09 306.309 171.862C306.441 171.622 306.525 171.478 306.561 171.43C306.741 171.37 306.891 171.376 307.011 171.448C307.131 171.508 307.203 171.622 307.227 171.79C307.299 171.91 307.287 172.114 307.191 172.402C307.107 172.69 306.957 173.044 306.741 173.464C306.573 173.872 306.417 174.28 306.273 174.688C306.141 175.096 306.063 175.444 306.039 175.732C306.015 176.02 306.087 176.194 306.255 176.254C306.363 176.314 306.549 176.296 306.813 176.2C307.089 176.104 307.395 175.864 307.731 175.48C308.079 175.096 308.415 174.514 308.739 173.734C308.835 173.494 308.907 173.284 308.955 173.104C309.003 172.912 309.033 172.702 309.045 172.474C309.021 172.33 309.027 172.204 309.063 172.096C309.111 171.976 309.207 171.874 309.351 171.79C309.399 171.73 309.465 171.676 309.549 171.628C309.633 171.568 309.687 171.568 309.711 171.628L309.999 171.61C310.047 171.598 310.077 171.628 310.089 171.7C310.113 171.76 310.155 171.814 310.215 171.862C310.347 171.97 310.383 172.204 310.323 172.564C310.263 172.924 310.095 173.428 309.819 174.076C309.591 174.568 309.435 174.94 309.351 175.192C309.279 175.444 309.237 175.69 309.225 175.93C309.225 176.146 309.267 176.35 309.351 176.542C309.435 176.734 309.567 176.908 309.747 177.064C309.879 177.148 309.951 177.244 309.963 177.352C309.987 177.46 309.993 177.586 309.981 177.73C309.957 177.838 309.885 177.928 309.765 178C309.657 178.06 309.531 178.09 309.387 178.09C309.243 178.09 309.111 178.048 308.991 177.964ZM313.313 177.802C312.965 177.862 312.647 177.844 312.359 177.748C312.071 177.64 311.837 177.466 311.657 177.226C311.489 176.974 311.405 176.656 311.405 176.272C311.369 175.912 311.411 175.498 311.531 175.03C311.651 174.55 311.825 174.07 312.053 173.59C312.293 173.11 312.551 172.696 312.827 172.348C313.067 172.06 313.307 171.796 313.547 171.556C313.787 171.316 314.003 171.154 314.195 171.07C314.363 170.998 314.519 170.956 314.663 170.944C314.819 170.92 314.945 170.908 315.041 170.908C315.233 170.956 315.437 171.046 315.653 171.178C315.881 171.298 315.995 171.43 315.995 171.574C315.995 171.574 316.007 171.592 316.031 171.628C316.067 171.652 316.085 171.664 316.085 171.664C316.157 171.664 316.217 171.742 316.265 171.898C316.325 172.054 316.361 172.234 316.373 172.438C316.385 172.63 316.355 172.792 316.283 172.924C316.235 173.152 316.151 173.35 316.031 173.518C315.911 173.686 315.803 173.77 315.707 173.77C315.659 173.77 315.611 173.776 315.563 173.788C315.527 173.788 315.509 173.818 315.509 173.878C315.509 173.938 315.473 173.962 315.401 173.95C315.341 173.938 315.275 173.902 315.203 173.842C315.131 173.77 315.077 173.686 315.041 173.59C315.041 173.53 315.065 173.428 315.113 173.284C315.161 173.14 315.209 172.954 315.257 172.726C315.329 172.39 315.323 172.174 315.239 172.078C315.155 171.97 314.993 171.964 314.753 172.06C314.453 172.228 314.165 172.462 313.889 172.762C313.625 173.062 313.379 173.452 313.151 173.932C312.923 174.4 312.719 174.988 312.539 175.696C312.467 175.972 312.437 176.212 312.449 176.416C312.473 176.62 312.503 176.728 312.539 176.74C312.707 176.788 312.935 176.8 313.223 176.776C313.511 176.74 313.721 176.686 313.853 176.614C314.045 176.518 314.261 176.392 314.501 176.236C314.741 176.068 314.951 175.918 315.131 175.786C315.191 175.75 315.263 175.69 315.347 175.606C315.431 175.522 315.521 175.456 315.617 175.408C315.713 175.264 315.797 175.18 315.869 175.156C315.941 175.132 316.049 175.12 316.193 175.12C316.289 175.144 316.379 175.18 316.463 175.228C316.547 175.276 316.601 175.324 316.625 175.372C316.661 175.42 316.643 175.462 316.571 175.498C316.523 175.498 316.493 175.516 316.481 175.552C316.481 175.576 316.481 175.588 316.481 175.588C316.505 175.636 316.451 175.738 316.319 175.894C316.199 176.038 316.043 176.2 315.851 176.38C315.659 176.56 315.473 176.716 315.293 176.848C315.125 176.968 315.005 177.028 314.933 177.028C314.813 177.028 314.753 177.064 314.753 177.136C314.753 177.16 314.663 177.22 314.483 177.316C314.315 177.412 314.117 177.508 313.889 177.604C313.673 177.7 313.481 177.766 313.313 177.802ZM319.999 177.964C319.831 177.916 319.693 177.862 319.585 177.802C319.477 177.73 319.333 177.616 319.153 177.46C319.009 177.268 318.895 177.088 318.811 176.92C318.739 176.752 318.691 176.56 318.667 176.344C318.643 176.116 318.631 175.828 318.631 175.48C318.631 175.336 318.655 175.12 318.703 174.832C318.763 174.544 318.829 174.244 318.901 173.932C318.985 173.608 319.057 173.32 319.117 173.068C319.189 172.816 319.231 172.654 319.243 172.582C319.279 172.426 319.219 172.336 319.063 172.312C318.907 172.288 318.733 172.282 318.541 172.294C318.361 172.294 318.241 172.276 318.181 172.24C318.133 172.228 318.109 172.21 318.109 172.186C318.109 172.15 318.109 172.132 318.109 172.132C318.109 172.084 318.103 172.054 318.091 172.042C318.091 172.018 318.073 171.976 318.037 171.916C318.013 171.868 318.025 171.802 318.073 171.718C318.133 171.622 318.229 171.562 318.361 171.538C318.469 171.514 318.613 171.496 318.793 171.484C318.985 171.46 319.177 171.418 319.369 171.358C319.561 171.286 319.717 171.178 319.837 171.034C319.945 170.77 320.071 170.476 320.215 170.152C320.359 169.828 320.497 169.54 320.629 169.288C320.773 169.024 320.869 168.862 320.917 168.802C321.121 168.694 321.271 168.652 321.367 168.676C321.463 168.688 321.571 168.79 321.691 168.982C321.751 169.066 321.793 169.132 321.817 169.18C321.853 169.228 321.859 169.3 321.835 169.396C321.811 169.492 321.745 169.642 321.637 169.846C321.541 170.05 321.391 170.344 321.187 170.728C321.127 170.848 321.073 170.956 321.025 171.052C320.977 171.136 320.953 171.178 320.953 171.178C321.001 171.19 321.073 171.196 321.169 171.196C321.265 171.196 321.385 171.19 321.529 171.178C321.661 171.154 321.829 171.136 322.033 171.124C322.237 171.1 322.399 171.1 322.519 171.124C322.795 171.124 322.999 171.178 323.131 171.286C323.263 171.382 323.335 171.55 323.347 171.79C323.371 171.922 323.341 172 323.257 172.024C323.185 172.048 322.987 172.06 322.663 172.06C322.555 172.06 322.387 172.066 322.159 172.078C321.931 172.09 321.691 172.102 321.439 172.114C321.199 172.126 320.989 172.144 320.809 172.168C320.641 172.18 320.557 172.198 320.557 172.222C320.521 172.246 320.461 172.36 320.377 172.564C320.305 172.768 320.227 173.002 320.143 173.266C320.071 173.518 320.005 173.746 319.945 173.95C319.861 174.358 319.795 174.766 319.747 175.174C319.711 175.582 319.705 175.936 319.729 176.236C319.753 176.536 319.819 176.746 319.927 176.866C320.035 176.974 320.245 176.998 320.557 176.938C320.869 176.866 321.121 176.752 321.313 176.596C321.529 176.416 321.703 176.326 321.835 176.326C321.979 176.326 322.057 176.392 322.069 176.524C322.093 176.644 322.027 176.818 321.871 177.046C321.727 177.262 321.547 177.454 321.331 177.622C321.115 177.778 320.887 177.892 320.647 177.964C320.419 178.024 320.203 178.024 319.999 177.964Z" fill="url(#paint15_linear_2468_6031)"/>
<defs>
<filter id="filter0_i_2468_6031" x="229" y="43.0011" width="106.301" height="106.302" filterUnits="userSpaceOnUse" color-interpolation-filters="sRGB">
<feFlood flood-opacity="0" result="BackgroundImageFix"/>
<feBlend mode="normal" in="SourceGraphic" in2="BackgroundImageFix" result="shape"/>
<feColorMatrix in="SourceAlpha" type="matrix" values="0 0 0 0 0 0 0 0 0 0 0 0 0 0 0 0 0 0 127 0" result="hardAlpha"/>
<feOffset/>
<feGaussianBlur stdDeviation="3"/>
<feComposite in2="hardAlpha" operator="arithmetic" k2="-1" k3="1"/>
<feColorMatrix type="matrix" values="0 0 0 0 1 0 0 0 0 1 0 0 0 0 1 0 0 0 0.15 0"/>
<feBlend mode="normal" in2="shape" result="effect1_innerShadow_2468_6031"/>
</filter>
<filter id="filter1_i_2468_6031" x="360.664" y="64.1105" width="74.4102" height="74.4117" filterUnits="userSpaceOnUse" color-interpolation-filters="sRGB">
<feFlood flood-opacity="0" result="BackgroundImageFix"/>
<feBlend mode="normal" in="SourceGraphic" in2="BackgroundImageFix" result="shape"/>
<feColorMatrix in="SourceAlpha" type="matrix" values="0 0 0 0 0 0 0 0 0 0 0 0 0 0 0 0 0 0 127 0" result="hardAlpha"/>
<feOffset/>
<feGaussianBlur stdDeviation="3"/>
<feComposite in2="hardAlpha" operator="arithmetic" k2="-1" k3="1"/>
<feColorMatrix type="matrix" values="0 0 0 0 1 0 0 0 0 1 0 0 0 0 1 0 0 0 0.15 0"/>
<feBlend mode="normal" in2="shape" result="effect1_innerShadow_2468_6031"/>
</filter>
<filter id="filter2_i_2468_6031" x="128.922" y="64.1105" width="74.4102" height="74.4117" filterUnits="userSpaceOnUse" color-interpolation-filters="sRGB">
<feFlood flood-opacity="0" result="BackgroundImageFix"/>
<feBlend mode="normal" in="SourceGraphic" in2="BackgroundImageFix" result="shape"/>
<feColorMatrix in="SourceAlpha" type="matrix" values="0 0 0 0 0 0 0 0 0 0 0 0 0 0 0 0 0 0 127 0" result="hardAlpha"/>
<feOffset/>
<feGaussianBlur stdDeviation="3"/>
<feComposite in2="hardAlpha" operator="arithmetic" k2="-1" k3="1"/>
<feColorMatrix type="matrix" values="0 0 0 0 1 0 0 0 0 1 0 0 0 0 1 0 0 0 0.15 0"/>
<feBlend mode="normal" in2="shape" result="effect1_innerShadow_2468_6031"/>
</filter>
<filter id="filter3_i_2468_6031" x="29" y="64.1105" width="74.4102" height="74.4117" filterUnits="userSpaceOnUse" color-interpolation-filters="sRGB">
<feFlood flood-opacity="0" result="BackgroundImageFix"/>
<feBlend mode="normal" in="SourceGraphic" in2="BackgroundImageFix" result="shape"/>
<feColorMatrix in="SourceAlpha" type="matrix" values="0 0 0 0 0 0 0 0 0 0 0 0 0 0 0 0 0 0 127 0" result="hardAlpha"/>
<feOffset/>
<feGaussianBlur stdDeviation="3"/>
<feComposite in2="hardAlpha" operator="arithmetic" k2="-1" k3="1"/>
<feColorMatrix type="matrix" values="0 0 0 0 1 0 0 0 0 1 0 0 0 0 1 0 0 0 0.15 0"/>
<feBlend mode="normal" in2="shape" result="effect1_innerShadow_2468_6031"/>
</filter>
<filter id="filter4_i_2468_6031" x="460.586" y="64.1105" width="74.4102" height="74.4117" filterUnits="userSpaceOnUse" color-interpolation-filters="sRGB">
<feFlood flood-opacity="0" result="BackgroundImageFix"/>
<feBlend mode="normal" in="SourceGraphic" in2="BackgroundImageFix" result="shape"/>
<feColorMatrix in="SourceAlpha" type="matrix" values="0 0 0 0 0 0 0 0 0 0 0 0 0 0 0 0 0 0 127 0" result="hardAlpha"/>
<feOffset/>
<feGaussianBlur stdDeviation="3"/>
<feComposite in2="hardAlpha" operator="arithmetic" k2="-1" k3="1"/>
<feColorMatrix type="matrix" values="0 0 0 0 1 0 0 0 0 1 0 0 0 0 1 0 0 0 0.15 0"/>
<feBlend mode="normal" in2="shape" result="effect1_innerShadow_2468_6031"/>
</filter>
<filter id="filter5_d_2468_6031" x="212.453" y="24.5157" width="31.207" height="34.1631" filterUnits="userSpaceOnUse" color-interpolation-filters="sRGB">
<feFlood flood-opacity="0" result="BackgroundImageFix"/>
<feColorMatrix in="SourceAlpha" type="matrix" values="0 0 0 0 0 0 0 0 0 0 0 0 0 0 0 0 0 0 127 0" result="hardAlpha"/>
<feOffset dy="5"/>
<feGaussianBlur stdDeviation="2"/>
<feComposite in2="hardAlpha" operator="out"/>
<feColorMatrix type="matrix" values="0 0 0 0 1 0 0 0 0 0.94902 0 0 0 0 0 0 0 0 0.25 0"/>
<feBlend mode="normal" in2="BackgroundImageFix" result="effect1_dropShadow_2468_6031"/>
<feBlend mode="normal" in="SourceGraphic" in2="effect1_dropShadow_2468_6031" result="shape"/>
</filter>
<filter id="filter6_d_2468_6031" x="213.453" y="132.388" width="31.207" height="34.1631" filterUnits="userSpaceOnUse" color-interpolation-filters="sRGB">
<feFlood flood-opacity="0" result="BackgroundImageFix"/>
<feColorMatrix in="SourceAlpha" type="matrix" values="0 0 0 0 0 0 0 0 0 0 0 0 0 0 0 0 0 0 127 0" result="hardAlpha"/>
<feOffset dy="5"/>
<feGaussianBlur stdDeviation="2"/>
<feComposite in2="hardAlpha" operator="out"/>
<feColorMatrix type="matrix" values="0 0 0 0 1 0 0 0 0 0.94902 0 0 0 0 0 0 0 0 0.25 0"/>
<feBlend mode="normal" in2="BackgroundImageFix" result="effect1_dropShadow_2468_6031"/>
<feBlend mode="normal" in="SourceGraphic" in2="effect1_dropShadow_2468_6031" result="shape"/>
</filter>
<filter id="filter7_d_2468_6031" x="8.45312" y="132.388" width="31.207" height="34.1631" filterUnits="userSpaceOnUse" color-interpolation-filters="sRGB">
<feFlood flood-opacity="0" result="BackgroundImageFix"/>
<feColorMatrix in="SourceAlpha" type="matrix" values="0 0 0 0 0 0 0 0 0 0 0 0 0 0 0 0 0 0 127 0" result="hardAlpha"/>
<feOffset dy="5"/>
<feGaussianBlur stdDeviation="2"/>
<feComposite in2="hardAlpha" operator="out"/>
<feColorMatrix type="matrix" values="0 0 0 0 1 0 0 0 0 1 0 0 0 0 1 0 0 0 0.25 0"/>
<feBlend mode="normal" in2="BackgroundImageFix" result="effect1_dropShadow_2468_6031"/>
<feBlend mode="normal" in="SourceGraphic" in2="effect1_dropShadow_2468_6031" result="shape"/>
</filter>
<filter id="filter8_d_2468_6031" x="458.453" y="51.5173" width="31.207" height="34.1631" filterUnits="userSpaceOnUse" color-interpolation-filters="sRGB">
<feFlood flood-opacity="0" result="BackgroundImageFix"/>
<feColorMatrix in="SourceAlpha" type="matrix" values="0 0 0 0 0 0 0 0 0 0 0 0 0 0 0 0 0 0 127 0" result="hardAlpha"/>
<feOffset dy="5"/>
<feGaussianBlur stdDeviation="2"/>
<feComposite in2="hardAlpha" operator="out"/>
<feColorMatrix type="matrix" values="0 0 0 0 1 0 0 0 0 1 0 0 0 0 1 0 0 0 0.25 0"/>
<feBlend mode="normal" in2="BackgroundImageFix" result="effect1_dropShadow_2468_6031"/>
<feBlend mode="normal" in="SourceGraphic" in2="effect1_dropShadow_2468_6031" result="shape"/>
</filter>
<filter id="filter9_d_2468_6031" x="299.926" y="15.5173" width="31.207" height="34.1631" filterUnits="userSpaceOnUse" color-interpolation-filters="sRGB">
<feFlood flood-opacity="0" result="BackgroundImageFix"/>
<feColorMatrix in="SourceAlpha" type="matrix" values="0 0 0 0 0 0 0 0 0 0 0 0 0 0 0 0 0 0 127 0" result="hardAlpha"/>
<feOffset dy="5"/>
<feGaussianBlur stdDeviation="2"/>
<feComposite in2="hardAlpha" operator="out"/>
<feColorMatrix type="matrix" values="0 0 0 0 1 0 0 0 0 0.94902 0 0 0 0 0 0 0 0 0.25 0"/>
<feBlend mode="normal" in2="BackgroundImageFix" result="effect1_dropShadow_2468_6031"/>
<feBlend mode="normal" in="SourceGraphic" in2="effect1_dropShadow_2468_6031" result="shape"/>
</filter>
<filter id="filter10_d_2468_6031" x="313.926" y="106.389" width="31.207" height="34.1631" filterUnits="userSpaceOnUse" color-interpolation-filters="sRGB">
<feFlood flood-opacity="0" result="BackgroundImageFix"/>
<feColorMatrix in="SourceAlpha" type="matrix" values="0 0 0 0 0 0 0 0 0 0 0 0 0 0 0 0 0 0 127 0" result="hardAlpha"/>
<feOffset dy="5"/>
<feGaussianBlur stdDeviation="2"/>
<feComposite in2="hardAlpha" operator="out"/>
<feColorMatrix type="matrix" values="0 0 0 0 1 0 0 0 0 0.94902 0 0 0 0 0 0 0 0 0.25 0"/>
<feBlend mode="normal" in2="BackgroundImageFix" result="effect1_dropShadow_2468_6031"/>
<feBlend mode="normal" in="SourceGraphic" in2="effect1_dropShadow_2468_6031" result="shape"/>
</filter>
<radialGradient id="paint0_radial_2468_6031" cx="0" cy="0" r="1" gradientUnits="userSpaceOnUse" gradientTransform="translate(282.151 43.0011) rotate(90) scale(106.303)">
<stop stop-color="#FFF30C"/>
<stop offset="1" stop-opacity="0"/>
</radialGradient>
<radialGradient id="paint1_radial_2468_6031" cx="0" cy="0" r="1" gradientUnits="userSpaceOnUse" gradientTransform="translate(282.151 43.0011) rotate(90) scale(119.59)">
<stop stop-opacity="0"/>
<stop offset="1" stop-color="#FFF30C"/>
</radialGradient>
<radialGradient id="paint2_radial_2468_6031" cx="0" cy="0" r="1" gradientUnits="userSpaceOnUse" gradientTransform="translate(282.151 96.1524) rotate(135) scale(72.836 82.885)">
<stop stop-color="#FFF200"/>
<stop offset="1" stop-color="#202020" stop-opacity="0"/>
</radialGradient>
<linearGradient id="paint3_linear_2468_6031" x1="282.151" y1="43.0011" x2="282.151" y2="149.304" gradientUnits="userSpaceOnUse">
<stop stop-color="white"/>
<stop offset="1" stop-color="#C7C7C7"/>
</linearGradient>
<linearGradient id="paint4_linear_2468_6031" x1="268" y1="100.5" x2="296" y2="100.5" gradientUnits="userSpaceOnUse">
<stop stop-color="#FFFBA8"/>
<stop offset="1" stop-color="#FFF200"/>
</linearGradient>
<radialGradient id="paint5_radial_2468_6031" cx="0" cy="0" r="1" gradientUnits="userSpaceOnUse" gradientTransform="translate(397.87 64.1105) rotate(90) scale(74.4118)">
<stop stop-color="#AEAEAE"/>
<stop offset="1" stop-opacity="0"/>
</radialGradient>
<radialGradient id="paint6_radial_2468_6031" cx="0" cy="0" r="1" gradientUnits="userSpaceOnUse" gradientTransform="translate(166.128 64.1105) rotate(90) scale(74.4118)">
<stop stop-color="#AEAEAE"/>
<stop offset="1" stop-opacity="0"/>
</radialGradient>
<radialGradient id="paint7_radial_2468_6031" cx="0" cy="0" r="1" gradientUnits="userSpaceOnUse" gradientTransform="translate(66.2059 64.1105) rotate(90) scale(74.4118)">
<stop stop-color="#AEAEAE"/>
<stop offset="1" stop-opacity="0"/>
</radialGradient>
<radialGradient id="paint8_radial_2468_6031" cx="0" cy="0" r="1" gradientUnits="userSpaceOnUse" gradientTransform="translate(497.792 64.1105) rotate(90) scale(74.4118)">
<stop stop-color="#AEAEAE"/>
<stop offset="1" stop-opacity="0"/>
</radialGradient>
<linearGradient id="paint9_linear_2468_6031" x1="37.1894" y1="149.497" x2="18.3963" y2="134.57" gradientUnits="userSpaceOnUse">
<stop stop-color="#939393"/>
<stop offset="1" stop-color="#464646"/>
</linearGradient>
<linearGradient id="paint10_linear_2468_6031" x1="487.189" y1="59.5711" x2="468.396" y2="74.4983" gradientUnits="userSpaceOnUse">
<stop stop-color="#939393"/>
<stop offset="1" stop-color="#464646"/>
</linearGradient>
<linearGradient id="paint11_linear_2468_6031" x1="157" y1="105" x2="175" y2="105" gradientUnits="userSpaceOnUse">
<stop stop-color="#939393"/>
<stop offset="1" stop-color="#464646"/>
</linearGradient>
<linearGradient id="paint12_linear_2468_6031" x1="490" y1="105" x2="508" y2="105" gradientUnits="userSpaceOnUse">
<stop stop-color="#939393"/>
<stop offset="1" stop-color="#464646"/>
</linearGradient>
<linearGradient id="paint13_linear_2468_6031" x1="57" y1="105" x2="75" y2="105" gradientUnits="userSpaceOnUse">
<stop stop-color="#939393"/>
<stop offset="1" stop-color="#464646"/>
</linearGradient>
<linearGradient id="paint14_linear_2468_6031" x1="390" y1="105" x2="408" y2="105" gradientUnits="userSpaceOnUse">
<stop stop-color="#939393"/>
<stop offset="1" stop-color="#464646"/>
</linearGradient>
<linearGradient id="paint15_linear_2468_6031" x1="243" y1="172" x2="322" y2="172" gradientUnits="userSpaceOnUse">
<stop stop-color="#FFFBA8"/>
<stop offset="1" stop-color="#FFF200"/>
</linearGradient>
</defs>
</svg>
