<svg width="564" height="192" viewBox="0 0 564 192" fill="none" xmlns="http://www.w3.org/2000/svg">
<g filter="url(#filter0_i_2468_6057)">
<rect x="38" y="17" width="151" height="128" rx="12" fill="#1F1F20"/>
<rect x="38" y="17" width="151" height="128" rx="12" fill="url(#paint0_radial_2468_6057)" fill-opacity="0.4"/>
<mask id="mask0_2468_6057" style="mask-type:alpha" maskUnits="userSpaceOnUse" x="77" y="45" width="73" height="72">
<rect x="77.5" y="45" width="72" height="72" fill="#D9D9D9"/>
</mask>
<g mask="url(#mask0_2468_6057)">
<path d="M95.4969 81.2738C95.4969 79.734 93.846 78.758 92.4969 79.5C91.7969 79.9 91.0469 80 90.2469 79.8C89.4469 79.6 88.8469 79.15 88.4469 78.45L82.4469 67.95C82.0469 67.25 81.9469 66.5 82.1469 65.7C82.3469 64.9 82.7969 64.3 83.4969 63.9L100.053 54.3981C100.508 54.1372 101.023 54 101.547 54H105.997C106.447 54 106.809 54.1375 107.084 54.4125C107.359 54.6875 107.497 55.05 107.497 55.5V57C107.497 58.65 108.084 60.0625 109.259 61.2375C110.434 62.4125 111.847 63 113.497 63C115.147 63 116.559 62.4125 117.734 61.2375C118.909 60.0625 119.497 58.65 119.497 57V55.5C119.497 55.05 119.634 54.6875 119.909 54.4125C120.184 54.1375 120.547 54 120.997 54H125.447C125.971 54 126.486 54.1372 126.94 54.3981L143.497 63.9C144.197 64.3 144.647 64.9 144.847 65.7C145.047 66.5 144.947 67.25 144.547 67.95L138.547 78.45C138.147 79.15 137.559 79.5875 136.784 79.7625C136.009 79.9375 135.247 79.825 134.497 79.425C133.119 78.7358 131.497 79.7381 131.497 81.2791V105C131.497 105.85 131.209 106.562 130.634 107.137C130.059 107.712 129.347 108 128.497 108H98.4969C97.6469 108 96.9344 107.712 96.3594 107.137C95.7844 106.562 95.4969 105.85 95.4969 105V81.2738Z" fill="url(#paint1_linear_2468_6057)"/>
</g>
</g>
<g filter="url(#filter1_i_2468_6057)">
<rect x="207" y="17" width="151" height="128" rx="12" fill="#1F1F20"/>
<rect x="207" y="17" width="151" height="128" rx="12" fill="url(#paint2_radial_2468_6057)" fill-opacity="0.3"/>
<rect x="207" y="17" width="151" height="128" rx="12" fill="url(#paint3_radial_2468_6057)" fill-opacity="0.1"/>
<rect x="207" y="17" width="151" height="128" rx="12" fill="url(#paint4_radial_2468_6057)" fill-opacity="0.8"/>
<rect x="207.5" y="17.5" width="150" height="127" rx="11.5" stroke="url(#paint5_linear_2468_6057)" style="mix-blend-mode:overlay"/>
<mask id="mask1_2468_6057" style="mask-type:alpha" maskUnits="userSpaceOnUse" x="246" y="45" width="73" height="72">
<rect x="246.5" y="45" width="72" height="72" fill="#D9D9D9"/>
</mask>
<g mask="url(#mask1_2468_6057)">
<path d="M264.497 81.2738C264.497 79.734 262.846 78.758 261.497 79.5C260.797 79.9 260.047 80 259.247 79.8C258.447 79.6 257.847 79.15 257.447 78.45L251.447 67.95C251.047 67.25 250.947 66.5 251.147 65.7C251.347 64.9 251.797 64.3 252.497 63.9L269.053 54.3981C269.508 54.1372 270.023 54 270.547 54H274.997C275.447 54 275.809 54.1375 276.084 54.4125C276.359 54.6875 276.497 55.05 276.497 55.5V57C276.497 58.65 277.084 60.0625 278.259 61.2375C279.434 62.4125 280.847 63 282.497 63C284.147 63 285.559 62.4125 286.734 61.2375C287.909 60.0625 288.497 58.65 288.497 57V55.5C288.497 55.05 288.634 54.6875 288.909 54.4125C289.184 54.1375 289.547 54 289.997 54H294.447C294.971 54 295.486 54.1372 295.94 54.3981L312.497 63.9C313.197 64.3 313.647 64.9 313.847 65.7C314.047 66.5 313.947 67.25 313.547 67.95L307.547 78.45C307.147 79.15 306.559 79.5875 305.784 79.7625C305.009 79.9375 304.247 79.825 303.497 79.425C302.119 78.7358 300.497 79.7381 300.497 81.2791V105C300.497 105.85 300.209 106.562 299.634 107.137C299.059 107.712 298.347 108 297.497 108H267.497C266.647 108 265.934 107.712 265.359 107.137C264.784 106.562 264.497 105.85 264.497 105V81.2738Z" fill="url(#paint6_linear_2468_6057)"/>
</g>
</g>
<g filter="url(#filter2_i_2468_6057)">
<rect x="376" y="17" width="151" height="128" rx="12" fill="#1F1F20"/>
<rect x="376" y="17" width="151" height="128" rx="12" fill="url(#paint7_radial_2468_6057)" fill-opacity="0.4"/>
<mask id="mask2_2468_6057" style="mask-type:alpha" maskUnits="userSpaceOnUse" x="415" y="45" width="73" height="72">
<rect x="415.5" y="45" width="72" height="72" fill="#D9D9D9"/>
</mask>
<g mask="url(#mask2_2468_6057)">
<path d="M433.497 81.2738C433.497 79.734 431.846 78.758 430.497 79.5C429.797 79.9 429.047 80 428.247 79.8C427.447 79.6 426.847 79.15 426.447 78.45L420.447 67.95C420.047 67.25 419.947 66.5 420.147 65.7C420.347 64.9 420.797 64.3 421.497 63.9L438.053 54.3981C438.508 54.1372 439.023 54 439.547 54H443.997C444.447 54 444.809 54.1375 445.084 54.4125C445.359 54.6875 445.497 55.05 445.497 55.5V57C445.497 58.65 446.084 60.0625 447.259 61.2375C448.434 62.4125 449.847 63 451.497 63C453.147 63 454.559 62.4125 455.734 61.2375C456.909 60.0625 457.497 58.65 457.497 57V55.5C457.497 55.05 457.634 54.6875 457.909 54.4125C458.184 54.1375 458.547 54 458.997 54H463.447C463.971 54 464.486 54.1372 464.94 54.3981L481.497 63.9C482.197 64.3 482.647 64.9 482.847 65.7C483.047 66.5 482.947 67.25 482.547 67.95L476.547 78.45C476.147 79.15 475.559 79.5875 474.784 79.7625C474.009 79.9375 473.247 79.825 472.497 79.425C471.119 78.7358 469.497 79.7381 469.497 81.2791V105C469.497 105.85 469.209 106.562 468.634 107.137C468.059 107.712 467.347 108 466.497 108H436.497C435.647 108 434.934 107.712 434.359 107.137C433.784 106.562 433.497 105.85 433.497 105V81.2738Z" fill="url(#paint8_linear_2468_6057)"/>
</g>
</g>
<g filter="url(#filter3_d_2468_6057)">
<path d="M228.825 43.9847C229.042 44.8237 228.162 45.5226 227.394 45.1215L206.19 34.0467C205.308 33.5858 205.567 32.2591 206.558 32.1648L216.8 31.1902C217.193 31.1528 217.528 30.8871 217.653 30.5123L220.92 20.7571C221.237 19.8131 222.588 19.8605 222.837 20.8243L228.825 43.9847Z" fill="#FFF200"/>
</g>
<path d="M248.94 166.194L248.31 165.402C248.07 165.042 247.878 164.706 247.734 164.394C247.59 164.082 247.488 163.698 247.428 163.242C247.344 162.954 247.29 162.684 247.266 162.432C247.242 162.18 247.23 161.892 247.23 161.568C247.242 161.232 247.254 160.818 247.266 160.326C247.278 159.87 247.326 159.54 247.41 159.336C247.506 159.132 247.578 158.982 247.626 158.886C247.746 158.742 247.854 158.724 247.95 158.832C248.058 158.94 248.142 159.126 248.202 159.39C248.274 159.642 248.304 159.942 248.292 160.29C248.328 161.574 248.418 162.594 248.562 163.35C248.718 164.106 248.928 164.568 249.192 164.736C249.336 164.772 249.462 164.766 249.57 164.718C249.69 164.658 249.858 164.514 250.074 164.286C250.302 164.046 250.638 163.686 251.082 163.206C251.406 162.858 251.736 162.486 252.072 162.09C252.42 161.694 252.744 161.316 253.044 160.956C253.356 160.596 253.632 160.29 253.872 160.038C254.124 159.774 254.322 159.6 254.466 159.516C254.514 159.444 254.562 159.39 254.61 159.354C254.67 159.318 254.724 159.3 254.772 159.3C254.82 159.288 254.844 159.282 254.844 159.282C254.94 159.306 254.994 159.384 255.006 159.516C255.018 159.636 255.066 159.756 255.15 159.876C255.174 159.924 255.192 159.978 255.204 160.038C255.216 160.086 255.216 160.14 255.204 160.2C255.204 160.236 255.18 160.284 255.132 160.344C255.084 160.392 255.03 160.446 254.97 160.506C254.922 160.554 254.868 160.608 254.808 160.668C254.652 160.8 254.406 161.034 254.07 161.37C253.746 161.694 253.41 162.048 253.062 162.432C252.714 162.804 252.42 163.14 252.18 163.44C251.652 164.052 251.178 164.58 250.758 165.024C250.35 165.468 250.098 165.732 250.002 165.816C249.99 165.84 249.906 165.924 249.75 166.068C249.594 166.212 249.486 166.332 249.426 166.428L248.94 166.194ZM247.662 172.224C247.614 172.212 247.542 172.17 247.446 172.098C247.35 172.038 247.242 171.966 247.122 171.882C247.038 171.786 246.984 171.696 246.96 171.612C246.948 171.528 246.966 171.408 247.014 171.252C247.062 171.096 247.128 170.856 247.212 170.532C247.224 170.256 247.278 169.92 247.374 169.524C247.482 169.128 247.608 168.798 247.752 168.534C247.752 168.402 247.782 168.222 247.842 167.994C247.902 167.766 247.974 167.532 248.058 167.292C248.154 167.04 248.238 166.824 248.31 166.644L248.634 165.708L249.354 165.096L249.858 165.654C249.81 165.726 249.768 165.81 249.732 165.906C249.696 166.002 249.648 166.164 249.588 166.392C249.528 166.62 249.438 166.974 249.318 167.454C249.222 167.778 249.114 168.126 248.994 168.498C248.886 168.87 248.784 169.218 248.688 169.542C248.592 169.866 248.508 170.13 248.436 170.334C248.292 170.874 248.184 171.288 248.112 171.576C248.04 171.864 247.974 172.05 247.914 172.134C247.866 172.23 247.782 172.26 247.662 172.224ZM254.04 170.73C253.884 170.73 253.758 170.7 253.662 170.64C253.578 170.58 253.47 170.496 253.338 170.388C253.11 170.148 252.948 169.92 252.852 169.704C252.756 169.476 252.726 169.26 252.762 169.056C252.798 168.96 252.81 168.87 252.798 168.786C252.798 168.69 252.798 168.642 252.798 168.642C252.738 168.582 252.72 168.546 252.744 168.534C252.768 168.51 252.792 168.474 252.816 168.426C252.888 168.426 252.912 168.36 252.888 168.228C252.864 168.132 252.912 167.922 253.032 167.598C253.152 167.274 253.302 166.968 253.482 166.68C253.554 166.56 253.662 166.404 253.806 166.212C253.95 166.008 254.106 165.81 254.274 165.618C254.454 165.414 254.616 165.252 254.76 165.132C255.06 164.88 255.324 164.694 255.552 164.574C255.78 164.454 256.026 164.364 256.29 164.304C256.554 164.244 256.734 164.214 256.83 164.214C256.938 164.214 257.082 164.31 257.262 164.502C257.538 164.622 257.736 164.766 257.856 164.934C257.988 165.102 258.072 165.348 258.108 165.672C258.144 166.032 258.114 166.446 258.018 166.914C257.934 167.37 257.652 167.94 257.172 168.624C256.872 169.056 256.596 169.38 256.344 169.596C256.092 169.8 255.792 170.004 255.444 170.208C255.192 170.376 254.964 170.502 254.76 170.586C254.556 170.658 254.316 170.706 254.04 170.73ZM255.768 168.822C256.056 168.498 256.284 168.192 256.452 167.904C256.632 167.616 256.8 167.25 256.956 166.806C257.004 166.674 257.034 166.512 257.046 166.32C257.058 166.116 257.052 165.93 257.028 165.762C257.016 165.582 256.974 165.48 256.902 165.456C256.758 165.372 256.584 165.348 256.38 165.384C256.176 165.408 255.954 165.522 255.714 165.726C255.342 166.038 255.018 166.428 254.742 166.896C254.466 167.352 254.196 167.874 253.932 168.462C253.752 168.894 253.71 169.242 253.806 169.506C253.914 169.758 254.136 169.848 254.472 169.776C254.82 169.692 255.252 169.374 255.768 168.822ZM263.374 170.964C263.29 171.012 263.176 170.994 263.032 170.91C262.9 170.826 262.768 170.7 262.636 170.532C262.552 170.388 262.492 170.232 262.456 170.064C262.432 169.896 262.42 169.662 262.42 169.362C262.432 169.122 262.42 168.966 262.384 168.894C262.36 168.822 262.294 168.834 262.186 168.93C262.078 169.014 261.892 169.188 261.628 169.452C261.328 169.752 261.04 169.986 260.764 170.154C260.5 170.322 260.284 170.4 260.116 170.388C260.032 170.388 259.936 170.346 259.828 170.262C259.732 170.166 259.642 170.052 259.558 169.92C259.474 169.776 259.402 169.632 259.342 169.488C259.27 169.224 259.258 168.888 259.306 168.48C259.366 168.06 259.462 167.622 259.594 167.166C259.726 166.71 259.876 166.278 260.044 165.87C260.224 165.462 260.404 165.132 260.584 164.88C260.776 164.628 260.944 164.502 261.088 164.502C261.184 164.502 261.268 164.55 261.34 164.646C261.424 164.742 261.508 164.892 261.592 165.096C261.64 165.18 261.658 165.252 261.646 165.312C261.646 165.372 261.598 165.444 261.502 165.528C261.394 165.672 261.268 165.888 261.124 166.176C260.992 166.464 260.86 166.776 260.728 167.112C260.608 167.448 260.5 167.772 260.404 168.084C260.308 168.396 260.242 168.654 260.206 168.858C260.17 169.05 260.176 169.146 260.224 169.146C260.392 169.146 260.59 169.08 260.818 168.948C261.058 168.804 261.286 168.63 261.502 168.426C261.754 168.174 261.976 167.898 262.168 167.598C262.372 167.298 262.576 166.98 262.78 166.644C262.936 166.404 263.098 166.14 263.266 165.852C263.446 165.564 263.56 165.36 263.608 165.24C263.776 164.928 263.902 164.718 263.986 164.61C264.07 164.49 264.172 164.412 264.292 164.376C264.352 164.376 264.406 164.376 264.454 164.376C264.514 164.376 264.544 164.376 264.544 164.376C264.616 164.388 264.7 164.442 264.796 164.538C264.892 164.586 264.946 164.634 264.958 164.682C264.97 164.718 264.976 164.766 264.976 164.826C264.928 164.946 264.85 165.126 264.742 165.366C264.646 165.594 264.574 165.762 264.526 165.87C264.298 166.386 264.07 166.896 263.842 167.4C263.626 167.892 263.47 168.396 263.374 168.912C263.35 169.08 263.344 169.278 263.356 169.506C263.38 169.722 263.416 169.878 263.464 169.974C263.5 170.046 263.542 170.13 263.59 170.226C263.65 170.31 263.716 170.382 263.788 170.442C263.896 170.514 263.914 170.592 263.842 170.676C263.782 170.76 263.698 170.832 263.59 170.892C263.482 170.94 263.41 170.964 263.374 170.964ZM266.148 170.37C266.04 170.286 265.962 170.202 265.914 170.118C265.878 170.034 265.878 169.872 265.914 169.632C265.95 169.296 265.998 169.002 266.058 168.75C266.118 168.486 266.19 168.186 266.274 167.85C266.298 167.706 266.364 167.46 266.472 167.112C266.592 166.764 266.736 166.386 266.904 165.978C267.072 165.57 267.24 165.186 267.408 164.826C267.576 164.454 267.72 164.178 267.84 163.998C267.936 163.926 268.05 163.896 268.182 163.908C268.326 163.92 268.446 163.974 268.542 164.07C268.674 164.178 268.692 164.37 268.596 164.646C268.512 164.91 268.332 165.33 268.056 165.906C267.912 166.23 267.804 166.476 267.732 166.644C267.66 166.8 267.63 166.896 267.642 166.932C267.654 166.956 267.708 166.938 267.804 166.878C267.876 166.746 268.008 166.596 268.2 166.428C268.392 166.248 268.596 166.074 268.812 165.906C269.028 165.738 269.232 165.588 269.424 165.456C269.616 165.324 269.748 165.24 269.82 165.204C269.916 165.144 270.024 165.096 270.144 165.06C270.276 165.012 270.366 164.976 270.414 164.952C270.69 164.82 270.972 164.772 271.26 164.808C271.548 164.844 271.728 164.952 271.8 165.132C271.812 165.228 271.848 165.3 271.908 165.348C271.98 165.396 272.016 165.42 272.016 165.42C272.064 165.42 272.088 165.438 272.088 165.474C272.1 165.51 272.106 165.528 272.106 165.528C272.106 165.612 272.04 165.666 271.908 165.69C271.788 165.702 271.632 165.714 271.44 165.726C271.284 165.738 271.146 165.768 271.026 165.816C270.906 165.864 270.762 165.924 270.594 165.996C270.138 166.26 269.7 166.518 269.28 166.77C268.872 167.022 268.476 167.358 268.092 167.778C268.008 167.874 267.924 167.988 267.84 168.12C267.756 168.252 267.666 168.396 267.57 168.552C267.51 168.612 267.45 168.744 267.39 168.948C267.33 169.152 267.276 169.35 267.228 169.542C267.192 169.722 267.174 169.83 267.174 169.866C267.174 169.866 267.156 169.926 267.12 170.046C267.084 170.154 267.024 170.262 266.94 170.37C266.796 170.562 266.676 170.658 266.58 170.658C266.484 170.658 266.34 170.562 266.148 170.37ZM277.552 171.45C277.492 171.45 277.42 171.42 277.336 171.36C277.252 171.312 277.174 171.246 277.102 171.162C277.042 171.078 277.012 170.988 277.012 170.892C277.012 170.892 277.006 170.856 276.994 170.784C276.994 170.7 276.97 170.616 276.922 170.532C276.922 170.436 276.922 170.328 276.922 170.208C276.934 170.076 276.964 169.944 277.012 169.812C277.012 169.68 277.03 169.536 277.066 169.38C277.102 169.212 277.144 169.086 277.192 169.002C277.192 168.87 277.222 168.702 277.282 168.498C277.354 168.282 277.414 168.084 277.462 167.904C277.594 167.508 277.69 167.22 277.75 167.04C277.822 166.86 277.87 166.728 277.894 166.644C277.918 166.548 277.93 166.452 277.93 166.356C277.966 166.26 278.02 166.086 278.092 165.834C278.164 165.582 278.236 165.324 278.308 165.06C278.392 164.784 278.446 164.586 278.47 164.466C278.518 164.418 278.542 164.376 278.542 164.34C278.554 164.292 278.56 164.244 278.56 164.196C278.56 164.196 278.602 164.058 278.686 163.782C278.77 163.506 278.878 163.188 279.01 162.828C279.226 162.192 279.37 161.73 279.442 161.442C279.526 161.154 279.562 160.95 279.55 160.83C279.55 160.71 279.52 160.59 279.46 160.47C279.376 160.314 279.376 160.194 279.46 160.11C279.508 160.062 279.55 160.008 279.586 159.948C279.622 159.876 279.64 159.84 279.64 159.84C279.64 159.816 279.718 159.774 279.874 159.714C280.03 159.654 280.222 159.588 280.45 159.516C280.678 159.432 280.906 159.354 281.134 159.282C281.374 159.21 281.572 159.15 281.728 159.102C281.764 159.102 281.818 159.102 281.89 159.102C281.974 159.102 282.064 159.102 282.16 159.102C282.268 159.102 282.37 159.102 282.466 159.102C282.778 159.15 283.096 159.24 283.42 159.372C283.756 159.504 284.038 159.69 284.266 159.93C284.41 160.062 284.536 160.218 284.644 160.398C284.764 160.578 284.914 160.872 285.094 161.28C285.094 161.328 285.106 161.43 285.13 161.586C285.166 161.73 285.184 161.874 285.184 162.018C285.184 162.378 285.094 162.756 284.914 163.152C284.734 163.548 284.476 163.95 284.14 164.358C283.804 164.754 283.396 165.15 282.916 165.546C282.412 165.954 281.89 166.23 281.35 166.374C280.81 166.518 280.33 166.548 279.91 166.464C279.826 166.428 279.748 166.356 279.676 166.248C279.616 166.14 279.574 166.032 279.55 165.924C279.526 165.816 279.532 165.744 279.568 165.708C279.664 165.684 279.808 165.678 280 165.69C280.192 165.69 280.498 165.612 280.918 165.456C281.05 165.408 281.188 165.354 281.332 165.294C281.476 165.222 281.59 165.162 281.674 165.114C281.914 164.958 282.19 164.748 282.502 164.484C282.814 164.22 283.102 163.878 283.366 163.458C283.474 163.29 283.582 163.092 283.69 162.864C283.798 162.624 283.888 162.384 283.96 162.144C284.044 161.904 284.086 161.706 284.086 161.55C284.182 161.238 284.122 160.98 283.906 160.776C283.702 160.56 283.372 160.428 282.916 160.38C282.772 160.344 282.55 160.356 282.25 160.416C281.95 160.464 281.662 160.53 281.386 160.614C281.11 160.698 280.924 160.77 280.828 160.83C280.78 160.83 280.75 160.866 280.738 160.938C280.726 161.01 280.696 161.094 280.648 161.19C280.648 161.274 280.612 161.454 280.54 161.73C280.468 161.994 280.384 162.24 280.288 162.468C280.204 162.732 280.102 163.026 279.982 163.35C279.862 163.662 279.778 163.908 279.73 164.088C279.682 164.28 279.622 164.466 279.55 164.646C279.49 164.826 279.46 164.916 279.46 164.916C279.46 164.964 279.424 165.066 279.352 165.222C279.292 165.378 279.238 165.546 279.19 165.726C279.142 165.954 279.076 166.212 278.992 166.5C278.92 166.788 278.836 167.046 278.74 167.274C278.608 167.718 278.494 168.162 278.398 168.606C278.302 169.038 278.296 169.32 278.38 169.452C278.512 169.452 278.56 169.56 278.524 169.776C278.488 169.98 278.38 170.262 278.2 170.622C278.08 170.922 277.99 171.126 277.93 171.234C277.87 171.354 277.816 171.42 277.768 171.432C277.72 171.444 277.648 171.45 277.552 171.45ZM285.888 170.442C285.852 170.454 285.792 170.448 285.708 170.424C285.624 170.4 285.54 170.37 285.456 170.334C285.372 170.298 285.318 170.268 285.294 170.244C285.246 170.196 285.198 170.124 285.15 170.028C285.114 169.932 285.114 169.794 285.15 169.614C285.186 169.422 285.306 169.176 285.51 168.876C285.57 168.756 285.642 168.576 285.726 168.336C285.81 168.096 285.894 167.844 285.978 167.58C286.074 167.304 286.158 167.058 286.23 166.842C286.314 166.626 286.374 166.476 286.41 166.392C286.434 166.188 286.422 166.044 286.374 165.96C286.338 165.864 286.236 165.81 286.068 165.798C285.948 165.798 285.852 165.786 285.78 165.762C285.72 165.738 285.69 165.618 285.69 165.402C285.714 165.234 285.756 165.12 285.816 165.06C285.888 164.988 285.984 164.91 286.104 164.826C286.224 164.766 286.344 164.724 286.464 164.7C286.596 164.676 286.722 164.67 286.842 164.682C286.962 164.694 287.058 164.736 287.13 164.808C287.214 164.856 287.268 164.964 287.292 165.132C287.316 165.288 287.328 165.45 287.328 165.618C287.34 165.786 287.352 165.912 287.364 165.996C287.484 165.9 287.646 165.768 287.85 165.6C288.066 165.42 288.252 165.252 288.408 165.096C288.6 164.964 288.828 164.832 289.092 164.7C289.356 164.556 289.548 164.484 289.668 164.484C289.8 164.484 289.932 164.52 290.064 164.592C290.196 164.652 290.286 164.73 290.334 164.826C290.454 165.03 290.508 165.21 290.496 165.366C290.496 165.522 290.43 165.684 290.298 165.852C290.178 166.008 290.028 166.116 289.848 166.176C289.68 166.236 289.572 166.266 289.524 166.266C289.452 166.266 289.362 166.212 289.254 166.104C289.146 165.996 289.086 165.906 289.074 165.834C289.074 165.798 288.996 165.834 288.84 165.942C288.696 166.038 288.534 166.164 288.354 166.32C288.174 166.464 288.024 166.596 287.904 166.716C287.7 166.968 287.484 167.31 287.256 167.742C287.028 168.174 286.758 168.696 286.446 169.308C286.302 169.608 286.2 169.866 286.14 170.082C286.08 170.286 285.996 170.406 285.888 170.442ZM293.095 170.892C292.939 170.904 292.813 170.892 292.717 170.856C292.621 170.808 292.501 170.742 292.357 170.658C292.093 170.454 291.895 170.25 291.763 170.046C291.643 169.83 291.589 169.62 291.601 169.416C291.625 169.308 291.625 169.212 291.601 169.128C291.589 169.044 291.583 169.002 291.583 169.002C291.511 168.942 291.487 168.906 291.511 168.894C291.535 168.87 291.553 168.834 291.565 168.786C291.661 168.762 291.673 168.696 291.601 168.588C291.565 168.492 291.583 168.276 291.655 167.94C291.739 167.592 291.847 167.268 291.979 166.968C292.039 166.836 292.123 166.662 292.231 166.446C292.351 166.23 292.483 166.014 292.627 165.798C292.771 165.57 292.903 165.39 293.023 165.258C293.287 164.958 293.521 164.736 293.725 164.592C293.941 164.436 294.181 164.31 294.445 164.214C294.685 164.118 294.859 164.064 294.967 164.052C295.075 164.04 295.225 164.112 295.417 164.268C295.705 164.352 295.921 164.472 296.065 164.628C296.221 164.772 296.341 165 296.425 165.312C296.521 165.66 296.551 166.074 296.515 166.554C296.491 167.022 296.287 167.628 295.903 168.372C295.675 168.84 295.447 169.194 295.219 169.434C295.003 169.674 294.739 169.926 294.427 170.19C294.199 170.382 293.989 170.532 293.797 170.64C293.605 170.748 293.371 170.832 293.095 170.892ZM294.535 168.75C294.775 168.39 294.961 168.06 295.093 167.76C295.237 167.448 295.351 167.058 295.435 166.59C295.459 166.458 295.465 166.296 295.453 166.104C295.441 165.9 295.411 165.714 295.363 165.546C295.327 165.378 295.273 165.288 295.201 165.276C295.045 165.216 294.871 165.216 294.679 165.276C294.487 165.324 294.277 165.468 294.049 165.708C293.845 165.948 293.659 166.218 293.491 166.518C293.335 166.818 293.191 167.148 293.059 167.508C292.927 167.868 292.801 168.252 292.681 168.66C292.561 169.116 292.567 169.464 292.699 169.704C292.843 169.944 293.077 170.004 293.401 169.884C293.725 169.752 294.103 169.374 294.535 168.75ZM301.636 170.946C301.504 170.994 301.408 171.012 301.348 171C301.3 170.976 301.174 170.886 300.97 170.73C300.886 170.586 300.832 170.46 300.808 170.352C300.796 170.232 300.79 170.022 300.79 169.722C300.814 169.542 300.862 169.284 300.934 168.948C301.018 168.612 301.114 168.258 301.222 167.886C301.33 167.514 301.426 167.178 301.51 166.878C301.606 166.578 301.678 166.374 301.726 166.266C301.81 165.978 301.828 165.804 301.78 165.744C301.732 165.672 301.588 165.624 301.348 165.6C300.868 165.54 300.436 165.696 300.052 166.068C299.668 166.44 299.284 166.926 298.9 167.526C298.612 167.97 298.438 168.354 298.378 168.678C298.33 168.99 298.324 169.206 298.36 169.326C298.396 169.422 298.48 169.476 298.612 169.488C298.744 169.488 298.888 169.458 299.044 169.398C299.212 169.338 299.356 169.278 299.476 169.218C299.56 169.17 299.662 169.122 299.782 169.074C299.914 169.014 300.04 168.96 300.16 168.912C300.232 168.912 300.28 168.936 300.304 168.984C300.34 169.02 300.358 169.098 300.358 169.218C300.358 169.266 300.376 169.308 300.412 169.344C300.448 169.38 300.49 169.41 300.538 169.434C300.586 169.482 300.514 169.59 300.322 169.758C300.142 169.926 299.86 170.118 299.476 170.334C299.116 170.418 298.822 170.46 298.594 170.46C298.378 170.46 298.168 170.382 297.964 170.226C297.628 170.022 297.436 169.692 297.388 169.236C297.352 168.768 297.448 168.198 297.676 167.526C297.904 166.986 298.156 166.548 298.432 166.212C298.708 165.864 299.002 165.528 299.314 165.204C299.362 165.156 299.47 165.084 299.638 164.988C299.818 164.88 300.04 164.784 300.304 164.7C300.604 164.604 300.886 164.544 301.15 164.52C301.414 164.496 301.642 164.55 301.834 164.682C302.05 164.73 302.188 164.724 302.248 164.664C302.308 164.592 302.41 164.376 302.554 164.016C302.794 163.416 303.028 162.81 303.256 162.198C303.484 161.574 303.73 160.944 303.994 160.308C304.114 160.08 304.186 159.906 304.21 159.786C304.246 159.654 304.288 159.564 304.336 159.516H304.678C304.726 159.516 304.81 159.558 304.93 159.642C305.05 159.726 305.134 159.84 305.182 159.984C305.182 160.092 305.134 160.332 305.038 160.704C304.942 161.064 304.786 161.496 304.57 162C304.378 162.444 304.186 162.894 303.994 163.35C303.814 163.794 303.64 164.268 303.472 164.772C303.34 165.144 303.22 165.444 303.112 165.672C303.004 165.9 302.932 166.098 302.896 166.266C302.824 166.578 302.734 166.86 302.626 167.112C302.53 167.352 302.464 167.52 302.428 167.616C302.272 168.072 302.146 168.444 302.05 168.732C301.954 169.008 301.882 169.242 301.834 169.434C301.786 169.614 301.756 169.8 301.744 169.992C301.744 170.172 301.762 170.388 301.798 170.64C301.798 170.688 301.792 170.736 301.78 170.784C301.768 170.832 301.72 170.886 301.636 170.946ZM308.991 170.964C308.871 170.844 308.751 170.682 308.631 170.478C308.511 170.262 308.415 170.016 308.343 169.74C308.319 169.644 308.307 169.512 308.307 169.344C308.319 169.176 308.319 169.056 308.307 168.984C308.271 169.068 308.211 169.158 308.127 169.254C308.055 169.338 307.983 169.41 307.911 169.47C307.863 169.518 307.755 169.614 307.587 169.758C307.419 169.89 307.251 169.998 307.083 170.082C306.687 170.334 306.357 170.472 306.093 170.496C305.841 170.52 305.601 170.388 305.373 170.1C305.181 169.944 305.043 169.77 304.959 169.578C304.887 169.386 304.887 169.122 304.959 168.786C304.983 168.366 305.043 167.958 305.139 167.562C305.235 167.154 305.433 166.614 305.733 165.942C305.985 165.45 306.177 165.09 306.309 164.862C306.441 164.622 306.525 164.478 306.561 164.43C306.741 164.37 306.891 164.376 307.011 164.448C307.131 164.508 307.203 164.622 307.227 164.79C307.299 164.91 307.287 165.114 307.191 165.402C307.107 165.69 306.957 166.044 306.741 166.464C306.573 166.872 306.417 167.28 306.273 167.688C306.141 168.096 306.063 168.444 306.039 168.732C306.015 169.02 306.087 169.194 306.255 169.254C306.363 169.314 306.549 169.296 306.813 169.2C307.089 169.104 307.395 168.864 307.731 168.48C308.079 168.096 308.415 167.514 308.739 166.734C308.835 166.494 308.907 166.284 308.955 166.104C309.003 165.912 309.033 165.702 309.045 165.474C309.021 165.33 309.027 165.204 309.063 165.096C309.111 164.976 309.207 164.874 309.351 164.79C309.399 164.73 309.465 164.676 309.549 164.628C309.633 164.568 309.687 164.568 309.711 164.628L309.999 164.61C310.047 164.598 310.077 164.628 310.089 164.7C310.113 164.76 310.155 164.814 310.215 164.862C310.347 164.97 310.383 165.204 310.323 165.564C310.263 165.924 310.095 166.428 309.819 167.076C309.591 167.568 309.435 167.94 309.351 168.192C309.279 168.444 309.237 168.69 309.225 168.93C309.225 169.146 309.267 169.35 309.351 169.542C309.435 169.734 309.567 169.908 309.747 170.064C309.879 170.148 309.951 170.244 309.963 170.352C309.987 170.46 309.993 170.586 309.981 170.73C309.957 170.838 309.885 170.928 309.765 171C309.657 171.06 309.531 171.09 309.387 171.09C309.243 171.09 309.111 171.048 308.991 170.964ZM313.313 170.802C312.965 170.862 312.647 170.844 312.359 170.748C312.071 170.64 311.837 170.466 311.657 170.226C311.489 169.974 311.405 169.656 311.405 169.272C311.369 168.912 311.411 168.498 311.531 168.03C311.651 167.55 311.825 167.07 312.053 166.59C312.293 166.11 312.551 165.696 312.827 165.348C313.067 165.06 313.307 164.796 313.547 164.556C313.787 164.316 314.003 164.154 314.195 164.07C314.363 163.998 314.519 163.956 314.663 163.944C314.819 163.92 314.945 163.908 315.041 163.908C315.233 163.956 315.437 164.046 315.653 164.178C315.881 164.298 315.995 164.43 315.995 164.574C315.995 164.574 316.007 164.592 316.031 164.628C316.067 164.652 316.085 164.664 316.085 164.664C316.157 164.664 316.217 164.742 316.265 164.898C316.325 165.054 316.361 165.234 316.373 165.438C316.385 165.63 316.355 165.792 316.283 165.924C316.235 166.152 316.151 166.35 316.031 166.518C315.911 166.686 315.803 166.77 315.707 166.77C315.659 166.77 315.611 166.776 315.563 166.788C315.527 166.788 315.509 166.818 315.509 166.878C315.509 166.938 315.473 166.962 315.401 166.95C315.341 166.938 315.275 166.902 315.203 166.842C315.131 166.77 315.077 166.686 315.041 166.59C315.041 166.53 315.065 166.428 315.113 166.284C315.161 166.14 315.209 165.954 315.257 165.726C315.329 165.39 315.323 165.174 315.239 165.078C315.155 164.97 314.993 164.964 314.753 165.06C314.453 165.228 314.165 165.462 313.889 165.762C313.625 166.062 313.379 166.452 313.151 166.932C312.923 167.4 312.719 167.988 312.539 168.696C312.467 168.972 312.437 169.212 312.449 169.416C312.473 169.62 312.503 169.728 312.539 169.74C312.707 169.788 312.935 169.8 313.223 169.776C313.511 169.74 313.721 169.686 313.853 169.614C314.045 169.518 314.261 169.392 314.501 169.236C314.741 169.068 314.951 168.918 315.131 168.786C315.191 168.75 315.263 168.69 315.347 168.606C315.431 168.522 315.521 168.456 315.617 168.408C315.713 168.264 315.797 168.18 315.869 168.156C315.941 168.132 316.049 168.12 316.193 168.12C316.289 168.144 316.379 168.18 316.463 168.228C316.547 168.276 316.601 168.324 316.625 168.372C316.661 168.42 316.643 168.462 316.571 168.498C316.523 168.498 316.493 168.516 316.481 168.552C316.481 168.576 316.481 168.588 316.481 168.588C316.505 168.636 316.451 168.738 316.319 168.894C316.199 169.038 316.043 169.2 315.851 169.38C315.659 169.56 315.473 169.716 315.293 169.848C315.125 169.968 315.005 170.028 314.933 170.028C314.813 170.028 314.753 170.064 314.753 170.136C314.753 170.16 314.663 170.22 314.483 170.316C314.315 170.412 314.117 170.508 313.889 170.604C313.673 170.7 313.481 170.766 313.313 170.802ZM319.999 170.964C319.831 170.916 319.693 170.862 319.585 170.802C319.477 170.73 319.333 170.616 319.153 170.46C319.009 170.268 318.895 170.088 318.811 169.92C318.739 169.752 318.691 169.56 318.667 169.344C318.643 169.116 318.631 168.828 318.631 168.48C318.631 168.336 318.655 168.12 318.703 167.832C318.763 167.544 318.829 167.244 318.901 166.932C318.985 166.608 319.057 166.32 319.117 166.068C319.189 165.816 319.231 165.654 319.243 165.582C319.279 165.426 319.219 165.336 319.063 165.312C318.907 165.288 318.733 165.282 318.541 165.294C318.361 165.294 318.241 165.276 318.181 165.24C318.133 165.228 318.109 165.21 318.109 165.186C318.109 165.15 318.109 165.132 318.109 165.132C318.109 165.084 318.103 165.054 318.091 165.042C318.091 165.018 318.073 164.976 318.037 164.916C318.013 164.868 318.025 164.802 318.073 164.718C318.133 164.622 318.229 164.562 318.361 164.538C318.469 164.514 318.613 164.496 318.793 164.484C318.985 164.46 319.177 164.418 319.369 164.358C319.561 164.286 319.717 164.178 319.837 164.034C319.945 163.77 320.071 163.476 320.215 163.152C320.359 162.828 320.497 162.54 320.629 162.288C320.773 162.024 320.869 161.862 320.917 161.802C321.121 161.694 321.271 161.652 321.367 161.676C321.463 161.688 321.571 161.79 321.691 161.982C321.751 162.066 321.793 162.132 321.817 162.18C321.853 162.228 321.859 162.3 321.835 162.396C321.811 162.492 321.745 162.642 321.637 162.846C321.541 163.05 321.391 163.344 321.187 163.728C321.127 163.848 321.073 163.956 321.025 164.052C320.977 164.136 320.953 164.178 320.953 164.178C321.001 164.19 321.073 164.196 321.169 164.196C321.265 164.196 321.385 164.19 321.529 164.178C321.661 164.154 321.829 164.136 322.033 164.124C322.237 164.1 322.399 164.1 322.519 164.124C322.795 164.124 322.999 164.178 323.131 164.286C323.263 164.382 323.335 164.55 323.347 164.79C323.371 164.922 323.341 165 323.257 165.024C323.185 165.048 322.987 165.06 322.663 165.06C322.555 165.06 322.387 165.066 322.159 165.078C321.931 165.09 321.691 165.102 321.439 165.114C321.199 165.126 320.989 165.144 320.809 165.168C320.641 165.18 320.557 165.198 320.557 165.222C320.521 165.246 320.461 165.36 320.377 165.564C320.305 165.768 320.227 166.002 320.143 166.266C320.071 166.518 320.005 166.746 319.945 166.95C319.861 167.358 319.795 167.766 319.747 168.174C319.711 168.582 319.705 168.936 319.729 169.236C319.753 169.536 319.819 169.746 319.927 169.866C320.035 169.974 320.245 169.998 320.557 169.938C320.869 169.866 321.121 169.752 321.313 169.596C321.529 169.416 321.703 169.326 321.835 169.326C321.979 169.326 322.057 169.392 322.069 169.524C322.093 169.644 322.027 169.818 321.871 170.046C321.727 170.262 321.547 170.454 321.331 170.622C321.115 170.778 320.887 170.892 320.647 170.964C320.419 171.024 320.203 171.024 319.999 170.964Z" fill="url(#paint9_linear_2468_6057)"/>
<path opacity="0.75" d="M78.3188 172.008C78.1388 171.936 77.9528 171.858 77.7608 171.774C77.5808 171.69 77.4068 171.564 77.2388 171.396C77.0828 171.24 76.9448 171.018 76.8248 170.73C76.7048 170.382 76.6208 170.04 76.5728 169.704C76.5368 169.368 76.5248 168.978 76.5368 168.534C76.5368 167.91 76.5788 167.37 76.6628 166.914C76.7588 166.446 76.9028 165.972 77.0948 165.492C77.1188 165.456 77.1608 165.354 77.2208 165.186C77.2928 165.006 77.3708 164.814 77.4548 164.61C77.5508 164.406 77.6228 164.25 77.6708 164.142C77.7668 163.938 77.9108 163.668 78.1028 163.332C78.3068 162.984 78.5228 162.648 78.7508 162.324C79.0988 161.808 79.3868 161.4 79.6148 161.1C79.8428 160.8 80.0588 160.548 80.2628 160.344C80.4668 160.14 80.6948 159.948 80.9468 159.768C81.2108 159.576 81.5468 159.342 81.9548 159.066C82.2188 158.874 82.5068 158.772 82.8188 158.76C83.1428 158.748 83.4428 158.82 83.7188 158.976C83.9948 159.12 84.1988 159.336 84.3308 159.624C84.4628 159.876 84.5288 160.182 84.5288 160.542C84.5288 160.89 84.4748 161.262 84.3668 161.658C84.2588 162.042 84.1088 162.408 83.9168 162.756C83.7248 163.104 83.5028 163.392 83.2508 163.62C83.0948 163.764 82.9508 163.818 82.8188 163.782C82.6988 163.746 82.5548 163.65 82.3868 163.494C82.2788 163.29 82.2188 163.17 82.2068 163.134C82.2068 163.098 82.2308 163.074 82.2788 163.062C82.3508 162.978 82.4468 162.834 82.5668 162.63C82.6868 162.426 82.8068 162.21 82.9268 161.982C83.0468 161.742 83.1308 161.55 83.1788 161.406C83.2748 160.902 83.3408 160.548 83.3768 160.344C83.4128 160.128 83.3768 159.966 83.2688 159.858C83.2208 159.81 83.1488 159.792 83.0528 159.804C82.9688 159.816 82.8248 159.876 82.6208 159.984C82.3448 160.104 81.9848 160.374 81.5408 160.794C81.0968 161.202 80.6888 161.658 80.3168 162.162C79.8368 162.798 79.4348 163.362 79.1108 163.854C78.7868 164.346 78.5408 164.85 78.3728 165.366C78.3488 165.414 78.3068 165.504 78.2468 165.636C78.1988 165.768 78.1748 165.834 78.1748 165.834C78.1868 165.882 78.1688 166.002 78.1208 166.194C78.0728 166.374 78.0188 166.53 77.9588 166.662C77.8268 167.214 77.7488 167.79 77.7248 168.39C77.7008 168.978 77.7308 169.5 77.8148 169.956C77.9108 170.412 78.0488 170.73 78.2288 170.91C78.3848 171.018 78.5948 171.054 78.8588 171.018C79.1348 170.982 79.4468 170.898 79.7948 170.766C80.1428 170.634 80.4968 170.49 80.8568 170.334C81.1448 170.214 81.4088 170.082 81.6488 169.938C81.8888 169.794 82.0688 169.668 82.1888 169.56C82.2848 169.488 82.4048 169.416 82.5488 169.344C82.7048 169.26 82.8368 169.218 82.9448 169.218C83.1128 169.158 83.2088 169.134 83.2328 169.146C83.2568 169.158 83.2688 169.212 83.2688 169.308C83.2688 169.476 83.1728 169.662 82.9808 169.866C82.8008 170.07 82.5668 170.256 82.2788 170.424C82.1828 170.52 82.0568 170.622 81.9008 170.73C81.7448 170.838 81.5828 170.922 81.4148 170.982C81.1628 171.174 80.8508 171.36 80.4788 171.54C80.1068 171.72 79.7288 171.858 79.3448 171.954C78.9728 172.05 78.6308 172.068 78.3188 172.008ZM85.999 170.73C85.843 170.73 85.717 170.7 85.621 170.64C85.537 170.58 85.429 170.496 85.297 170.388C85.069 170.148 84.907 169.92 84.811 169.704C84.715 169.476 84.685 169.26 84.721 169.056C84.757 168.96 84.769 168.87 84.757 168.786C84.757 168.69 84.757 168.642 84.757 168.642C84.697 168.582 84.679 168.546 84.703 168.534C84.727 168.51 84.751 168.474 84.775 168.426C84.847 168.426 84.871 168.36 84.847 168.228C84.823 168.132 84.871 167.922 84.991 167.598C85.111 167.274 85.261 166.968 85.441 166.68C85.513 166.56 85.621 166.404 85.765 166.212C85.909 166.008 86.065 165.81 86.233 165.618C86.413 165.414 86.575 165.252 86.719 165.132C87.019 164.88 87.283 164.694 87.511 164.574C87.739 164.454 87.985 164.364 88.249 164.304C88.513 164.244 88.693 164.214 88.789 164.214C88.897 164.214 89.041 164.31 89.221 164.502C89.497 164.622 89.695 164.766 89.815 164.934C89.947 165.102 90.031 165.348 90.067 165.672C90.103 166.032 90.073 166.446 89.977 166.914C89.893 167.37 89.611 167.94 89.131 168.624C88.831 169.056 88.555 169.38 88.303 169.596C88.051 169.8 87.751 170.004 87.403 170.208C87.151 170.376 86.923 170.502 86.719 170.586C86.515 170.658 86.275 170.706 85.999 170.73ZM87.727 168.822C88.015 168.498 88.243 168.192 88.411 167.904C88.591 167.616 88.759 167.25 88.915 166.806C88.963 166.674 88.993 166.512 89.005 166.32C89.017 166.116 89.011 165.93 88.987 165.762C88.975 165.582 88.933 165.48 88.861 165.456C88.717 165.372 88.543 165.348 88.339 165.384C88.135 165.408 87.913 165.522 87.673 165.726C87.301 166.038 86.977 166.428 86.701 166.896C86.425 167.352 86.155 167.874 85.891 168.462C85.711 168.894 85.669 169.242 85.765 169.506C85.873 169.758 86.095 169.848 86.431 169.776C86.779 169.692 87.211 169.374 87.727 168.822ZM99.2207 170.244C99.1607 170.22 99.0707 170.16 98.9507 170.064C98.8307 169.968 98.7287 169.806 98.6447 169.578C98.5607 169.338 98.5187 169.008 98.5187 168.588C98.5307 168.228 98.5367 167.946 98.5367 167.742C98.5487 167.538 98.5067 167.436 98.4107 167.436C98.3147 167.436 98.1287 167.532 97.8527 167.724C97.5887 167.904 97.2827 168.15 96.9347 168.462C96.5867 168.774 96.2327 169.122 95.8727 169.506C95.7527 169.638 95.6327 169.764 95.5127 169.884C95.4047 169.992 95.2967 170.064 95.1887 170.1C95.0807 170.124 94.9547 170.082 94.8107 169.974L94.6127 169.812C94.5527 169.752 94.5167 169.692 94.5047 169.632C94.4927 169.56 94.4987 169.482 94.5227 169.398L94.9367 168.21C95.1287 167.778 95.2607 167.466 95.3327 167.274C95.4047 167.07 95.4407 166.944 95.4407 166.896C95.4407 166.836 95.4227 166.812 95.3867 166.824C95.2907 166.836 95.1467 166.896 94.9547 167.004C94.7627 167.1 94.6367 167.196 94.5767 167.292C94.5287 167.292 94.4567 167.346 94.3607 167.454C94.2647 167.562 94.1447 167.664 94.0007 167.76C93.9167 167.904 93.7487 168.09 93.4967 168.318C93.2567 168.546 93.0167 168.78 92.7767 169.02C92.6207 169.152 92.4647 169.314 92.3087 169.506C92.1647 169.698 92.0387 169.866 91.9307 170.01C91.8347 170.154 91.7687 170.226 91.7327 170.226C91.5767 170.226 91.4327 170.184 91.3007 170.1C91.1807 170.016 91.0907 169.878 91.0307 169.686C90.9347 169.482 90.9347 169.2 91.0307 168.84C91.1267 168.468 91.2347 167.988 91.3547 167.4C91.4027 167.22 91.4327 167.088 91.4447 167.004C91.4567 166.92 91.4747 166.836 91.4987 166.752C91.5347 166.656 91.5887 166.512 91.6607 166.32C91.7447 166.128 91.8707 165.84 92.0387 165.456C92.1227 165.228 92.1707 165.06 92.1827 164.952C92.2067 164.832 92.2187 164.748 92.2187 164.7C92.2187 164.58 92.2487 164.478 92.3087 164.394C92.3807 164.31 92.4647 164.25 92.5607 164.214C92.6567 164.178 92.7467 164.172 92.8307 164.196C92.9627 164.22 93.0767 164.286 93.1727 164.394C93.2807 164.502 93.3407 164.652 93.3527 164.844C93.3647 164.988 93.3527 165.12 93.3167 165.24C93.2807 165.348 93.2447 165.45 93.2087 165.546L93.0107 166.032C92.9507 166.164 92.8727 166.356 92.7767 166.608C92.6807 166.86 92.5967 167.094 92.5247 167.31C92.4527 167.514 92.4167 167.634 92.4167 167.67C92.4287 167.706 92.4707 167.7 92.5427 167.652C92.6147 167.592 92.7047 167.514 92.8127 167.418C92.9327 167.31 93.0527 167.208 93.1727 167.112C93.4247 166.872 93.7067 166.644 94.0187 166.428C94.3427 166.2 94.6487 166.008 94.9367 165.852C95.2247 165.696 95.4467 165.594 95.6027 165.546C95.8067 165.546 95.9447 165.582 96.0167 165.654C96.1007 165.726 96.2387 165.858 96.4307 166.05C96.5147 166.134 96.5627 166.242 96.5747 166.374C96.5867 166.506 96.5807 166.632 96.5567 166.752C96.5447 166.8 96.5087 166.92 96.4487 167.112C96.3887 167.292 96.3287 167.466 96.2687 167.634C96.2207 167.802 96.1967 167.886 96.1967 167.886C96.1967 167.886 96.2627 167.826 96.3947 167.706C96.5387 167.586 96.6947 167.46 96.8627 167.328C97.0307 167.184 97.1567 167.076 97.2407 167.004C97.7087 166.644 98.1167 166.416 98.4647 166.32C98.8127 166.224 99.0947 166.35 99.3107 166.698C99.4547 166.83 99.5267 166.974 99.5267 167.13C99.5387 167.286 99.5447 167.556 99.5447 167.94C99.5567 168.096 99.5687 168.282 99.5807 168.498C99.5927 168.714 99.6047 168.912 99.6167 169.092C99.6407 169.26 99.6647 169.362 99.6887 169.398C99.7247 169.446 99.7907 169.488 99.8867 169.524C99.9947 169.548 100.133 169.572 100.301 169.596C100.481 169.62 100.589 169.698 100.625 169.83C100.661 169.962 100.583 170.088 100.391 170.208C100.211 170.316 100.013 170.364 99.7967 170.352C99.5807 170.34 99.3887 170.304 99.2207 170.244ZM101.247 174.15C101.103 174.246 100.953 174.24 100.797 174.132C100.653 174.024 100.545 173.862 100.473 173.646C100.401 173.43 100.407 173.202 100.491 172.962C100.515 172.89 100.551 172.77 100.599 172.602C100.647 172.446 100.677 172.308 100.689 172.188C100.701 172.104 100.737 171.96 100.797 171.756C100.857 171.564 100.923 171.372 100.995 171.18C101.079 170.988 101.145 170.85 101.193 170.766C101.265 170.646 101.313 170.508 101.337 170.352C101.373 170.196 101.391 170.076 101.391 169.992C101.415 169.908 101.445 169.812 101.481 169.704C101.529 169.596 101.577 169.512 101.625 169.452C101.649 169.356 101.685 169.254 101.733 169.146C101.781 169.026 101.835 168.924 101.895 168.84C101.919 168.756 101.937 168.654 101.949 168.534C101.973 168.414 102.009 168.348 102.057 168.336C102.069 168.288 102.075 168.24 102.075 168.192C102.087 168.144 102.111 168.078 102.147 167.994C102.171 167.862 102.225 167.67 102.309 167.418C102.393 167.166 102.495 166.89 102.615 166.59C102.747 166.242 102.807 165.912 102.795 165.6C102.795 165.276 102.705 165.078 102.525 165.006C102.429 164.958 102.369 164.892 102.345 164.808C102.321 164.712 102.333 164.616 102.381 164.52C102.429 164.424 102.501 164.358 102.597 164.322C102.705 164.274 102.819 164.256 102.939 164.268C103.071 164.28 103.185 164.304 103.281 164.34C103.377 164.364 103.419 164.388 103.407 164.412C103.407 164.472 103.437 164.508 103.497 164.52C103.521 164.484 103.569 164.526 103.641 164.646C103.725 164.754 103.803 164.88 103.875 165.024C103.947 165.168 103.983 165.27 103.983 165.33C103.959 165.378 103.947 165.408 103.947 165.42C103.947 165.42 103.971 165.42 104.019 165.42C104.019 165.42 104.085 165.39 104.217 165.33C104.349 165.258 104.487 165.18 104.631 165.096C104.787 165 104.889 164.928 104.937 164.88C104.937 164.88 104.967 164.868 105.027 164.844C105.099 164.808 105.159 164.766 105.207 164.718C105.447 164.622 105.705 164.604 105.981 164.664C106.269 164.724 106.497 164.832 106.665 164.988C106.905 165.288 107.025 165.576 107.025 165.852C107.037 166.128 106.959 166.476 106.791 166.896C106.767 166.956 106.713 167.058 106.629 167.202C106.557 167.334 106.485 167.46 106.413 167.58C106.341 167.688 106.305 167.742 106.305 167.742C106.029 168.174 105.705 168.534 105.333 168.822C104.961 169.11 104.583 169.362 104.199 169.578C104.079 169.662 103.953 169.728 103.821 169.776C103.701 169.812 103.593 169.836 103.497 169.848C103.401 169.848 103.335 169.836 103.299 169.812C103.167 169.716 103.047 169.512 102.939 169.2C102.879 169.356 102.819 169.512 102.759 169.668C102.711 169.812 102.681 169.908 102.669 169.956C102.657 170.04 102.645 170.112 102.633 170.172C102.621 170.22 102.591 170.262 102.543 170.298C102.543 170.298 102.537 170.322 102.525 170.37C102.513 170.418 102.471 170.49 102.399 170.586C102.279 170.934 102.171 171.234 102.075 171.486C101.979 171.75 101.901 171.972 101.841 172.152C101.781 172.344 101.733 172.512 101.697 172.656C101.673 172.98 101.607 173.298 101.499 173.61C101.391 173.934 101.307 174.114 101.247 174.15ZM103.389 169.02C103.437 168.996 103.539 168.93 103.695 168.822C103.863 168.702 104.049 168.564 104.253 168.408C104.457 168.24 104.643 168.084 104.811 167.94C104.991 167.796 105.111 167.688 105.171 167.616C105.267 167.508 105.357 167.394 105.441 167.274C105.525 167.142 105.591 166.998 105.639 166.842C105.675 166.746 105.717 166.638 105.765 166.518C105.813 166.398 105.855 166.284 105.891 166.176C105.939 166.08 105.957 165.984 105.945 165.888C105.945 165.78 105.909 165.69 105.837 165.618C105.789 165.606 105.645 165.642 105.405 165.726C105.165 165.798 104.901 165.924 104.613 166.104C104.325 166.272 104.073 166.494 103.857 166.77C103.605 167.094 103.419 167.43 103.299 167.778C103.191 168.126 103.143 168.42 103.155 168.66C103.179 168.9 103.257 169.02 103.389 169.02ZM109.706 171.054C109.178 171.054 108.746 170.856 108.41 170.46C108.074 170.052 107.912 169.548 107.924 168.948C107.948 168.516 108.032 168.054 108.176 167.562C108.332 167.058 108.536 166.578 108.788 166.122C109.04 165.654 109.316 165.246 109.616 164.898C109.916 164.55 110.228 164.304 110.552 164.16C110.672 164.1 110.798 164.052 110.93 164.016C111.074 163.98 111.218 163.962 111.362 163.962C111.494 163.962 111.632 163.986 111.776 164.034C111.92 164.07 112.04 164.112 112.136 164.16C112.34 164.244 112.496 164.346 112.604 164.466C112.712 164.586 112.808 164.772 112.892 165.024C112.928 165.252 112.946 165.414 112.946 165.51C112.946 165.606 112.916 165.75 112.856 165.942C112.712 166.374 112.526 166.746 112.298 167.058C112.07 167.37 111.764 167.634 111.38 167.85C111.284 167.91 111.17 167.958 111.038 167.994C110.918 168.018 110.792 168.03 110.66 168.03C110.42 168.03 110.186 167.988 109.958 167.904C109.742 167.808 109.568 167.67 109.436 167.49L109.31 167.346L109.256 167.49C109.136 167.814 109.04 168.114 108.968 168.39C108.908 168.666 108.878 168.918 108.878 169.146C108.878 169.29 108.89 169.428 108.914 169.56C108.95 169.692 108.998 169.806 109.058 169.902C109.106 169.974 109.184 170.028 109.292 170.064C109.412 170.088 109.538 170.1 109.67 170.1C109.754 170.1 109.838 170.1 109.922 170.1C110.018 170.088 110.108 170.064 110.192 170.028C110.396 169.956 110.558 169.878 110.678 169.794C110.81 169.71 110.942 169.62 111.074 169.524L111.146 169.488H111.128C111.272 169.416 111.398 169.344 111.506 169.272C111.626 169.2 111.686 169.164 111.686 169.164C111.734 169.164 111.782 169.134 111.83 169.074C111.926 169.026 112.046 169.044 112.19 169.128C112.346 169.212 112.424 169.32 112.424 169.452C112.412 169.512 112.358 169.608 112.262 169.74C112.166 169.86 112.058 169.974 111.938 170.082C111.83 170.19 111.74 170.25 111.668 170.262C111.656 170.274 111.614 170.298 111.542 170.334C111.47 170.358 111.422 170.382 111.398 170.406H111.416C111.308 170.55 111.2 170.622 111.092 170.622H110.948C110.9 170.706 110.744 170.802 110.48 170.91C110.216 171.006 109.958 171.054 109.706 171.054ZM110.516 167.094C110.732 167.094 110.918 167.034 111.074 166.914C111.242 166.782 111.386 166.638 111.506 166.482C111.746 166.158 111.884 165.846 111.92 165.546C111.968 165.234 111.932 165.018 111.812 164.898C111.74 164.862 111.674 164.844 111.614 164.844C111.566 164.832 111.464 164.85 111.308 164.898C111.2 164.922 111.05 165.012 110.858 165.168C110.666 165.324 110.474 165.498 110.282 165.69C110.102 165.882 109.964 166.044 109.868 166.176L109.634 166.554C109.73 166.518 109.82 166.5 109.904 166.5C110 166.488 110.054 166.494 110.066 166.518C110.066 166.626 110.084 166.728 110.12 166.824C110.168 166.908 110.222 166.974 110.282 167.022C110.354 167.07 110.432 167.094 110.516 167.094ZM115.451 171.9C115.055 171.84 114.785 171.69 114.641 171.45C114.509 171.222 114.479 170.868 114.551 170.388C114.623 170.16 114.665 169.956 114.677 169.776C114.701 169.584 114.755 169.464 114.839 169.416C114.839 169.416 114.845 169.398 114.857 169.362C114.881 169.326 114.875 169.29 114.839 169.254C114.839 169.098 114.893 168.882 115.001 168.606C115.025 168.534 115.055 168.45 115.091 168.354C115.139 168.246 115.163 168.192 115.163 168.192C115.103 168.096 115.103 168.018 115.163 167.958C115.223 167.898 115.283 167.844 115.343 167.796C115.415 167.736 115.421 167.67 115.361 167.598C115.337 167.55 115.367 167.442 115.451 167.274C115.535 167.094 115.631 166.908 115.739 166.716C115.847 166.524 115.919 166.374 115.955 166.266C115.955 166.242 115.985 166.158 116.045 166.014C116.105 165.87 116.177 165.702 116.261 165.51C116.345 165.318 116.423 165.144 116.495 164.988C116.579 164.832 116.633 164.73 116.657 164.682C116.777 164.622 116.729 164.58 116.513 164.556C116.297 164.532 116.069 164.526 115.829 164.538C115.457 164.526 115.157 164.508 114.929 164.484C114.713 164.46 114.533 164.406 114.389 164.322C114.245 164.154 114.191 164.034 114.227 163.962C114.275 163.878 114.419 163.83 114.659 163.818C114.815 163.806 114.935 163.8 115.019 163.8C115.115 163.8 115.235 163.794 115.379 163.782C115.535 163.758 115.775 163.728 116.099 163.692L117.017 163.62L117.071 163.314C117.167 163.158 117.245 163.02 117.305 162.9C117.377 162.768 117.437 162.636 117.485 162.504C117.533 162.372 117.569 162.234 117.593 162.09C117.593 162.09 117.647 161.994 117.755 161.802C117.863 161.598 117.929 161.388 117.953 161.172C118.097 160.932 118.223 160.716 118.331 160.524C118.439 160.32 118.505 160.194 118.529 160.146C118.661 160.038 118.751 159.984 118.799 159.984C118.859 159.984 118.979 160.044 119.159 160.164C119.267 160.224 119.363 160.296 119.447 160.38C119.531 160.464 119.585 160.554 119.609 160.65C119.633 160.734 119.597 160.818 119.501 160.902C119.477 160.95 119.441 161.04 119.393 161.172C119.345 161.292 119.309 161.394 119.285 161.478C119.213 161.562 119.123 161.7 119.015 161.892C118.919 162.072 118.853 162.258 118.817 162.45C118.721 162.654 118.631 162.84 118.547 163.008C118.463 163.164 118.397 163.242 118.349 163.242C118.373 163.362 118.445 163.422 118.565 163.422C118.685 163.41 118.883 163.398 119.159 163.386C119.387 163.362 119.543 163.338 119.627 163.314C119.723 163.278 119.831 163.29 119.951 163.35C120.011 163.434 120.059 163.53 120.095 163.638C120.131 163.746 120.137 163.848 120.113 163.944C120.101 164.028 120.053 164.088 119.969 164.124C119.909 164.124 119.783 164.16 119.591 164.232C119.411 164.292 119.183 164.328 118.907 164.34L117.953 164.43L117.647 165.042C117.563 165.198 117.491 165.342 117.431 165.474C117.371 165.594 117.329 165.666 117.305 165.69C117.305 165.762 117.263 165.87 117.179 166.014C117.107 166.158 117.029 166.314 116.945 166.482C116.873 166.686 116.789 166.872 116.693 167.04C116.609 167.208 116.567 167.292 116.567 167.292C116.519 167.292 116.495 167.328 116.495 167.4C116.555 167.544 116.537 167.652 116.441 167.724C116.381 167.76 116.327 167.814 116.279 167.886C116.243 167.946 116.225 167.976 116.225 167.976C116.273 168.024 116.279 168.084 116.243 168.156C116.219 168.228 116.183 168.306 116.135 168.39C116.135 168.486 116.105 168.624 116.045 168.804C115.997 168.984 115.943 169.152 115.883 169.308C115.895 169.524 115.907 169.662 115.919 169.722C115.931 169.782 115.961 169.806 116.009 169.794C116.069 169.806 116.123 169.806 116.171 169.794C116.219 169.782 116.267 169.776 116.315 169.776C116.483 169.704 116.393 170.124 116.045 171.036C115.853 171.336 115.721 171.552 115.649 171.684C115.577 171.828 115.511 171.9 115.451 171.9ZM120.132 170.118C120.084 170.118 120.024 170.106 119.952 170.082C119.892 170.046 119.862 170.028 119.862 170.028C119.862 169.98 119.844 169.92 119.808 169.848C119.784 169.776 119.772 169.716 119.772 169.668C119.688 169.62 119.64 169.572 119.628 169.524C119.616 169.464 119.634 169.368 119.682 169.236C119.754 169.116 119.85 168.924 119.97 168.66C120.09 168.384 120.216 168.09 120.348 167.778C120.48 167.454 120.606 167.136 120.726 166.824C120.846 166.512 120.948 166.248 121.032 166.032C121.116 165.804 121.164 165.666 121.176 165.618C121.176 165.57 121.194 165.51 121.23 165.438C121.266 165.366 121.308 165.306 121.356 165.258C121.452 165.174 121.554 165.168 121.662 165.24C121.77 165.3 121.86 165.408 121.932 165.564C122.016 165.708 122.058 165.87 122.058 166.05C122.058 166.134 121.998 166.35 121.878 166.698C121.758 167.034 121.596 167.436 121.392 167.904C121.2 168.372 120.984 168.846 120.744 169.326C120.564 169.674 120.45 169.896 120.402 169.992C120.354 170.076 120.264 170.118 120.132 170.118ZM122.778 163.296C122.634 163.296 122.478 163.242 122.31 163.134C122.154 163.014 122.016 162.87 121.896 162.702C121.788 162.522 121.734 162.342 121.734 162.162C121.734 162.102 121.77 162.018 121.842 161.91C121.914 161.802 121.986 161.694 122.058 161.586C122.13 161.478 122.166 161.412 122.166 161.388C122.262 161.388 122.334 161.394 122.382 161.406C122.442 161.406 122.514 161.43 122.598 161.478C122.73 161.778 122.892 162.024 123.084 162.216C123.288 162.408 123.39 162.57 123.39 162.702C123.39 162.966 123.366 163.134 123.318 163.206C123.27 163.266 123.09 163.296 122.778 163.296ZM124.57 170.874C124.438 170.85 124.3 170.784 124.156 170.676C124.024 170.556 123.904 170.424 123.796 170.28C123.7 170.124 123.634 169.986 123.598 169.866C123.598 169.842 123.58 169.812 123.544 169.776C123.52 169.74 123.508 169.722 123.508 169.722C123.46 169.686 123.43 169.53 123.418 169.254C123.418 168.966 123.436 168.648 123.472 168.3C123.508 167.952 123.55 167.676 123.598 167.472C123.658 167.28 123.748 167.022 123.868 166.698C123.988 166.362 124.09 166.062 124.174 165.798L124.66 164.754L123.94 164.556C123.856 164.532 123.784 164.484 123.724 164.412C123.676 164.34 123.652 164.28 123.652 164.232C123.652 164.136 123.706 164.022 123.814 163.89C123.922 163.746 124 163.674 124.048 163.674C124.108 163.686 124.216 163.692 124.372 163.692C124.54 163.692 124.702 163.686 124.858 163.674C125.014 163.662 125.11 163.65 125.146 163.638C125.194 163.614 125.242 163.584 125.29 163.548C125.338 163.5 125.374 163.434 125.398 163.35C125.458 163.218 125.512 163.098 125.56 162.99C125.608 162.87 125.674 162.738 125.758 162.594C125.842 162.438 125.908 162.306 125.956 162.198C126.016 162.09 126.106 161.94 126.226 161.748C126.286 161.664 126.352 161.562 126.424 161.442C126.496 161.322 126.586 161.22 126.694 161.136C126.802 161.04 126.91 160.998 127.018 161.01C127.138 161.01 127.288 161.088 127.468 161.244C127.564 161.364 127.618 161.454 127.63 161.514C127.642 161.574 127.594 161.688 127.486 161.856C127.39 162.06 127.276 162.264 127.144 162.468C127.024 162.672 126.91 162.876 126.802 163.08C126.61 163.344 126.574 163.494 126.694 163.53C126.814 163.566 127.15 163.542 127.702 163.458C128.05 163.398 128.302 163.416 128.458 163.512C128.614 163.596 128.704 163.74 128.728 163.944C128.764 164.232 128.734 164.406 128.638 164.466C128.542 164.526 128.266 164.556 127.81 164.556C127.522 164.604 127.276 164.634 127.072 164.646C126.868 164.646 126.718 164.646 126.622 164.646C126.466 164.658 126.364 164.664 126.316 164.664C126.268 164.664 126.196 164.676 126.1 164.7C126.004 164.724 125.932 164.766 125.884 164.826C125.848 164.874 125.806 164.946 125.758 165.042C125.71 165.09 125.638 165.216 125.542 165.42C125.446 165.624 125.326 165.846 125.182 166.086C125.014 166.59 124.87 167.094 124.75 167.598C124.63 168.09 124.534 168.57 124.462 169.038C124.414 169.338 124.42 169.548 124.48 169.668C124.54 169.776 124.696 169.842 124.948 169.866C125.08 169.878 125.29 169.878 125.578 169.866C125.878 169.842 126.112 169.806 126.28 169.758C126.412 169.698 126.55 169.638 126.694 169.578C126.838 169.506 126.97 169.434 127.09 169.362C127.198 169.302 127.306 169.242 127.414 169.182C127.522 169.11 127.576 169.074 127.576 169.074C127.636 168.978 127.702 168.948 127.774 168.984C127.846 169.02 127.906 169.11 127.954 169.254C127.954 169.398 127.924 169.548 127.864 169.704C127.804 169.86 127.582 170.046 127.198 170.262C126.658 170.598 126.16 170.802 125.704 170.874C125.26 170.934 124.882 170.934 124.57 170.874ZM130.349 170.73C130.193 170.73 130.067 170.7 129.971 170.64C129.887 170.58 129.779 170.496 129.647 170.388C129.419 170.148 129.257 169.92 129.161 169.704C129.065 169.476 129.035 169.26 129.071 169.056C129.107 168.96 129.119 168.87 129.107 168.786C129.107 168.69 129.107 168.642 129.107 168.642C129.047 168.582 129.029 168.546 129.053 168.534C129.077 168.51 129.101 168.474 129.125 168.426C129.197 168.426 129.221 168.36 129.197 168.228C129.173 168.132 129.221 167.922 129.341 167.598C129.461 167.274 129.611 166.968 129.791 166.68C129.863 166.56 129.971 166.404 130.115 166.212C130.259 166.008 130.415 165.81 130.583 165.618C130.763 165.414 130.925 165.252 131.069 165.132C131.369 164.88 131.633 164.694 131.861 164.574C132.089 164.454 132.335 164.364 132.599 164.304C132.863 164.244 133.043 164.214 133.139 164.214C133.247 164.214 133.391 164.31 133.571 164.502C133.847 164.622 134.045 164.766 134.165 164.934C134.297 165.102 134.381 165.348 134.417 165.672C134.453 166.032 134.423 166.446 134.327 166.914C134.243 167.37 133.961 167.94 133.481 168.624C133.181 169.056 132.905 169.38 132.653 169.596C132.401 169.8 132.101 170.004 131.753 170.208C131.501 170.376 131.273 170.502 131.069 170.586C130.865 170.658 130.625 170.706 130.349 170.73ZM132.077 168.822C132.365 168.498 132.593 168.192 132.761 167.904C132.941 167.616 133.109 167.25 133.265 166.806C133.313 166.674 133.343 166.512 133.355 166.32C133.367 166.116 133.361 165.93 133.337 165.762C133.325 165.582 133.283 165.48 133.211 165.456C133.067 165.372 132.893 165.348 132.689 165.384C132.485 165.408 132.263 165.522 132.023 165.726C131.651 166.038 131.327 166.428 131.051 166.896C130.775 167.352 130.505 167.874 130.241 168.462C130.061 168.894 130.019 169.242 130.115 169.506C130.223 169.758 130.445 169.848 130.781 169.776C131.129 169.692 131.561 169.374 132.077 168.822ZM136.55 170.442C136.514 170.454 136.454 170.448 136.37 170.424C136.286 170.4 136.202 170.37 136.118 170.334C136.034 170.298 135.98 170.268 135.956 170.244C135.908 170.196 135.86 170.124 135.812 170.028C135.776 169.932 135.776 169.794 135.812 169.614C135.848 169.422 135.968 169.176 136.172 168.876C136.232 168.756 136.304 168.576 136.388 168.336C136.472 168.096 136.556 167.844 136.64 167.58C136.736 167.304 136.82 167.058 136.892 166.842C136.976 166.626 137.036 166.476 137.072 166.392C137.096 166.188 137.084 166.044 137.036 165.96C137 165.864 136.898 165.81 136.73 165.798C136.61 165.798 136.514 165.786 136.442 165.762C136.382 165.738 136.352 165.618 136.352 165.402C136.376 165.234 136.418 165.12 136.478 165.06C136.55 164.988 136.646 164.91 136.766 164.826C136.886 164.766 137.006 164.724 137.126 164.7C137.258 164.676 137.384 164.67 137.504 164.682C137.624 164.694 137.72 164.736 137.792 164.808C137.876 164.856 137.93 164.964 137.954 165.132C137.978 165.288 137.99 165.45 137.99 165.618C138.002 165.786 138.014 165.912 138.026 165.996C138.146 165.9 138.308 165.768 138.512 165.6C138.728 165.42 138.914 165.252 139.07 165.096C139.262 164.964 139.49 164.832 139.754 164.7C140.018 164.556 140.21 164.484 140.33 164.484C140.462 164.484 140.594 164.52 140.726 164.592C140.858 164.652 140.948 164.73 140.996 164.826C141.116 165.03 141.17 165.21 141.158 165.366C141.158 165.522 141.092 165.684 140.96 165.852C140.84 166.008 140.69 166.116 140.51 166.176C140.342 166.236 140.234 166.266 140.186 166.266C140.114 166.266 140.024 166.212 139.916 166.104C139.808 165.996 139.748 165.906 139.736 165.834C139.736 165.798 139.658 165.834 139.502 165.942C139.358 166.038 139.196 166.164 139.016 166.32C138.836 166.464 138.686 166.596 138.566 166.716C138.362 166.968 138.146 167.31 137.918 167.742C137.69 168.174 137.42 168.696 137.108 169.308C136.964 169.608 136.862 169.866 136.802 170.082C136.742 170.286 136.658 170.406 136.55 170.442ZM145.74 171.594C145.524 171.474 145.404 171.342 145.38 171.198C145.368 171.054 145.452 170.802 145.632 170.442C145.812 170.082 146.094 169.524 146.478 168.768C146.766 168.228 146.982 167.808 147.126 167.508C147.282 167.196 147.384 166.974 147.432 166.842C147.492 166.71 147.522 166.626 147.522 166.59C147.498 166.482 147.51 166.398 147.558 166.338C147.606 166.266 147.684 166.206 147.792 166.158C147.852 166.098 147.948 165.99 148.08 165.834C148.224 165.678 148.356 165.492 148.476 165.276C148.584 165.024 148.71 164.766 148.854 164.502C148.998 164.238 149.19 163.908 149.43 163.512C149.67 163.104 149.982 162.576 150.366 161.928C150.606 161.508 150.87 161.082 151.158 160.65C151.446 160.206 151.752 159.768 152.076 159.336C152.208 159.168 152.328 159.036 152.436 158.94C152.544 158.832 152.652 158.784 152.76 158.796C152.904 158.796 153.066 158.844 153.246 158.94C153.438 159.036 153.612 159.162 153.768 159.318C153.924 159.474 154.038 159.642 154.11 159.822C154.17 159.918 154.194 160.122 154.182 160.434C154.17 160.746 154.146 161.124 154.11 161.568C154.074 162.012 154.032 162.486 153.984 162.99C153.948 163.482 153.894 164.064 153.822 164.736C153.75 165.408 153.678 166.11 153.606 166.842C153.546 167.574 153.498 168.282 153.462 168.966C153.426 169.638 153.426 170.226 153.462 170.73C153.474 170.838 153.474 170.94 153.462 171.036C153.45 171.132 153.444 171.21 153.444 171.27C153.372 171.342 153.252 171.372 153.084 171.36C152.928 171.36 152.772 171.324 152.616 171.252C152.472 171.18 152.388 171.09 152.364 170.982C152.328 170.946 152.304 170.898 152.292 170.838C152.292 170.766 152.298 170.622 152.31 170.406C152.322 170.19 152.334 169.848 152.346 169.38L152.436 166.464L152.202 166.482C152.094 166.482 151.89 166.494 151.59 166.518C151.29 166.542 150.966 166.578 150.618 166.626C150.27 166.662 149.946 166.704 149.646 166.752C149.358 166.788 149.16 166.824 149.052 166.86C148.944 166.86 148.812 166.932 148.656 167.076C148.512 167.22 148.374 167.406 148.242 167.634C148.194 167.802 148.104 167.982 147.972 168.174C147.852 168.354 147.792 168.474 147.792 168.534C147.708 168.594 147.636 168.666 147.576 168.75C147.528 168.834 147.504 168.876 147.504 168.876C147.504 168.948 147.444 169.128 147.324 169.416C147.216 169.692 147.078 170.004 146.91 170.352C146.742 170.688 146.574 170.982 146.406 171.234L146.028 171.81L145.74 171.594ZM149.466 165.798C149.466 165.798 149.526 165.786 149.646 165.762C149.778 165.738 149.928 165.714 150.096 165.69C150.276 165.654 150.438 165.636 150.582 165.636C151.086 165.516 151.452 165.438 151.68 165.402C151.908 165.354 152.064 165.33 152.148 165.33C152.244 165.33 152.328 165.348 152.4 165.384C152.448 165.444 152.49 165.48 152.526 165.492C152.574 165.504 152.598 165.51 152.598 165.51C152.61 165.486 152.628 165.348 152.652 165.096C152.676 164.844 152.706 164.532 152.742 164.16C152.79 163.788 152.832 163.404 152.868 163.008C152.916 162.6 152.952 162.228 152.976 161.892C153 161.544 153.018 161.28 153.03 161.1C153.042 160.872 153.054 160.668 153.066 160.488C153.078 160.296 153.084 160.2 153.084 160.2C153.012 160.2 152.856 160.332 152.616 160.596C152.388 160.86 152.13 161.208 151.842 161.64C151.554 162.072 151.284 162.534 151.032 163.026C150.912 163.254 150.798 163.458 150.69 163.638C150.582 163.818 150.498 163.908 150.438 163.908C150.414 163.932 150.342 164.04 150.222 164.232C150.114 164.412 149.994 164.622 149.862 164.862C149.73 165.09 149.622 165.3 149.538 165.492C149.454 165.672 149.43 165.774 149.466 165.798Z" fill="url(#paint10_linear_2468_6057)"/>
<path opacity="0.75" d="M416.161 172.008C415.981 171.936 415.795 171.858 415.603 171.774C415.423 171.69 415.249 171.564 415.081 171.396C414.925 171.24 414.787 171.018 414.667 170.73C414.547 170.382 414.463 170.04 414.415 169.704C414.379 169.368 414.367 168.978 414.379 168.534C414.379 167.91 414.421 167.37 414.505 166.914C414.601 166.446 414.745 165.972 414.937 165.492C414.961 165.456 415.003 165.354 415.063 165.186C415.135 165.006 415.213 164.814 415.297 164.61C415.393 164.406 415.465 164.25 415.513 164.142C415.609 163.938 415.753 163.668 415.945 163.332C416.149 162.984 416.365 162.648 416.593 162.324C416.941 161.808 417.229 161.4 417.457 161.1C417.685 160.8 417.901 160.548 418.105 160.344C418.309 160.14 418.537 159.948 418.789 159.768C419.053 159.576 419.389 159.342 419.797 159.066C420.061 158.874 420.349 158.772 420.661 158.76C420.985 158.748 421.285 158.82 421.561 158.976C421.837 159.12 422.041 159.336 422.173 159.624C422.305 159.876 422.371 160.182 422.371 160.542C422.371 160.89 422.317 161.262 422.209 161.658C422.101 162.042 421.951 162.408 421.759 162.756C421.567 163.104 421.345 163.392 421.093 163.62C420.937 163.764 420.793 163.818 420.661 163.782C420.541 163.746 420.397 163.65 420.229 163.494C420.121 163.29 420.061 163.17 420.049 163.134C420.049 163.098 420.073 163.074 420.121 163.062C420.193 162.978 420.289 162.834 420.409 162.63C420.529 162.426 420.649 162.21 420.769 161.982C420.889 161.742 420.973 161.55 421.021 161.406C421.117 160.902 421.183 160.548 421.219 160.344C421.255 160.128 421.219 159.966 421.111 159.858C421.063 159.81 420.991 159.792 420.895 159.804C420.811 159.816 420.667 159.876 420.463 159.984C420.187 160.104 419.827 160.374 419.383 160.794C418.939 161.202 418.531 161.658 418.159 162.162C417.679 162.798 417.277 163.362 416.953 163.854C416.629 164.346 416.383 164.85 416.215 165.366C416.191 165.414 416.149 165.504 416.089 165.636C416.041 165.768 416.017 165.834 416.017 165.834C416.029 165.882 416.011 166.002 415.963 166.194C415.915 166.374 415.861 166.53 415.801 166.662C415.669 167.214 415.591 167.79 415.567 168.39C415.543 168.978 415.573 169.5 415.657 169.956C415.753 170.412 415.891 170.73 416.071 170.91C416.227 171.018 416.437 171.054 416.701 171.018C416.977 170.982 417.289 170.898 417.637 170.766C417.985 170.634 418.339 170.49 418.699 170.334C418.987 170.214 419.251 170.082 419.491 169.938C419.731 169.794 419.911 169.668 420.031 169.56C420.127 169.488 420.247 169.416 420.391 169.344C420.547 169.26 420.679 169.218 420.787 169.218C420.955 169.158 421.051 169.134 421.075 169.146C421.099 169.158 421.111 169.212 421.111 169.308C421.111 169.476 421.015 169.662 420.823 169.866C420.643 170.07 420.409 170.256 420.121 170.424C420.025 170.52 419.899 170.622 419.743 170.73C419.587 170.838 419.425 170.922 419.257 170.982C419.005 171.174 418.693 171.36 418.321 171.54C417.949 171.72 417.571 171.858 417.187 171.954C416.815 172.05 416.473 172.068 416.161 172.008ZM423.841 170.73C423.685 170.73 423.559 170.7 423.463 170.64C423.379 170.58 423.271 170.496 423.139 170.388C422.911 170.148 422.749 169.92 422.653 169.704C422.557 169.476 422.527 169.26 422.563 169.056C422.599 168.96 422.611 168.87 422.599 168.786C422.599 168.69 422.599 168.642 422.599 168.642C422.539 168.582 422.521 168.546 422.545 168.534C422.569 168.51 422.593 168.474 422.617 168.426C422.689 168.426 422.713 168.36 422.689 168.228C422.665 168.132 422.713 167.922 422.833 167.598C422.953 167.274 423.103 166.968 423.283 166.68C423.355 166.56 423.463 166.404 423.607 166.212C423.751 166.008 423.907 165.81 424.075 165.618C424.255 165.414 424.417 165.252 424.561 165.132C424.861 164.88 425.125 164.694 425.353 164.574C425.581 164.454 425.827 164.364 426.091 164.304C426.355 164.244 426.535 164.214 426.631 164.214C426.739 164.214 426.883 164.31 427.063 164.502C427.339 164.622 427.537 164.766 427.657 164.934C427.789 165.102 427.873 165.348 427.909 165.672C427.945 166.032 427.915 166.446 427.819 166.914C427.735 167.37 427.453 167.94 426.973 168.624C426.673 169.056 426.397 169.38 426.145 169.596C425.893 169.8 425.593 170.004 425.245 170.208C424.993 170.376 424.765 170.502 424.561 170.586C424.357 170.658 424.117 170.706 423.841 170.73ZM425.569 168.822C425.857 168.498 426.085 168.192 426.253 167.904C426.433 167.616 426.601 167.25 426.757 166.806C426.805 166.674 426.835 166.512 426.847 166.32C426.859 166.116 426.853 165.93 426.829 165.762C426.817 165.582 426.775 165.48 426.703 165.456C426.559 165.372 426.385 165.348 426.181 165.384C425.977 165.408 425.755 165.522 425.515 165.726C425.143 166.038 424.819 166.428 424.543 166.896C424.267 167.352 423.997 167.874 423.733 168.462C423.553 168.894 423.511 169.242 423.607 169.506C423.715 169.758 423.937 169.848 424.273 169.776C424.621 169.692 425.053 169.374 425.569 168.822ZM437.063 170.244C437.003 170.22 436.913 170.16 436.793 170.064C436.673 169.968 436.571 169.806 436.487 169.578C436.403 169.338 436.361 169.008 436.361 168.588C436.373 168.228 436.379 167.946 436.379 167.742C436.391 167.538 436.349 167.436 436.253 167.436C436.157 167.436 435.971 167.532 435.695 167.724C435.431 167.904 435.125 168.15 434.777 168.462C434.429 168.774 434.075 169.122 433.715 169.506C433.595 169.638 433.475 169.764 433.355 169.884C433.247 169.992 433.139 170.064 433.031 170.1C432.923 170.124 432.797 170.082 432.653 169.974L432.455 169.812C432.395 169.752 432.359 169.692 432.347 169.632C432.335 169.56 432.341 169.482 432.365 169.398L432.779 168.21C432.971 167.778 433.103 167.466 433.175 167.274C433.247 167.07 433.283 166.944 433.283 166.896C433.283 166.836 433.265 166.812 433.229 166.824C433.133 166.836 432.989 166.896 432.797 167.004C432.605 167.1 432.479 167.196 432.419 167.292C432.371 167.292 432.299 167.346 432.203 167.454C432.107 167.562 431.987 167.664 431.843 167.76C431.759 167.904 431.591 168.09 431.339 168.318C431.099 168.546 430.859 168.78 430.619 169.02C430.463 169.152 430.307 169.314 430.151 169.506C430.007 169.698 429.881 169.866 429.773 170.01C429.677 170.154 429.611 170.226 429.575 170.226C429.419 170.226 429.275 170.184 429.143 170.1C429.023 170.016 428.933 169.878 428.873 169.686C428.777 169.482 428.777 169.2 428.873 168.84C428.969 168.468 429.077 167.988 429.197 167.4C429.245 167.22 429.275 167.088 429.287 167.004C429.299 166.92 429.317 166.836 429.341 166.752C429.377 166.656 429.431 166.512 429.503 166.32C429.587 166.128 429.713 165.84 429.881 165.456C429.965 165.228 430.013 165.06 430.025 164.952C430.049 164.832 430.061 164.748 430.061 164.7C430.061 164.58 430.091 164.478 430.151 164.394C430.223 164.31 430.307 164.25 430.403 164.214C430.499 164.178 430.589 164.172 430.673 164.196C430.805 164.22 430.919 164.286 431.015 164.394C431.123 164.502 431.183 164.652 431.195 164.844C431.207 164.988 431.195 165.12 431.159 165.24C431.123 165.348 431.087 165.45 431.051 165.546L430.853 166.032C430.793 166.164 430.715 166.356 430.619 166.608C430.523 166.86 430.439 167.094 430.367 167.31C430.295 167.514 430.259 167.634 430.259 167.67C430.271 167.706 430.313 167.7 430.385 167.652C430.457 167.592 430.547 167.514 430.655 167.418C430.775 167.31 430.895 167.208 431.015 167.112C431.267 166.872 431.549 166.644 431.861 166.428C432.185 166.2 432.491 166.008 432.779 165.852C433.067 165.696 433.289 165.594 433.445 165.546C433.649 165.546 433.787 165.582 433.859 165.654C433.943 165.726 434.081 165.858 434.273 166.05C434.357 166.134 434.405 166.242 434.417 166.374C434.429 166.506 434.423 166.632 434.399 166.752C434.387 166.8 434.351 166.92 434.291 167.112C434.231 167.292 434.171 167.466 434.111 167.634C434.063 167.802 434.039 167.886 434.039 167.886C434.039 167.886 434.105 167.826 434.237 167.706C434.381 167.586 434.537 167.46 434.705 167.328C434.873 167.184 434.999 167.076 435.083 167.004C435.551 166.644 435.959 166.416 436.307 166.32C436.655 166.224 436.937 166.35 437.153 166.698C437.297 166.83 437.369 166.974 437.369 167.13C437.381 167.286 437.387 167.556 437.387 167.94C437.399 168.096 437.411 168.282 437.423 168.498C437.435 168.714 437.447 168.912 437.459 169.092C437.483 169.26 437.507 169.362 437.531 169.398C437.567 169.446 437.633 169.488 437.729 169.524C437.837 169.548 437.975 169.572 438.143 169.596C438.323 169.62 438.431 169.698 438.467 169.83C438.503 169.962 438.425 170.088 438.233 170.208C438.053 170.316 437.855 170.364 437.639 170.352C437.423 170.34 437.231 170.304 437.063 170.244ZM439.089 174.15C438.945 174.246 438.795 174.24 438.639 174.132C438.495 174.024 438.387 173.862 438.315 173.646C438.243 173.43 438.249 173.202 438.333 172.962C438.357 172.89 438.393 172.77 438.441 172.602C438.489 172.446 438.519 172.308 438.531 172.188C438.543 172.104 438.579 171.96 438.639 171.756C438.699 171.564 438.765 171.372 438.837 171.18C438.921 170.988 438.987 170.85 439.035 170.766C439.107 170.646 439.155 170.508 439.179 170.352C439.215 170.196 439.233 170.076 439.233 169.992C439.257 169.908 439.287 169.812 439.323 169.704C439.371 169.596 439.419 169.512 439.467 169.452C439.491 169.356 439.527 169.254 439.575 169.146C439.623 169.026 439.677 168.924 439.737 168.84C439.761 168.756 439.779 168.654 439.791 168.534C439.815 168.414 439.851 168.348 439.899 168.336C439.911 168.288 439.917 168.24 439.917 168.192C439.929 168.144 439.953 168.078 439.989 167.994C440.013 167.862 440.067 167.67 440.151 167.418C440.235 167.166 440.337 166.89 440.457 166.59C440.589 166.242 440.649 165.912 440.637 165.6C440.637 165.276 440.547 165.078 440.367 165.006C440.271 164.958 440.211 164.892 440.187 164.808C440.163 164.712 440.175 164.616 440.223 164.52C440.271 164.424 440.343 164.358 440.439 164.322C440.547 164.274 440.661 164.256 440.781 164.268C440.913 164.28 441.027 164.304 441.123 164.34C441.219 164.364 441.261 164.388 441.249 164.412C441.249 164.472 441.279 164.508 441.339 164.52C441.363 164.484 441.411 164.526 441.483 164.646C441.567 164.754 441.645 164.88 441.717 165.024C441.789 165.168 441.825 165.27 441.825 165.33C441.801 165.378 441.789 165.408 441.789 165.42C441.789 165.42 441.813 165.42 441.861 165.42C441.861 165.42 441.927 165.39 442.059 165.33C442.191 165.258 442.329 165.18 442.473 165.096C442.629 165 442.731 164.928 442.779 164.88C442.779 164.88 442.809 164.868 442.869 164.844C442.941 164.808 443.001 164.766 443.049 164.718C443.289 164.622 443.547 164.604 443.823 164.664C444.111 164.724 444.339 164.832 444.507 164.988C444.747 165.288 444.867 165.576 444.867 165.852C444.879 166.128 444.801 166.476 444.633 166.896C444.609 166.956 444.555 167.058 444.471 167.202C444.399 167.334 444.327 167.46 444.255 167.58C444.183 167.688 444.147 167.742 444.147 167.742C443.871 168.174 443.547 168.534 443.175 168.822C442.803 169.11 442.425 169.362 442.041 169.578C441.921 169.662 441.795 169.728 441.663 169.776C441.543 169.812 441.435 169.836 441.339 169.848C441.243 169.848 441.177 169.836 441.141 169.812C441.009 169.716 440.889 169.512 440.781 169.2C440.721 169.356 440.661 169.512 440.601 169.668C440.553 169.812 440.523 169.908 440.511 169.956C440.499 170.04 440.487 170.112 440.475 170.172C440.463 170.22 440.433 170.262 440.385 170.298C440.385 170.298 440.379 170.322 440.367 170.37C440.355 170.418 440.313 170.49 440.241 170.586C440.121 170.934 440.013 171.234 439.917 171.486C439.821 171.75 439.743 171.972 439.683 172.152C439.623 172.344 439.575 172.512 439.539 172.656C439.515 172.98 439.449 173.298 439.341 173.61C439.233 173.934 439.149 174.114 439.089 174.15ZM441.231 169.02C441.279 168.996 441.381 168.93 441.537 168.822C441.705 168.702 441.891 168.564 442.095 168.408C442.299 168.24 442.485 168.084 442.653 167.94C442.833 167.796 442.953 167.688 443.013 167.616C443.109 167.508 443.199 167.394 443.283 167.274C443.367 167.142 443.433 166.998 443.481 166.842C443.517 166.746 443.559 166.638 443.607 166.518C443.655 166.398 443.697 166.284 443.733 166.176C443.781 166.08 443.799 165.984 443.787 165.888C443.787 165.78 443.751 165.69 443.679 165.618C443.631 165.606 443.487 165.642 443.247 165.726C443.007 165.798 442.743 165.924 442.455 166.104C442.167 166.272 441.915 166.494 441.699 166.77C441.447 167.094 441.261 167.43 441.141 167.778C441.033 168.126 440.985 168.42 440.997 168.66C441.021 168.9 441.099 169.02 441.231 169.02ZM447.548 171.054C447.02 171.054 446.588 170.856 446.252 170.46C445.916 170.052 445.754 169.548 445.766 168.948C445.79 168.516 445.874 168.054 446.018 167.562C446.174 167.058 446.378 166.578 446.63 166.122C446.882 165.654 447.158 165.246 447.458 164.898C447.758 164.55 448.07 164.304 448.394 164.16C448.514 164.1 448.64 164.052 448.772 164.016C448.916 163.98 449.06 163.962 449.204 163.962C449.336 163.962 449.474 163.986 449.618 164.034C449.762 164.07 449.882 164.112 449.978 164.16C450.182 164.244 450.338 164.346 450.446 164.466C450.554 164.586 450.65 164.772 450.734 165.024C450.77 165.252 450.788 165.414 450.788 165.51C450.788 165.606 450.758 165.75 450.698 165.942C450.554 166.374 450.368 166.746 450.14 167.058C449.912 167.37 449.606 167.634 449.222 167.85C449.126 167.91 449.012 167.958 448.88 167.994C448.76 168.018 448.634 168.03 448.502 168.03C448.262 168.03 448.028 167.988 447.8 167.904C447.584 167.808 447.41 167.67 447.278 167.49L447.152 167.346L447.098 167.49C446.978 167.814 446.882 168.114 446.81 168.39C446.75 168.666 446.72 168.918 446.72 169.146C446.72 169.29 446.732 169.428 446.756 169.56C446.792 169.692 446.84 169.806 446.9 169.902C446.948 169.974 447.026 170.028 447.134 170.064C447.254 170.088 447.38 170.1 447.512 170.1C447.596 170.1 447.68 170.1 447.764 170.1C447.86 170.088 447.95 170.064 448.034 170.028C448.238 169.956 448.4 169.878 448.52 169.794C448.652 169.71 448.784 169.62 448.916 169.524L448.988 169.488H448.97C449.114 169.416 449.24 169.344 449.348 169.272C449.468 169.2 449.528 169.164 449.528 169.164C449.576 169.164 449.624 169.134 449.672 169.074C449.768 169.026 449.888 169.044 450.032 169.128C450.188 169.212 450.266 169.32 450.266 169.452C450.254 169.512 450.2 169.608 450.104 169.74C450.008 169.86 449.9 169.974 449.78 170.082C449.672 170.19 449.582 170.25 449.51 170.262C449.498 170.274 449.456 170.298 449.384 170.334C449.312 170.358 449.264 170.382 449.24 170.406H449.258C449.15 170.55 449.042 170.622 448.934 170.622H448.79C448.742 170.706 448.586 170.802 448.322 170.91C448.058 171.006 447.8 171.054 447.548 171.054ZM448.358 167.094C448.574 167.094 448.76 167.034 448.916 166.914C449.084 166.782 449.228 166.638 449.348 166.482C449.588 166.158 449.726 165.846 449.762 165.546C449.81 165.234 449.774 165.018 449.654 164.898C449.582 164.862 449.516 164.844 449.456 164.844C449.408 164.832 449.306 164.85 449.15 164.898C449.042 164.922 448.892 165.012 448.7 165.168C448.508 165.324 448.316 165.498 448.124 165.69C447.944 165.882 447.806 166.044 447.71 166.176L447.476 166.554C447.572 166.518 447.662 166.5 447.746 166.5C447.842 166.488 447.896 166.494 447.908 166.518C447.908 166.626 447.926 166.728 447.962 166.824C448.01 166.908 448.064 166.974 448.124 167.022C448.196 167.07 448.274 167.094 448.358 167.094ZM453.293 171.9C452.897 171.84 452.627 171.69 452.483 171.45C452.351 171.222 452.321 170.868 452.393 170.388C452.465 170.16 452.507 169.956 452.519 169.776C452.543 169.584 452.597 169.464 452.681 169.416C452.681 169.416 452.687 169.398 452.699 169.362C452.723 169.326 452.717 169.29 452.681 169.254C452.681 169.098 452.735 168.882 452.843 168.606C452.867 168.534 452.897 168.45 452.933 168.354C452.981 168.246 453.005 168.192 453.005 168.192C452.945 168.096 452.945 168.018 453.005 167.958C453.065 167.898 453.125 167.844 453.185 167.796C453.257 167.736 453.263 167.67 453.203 167.598C453.179 167.55 453.209 167.442 453.293 167.274C453.377 167.094 453.473 166.908 453.581 166.716C453.689 166.524 453.761 166.374 453.797 166.266C453.797 166.242 453.827 166.158 453.887 166.014C453.947 165.87 454.019 165.702 454.103 165.51C454.187 165.318 454.265 165.144 454.337 164.988C454.421 164.832 454.475 164.73 454.499 164.682C454.619 164.622 454.571 164.58 454.355 164.556C454.139 164.532 453.911 164.526 453.671 164.538C453.299 164.526 452.999 164.508 452.771 164.484C452.555 164.46 452.375 164.406 452.231 164.322C452.087 164.154 452.033 164.034 452.069 163.962C452.117 163.878 452.261 163.83 452.501 163.818C452.657 163.806 452.777 163.8 452.861 163.8C452.957 163.8 453.077 163.794 453.221 163.782C453.377 163.758 453.617 163.728 453.941 163.692L454.859 163.62L454.913 163.314C455.009 163.158 455.087 163.02 455.147 162.9C455.219 162.768 455.279 162.636 455.327 162.504C455.375 162.372 455.411 162.234 455.435 162.09C455.435 162.09 455.489 161.994 455.597 161.802C455.705 161.598 455.771 161.388 455.795 161.172C455.939 160.932 456.065 160.716 456.173 160.524C456.281 160.32 456.347 160.194 456.371 160.146C456.503 160.038 456.593 159.984 456.641 159.984C456.701 159.984 456.821 160.044 457.001 160.164C457.109 160.224 457.205 160.296 457.289 160.38C457.373 160.464 457.427 160.554 457.451 160.65C457.475 160.734 457.439 160.818 457.343 160.902C457.319 160.95 457.283 161.04 457.235 161.172C457.187 161.292 457.151 161.394 457.127 161.478C457.055 161.562 456.965 161.7 456.857 161.892C456.761 162.072 456.695 162.258 456.659 162.45C456.563 162.654 456.473 162.84 456.389 163.008C456.305 163.164 456.239 163.242 456.191 163.242C456.215 163.362 456.287 163.422 456.407 163.422C456.527 163.41 456.725 163.398 457.001 163.386C457.229 163.362 457.385 163.338 457.469 163.314C457.565 163.278 457.673 163.29 457.793 163.35C457.853 163.434 457.901 163.53 457.937 163.638C457.973 163.746 457.979 163.848 457.955 163.944C457.943 164.028 457.895 164.088 457.811 164.124C457.751 164.124 457.625 164.16 457.433 164.232C457.253 164.292 457.025 164.328 456.749 164.34L455.795 164.43L455.489 165.042C455.405 165.198 455.333 165.342 455.273 165.474C455.213 165.594 455.171 165.666 455.147 165.69C455.147 165.762 455.105 165.87 455.021 166.014C454.949 166.158 454.871 166.314 454.787 166.482C454.715 166.686 454.631 166.872 454.535 167.04C454.451 167.208 454.409 167.292 454.409 167.292C454.361 167.292 454.337 167.328 454.337 167.4C454.397 167.544 454.379 167.652 454.283 167.724C454.223 167.76 454.169 167.814 454.121 167.886C454.085 167.946 454.067 167.976 454.067 167.976C454.115 168.024 454.121 168.084 454.085 168.156C454.061 168.228 454.025 168.306 453.977 168.39C453.977 168.486 453.947 168.624 453.887 168.804C453.839 168.984 453.785 169.152 453.725 169.308C453.737 169.524 453.749 169.662 453.761 169.722C453.773 169.782 453.803 169.806 453.851 169.794C453.911 169.806 453.965 169.806 454.013 169.794C454.061 169.782 454.109 169.776 454.157 169.776C454.325 169.704 454.235 170.124 453.887 171.036C453.695 171.336 453.563 171.552 453.491 171.684C453.419 171.828 453.353 171.9 453.293 171.9ZM457.974 170.118C457.926 170.118 457.866 170.106 457.794 170.082C457.734 170.046 457.704 170.028 457.704 170.028C457.704 169.98 457.686 169.92 457.65 169.848C457.626 169.776 457.614 169.716 457.614 169.668C457.53 169.62 457.482 169.572 457.47 169.524C457.458 169.464 457.476 169.368 457.524 169.236C457.596 169.116 457.692 168.924 457.812 168.66C457.932 168.384 458.058 168.09 458.19 167.778C458.322 167.454 458.448 167.136 458.568 166.824C458.688 166.512 458.79 166.248 458.874 166.032C458.958 165.804 459.006 165.666 459.018 165.618C459.018 165.57 459.036 165.51 459.072 165.438C459.108 165.366 459.15 165.306 459.198 165.258C459.294 165.174 459.396 165.168 459.504 165.24C459.612 165.3 459.702 165.408 459.774 165.564C459.858 165.708 459.9 165.87 459.9 166.05C459.9 166.134 459.84 166.35 459.72 166.698C459.6 167.034 459.438 167.436 459.234 167.904C459.042 168.372 458.826 168.846 458.586 169.326C458.406 169.674 458.292 169.896 458.244 169.992C458.196 170.076 458.106 170.118 457.974 170.118ZM460.62 163.296C460.476 163.296 460.32 163.242 460.152 163.134C459.996 163.014 459.858 162.87 459.738 162.702C459.63 162.522 459.576 162.342 459.576 162.162C459.576 162.102 459.612 162.018 459.684 161.91C459.756 161.802 459.828 161.694 459.9 161.586C459.972 161.478 460.008 161.412 460.008 161.388C460.104 161.388 460.176 161.394 460.224 161.406C460.284 161.406 460.356 161.43 460.44 161.478C460.572 161.778 460.734 162.024 460.926 162.216C461.13 162.408 461.232 162.57 461.232 162.702C461.232 162.966 461.208 163.134 461.16 163.206C461.112 163.266 460.932 163.296 460.62 163.296ZM462.411 170.874C462.279 170.85 462.141 170.784 461.997 170.676C461.865 170.556 461.745 170.424 461.637 170.28C461.541 170.124 461.475 169.986 461.439 169.866C461.439 169.842 461.421 169.812 461.385 169.776C461.361 169.74 461.349 169.722 461.349 169.722C461.301 169.686 461.271 169.53 461.259 169.254C461.259 168.966 461.277 168.648 461.313 168.3C461.349 167.952 461.391 167.676 461.439 167.472C461.499 167.28 461.589 167.022 461.709 166.698C461.829 166.362 461.931 166.062 462.015 165.798L462.501 164.754L461.781 164.556C461.697 164.532 461.625 164.484 461.565 164.412C461.517 164.34 461.493 164.28 461.493 164.232C461.493 164.136 461.547 164.022 461.655 163.89C461.763 163.746 461.841 163.674 461.889 163.674C461.949 163.686 462.057 163.692 462.213 163.692C462.381 163.692 462.543 163.686 462.699 163.674C462.855 163.662 462.951 163.65 462.987 163.638C463.035 163.614 463.083 163.584 463.131 163.548C463.179 163.5 463.215 163.434 463.239 163.35C463.299 163.218 463.353 163.098 463.401 162.99C463.449 162.87 463.515 162.738 463.599 162.594C463.683 162.438 463.749 162.306 463.797 162.198C463.857 162.09 463.947 161.94 464.067 161.748C464.127 161.664 464.193 161.562 464.265 161.442C464.337 161.322 464.427 161.22 464.535 161.136C464.643 161.04 464.751 160.998 464.859 161.01C464.979 161.01 465.129 161.088 465.309 161.244C465.405 161.364 465.459 161.454 465.471 161.514C465.483 161.574 465.435 161.688 465.327 161.856C465.231 162.06 465.117 162.264 464.985 162.468C464.865 162.672 464.751 162.876 464.643 163.08C464.451 163.344 464.415 163.494 464.535 163.53C464.655 163.566 464.991 163.542 465.543 163.458C465.891 163.398 466.143 163.416 466.299 163.512C466.455 163.596 466.545 163.74 466.569 163.944C466.605 164.232 466.575 164.406 466.479 164.466C466.383 164.526 466.107 164.556 465.651 164.556C465.363 164.604 465.117 164.634 464.913 164.646C464.709 164.646 464.559 164.646 464.463 164.646C464.307 164.658 464.205 164.664 464.157 164.664C464.109 164.664 464.037 164.676 463.941 164.7C463.845 164.724 463.773 164.766 463.725 164.826C463.689 164.874 463.647 164.946 463.599 165.042C463.551 165.09 463.479 165.216 463.383 165.42C463.287 165.624 463.167 165.846 463.023 166.086C462.855 166.59 462.711 167.094 462.591 167.598C462.471 168.09 462.375 168.57 462.303 169.038C462.255 169.338 462.261 169.548 462.321 169.668C462.381 169.776 462.537 169.842 462.789 169.866C462.921 169.878 463.131 169.878 463.419 169.866C463.719 169.842 463.953 169.806 464.121 169.758C464.253 169.698 464.391 169.638 464.535 169.578C464.679 169.506 464.811 169.434 464.931 169.362C465.039 169.302 465.147 169.242 465.255 169.182C465.363 169.11 465.417 169.074 465.417 169.074C465.477 168.978 465.543 168.948 465.615 168.984C465.687 169.02 465.747 169.11 465.795 169.254C465.795 169.398 465.765 169.548 465.705 169.704C465.645 169.86 465.423 170.046 465.039 170.262C464.499 170.598 464.001 170.802 463.545 170.874C463.101 170.934 462.723 170.934 462.411 170.874ZM468.19 170.73C468.034 170.73 467.908 170.7 467.812 170.64C467.728 170.58 467.62 170.496 467.488 170.388C467.26 170.148 467.098 169.92 467.002 169.704C466.906 169.476 466.876 169.26 466.912 169.056C466.948 168.96 466.96 168.87 466.948 168.786C466.948 168.69 466.948 168.642 466.948 168.642C466.888 168.582 466.87 168.546 466.894 168.534C466.918 168.51 466.942 168.474 466.966 168.426C467.038 168.426 467.062 168.36 467.038 168.228C467.014 168.132 467.062 167.922 467.182 167.598C467.302 167.274 467.452 166.968 467.632 166.68C467.704 166.56 467.812 166.404 467.956 166.212C468.1 166.008 468.256 165.81 468.424 165.618C468.604 165.414 468.766 165.252 468.91 165.132C469.21 164.88 469.474 164.694 469.702 164.574C469.93 164.454 470.176 164.364 470.44 164.304C470.704 164.244 470.884 164.214 470.98 164.214C471.088 164.214 471.232 164.31 471.412 164.502C471.688 164.622 471.886 164.766 472.006 164.934C472.138 165.102 472.222 165.348 472.258 165.672C472.294 166.032 472.264 166.446 472.168 166.914C472.084 167.37 471.802 167.94 471.322 168.624C471.022 169.056 470.746 169.38 470.494 169.596C470.242 169.8 469.942 170.004 469.594 170.208C469.342 170.376 469.114 170.502 468.91 170.586C468.706 170.658 468.466 170.706 468.19 170.73ZM469.918 168.822C470.206 168.498 470.434 168.192 470.602 167.904C470.782 167.616 470.95 167.25 471.106 166.806C471.154 166.674 471.184 166.512 471.196 166.32C471.208 166.116 471.202 165.93 471.178 165.762C471.166 165.582 471.124 165.48 471.052 165.456C470.908 165.372 470.734 165.348 470.53 165.384C470.326 165.408 470.104 165.522 469.864 165.726C469.492 166.038 469.168 166.428 468.892 166.896C468.616 167.352 468.346 167.874 468.082 168.462C467.902 168.894 467.86 169.242 467.956 169.506C468.064 169.758 468.286 169.848 468.622 169.776C468.97 169.692 469.402 169.374 469.918 168.822ZM474.392 170.442C474.356 170.454 474.296 170.448 474.212 170.424C474.128 170.4 474.044 170.37 473.96 170.334C473.876 170.298 473.822 170.268 473.798 170.244C473.75 170.196 473.702 170.124 473.654 170.028C473.618 169.932 473.618 169.794 473.654 169.614C473.69 169.422 473.81 169.176 474.014 168.876C474.074 168.756 474.146 168.576 474.23 168.336C474.314 168.096 474.398 167.844 474.482 167.58C474.578 167.304 474.662 167.058 474.734 166.842C474.818 166.626 474.878 166.476 474.914 166.392C474.938 166.188 474.926 166.044 474.878 165.96C474.842 165.864 474.74 165.81 474.572 165.798C474.452 165.798 474.356 165.786 474.284 165.762C474.224 165.738 474.194 165.618 474.194 165.402C474.218 165.234 474.26 165.12 474.32 165.06C474.392 164.988 474.488 164.91 474.608 164.826C474.728 164.766 474.848 164.724 474.968 164.7C475.1 164.676 475.226 164.67 475.346 164.682C475.466 164.694 475.562 164.736 475.634 164.808C475.718 164.856 475.772 164.964 475.796 165.132C475.82 165.288 475.832 165.45 475.832 165.618C475.844 165.786 475.856 165.912 475.868 165.996C475.988 165.9 476.15 165.768 476.354 165.6C476.57 165.42 476.756 165.252 476.912 165.096C477.104 164.964 477.332 164.832 477.596 164.7C477.86 164.556 478.052 164.484 478.172 164.484C478.304 164.484 478.436 164.52 478.568 164.592C478.7 164.652 478.79 164.73 478.838 164.826C478.958 165.03 479.012 165.21 479 165.366C479 165.522 478.934 165.684 478.802 165.852C478.682 166.008 478.532 166.116 478.352 166.176C478.184 166.236 478.076 166.266 478.028 166.266C477.956 166.266 477.866 166.212 477.758 166.104C477.65 165.996 477.59 165.906 477.578 165.834C477.578 165.798 477.5 165.834 477.344 165.942C477.2 166.038 477.038 166.164 476.858 166.32C476.678 166.464 476.528 166.596 476.408 166.716C476.204 166.968 475.988 167.31 475.76 167.742C475.532 168.174 475.262 168.696 474.95 169.308C474.806 169.608 474.704 169.866 474.644 170.082C474.584 170.286 474.5 170.406 474.392 170.442ZM486.03 172.026C485.514 171.69 485.166 171.396 484.986 171.144C484.806 170.904 484.878 170.682 485.202 170.478C485.274 170.43 485.388 170.472 485.544 170.604C485.712 170.724 485.85 170.838 485.958 170.946C486.198 171.162 486.492 171.294 486.84 171.342C487.2 171.402 487.602 171.372 488.046 171.252C488.55 171.096 488.988 170.88 489.36 170.604C489.744 170.316 490.104 169.968 490.44 169.56C490.692 169.236 490.866 168.888 490.962 168.516C491.058 168.132 491.094 167.778 491.07 167.454C491.058 167.13 490.992 166.902 490.872 166.77C490.572 166.35 490.152 166.062 489.612 165.906C489.084 165.738 488.46 165.75 487.74 165.942C487.656 165.954 487.53 165.978 487.362 166.014C487.194 166.05 487.044 166.086 486.912 166.122C486.78 166.146 486.708 166.158 486.696 166.158C486.612 166.182 486.546 166.212 486.498 166.248C486.45 166.272 486.39 166.362 486.318 166.518C486.258 166.662 486.162 166.926 486.03 167.31C485.898 167.682 485.7 168.234 485.436 168.966C485.184 169.698 484.98 170.22 484.824 170.532C484.68 170.832 484.548 170.97 484.428 170.946C484.32 170.91 484.182 170.778 484.014 170.55C483.918 170.382 483.858 170.22 483.834 170.064C483.81 169.896 483.858 169.704 483.978 169.488C484.038 169.38 484.086 169.284 484.122 169.2C484.158 169.104 484.206 168.942 484.266 168.714C484.326 168.534 484.44 168.222 484.608 167.778C484.788 167.322 484.998 166.794 485.238 166.194C485.478 165.582 485.73 164.952 485.994 164.304C486.258 163.656 486.51 163.044 486.75 162.468C487.002 161.892 487.212 161.406 487.38 161.01C487.548 160.638 487.65 160.368 487.686 160.2C487.722 160.032 487.71 159.942 487.65 159.93C487.65 159.87 487.632 159.816 487.596 159.768C487.56 159.708 487.548 159.654 487.56 159.606C487.56 159.558 487.638 159.492 487.794 159.408C487.962 159.324 488.142 159.246 488.334 159.174C488.538 159.102 488.694 159.078 488.802 159.102C488.862 159.102 488.934 159.102 489.018 159.102C489.102 159.09 489.144 159.06 489.144 159.012C489.18 159.012 489.294 159 489.486 158.976C489.678 158.952 489.888 158.952 490.116 158.976C490.92 159.048 491.544 159.282 491.988 159.678C492.432 160.062 492.648 160.59 492.636 161.262C492.624 161.466 492.516 161.742 492.312 162.09C492.12 162.438 491.88 162.786 491.592 163.134C491.316 163.482 491.046 163.776 490.782 164.016C490.626 164.148 490.458 164.286 490.278 164.43C490.11 164.562 489.96 164.676 489.828 164.772C489.708 164.856 489.648 164.898 489.648 164.898C489.648 164.898 489.696 164.916 489.792 164.952C489.888 164.988 489.99 165.024 490.098 165.06C490.65 165.264 491.106 165.522 491.466 165.834C491.826 166.146 492.072 166.578 492.204 167.13C492.252 167.31 492.252 167.532 492.204 167.796C492.168 168.06 492.114 168.324 492.042 168.588C491.97 168.84 491.892 169.056 491.808 169.236C491.724 169.32 491.658 169.41 491.61 169.506C491.562 169.59 491.538 169.632 491.538 169.632C491.538 169.656 491.49 169.752 491.394 169.92C491.298 170.076 491.184 170.25 491.052 170.442C490.92 170.634 490.794 170.802 490.674 170.946C490.554 171.042 490.41 171.156 490.242 171.288C490.086 171.42 489.906 171.546 489.702 171.666C489.51 171.786 489.3 171.888 489.072 171.972C488.736 172.116 488.37 172.212 487.974 172.26C487.59 172.32 487.224 172.326 486.876 172.278C486.528 172.242 486.246 172.158 486.03 172.026ZM486.912 165.096C486.912 165.096 487.02 165.078 487.236 165.042C487.464 164.994 487.71 164.946 487.974 164.898C488.238 164.838 488.43 164.784 488.55 164.736C488.61 164.7 488.694 164.652 488.802 164.592C488.922 164.532 489.042 164.442 489.162 164.322C489.33 164.166 489.54 163.944 489.792 163.656C490.056 163.356 490.314 163.044 490.566 162.72C490.818 162.384 491.01 162.084 491.142 161.82C491.418 161.388 491.568 161.07 491.592 160.866C491.616 160.65 491.55 160.464 491.394 160.308C491.286 160.176 491.1 160.092 490.836 160.056C490.584 160.008 490.314 159.996 490.026 160.02C489.738 160.032 489.492 160.068 489.288 160.128C489.132 160.176 489.012 160.236 488.928 160.308C488.844 160.368 488.802 160.464 488.802 160.596C488.802 160.704 488.766 160.812 488.694 160.92C488.634 161.016 488.574 161.094 488.514 161.154C488.502 161.238 488.472 161.316 488.424 161.388C488.376 161.448 488.352 161.478 488.352 161.478C488.352 161.526 488.268 161.724 488.1 162.072C487.932 162.42 487.764 162.822 487.596 163.278C487.38 163.794 487.212 164.214 487.092 164.538C486.972 164.85 486.912 165.036 486.912 165.096Z" fill="url(#paint11_linear_2468_6057)"/>
<defs>
<filter id="filter0_i_2468_6057" x="38" y="17" width="151" height="128" filterUnits="userSpaceOnUse" color-interpolation-filters="sRGB">
<feFlood flood-opacity="0" result="BackgroundImageFix"/>
<feBlend mode="normal" in="SourceGraphic" in2="BackgroundImageFix" result="shape"/>
<feColorMatrix in="SourceAlpha" type="matrix" values="0 0 0 0 0 0 0 0 0 0 0 0 0 0 0 0 0 0 127 0" result="hardAlpha"/>
<feOffset/>
<feGaussianBlur stdDeviation="3"/>
<feComposite in2="hardAlpha" operator="arithmetic" k2="-1" k3="1"/>
<feColorMatrix type="matrix" values="0 0 0 0 1 0 0 0 0 1 0 0 0 0 1 0 0 0 0.15 0"/>
<feBlend mode="normal" in2="shape" result="effect1_innerShadow_2468_6057"/>
</filter>
<filter id="filter1_i_2468_6057" x="207" y="17" width="151" height="128" filterUnits="userSpaceOnUse" color-interpolation-filters="sRGB">
<feFlood flood-opacity="0" result="BackgroundImageFix"/>
<feBlend mode="normal" in="SourceGraphic" in2="BackgroundImageFix" result="shape"/>
<feColorMatrix in="SourceAlpha" type="matrix" values="0 0 0 0 0 0 0 0 0 0 0 0 0 0 0 0 0 0 127 0" result="hardAlpha"/>
<feOffset/>
<feGaussianBlur stdDeviation="3"/>
<feComposite in2="hardAlpha" operator="arithmetic" k2="-1" k3="1"/>
<feColorMatrix type="matrix" values="0 0 0 0 1 0 0 0 0 1 0 0 0 0 1 0 0 0 0.15 0"/>
<feBlend mode="normal" in2="shape" result="effect1_innerShadow_2468_6057"/>
</filter>
<filter id="filter2_i_2468_6057" x="376" y="17" width="151" height="128" filterUnits="userSpaceOnUse" color-interpolation-filters="sRGB">
<feFlood flood-opacity="0" result="BackgroundImageFix"/>
<feBlend mode="normal" in="SourceGraphic" in2="BackgroundImageFix" result="shape"/>
<feColorMatrix in="SourceAlpha" type="matrix" values="0 0 0 0 0 0 0 0 0 0 0 0 0 0 0 0 0 0 127 0" result="hardAlpha"/>
<feOffset/>
<feGaussianBlur stdDeviation="3"/>
<feComposite in2="hardAlpha" operator="arithmetic" k2="-1" k3="1"/>
<feColorMatrix type="matrix" values="0 0 0 0 1 0 0 0 0 1 0 0 0 0 1 0 0 0 0.15 0"/>
<feBlend mode="normal" in2="shape" result="effect1_innerShadow_2468_6057"/>
</filter>
<filter id="filter3_d_2468_6057" x="201.652" y="20.0746" width="31.207" height="34.1631" filterUnits="userSpaceOnUse" color-interpolation-filters="sRGB">
<feFlood flood-opacity="0" result="BackgroundImageFix"/>
<feColorMatrix in="SourceAlpha" type="matrix" values="0 0 0 0 0 0 0 0 0 0 0 0 0 0 0 0 0 0 127 0" result="hardAlpha"/>
<feOffset dy="5"/>
<feGaussianBlur stdDeviation="2"/>
<feComposite in2="hardAlpha" operator="out"/>
<feColorMatrix type="matrix" values="0 0 0 0 1 0 0 0 0 0.94902 0 0 0 0 0 0 0 0 0.25 0"/>
<feBlend mode="normal" in2="BackgroundImageFix" result="effect1_dropShadow_2468_6057"/>
<feBlend mode="normal" in="SourceGraphic" in2="effect1_dropShadow_2468_6057" result="shape"/>
</filter>
<radialGradient id="paint0_radial_2468_6057" cx="0" cy="0" r="1" gradientUnits="userSpaceOnUse" gradientTransform="translate(113.5 17) rotate(90) scale(128 151)">
<stop stop-color="#AEAEAE"/>
<stop offset="1" stop-opacity="0"/>
</radialGradient>
<linearGradient id="paint1_linear_2468_6057" x1="82.0469" y1="81" x2="144.947" y2="81" gradientUnits="userSpaceOnUse">
<stop stop-color="#939393"/>
<stop offset="1" stop-color="#464646"/>
</linearGradient>
<radialGradient id="paint2_radial_2468_6057" cx="0" cy="0" r="1" gradientUnits="userSpaceOnUse" gradientTransform="translate(282.5 17) rotate(90) scale(128 151)">
<stop stop-color="#FFF30C"/>
<stop offset="1" stop-opacity="0"/>
</radialGradient>
<radialGradient id="paint3_radial_2468_6057" cx="0" cy="0" r="1" gradientUnits="userSpaceOnUse" gradientTransform="translate(282.5 17) rotate(90) scale(144 169.875)">
<stop stop-opacity="0"/>
<stop offset="1" stop-color="#FFF30C"/>
</radialGradient>
<radialGradient id="paint4_radial_2468_6057" cx="0" cy="0" r="1" gradientUnits="userSpaceOnUse" gradientTransform="translate(282.5 81) rotate(131.022) scale(64 75.5)">
<stop stop-color="#FFF200"/>
<stop offset="1" stop-color="#202020" stop-opacity="0"/>
</radialGradient>
<linearGradient id="paint5_linear_2468_6057" x1="282.5" y1="17" x2="282.5" y2="145" gradientUnits="userSpaceOnUse">
<stop stop-color="white"/>
<stop offset="1" stop-color="#C7C7C7"/>
</linearGradient>
<linearGradient id="paint6_linear_2468_6057" x1="251.047" y1="81" x2="313.947" y2="81" gradientUnits="userSpaceOnUse">
<stop stop-color="#FFFBA8"/>
<stop offset="1" stop-color="#FFF200"/>
</linearGradient>
<radialGradient id="paint7_radial_2468_6057" cx="0" cy="0" r="1" gradientUnits="userSpaceOnUse" gradientTransform="translate(451.5 17) rotate(90) scale(128 151)">
<stop stop-color="#AEAEAE"/>
<stop offset="1" stop-opacity="0"/>
</radialGradient>
<linearGradient id="paint8_linear_2468_6057" x1="420.047" y1="81" x2="482.947" y2="81" gradientUnits="userSpaceOnUse">
<stop stop-color="#939393"/>
<stop offset="1" stop-color="#464646"/>
</linearGradient>
<linearGradient id="paint9_linear_2468_6057" x1="243" y1="165" x2="322" y2="165" gradientUnits="userSpaceOnUse">
<stop stop-color="#FFFBA8"/>
<stop offset="1" stop-color="#FFF200"/>
</linearGradient>
<linearGradient id="paint10_linear_2468_6057" x1="114" y1="153" x2="114" y2="177" gradientUnits="userSpaceOnUse">
<stop stop-color="white"/>
<stop offset="1" stop-color="#434343"/>
</linearGradient>
<linearGradient id="paint11_linear_2468_6057" x1="452" y1="153" x2="452" y2="177" gradientUnits="userSpaceOnUse">
<stop stop-color="white"/>
<stop offset="1" stop-color="#434343"/>
</linearGradient>
</defs>
</svg>
