<svg width="69" height="64" viewBox="0 0 69 64" fill="none" xmlns="http://www.w3.org/2000/svg">
<path d="M53.0833 4.70557H16.9167C11.4398 4.70557 7 9.14541 7 14.6222V49.3889C7 54.8657 11.4398 59.3056 16.9167 59.3056H53.0833C58.5602 59.3056 63 54.8657 63 49.3889V14.6222C63 9.14541 58.5602 4.70557 53.0833 4.70557Z" fill="#013301"/>
<path d="M15.1693 42.9098V19.0174C15.1656 18.9801 15.1696 18.9425 15.181 18.9069C15.1924 18.8712 15.211 18.8383 15.2357 18.8101C15.2603 18.782 15.2905 18.7592 15.3243 18.7431C15.3581 18.7271 15.3949 18.7181 15.4323 18.7169C15.8079 18.6922 16.3589 18.6734 17.0852 18.6605C17.8113 18.6482 18.6628 18.6356 19.6397 18.6229C20.6164 18.6106 21.6558 18.6044 22.7578 18.6041C25.7631 18.6041 28.255 19.1175 30.2336 20.1444C32.1087 21.0734 33.6601 22.5463 34.6851 24.3706C35.6742 26.1615 36.1688 28.2214 36.1691 30.5503C36.1975 32.1799 35.9368 33.8016 35.3989 35.3401C34.9284 36.6571 34.2147 37.874 33.2951 38.9277C32.4248 39.9143 31.4042 40.7574 30.271 41.4259C29.1473 42.0885 27.9321 42.5821 26.6646 42.891C25.4234 43.1998 24.1495 43.3575 22.8705 43.3606H20.0717C19.0821 43.3606 18.1617 43.3543 17.3105 43.3418C16.4589 43.3289 15.8203 43.3101 15.3947 43.2854C15.2444 43.2854 15.1693 43.1602 15.1693 42.9098ZM20.3535 23.2248V38.7774C20.6287 38.7774 20.8792 38.7837 21.1048 38.7962C21.3302 38.8092 21.5619 38.8217 21.7998 38.8338C22.0375 38.8467 22.3067 38.853 22.6075 38.8526C23.7437 38.8673 24.8741 38.6895 25.9509 38.3267C26.9155 37.9989 27.7947 37.4599 28.5242 36.7489C29.2582 36.0162 29.8225 35.1313 30.1772 34.1567C30.5812 33.037 30.7785 31.8533 30.7595 30.6631C30.7825 29.5415 30.5912 28.4258 30.196 27.3759C29.8435 26.4703 29.2839 25.6597 28.5618 25.0093C27.8243 24.3575 26.952 23.8765 26.0072 23.6005C24.9522 23.2907 23.8572 23.1388 22.7578 23.1497C22.2565 23.1497 21.837 23.156 21.4993 23.1685C21.1611 23.1814 20.7792 23.2002 20.3535 23.2248Z" fill="#33FF66"/>
<path d="M38.4624 42.9472V28.9724C38.4624 28.5469 38.4562 28.071 38.4436 27.5449C38.4308 27.019 38.412 26.5181 38.3873 26.0423C38.3621 25.5668 38.337 25.1911 38.3122 24.9152C38.2975 24.8778 38.2933 24.837 38.2999 24.7973C38.3065 24.7577 38.3238 24.7205 38.3498 24.6898C38.3804 24.6629 38.4162 24.6424 38.4549 24.6295C38.4936 24.6166 38.5344 24.6116 38.5751 24.6147H42.4821C42.6114 24.6104 42.74 24.6361 42.8577 24.6898C42.9077 24.7156 42.9508 24.7529 42.9834 24.7986C43.0161 24.8443 43.0374 24.8972 43.0456 24.9528C43.0955 25.1031 43.1519 25.2721 43.2147 25.4599C43.2843 25.686 43.3285 25.9191 43.3462 26.1549C44.0725 25.5186 44.9141 25.0276 45.8256 24.7086C46.7316 24.3949 47.6841 24.2362 48.643 24.2391C49.3897 24.2425 50.1312 24.3629 50.8406 24.5959C51.6596 24.8578 52.4065 25.3063 53.0226 25.906C53.6387 26.5058 54.107 27.2404 54.3908 28.0521C54.7664 29.0165 54.9542 30.2624 54.9543 31.7899V42.9472C54.9543 43.1727 54.8541 43.2854 54.6537 43.2853H50.1081C50.0571 43.2927 50.005 43.288 49.9561 43.2717C49.9072 43.2554 49.8627 43.228 49.8263 43.1915C49.7898 43.155 49.7623 43.1106 49.746 43.0617C49.7297 43.0127 49.7251 42.9607 49.7324 42.9097V32.2407C49.7548 31.5855 49.6396 30.9329 49.3943 30.3248C49.1928 29.8531 48.8604 29.449 48.4364 29.1603C47.9571 28.8669 47.4012 28.723 46.8398 28.747C46.2361 28.7385 45.6365 28.8469 45.0742 29.0663C44.56 29.2717 44.0886 29.5711 43.6842 29.9491V42.9472C43.6842 43.1726 43.584 43.2853 43.3836 43.2853H38.8005C38.7546 43.2919 38.7077 43.2877 38.6637 43.273C38.6197 43.2583 38.5797 43.2336 38.5469 43.2008C38.5141 43.168 38.4894 43.128 38.4748 43.084C38.4601 43.04 38.4559 42.9932 38.4624 42.9472Z" fill="#33FF66"/>
</svg>
