<svg width="69" height="64" viewBox="0 0 69 64" fill="none" xmlns="http://www.w3.org/2000/svg">
<path d="M24.6957 15.4653C27.1663 15.4234 29.6369 15.4632 32.1096 15.4464C33.7155 21.6376 35.2 27.8582 36.8143 34.0431C38.5835 27.877 40.0826 21.6335 41.789 15.4485C44.1801 15.459 46.5691 15.4234 48.958 15.4757C48.958 23.0279 48.9559 30.5779 48.958 38.1322C48.9434 38.3918 48.912 38.6556 48.868 38.9174C47.0255 38.8839 45.1809 38.9236 43.3384 38.8922C43.3342 35.2805 43.3279 31.6688 43.3363 28.0571C43.3279 26.7401 43.3656 25.421 43.2526 24.1083C42.0591 29.0663 40.6919 33.9866 39.3854 38.9153C37.5617 38.8922 35.7381 38.9132 33.9165 38.8985C32.7503 34.5665 31.6302 30.2241 30.4807 25.8879C30.2378 25.0965 30.0494 24.2883 29.9866 23.4592C29.8861 24.1124 29.7521 24.7636 29.7562 25.4273C29.7458 29.9163 29.7856 34.4095 29.7416 38.8985C28.0582 38.9048 26.3769 38.909 24.6977 38.8922C24.6915 31.0825 24.6998 23.2729 24.6957 15.4653Z" fill="white"/>
<path d="M15.1719 6.00203C28.1636 6.00831 41.1553 6.00622 54.147 6.00413C54.8798 6.01878 55.6273 5.94759 56.3517 6.10044C57.2835 6.42916 58.0351 7.19547 58.3911 8.11463C58.5062 21.5042 58.4518 34.8958 58.4476 48.2874C44.03 48.3251 29.6146 48.3021 15.1991 48.2958C15.1572 34.2007 15.2138 20.1013 15.1719 6.00203ZM24.6963 15.4658C24.7005 23.2734 24.6922 31.0831 24.6984 38.8907C26.3797 38.9074 28.0589 38.9032 29.7423 38.8969C29.7863 34.4058 29.7465 29.9148 29.7569 25.4258C29.7527 24.762 29.8868 24.1109 29.9873 23.4576C30.048 24.2868 30.2364 25.0949 30.4814 25.8864C31.6308 30.2204 32.751 34.5629 33.9172 38.8969C35.7409 38.9116 37.5645 38.8907 39.3861 38.9137C40.6926 33.985 42.0598 29.0668 43.2532 24.1067C43.3642 25.4195 43.3286 26.7385 43.337 28.0555C43.3286 31.6672 43.3349 35.281 43.3391 38.8907C45.1795 38.9221 47.0241 38.8823 48.8687 38.9158C48.9127 38.6562 48.942 38.3923 48.9587 38.1306C48.9566 30.5764 48.9587 23.0263 48.9587 15.4742C46.5677 15.4218 44.1787 15.4595 41.7897 15.4469C40.0854 21.634 38.5842 27.8754 36.815 34.0415C35.2007 27.8566 33.7162 21.634 32.1103 15.4448C29.6376 15.4637 27.1649 15.4239 24.6963 15.4658Z" fill="#38A5CC"/>
<path d="M6.0246 11.4835C9.08566 9.68081 12.1007 7.79434 15.168 6C15.2099 20.0993 15.1534 34.1965 15.1973 48.2938C13.8029 49.1543 12.3833 49.9667 11.0014 50.8418C9.33691 51.8113 7.72682 52.877 6.02251 53.7773C5.9932 39.6801 5.9911 25.5808 6.0246 11.4835Z" fill="#7EC6DE"/>
<path d="M58.3941 8.11328C58.5532 10.5693 58.4151 13.0378 58.4716 15.4979C59.8556 15.5084 61.2437 15.5252 62.6298 15.5C62.6717 29.5742 62.6549 43.6505 62.6382 57.7268C46.51 57.71 30.3818 57.7226 14.2579 57.7205C13.1 57.754 11.938 57.151 11.3643 56.1313C11.0021 55.5304 11.0042 54.8039 11 54.1255C11.0105 53.0305 11 51.9355 11.0042 50.8425C12.3861 49.9652 13.8056 49.155 15.2001 48.2944C29.6176 48.3007 44.0331 48.3237 58.4486 48.2861C58.4569 34.8944 58.5114 21.5028 58.3941 8.11328Z" fill="#36687F"/>
</svg>
