<svg width="237" height="64" viewBox="0 0 237 64" fill="none" xmlns="http://www.w3.org/2000/svg">
<path d="M10.6719 15.7277H18.1515V29.1838H31.9298V15.7277H39.4094V49.726H31.9298V36.0909H18.1157V49.726H10.6719V15.7277Z" fill="white"/>
<path d="M43.0586 36.8441V36.7367C43.0586 29.2571 49.0709 23.209 57.1947 23.209C65.3186 23.209 71.2235 29.1855 71.2235 36.6652V36.7725C71.2235 44.2522 65.2112 50.3003 57.0874 50.3003C48.9636 50.3003 43.0586 44.3237 43.0586 36.8441ZM63.9228 36.8441V36.7367C63.9228 32.9075 61.1672 29.5434 57.0874 29.5434C52.8644 29.5434 50.3235 32.8001 50.3235 36.6652V36.7725C50.3235 40.6018 53.0792 43.9659 57.159 43.9659C61.4177 43.9659 63.9228 40.7092 63.9228 36.8441Z" fill="white"/>
<path d="M74.4102 40.5643V23.7083H81.7824V38.2381C81.7824 41.7453 83.4287 43.5346 86.2559 43.5346C89.0831 43.5346 90.8725 41.7453 90.8725 38.2381V23.7083H98.2448V49.7259H90.8725V46.0398C89.1547 48.2228 86.9717 50.1912 83.2497 50.1912C77.6668 50.1912 74.4102 46.505 74.4102 40.5643Z" fill="white"/>
<path d="M101.75 36.775V36.6676C101.75 27.9712 107.44 23.2114 113.596 23.2114C116.745 23.1399 119.787 24.6072 121.72 27.1123V14.3003H129.092V49.7301H121.684V46.0082C119.894 48.4418 117.425 50.2312 113.56 50.2312C107.512 50.1954 101.75 45.4714 101.75 36.775ZM121.791 36.775V36.6676C121.791 32.3373 118.928 29.4743 115.492 29.4743C112.057 29.4743 109.122 32.3015 109.122 36.6676V36.775C109.122 41.1053 112.021 43.9683 115.492 43.9683C118.928 43.9683 121.791 41.0695 121.791 36.775Z" fill="white"/>
<path d="M133.855 14.3003H141.621V20.8494H133.855V14.3003ZM134.07 23.7125H141.442V49.7301H134.07V23.7125Z" fill="white"/>
<path d="M146.453 23.7094H153.825V27.3955C155.543 25.2125 157.726 23.2441 161.448 23.2441C167.031 23.2441 170.288 26.9303 170.288 32.9068V49.7628H162.915V35.233C162.915 31.7258 161.269 29.9364 158.442 29.9364C155.615 29.9364 153.825 31.7258 153.825 35.233V49.7271H146.453V23.7094Z" fill="white"/>
<path d="M174.867 14.3003H182.633V20.8494H174.867V14.3003ZM175.082 23.7125H182.454V49.7301H175.082V23.7125Z" fill="white"/>
<path d="M188.109 45.0026V49.7265H192.261C190.364 48.6887 188.897 47.0067 188.109 45.0026Z" fill="#F47735"/>
<path d="M205.502 40.0627C205.431 35.2314 201.53 31.3663 196.698 31.2947C193.478 31.08 190.364 32.2968 188.109 34.5514V39.1322C189.326 35.7682 192.547 33.5135 196.162 33.5851C199.991 33.6209 202.925 36.5197 202.961 39.7764C202.961 42.8899 201.673 45.1803 198.13 45.753C196.197 46.075 193.191 44.9298 193.334 42.031C193.37 40.7069 194.48 39.7048 195.768 39.7406C195.804 39.7406 195.84 39.7406 195.875 39.7406C194.551 41.53 196.305 42.7826 197.522 42.4963C198.774 42.21 199.669 41.0648 199.669 39.7764C199.669 38.667 198.631 36.9134 196.054 36.9492C193.191 36.9134 190.865 39.168 190.793 42.031C190.793 42.0668 190.793 42.1026 190.793 42.1742C190.722 45.7172 194.05 48.1149 197.486 48.1149C202.532 48.1865 205.502 44.894 205.502 40.0627Z" fill="#F47735"/>
<path d="M188.109 23.7083V31.1879C190.579 29.3269 193.621 28.3249 196.698 28.3607C204.071 28.3607 208.759 33.5141 208.759 40.0275C208.759 44.5367 206.647 47.9365 203.355 49.7259H214.127V23.7083H188.109Z" fill="#F47735"/>
<path d="M218.062 24.6029H216.738V23.7083H220.281V24.6029H218.957V28.0386H218.027L218.062 24.6029Z" fill="#F47735"/>
<path d="M221.07 23.7083H222.108L223.253 25.5334L224.399 23.7083H225.436V28.0028H224.506V25.1756L223.289 27.0007L222.108 25.1756V27.967H221.142V23.7083H221.07Z" fill="#F47735"/>
</svg>
