<svg width="177" height="56" viewBox="0 0 177 56" fill="none" xmlns="http://www.w3.org/2000/svg">
<path d="M74.3021 38.652C74.3021 38.784 74.2583 38.8721 74.2145 38.9601C74.1706 39.0481 74.0391 39.1362 73.8638 39.1802C73.6885 39.2242 73.4694 39.2682 73.1626 39.3122C72.8558 39.3562 72.4614 39.3562 72.0231 39.3562C71.278 39.3562 70.7521 39.3122 70.4453 39.2682C70.1385 39.2242 69.8756 39.1362 69.7441 39.0041C69.6126 38.8721 69.4811 38.74 69.4373 38.608L62.8632 28.2207V38.608C62.8632 38.74 62.8194 38.8281 62.7755 38.9161C62.6879 39.0041 62.6002 39.0922 62.4249 39.1362C62.2496 39.1802 62.0305 39.2242 61.7675 39.2682C61.5045 39.3122 61.1101 39.3122 60.6718 39.3122C60.2336 39.3122 59.8829 39.3122 59.62 39.2682C59.3132 39.2242 59.0941 39.1802 58.9187 39.1362C58.7434 39.0922 58.6119 39.0041 58.5681 38.9161C58.4805 38.8281 58.4805 38.74 58.4805 38.608V18.0094C58.4805 17.8774 58.5243 17.7893 58.5681 17.7013C58.6558 17.6133 58.7434 17.5252 58.9187 17.4812C59.0941 17.4372 59.3132 17.3932 59.62 17.3492C59.9268 17.3052 60.2774 17.3052 60.6718 17.3052C61.1101 17.3052 61.4607 17.3052 61.7675 17.3492C62.0305 17.3932 62.2934 17.4372 62.4249 17.4812C62.6002 17.5252 62.7317 17.6133 62.7755 17.7013C62.8632 17.7893 62.8632 17.8774 62.8632 18.0094V27.3404L69.262 18.0534C69.3496 17.9214 69.4373 17.7893 69.5688 17.7013C69.7002 17.6133 69.8317 17.5252 70.007 17.4812C70.1823 17.4372 70.4015 17.3932 70.7083 17.3492C70.9712 17.3052 71.3657 17.3052 71.804 17.3052C72.2422 17.3052 72.6367 17.3052 72.8996 17.3492C73.2064 17.3932 73.4256 17.4372 73.6009 17.4812C73.7762 17.5252 73.9077 17.6133 73.9515 17.7013C74.0391 17.7893 74.0391 17.8774 74.0391 18.0094C74.0391 18.1855 73.9953 18.4055 73.9077 18.5816C73.82 18.8017 73.6009 19.1098 73.3379 19.5499L67.3774 27.4284L73.9077 37.3316C74.1706 37.8157 74.3021 38.0798 74.3459 38.2559C74.3021 38.4319 74.3021 38.564 74.3021 38.652Z" fill="white"/>
<path d="M89.9087 30.729C89.9087 31.2571 89.7772 31.6533 89.5581 31.8733C89.3389 32.1374 89.0322 32.2254 88.5939 32.2254H79.434C79.434 32.8856 79.5216 33.4578 79.6531 33.986C79.7846 34.5142 80.0476 34.9543 80.3982 35.3064C80.7488 35.6585 81.1432 35.9666 81.6692 36.1427C82.1951 36.3188 82.8087 36.4508 83.5537 36.4508C84.2988 36.4508 84.9562 36.4068 85.526 36.2747C86.0957 36.1867 86.5778 36.0547 86.9723 35.9226C87.3667 35.7906 87.7173 35.6585 87.9803 35.5705C88.2433 35.4825 88.4624 35.3945 88.6377 35.3945C88.7254 35.3945 88.813 35.3945 88.9007 35.4385C88.9883 35.4825 89.0321 35.5265 89.076 35.6585C89.1198 35.7466 89.1636 35.9226 89.1636 36.0987C89.1636 36.2747 89.2075 36.5388 89.2075 36.8029C89.2075 37.067 89.2075 37.243 89.2075 37.4191C89.2075 37.5952 89.1636 37.7272 89.1636 37.8592C89.1198 37.9913 89.1198 38.0793 89.076 38.1673C89.0321 38.2554 88.9883 38.3434 88.9007 38.4314C88.813 38.5195 88.6377 38.6075 88.2871 38.7395C87.9803 38.8716 87.542 39.0036 87.0599 39.1357C86.534 39.2677 85.9642 39.3997 85.3068 39.4878C84.6494 39.5758 83.9482 39.6198 83.2031 39.6198C81.8883 39.6198 80.705 39.4438 79.6969 39.0916C78.6889 38.7395 77.8562 38.2554 77.1988 37.5511C76.5414 36.8469 76.0154 36.0107 75.7087 34.9543C75.358 33.898 75.2266 32.6656 75.2266 31.2571C75.2266 29.9367 75.4019 28.7043 75.7525 27.648C76.1031 26.5916 76.5852 25.6673 77.2864 24.9191C77.9439 24.1709 78.7327 23.5987 79.6969 23.2025C80.6611 22.8064 81.713 22.6304 82.8963 22.6304C84.1673 22.6304 85.2192 22.8064 86.1395 23.2025C87.0161 23.5547 87.7612 24.0828 88.3309 24.743C88.9007 25.4033 89.3389 26.1955 89.6019 27.0758C89.8649 28.0001 89.9963 28.9684 89.9963 30.0247V30.729H89.9087ZM85.8328 29.4966C85.8766 28.3082 85.6136 27.3839 85.1315 26.6797C84.6056 25.9754 83.8167 25.6673 82.7649 25.6673C82.2389 25.6673 81.7568 25.7554 81.3624 25.9754C80.9679 26.1955 80.6173 26.4596 80.3544 26.8117C80.0914 27.1638 79.8723 27.5599 79.7408 28.0441C79.6093 28.5283 79.5216 29.0124 79.4778 29.5406H85.8328V29.4966Z" fill="white"/>
<path d="M101.476 39.3112L99.6348 44.6369C99.5472 44.901 99.2404 45.1211 98.8021 45.2531C98.3638 45.3852 97.7064 45.4292 96.8299 45.4292C96.3916 45.4292 96.041 45.4292 95.7342 45.3852C95.4712 45.3412 95.2521 45.2971 95.1206 45.2091C94.9891 45.1211 94.9015 44.989 94.9015 44.857C94.9015 44.725 94.9453 44.5489 94.9891 44.3728L97.0052 39.3112C96.8737 39.2232 96.7422 39.1352 96.6108 39.0031C96.4793 38.8711 96.3916 38.695 96.3478 38.563L91.1762 24.6986C91.0447 24.3024 90.957 23.9943 90.957 23.7743C90.957 23.5542 91.0447 23.4221 91.1762 23.2901C91.3076 23.1581 91.5268 23.07 91.8774 23.026C92.1842 22.982 92.6225 22.938 93.1484 22.938C93.6305 22.938 94.0249 22.938 94.2879 22.982C94.5509 22.982 94.77 23.026 94.9453 23.114C95.1206 23.2021 95.2083 23.2901 95.2959 23.4221C95.3836 23.5542 95.4712 23.7743 95.5151 24.0383L99.0651 34.1176H99.1089L102.352 23.8183C102.44 23.5102 102.527 23.3341 102.615 23.2461C102.703 23.1581 102.878 23.07 103.141 23.026C103.404 22.982 103.798 22.938 104.456 22.938C104.938 22.938 105.332 22.982 105.639 23.026C105.946 23.07 106.209 23.1581 106.34 23.2901C106.472 23.4221 106.56 23.5982 106.56 23.7743C106.56 23.9943 106.516 24.2144 106.428 24.5225L101.476 39.3112Z" fill="white"/>
<path d="M121.63 32.7106C121.63 33.855 121.411 34.8673 120.972 35.7476C120.534 36.6278 119.964 37.3321 119.219 37.9042C118.474 38.4764 117.641 38.9166 116.677 39.2247C115.713 39.5328 114.661 39.6648 113.566 39.6648C112.82 39.6648 112.119 39.6208 111.462 39.4888C110.804 39.3567 110.235 39.2247 109.753 39.0486C109.27 38.8726 108.832 38.6965 108.525 38.5204C108.175 38.3444 107.956 38.1683 107.824 37.9923C107.693 37.8602 107.561 37.6402 107.517 37.3761C107.474 37.112 107.43 36.7159 107.43 36.1877C107.43 35.8356 107.43 35.5275 107.474 35.3074C107.517 35.0873 107.517 34.8673 107.561 34.7352C107.605 34.6032 107.693 34.4711 107.78 34.4271C107.868 34.3831 107.956 34.3391 108.087 34.3391C108.262 34.3391 108.482 34.4271 108.745 34.6032C109.051 34.7792 109.402 34.9993 109.84 35.2194C110.278 35.4395 110.804 35.6595 111.462 35.8356C112.075 36.0116 112.82 36.0997 113.609 36.0997C114.135 36.0997 114.617 36.0557 115.056 35.9236C115.494 35.7916 115.845 35.6155 116.151 35.3954C116.458 35.1754 116.677 34.8673 116.853 34.5152C117.028 34.1631 117.072 33.7669 117.072 33.3268C117.072 32.8426 116.94 32.4025 116.677 32.0504C116.414 31.6983 116.064 31.3902 115.625 31.0821C115.187 30.818 114.705 30.5539 114.135 30.2898C113.566 30.0257 113.04 29.8057 112.426 29.5416C111.856 29.2775 111.286 28.9694 110.717 28.6173C110.147 28.2652 109.665 27.869 109.227 27.3849C108.788 26.9007 108.438 26.3285 108.175 25.6683C107.912 25.0081 107.78 24.2159 107.78 23.3356C107.78 22.2792 107.956 21.3549 108.35 20.5627C108.745 19.7704 109.27 19.1102 109.928 18.5821C110.585 18.0539 111.374 17.6578 112.251 17.3937C113.127 17.1296 114.091 16.9976 115.099 16.9976C115.625 16.9976 116.151 17.0416 116.633 17.1296C117.159 17.2176 117.641 17.3057 118.08 17.4377C118.518 17.5697 118.912 17.7458 119.263 17.8778C119.614 18.0539 119.833 18.1859 119.964 18.318C120.096 18.45 120.14 18.5381 120.183 18.6261C120.227 18.7141 120.271 18.8021 120.271 18.9342C120.315 19.0662 120.315 19.2423 120.315 19.4183C120.315 19.5944 120.315 19.8585 120.315 20.1666C120.315 20.4747 120.315 20.7828 120.271 21.0028C120.271 21.2229 120.227 21.399 120.183 21.575C120.14 21.7071 120.096 21.8391 120.008 21.8831C119.92 21.9711 119.833 21.9712 119.701 21.9712C119.57 21.9712 119.395 21.8831 119.132 21.7511C118.869 21.575 118.518 21.443 118.124 21.2229C117.729 21.0469 117.291 20.8708 116.765 20.6947C116.239 20.5627 115.669 20.4747 115.056 20.4747C114.574 20.4747 114.135 20.5187 113.785 20.6507C113.434 20.7828 113.127 20.9148 112.864 21.1349C112.601 21.355 112.426 21.575 112.338 21.8831C112.207 22.1912 112.163 22.4993 112.163 22.8074C112.163 23.2916 112.295 23.7317 112.557 24.0838C112.82 24.4359 113.171 24.744 113.609 25.0521C114.048 25.3162 114.574 25.5803 115.099 25.8444C115.669 26.1085 116.239 26.3285 116.809 26.5926C117.378 26.8567 117.948 27.1648 118.518 27.5169C119.088 27.869 119.57 28.2652 120.008 28.7493C120.446 29.2335 120.797 29.8057 121.06 30.4219C121.498 31.0821 121.63 31.8303 121.63 32.7106Z" fill="white"/>
<path d="M138.203 38.739C138.203 38.8711 138.16 38.9591 138.116 39.0471C138.028 39.1351 137.94 39.2232 137.765 39.2672C137.59 39.3112 137.371 39.3552 137.108 39.3992C136.845 39.4432 136.494 39.4433 136.1 39.4433C135.705 39.4433 135.355 39.4432 135.048 39.3992C134.785 39.3552 134.566 39.3112 134.39 39.2672C134.215 39.2232 134.128 39.1351 134.04 39.0471C133.952 38.9591 133.952 38.8711 133.952 38.739V30.1123C133.952 29.364 133.908 28.7918 133.777 28.3957C133.689 27.9996 133.514 27.6035 133.295 27.3394C133.076 27.0313 132.813 26.8112 132.506 26.6351C132.199 26.4591 131.805 26.3711 131.366 26.3711C130.84 26.3711 130.271 26.5471 129.745 26.9432C129.175 27.3394 128.605 27.9116 128.036 28.6598V38.695C128.036 38.8271 127.992 38.9151 127.948 39.0031C127.86 39.0911 127.773 39.1792 127.597 39.2232C127.422 39.2672 127.203 39.3112 126.94 39.3552C126.677 39.3992 126.326 39.3992 125.932 39.3992C125.537 39.3992 125.187 39.3992 124.924 39.3552C124.661 39.3112 124.442 39.2672 124.266 39.2232C124.091 39.1792 124.003 39.0911 123.916 39.0031C123.828 38.9151 123.828 38.8271 123.828 38.695V16.4679C123.828 16.3359 123.872 16.2478 123.916 16.1598C124.003 16.0718 124.091 15.9837 124.266 15.9397C124.442 15.8957 124.661 15.8517 124.924 15.8077C125.187 15.7637 125.537 15.7637 125.932 15.7637C126.326 15.7637 126.677 15.7637 126.94 15.8077C127.203 15.8517 127.422 15.8957 127.597 15.9397C127.773 15.9837 127.86 16.0718 127.948 16.1598C128.036 16.2478 128.036 16.3359 128.036 16.4679V24.7866C128.781 24.0823 129.526 23.5102 130.271 23.158C131.016 22.8059 131.805 22.6299 132.637 22.6299C133.645 22.6299 134.522 22.8059 135.223 23.158C135.924 23.5102 136.494 23.9503 136.932 24.5665C137.371 25.1387 137.678 25.8429 137.853 26.6351C138.028 27.4274 138.16 28.3517 138.16 29.4961V38.739H138.203Z" fill="white"/>
<path d="M156.657 31.0371C156.657 32.3135 156.481 33.5018 156.131 34.5582C155.78 35.6145 155.298 36.5388 154.597 37.2871C153.896 38.0353 153.063 38.6515 152.011 39.0476C150.959 39.4437 149.776 39.6638 148.373 39.6638C147.058 39.6638 145.875 39.4878 144.867 39.0916C143.859 38.7395 143.07 38.1673 142.413 37.4631C141.755 36.7589 141.273 35.8786 140.966 34.8223C140.66 33.7659 140.484 32.6216 140.484 31.2571C140.484 29.9807 140.66 28.7923 141.01 27.736C141.361 26.6797 141.887 25.7554 142.544 25.0071C143.245 24.2589 144.078 23.6427 145.13 23.2466C146.138 22.8504 147.365 22.6304 148.724 22.6304C150.083 22.6304 151.222 22.8064 152.23 23.1585C153.238 23.5107 154.027 24.0828 154.684 24.7871C155.342 25.4913 155.824 26.3716 156.131 27.4279C156.525 28.4842 156.657 29.6726 156.657 31.0371ZM152.318 31.1691C152.318 30.4209 152.274 29.7607 152.142 29.1004C152.011 28.4842 151.836 27.9121 151.529 27.4719C151.266 26.9878 150.871 26.6357 150.389 26.3716C149.907 26.1075 149.337 25.9754 148.636 25.9754C148.023 25.9754 147.453 26.1075 146.971 26.3276C146.489 26.5476 146.094 26.8997 145.787 27.3399C145.481 27.78 145.262 28.3082 145.086 28.9684C144.955 29.5846 144.867 30.2888 144.867 31.1251C144.867 31.8733 144.911 32.5335 145.042 33.1938C145.174 33.8099 145.349 34.3821 145.656 34.8223C145.919 35.3064 146.313 35.6585 146.795 35.8786C147.278 36.1427 147.847 36.2747 148.549 36.2747C149.206 36.2747 149.732 36.1427 150.214 35.9226C150.696 35.7026 151.091 35.3504 151.397 34.9103C151.704 34.4702 151.923 33.942 152.055 33.3258C152.23 32.7096 152.318 32.0054 152.318 31.1691Z" fill="white"/>
<path d="M168.314 37.2432C168.314 37.7274 168.27 38.1235 168.226 38.3876C168.183 38.6517 168.095 38.8278 167.963 38.9598C167.876 39.0478 167.701 39.1799 167.525 39.2679C167.35 39.3559 167.087 39.4439 166.824 39.488C166.561 39.532 166.254 39.576 165.947 39.62C165.641 39.664 165.334 39.664 165.027 39.664C164.194 39.664 163.449 39.576 162.836 39.3559C162.222 39.1359 161.696 38.8278 161.302 38.3876C160.907 37.9475 160.6 37.3753 160.425 36.7151C160.25 36.0549 160.118 35.2186 160.118 34.2943V26.5478H158.321C158.102 26.5478 157.927 26.4158 157.839 26.1517C157.708 25.8876 157.664 25.4475 157.664 24.8313C157.664 24.5232 157.664 24.2151 157.708 23.995C157.752 23.7749 157.796 23.5989 157.839 23.4668C157.883 23.3348 157.971 23.2468 158.059 23.2028C158.146 23.1587 158.234 23.1147 158.365 23.1147H160.162V19.7697C160.162 19.6376 160.206 19.5496 160.25 19.4616C160.294 19.3735 160.425 19.2855 160.6 19.2415C160.776 19.1975 160.995 19.1535 161.258 19.1094C161.521 19.0654 161.871 19.0654 162.266 19.0654C162.66 19.0654 163.011 19.0654 163.318 19.1094C163.581 19.1535 163.8 19.1975 163.975 19.2415C164.15 19.2855 164.238 19.3735 164.326 19.4616C164.413 19.5496 164.413 19.6376 164.413 19.7697V23.1147H167.701C167.832 23.1147 167.92 23.1587 168.007 23.2028C168.095 23.2468 168.183 23.3348 168.226 23.4668C168.27 23.5989 168.314 23.7749 168.358 23.995C168.402 24.2151 168.402 24.4792 168.402 24.8313C168.402 25.4475 168.358 25.8876 168.226 26.1517C168.095 26.4158 167.963 26.5478 167.744 26.5478H164.457V33.5901C164.457 34.4263 164.589 35.0425 164.852 35.4387C165.115 35.8348 165.553 36.0549 166.254 36.0549C166.473 36.0549 166.692 36.0549 166.868 36.0109C167.043 35.9668 167.218 35.9228 167.35 35.8788C167.481 35.8348 167.613 35.7908 167.701 35.7468C167.788 35.7028 167.876 35.7028 167.963 35.7028C168.051 35.7028 168.095 35.7028 168.139 35.7468C168.183 35.7908 168.226 35.8788 168.27 35.9668C168.314 36.0989 168.314 36.2309 168.358 36.451C168.27 36.6711 168.314 36.9352 168.314 37.2432Z" fill="white"/>
<path d="M30.1217 47.4534C40.8203 47.4534 49.4933 38.7434 49.4933 27.9992C49.4933 17.2549 40.8203 8.54492 30.1217 8.54492C19.423 8.54492 10.75 17.2549 10.75 27.9992C10.75 38.7434 19.423 47.4534 30.1217 47.4534Z" fill="url(#paint0_linear_2341_8961)"/>
<path d="M28.4996 39.5727C27.5792 39.5727 26.7027 39.2205 26.0015 38.6043L20.1724 33.3667C19.2082 32.4864 18.7261 31.166 18.9891 29.8455L20.4354 21.967C20.6984 20.6466 21.6187 19.5022 22.9335 19.0621L30.3842 16.4212C30.7786 16.2892 31.2169 16.2012 31.6113 16.2012C32.5317 16.2012 33.4083 16.5533 34.1095 17.1255L40.1577 22.5832C41.1657 23.4635 41.604 24.8719 41.341 26.1924L39.6756 34.0709C39.4126 35.3473 38.4484 36.4476 37.2212 36.8438L29.7706 39.2646C29.3323 39.4846 28.8941 39.5727 28.4996 39.5727Z" fill="#161616"/>
<path d="M30.122 6.125C18.1133 6.125 8.33984 15.9401 8.33984 28C8.33984 40.0599 18.0695 49.875 30.122 49.875C42.1745 49.875 51.9041 40.0599 51.9041 28C51.9041 15.9401 42.1307 6.125 30.122 6.125ZM23.8547 9.47007C25.4763 8.80986 33.0584 7.09331 39.7202 10.9225C40.1584 11.1866 40.4652 11.5387 40.4652 12.1989C40.5091 13.7834 40.5967 16.9525 40.3776 20.7377C40.3776 21.0018 40.0708 21.1338 39.8516 21.0018C39.8516 21.0018 33.4529 14.2676 23.8985 9.91021C23.6794 9.77817 23.6794 9.5581 23.8547 9.47007ZM39.9393 25.9754L38.2739 33.8539C38.0986 34.6901 37.485 35.3504 36.6961 35.6144L29.2454 38.0352C28.4566 38.2993 27.5362 38.1232 26.9226 37.5511L21.0936 32.3134C20.48 31.7412 20.1732 30.9049 20.3485 30.1127L21.7948 22.2342C21.9701 21.3979 22.5399 20.6937 23.3726 20.4296L30.8671 17.7887C31.6559 17.5247 32.5763 17.7007 33.1899 18.2729L39.2381 23.7306C39.8516 24.2588 40.1146 25.1391 39.9393 25.9754ZM20.0417 11.1866C20.48 10.9225 20.8744 10.9666 21.488 11.1426C21.488 11.1426 25.038 12.375 28.9387 15.368C29.1578 15.544 29.114 15.8521 28.8948 15.9401C28.8948 15.9401 19.9979 18.2289 11.4954 24.3909C11.3639 24.4789 11.1448 24.3908 11.1886 24.2148C11.3639 22.5423 12.7226 15.8521 20.0417 11.1866ZM17.6751 42.5687C17.6751 42.7447 17.4997 42.8328 17.3683 42.7447C15.9658 41.6884 11.0133 36.8028 10.6627 28.132C10.6189 27.6039 10.9695 27.3398 11.4516 26.8997C11.4516 26.8997 14.5195 24.4789 18.7707 22.5863C18.9899 22.4982 19.2528 22.6743 19.2528 22.9384C19.1652 23.2905 16.5794 32.4014 17.6751 42.5687ZM36.3455 46.3099C34.7239 46.9701 27.1856 48.6866 20.5238 44.9014C20.0856 44.6373 19.7788 44.2852 19.7788 43.669C19.7349 42.0845 19.6473 38.9155 19.8226 35.1303C19.8226 34.8662 20.1294 34.7342 20.3485 34.8662C20.3485 34.8662 26.7473 41.5563 36.3016 45.9137C36.4769 46.0458 36.5208 46.2658 36.3455 46.3099ZM40.0708 44.6813C39.6325 44.9454 39.2381 44.9014 38.6245 44.6813C38.6245 44.6813 35.0745 43.4049 31.2177 40.412C30.9985 40.2359 31.0424 39.9278 31.2615 39.8398C31.2615 39.8398 40.1584 37.5951 48.7048 31.4771C48.8362 31.3891 49.0554 31.4771 49.0115 31.6532C48.7924 33.4137 47.3461 40.0599 40.0708 44.6813ZM48.7048 29.0563C48.7048 29.0563 45.6368 31.4331 41.3856 33.2817C41.1665 33.3697 40.9035 33.1937 40.9035 32.9296C40.9035 32.9296 43.577 23.8187 42.6128 13.3433C42.6128 13.1673 42.7881 13.0792 42.9196 13.1673C44.322 14.2676 49.1869 19.1532 49.4936 27.8239C49.4936 28.3521 49.1869 28.6162 48.7048 29.0563Z" fill="#EDEDED"/>
<defs>
<linearGradient id="paint0_linear_2341_8961" x1="40.8733" y1="43.2901" x2="18.3634" y2="11.6173" gradientUnits="userSpaceOnUse">
<stop stop-color="#006EAD"/>
<stop offset="0.0471498" stop-color="#0075B9"/>
<stop offset="0.1723" stop-color="#0083D2"/>
<stop offset="0.3115" stop-color="#008FE6"/>
<stop offset="0.47" stop-color="#0097F4"/>
<stop offset="0.6645" stop-color="#009CFD"/>
<stop offset="1" stop-color="#009DFF"/>
</linearGradient>
</defs>
</svg>
