<svg width="237" height="64" viewBox="0 0 237 64" fill="none" xmlns="http://www.w3.org/2000/svg">
<path d="M35.5855 34.8185C35.8357 30.3555 38.0212 26.4235 41.3184 23.6362C44.5518 20.8984 48.904 19.2251 53.6526 19.2251C58.3966 19.2251 62.7488 20.8984 65.9846 23.6362C69.2794 26.4235 71.4648 30.3556 71.7174 34.8139C71.9676 39.3996 70.1243 43.6597 66.8909 46.8175C63.5937 50.0297 58.904 52.0452 53.6526 52.0452C48.4013 52.0452 43.7022 50.0297 40.4074 46.8175C37.1716 43.6597 35.333 39.3996 35.5855 34.8185Z" fill="white"/>
<path d="M44.3634 35.2225C44.4917 32.9325 45.6132 30.915 47.3049 29.4848C48.964 28.08 51.1972 27.2214 53.6337 27.2214C56.0679 27.2214 58.301 28.08 59.9613 29.4848C61.6519 30.915 62.7733 32.9325 62.9029 35.2201C63.0312 37.5731 62.0854 39.759 60.4263 41.3793C58.7345 43.0275 56.3282 44.0616 53.6337 44.0616C50.9392 44.0616 48.5281 43.0275 46.8375 41.3793C45.1772 39.759 44.2338 37.5731 44.3634 35.2225Z" fill="#265787"/>
<path d="M29.6001 39.8606C29.6159 40.7567 29.9017 42.4982 30.3304 43.8581C31.2314 46.7367 32.7597 49.3997 34.8862 51.7466C37.0685 54.1589 39.7557 56.0965 42.8596 57.4722C46.1221 58.917 49.657 59.6532 53.3288 59.6472C56.9946 59.6423 60.5296 58.8915 63.792 57.4359C66.8959 56.0469 69.5807 54.1008 71.7593 51.6873C73.8846 49.3307 75.4106 46.6628 76.314 43.7843C76.7681 42.3298 77.0551 40.8536 77.1702 39.3726C77.2828 37.9133 77.2355 36.4516 77.0285 34.9912C76.624 32.1453 75.6394 29.475 74.1232 27.0409C72.7366 24.8042 70.9492 22.846 68.8238 21.1978L68.8287 21.1942L47.3803 4.72576C47.3609 4.71123 47.3452 4.69551 47.3246 4.68219C45.9174 3.60197 43.5511 3.60561 42.0034 4.68825C40.4387 5.783 40.2595 7.59342 41.6522 8.7354L41.6461 8.74146L50.5919 16.016L23.3258 16.045H23.2895C21.0358 16.0474 18.8693 17.5261 18.4406 19.3946C17.9998 21.2983 19.5305 22.8775 21.8738 22.886L21.8702 22.8945L35.6903 22.8678L11.0291 41.797C10.9977 41.82 10.9638 41.8442 10.9347 41.8672C8.60832 43.6486 7.85629 46.6107 9.32163 48.4854C10.8088 50.3915 13.9707 50.3951 16.3213 48.4963L29.7806 37.481C29.7806 37.481 29.5844 38.9681 29.6001 39.8606ZM64.1856 44.8402C61.4124 47.6655 57.5298 49.2677 53.3288 49.2762C49.1217 49.2834 45.2392 47.6958 42.466 44.8754C41.1109 43.5009 40.1154 41.9193 39.5014 40.2348C38.8995 38.5794 38.6658 36.8222 38.8208 35.0493C38.9674 33.3163 39.4833 31.6633 40.3067 30.1677C41.1157 28.6976 42.2298 27.3691 43.6056 26.2453C46.3013 24.0485 49.7333 22.8593 53.3228 22.8545C56.9159 22.8496 60.3455 24.0279 63.0436 26.2174C64.4169 27.3364 65.5299 28.66 66.3388 30.1278C67.1659 31.6222 67.6782 33.2691 67.8308 35.0069C67.9834 36.7774 67.7496 38.5322 67.1478 40.1888C66.5326 41.8782 65.5407 43.4597 64.1856 44.8402Z" fill="#EA7600"/>
<path d="M191.308 35.186C191.515 32.8754 193.302 31.4101 196.03 31.4101C198.762 31.4101 200.547 32.8754 200.754 35.186H191.308ZM200.474 40.891C199.776 42.6034 198.129 43.617 195.892 43.617C193.091 43.617 191.205 41.8683 191.129 39.106H207.232V38.2935C207.232 31.3738 203.17 27.4852 195.892 27.4852C188.824 27.4852 184.551 31.4101 184.551 37.5656C184.551 43.7587 188.891 47.6775 195.892 47.6775C200.093 47.6775 203.351 46.2376 205.358 43.7066L200.474 40.891Z" fill="#265787"/>
<path d="M119.857 35.1983C120.07 32.8877 121.856 31.4224 124.587 31.4224C127.314 31.4224 129.099 32.8877 129.309 35.1983H119.857ZM129.029 40.9034C128.329 42.6206 126.683 43.6342 124.442 43.6342C121.646 43.6342 119.755 41.8806 119.681 39.1171H135.781V38.3094C135.781 31.3861 131.72 27.4963 124.442 27.4963C117.371 27.4963 113.105 31.4224 113.105 37.578C113.105 43.771 117.443 47.6898 124.442 47.6898C128.642 47.6898 131.902 46.2548 133.913 43.7201L129.029 40.9034Z" fill="#265787"/>
<path d="M111.666 23.3062H105.859V47.0624H111.666V23.3062Z" fill="#265787"/>
<path d="M137.227 29.6154H143.066V31.0299C145.133 28.8234 147.616 27.7081 150.416 27.7081C153.641 27.7081 156.082 28.8234 157.343 30.7223C158.395 32.2905 158.464 34.1834 158.464 36.6708V47.0599H152.616V37.9314C152.616 34.1434 151.854 32.3947 148.529 32.3947C145.168 32.3947 143.066 34.3965 143.066 37.757V47.0599H137.227V29.6154Z" fill="#265787"/>
<path d="M177.273 37.8623C177.273 41.1138 175.1 43.2464 171.738 43.2464C168.374 43.2464 166.201 41.1865 166.201 37.8998C166.201 34.5647 168.345 32.506 171.738 32.506C175.1 32.506 177.273 34.601 177.273 37.8623ZM177.273 30.4061C175.796 28.8234 173.66 27.9551 170.691 27.9551C164.284 27.9551 159.91 31.9054 159.91 37.8259C159.91 43.6303 164.254 47.6908 170.585 47.6908C173.488 47.6908 175.619 46.9569 177.273 45.3112V47.0598H183.116V21.7971L177.273 23.3036V30.4061Z" fill="#265787"/>
<path d="M92.586 32.5099C95.9817 32.5099 98.1167 34.5686 98.1167 37.9037C98.1167 41.1904 95.9478 43.2503 92.586 43.2503C89.2267 43.2503 87.0565 41.1178 87.0565 37.8662C87.0565 34.605 89.2267 32.5099 92.586 32.5099ZM87.0565 23.3075L81.2109 21.801V47.0638H87.0565V45.3151C88.7011 46.9608 90.8361 47.6947 93.7413 47.6947C100.076 47.6947 104.414 43.6342 104.414 37.8299C104.414 31.9093 100.039 27.959 93.636 27.959C90.6605 27.959 88.5255 28.8273 87.0565 30.4101V23.3075Z" fill="#265787"/>
<path d="M208.676 47.0662V29.6217H214.519V30.6995C216.269 28.5923 218.121 27.5436 220.226 27.5436C220.644 27.5436 221.17 27.6114 221.869 27.6804V32.654C221.306 32.5801 220.678 32.5801 220.012 32.5801C216.615 32.5801 214.519 34.8205 214.519 38.6303V47.0662H208.676Z" fill="#265787"/>
<path d="M226.01 26.283V24.663H226.802C226.905 24.663 226.998 24.6842 227.083 24.7266C227.169 24.7691 227.237 24.8305 227.287 24.911C227.338 24.9901 227.364 25.0867 227.364 25.2008C227.364 25.315 227.338 25.4123 227.285 25.4928C227.232 25.5733 227.162 25.6347 227.074 25.6772C226.987 25.7181 226.889 25.7386 226.782 25.7386H226.24V25.4335H226.695C226.756 25.4335 226.809 25.4137 226.853 25.3742C226.898 25.3347 226.921 25.2762 226.921 25.1986C226.921 25.1181 226.898 25.061 226.853 25.0274C226.809 24.9923 226.757 24.9747 226.697 24.9747H226.431V26.283H226.01ZM227.044 25.5345L227.412 26.283H226.951L226.607 25.5345H227.044ZM226.644 27.2489C226.401 27.2489 226.174 27.2035 225.961 27.1128C225.749 27.0221 225.563 26.8962 225.402 26.7352C225.241 26.5743 225.115 26.3877 225.024 26.1755C224.933 25.9633 224.888 25.7357 224.888 25.4928C224.888 25.2498 224.933 25.0223 225.024 24.8101C225.115 24.5979 225.241 24.4113 225.402 24.2503C225.563 24.0893 225.749 23.9635 225.961 23.8727C226.174 23.782 226.401 23.7366 226.644 23.7366C226.887 23.7366 227.115 23.782 227.327 23.8727C227.539 23.9635 227.726 24.0893 227.887 24.2503C228.048 24.4113 228.173 24.5979 228.264 24.8101C228.355 25.0223 228.4 25.2498 228.4 25.4928C228.4 25.7357 228.355 25.9633 228.264 26.1755C228.173 26.3877 228.048 26.5743 227.887 26.7352C227.726 26.8962 227.539 27.0221 227.327 27.1128C227.115 27.2035 226.887 27.2489 226.644 27.2489ZM226.644 26.7857C226.884 26.7857 227.101 26.7279 227.296 26.6123C227.492 26.4952 227.648 26.3394 227.764 26.1447C227.879 25.9486 227.937 25.7313 227.937 25.4928C227.937 25.2542 227.878 25.0376 227.761 24.843C227.646 24.6469 227.49 24.491 227.294 24.3754C227.099 24.2583 226.883 24.1998 226.644 24.1998C226.407 24.1998 226.19 24.2583 225.994 24.3754C225.798 24.491 225.642 24.6469 225.527 24.843C225.411 25.0376 225.353 25.2542 225.353 25.4928C225.353 25.7313 225.411 25.9486 225.527 26.1447C225.642 26.3394 225.798 26.4952 225.994 26.6123C226.19 26.7279 226.407 26.7857 226.644 26.7857Z" fill="#236192"/>
</svg>
