<svg width="161" height="64" viewBox="0 0 161 64" fill="none" xmlns="http://www.w3.org/2000/svg">
<path d="M53.038 47.0644L44.068 31.9769L53.038 16.8894L57.3622 31.9769L53.038 47.0644ZM33.0742 45.5922L21.8038 34.4146H39.7438L48.7138 49.5022L33.0742 45.5922ZM33.0742 18.3155L48.6682 14.4055L39.6982 29.493H21.7582L33.0742 18.3155ZM55.9822 7L35.6038 12.2899L32.5678 17.4875L26.4502 17.4414L11.5 31.9769L26.4502 46.5125L32.5678 46.4663L35.6038 51.6639L55.9822 57L61.456 37.1745L58.3738 32.0231L61.456 26.8711L55.9822 7ZM102.258 21.6735C99.544 21.6735 97.7038 22.8231 96.3238 24.9392H96.232V22.2255H91.4482V42.1885H96.3238V30.873C96.3238 28.1593 98.026 26.273 100.372 26.273C102.58 26.273 104.236 27.6073 104.236 29.9532V42.2346H109.112V29.1709C109.158 24.8012 106.398 21.6735 102.258 21.6735ZM84.0418 33.7708C84.0418 36.4389 82.5238 38.2785 80.0398 38.2785C77.7862 38.2785 76.36 36.9909 76.36 34.645V22.2255H71.4838V35.5648C71.4838 39.9344 73.9678 42.7866 78.43 42.7866C81.2362 42.7866 82.7998 41.7283 84.1342 39.8887H84.2722V42.2346H88.9642V22.2255H84.088V33.7708H84.0418ZM111.734 22.2255H116.61V42.1885H111.734V22.2255ZM111.734 16.0158H116.61V20.0176H111.734V16.0158ZM144.256 22.2255L141.358 31.2408C140.714 33.0809 140.208 35.6109 140.208 35.6109H140.07C140.07 35.6109 139.426 33.0809 138.782 31.2408L135.516 22.2255H130.272L135.654 36.4389C136.804 39.4748 137.172 40.7624 137.172 41.8663C137.172 43.5223 136.298 44.5805 134.228 44.5805H132.342V48.766H135.47C139.518 48.766 140.944 47.1563 142.462 42.7404L149.5 22.2712H144.256V22.2255ZM125.718 36.3466V25.7672H128.846V22.2712H125.718V16.0158H120.842V22.2255H118.082V25.721H120.842V37.4505C120.842 41.2225 123.694 42.2346 126.27 42.2346C128.386 42.2346 128.938 42.1423 128.938 42.1423V38.2785H127.696C126.546 38.3246 125.718 37.8188 125.718 36.3466Z" fill="white"/>
</svg>
