<svg width="66" height="66" viewBox="0 0 66 66" fill="none" xmlns="http://www.w3.org/2000/svg">
<path d="M51.4367 26.4171L18.8421 7.61192L1.09544 41.1568L33.69 59.9619L51.4367 26.4171Z" fill="#737373"/>
<path d="M21.2561 24.8551C21.5407 24.7742 21.7809 24.5838 21.9238 24.3257L22.8158 22.7143L28.9315 26.1L27.4653 28.7485L22.3951 25.9416C22.1355 25.7979 21.8297 25.7626 21.545 25.8434C21.2604 25.9243 21.0202 26.1147 20.8773 26.3728L19.7897 28.3373C19.6469 28.5954 19.613 28.9001 19.6955 29.1842C19.7781 29.4684 19.9704 29.7088 20.2301 29.8525L25.3003 32.6594L23.8379 35.301L18.7677 32.4941C18.508 32.3504 18.2022 32.315 17.9176 32.3959C17.6329 32.4768 17.3927 32.6672 17.2498 32.9253L16.1623 34.8898C16.0194 35.1479 15.9855 35.4525 16.0681 35.7367C16.1507 36.0209 16.3429 36.2613 16.6026 36.405L21.6728 39.2119L20.2066 41.8604L14.093 38.4759L14.9835 36.8673C15.1264 36.6092 15.1603 36.3046 15.0777 36.0204C14.9951 35.7363 14.8028 35.4959 14.5432 35.3521L12.427 34.1806L18.2918 23.5865L20.4059 24.7569C20.6656 24.9006 20.9714 24.936 21.2561 24.8551Z" fill="url(#paint0_linear_2177_5595)"/>
<path d="M34.4617 41.2777L32.3448 40.1057C32.0857 39.9623 31.7807 39.9268 31.4966 40.007C31.2125 40.0871 30.9724 40.2765 30.8289 40.5335L29.7814 42.4257C29.6385 42.6838 29.6046 42.9884 29.6872 43.2726C29.7697 43.5567 29.962 43.7971 30.2217 43.9409L32.3428 45.1151L30.8765 47.7636L27.7134 46.0125L28.6039 44.404C28.7468 44.1459 28.7807 43.8412 28.6981 43.557C28.6156 43.2729 28.4233 43.0325 28.1636 42.8887L27.093 42.296C26.8333 42.1523 26.5275 42.1169 26.2428 42.1978C25.9582 42.2787 25.718 42.4691 25.5751 42.7272L24.68 44.3441L21.5176 42.5934L22.9838 39.9449L25.1014 41.1172C25.3611 41.2609 25.6669 41.2963 25.9515 41.2154C26.2362 41.1345 26.4763 40.9441 26.6192 40.686L27.6675 38.7924C27.8104 38.5343 27.8443 38.2297 27.7617 37.9455C27.6791 37.6613 27.4869 37.4209 27.2272 37.2772L25.1096 36.1049L26.5758 33.4564L29.7382 35.2071L28.8493 36.8129C28.7064 37.071 28.6725 37.3756 28.7551 37.6598C28.8376 37.944 29.0299 38.1843 29.2896 38.3281L30.3561 38.9185C30.6157 39.0623 30.9215 39.0976 31.2062 39.0167C31.4908 38.9359 31.731 38.7454 31.8739 38.4873L32.7629 36.8815L35.926 38.6326L34.4617 41.2777Z" fill="url(#paint1_linear_2177_5595)"/>
<path d="M30.5097 30.5328C31.0461 31.1105 32.242 32.3817 32.9378 33.12C32.9613 33.1449 32.9913 33.1612 33.0249 33.1677L35.7254 33.6947L34.822 35.3265C34.7619 35.3148 34.6983 35.3376 34.6595 35.3889L34.1589 36.0513C34.0986 36.1311 34.1228 36.2457 34.21 36.2941L34.5964 36.5079C34.6837 36.5563 34.7936 36.5159 34.8293 36.4224L35.1249 35.6465C35.1511 35.5779 35.1285 35.5014 35.0719 35.4579L35.9875 33.7458L36.3975 33.8258C36.5545 33.8565 36.6584 33.6666 36.5479 33.5509L34.183 31.0731C34.16 31.049 34.1303 31.0326 34.0976 31.0259L30.6348 30.3149C30.4902 30.2852 30.4092 30.4247 30.5097 30.5328Z" fill="url(#paint2_linear_2177_5595)"/>
<path d="M32.8184 33.3358C32.4356 32.9296 31.9013 32.362 31.4089 31.8375L30.6596 33.1909C30.5274 33.4296 30.5547 33.7267 30.7379 33.928C31.6864 34.9709 32.5261 35.4714 33.5273 35.5013C33.7487 35.5079 33.9468 35.3758 34.0543 35.1817L34.8408 33.7611L32.9054 33.3835C32.8719 33.3769 32.8418 33.3607 32.8184 33.3358Z" fill="url(#paint3_linear_2177_5595)"/>
<path d="M65.1894 25.4955L33.3661 6.70802L18.8384 7.60899L51.433 26.4142L65.1894 25.4955Z" fill="#4C4C4C"/>
<path d="M64.7227 25.6387L51.4329 26.4158L33.6862 59.9607L46.976 59.1835L64.7227 25.6387Z" fill="#1A1A1A"/>
<defs>
<linearGradient id="paint0_linear_2177_5595" x1="29.6613" y1="26.504" x2="20.9333" y2="42.2699" gradientUnits="userSpaceOnUse">
<stop stop-color="#C8C8C8"/>
<stop offset="1" stop-color="#838383"/>
</linearGradient>
<linearGradient id="paint1_linear_2177_5595" x1="29.6613" y1="26.504" x2="20.9333" y2="42.2699" gradientUnits="userSpaceOnUse">
<stop stop-color="#C8C8C8"/>
<stop offset="1" stop-color="#838383"/>
</linearGradient>
<linearGradient id="paint2_linear_2177_5595" x1="29.6613" y1="26.504" x2="20.9333" y2="42.2699" gradientUnits="userSpaceOnUse">
<stop stop-color="#C8C8C8"/>
<stop offset="1" stop-color="#838383"/>
</linearGradient>
<linearGradient id="paint3_linear_2177_5595" x1="29.6613" y1="26.504" x2="20.9333" y2="42.2699" gradientUnits="userSpaceOnUse">
<stop stop-color="#C8C8C8"/>
<stop offset="1" stop-color="#838383"/>
</linearGradient>
</defs>
</svg>
