<svg width="29" height="28" viewBox="0 0 29 28" fill="none" xmlns="http://www.w3.org/2000/svg">
<path d="M20.9446 8.63027C22.4124 8.30434 24.3243 6.84746 24.6152 6.12996C24.7858 5.70996 23.9349 5.05371 23.7074 4.78902C23.1868 4.18527 23.3968 3.88777 23.598 3.16809C23.8277 2.34996 23.283 1.44652 22.5108 1.09215C21.7387 0.737773 20.8155 0.849336 20.039 1.19496C19.2624 1.54059 18.5996 2.09621 17.9499 2.64309C17.4752 2.3434 16.7183 1.01996 15.4933 1.87965C14.6468 2.47246 14.5702 3.76309 14.6796 4.7934C14.9355 7.17121 15.5218 8.40496 16.6265 8.73746C18.0221 9.15746 19.5665 8.93652 20.9446 8.63027Z" fill="#FFCA28"/>
<path d="M23.3262 1.78906C23.1403 4.99375 20.0144 7.12 18.5312 8.05625L19.4937 8.88313C19.4937 8.88313 20.1041 8.89625 20.9397 8.62937C22.3725 8.17438 24.4659 6.88812 24.6103 6.12906C24.8225 5.02437 23.6894 5.265 23.4334 4.39219C23.3 3.93062 24.0831 3.05781 23.3262 1.78906Z" fill="#E2A610"/>
<path d="M17.9532 2.64375C17.9532 2.64375 17.3954 2.07281 16.982 1.8125C16.7763 2.19969 16.6298 2.61969 16.5576 3.05281C16.4285 3.81406 16.5576 4.89469 16.8617 5.69969C16.9098 5.82438 17.0892 5.80469 17.1088 5.67344C17.3713 3.94313 17.9532 2.64375 17.9532 2.64375Z" fill="#E2A610"/>
<path d="M14.0533 8.34848C14.0533 8.34848 7.23049 9.08566 4.15267 15.0094C1.07486 20.9332 3.69111 24.525 6.46049 25.8332C9.22986 27.1413 16.208 27.6029 20.7471 26.5266C25.2861 25.4504 26.4214 23.2191 26.2092 21.0644C25.9008 17.9188 22.9783 15.985 22.9783 15.985C22.9783 15.985 23.0942 12.1 20.0799 9.57785C17.4046 7.33785 14.0533 8.34848 14.0533 8.34848Z" fill="#FFCA28"/>
<path d="M16.8521 18.3166C15.3887 16.4704 13.6605 16.2232 13.1071 15.5604C12.8052 15.1994 12.628 14.8341 12.6958 14.3813C12.768 13.9001 13.3258 13.5676 13.759 13.4866C14.2643 13.3904 15.4696 13.4407 16.4824 14.4054C16.723 14.6329 16.6355 14.9873 16.629 15.3044C16.6115 15.9848 17.5849 16.6454 18.3724 16.0766C19.1621 15.5057 18.5562 14.2348 18.0465 13.6179C17.6615 13.1519 16.2658 12.126 14.5312 11.9641C14.0433 11.9182 12.0812 11.6273 10.948 13.7819C10.6221 14.401 10.5018 15.8973 12.208 17.1616C12.5646 17.4263 14.4152 18.3669 14.9293 18.9773C15.8196 20.0338 15.2093 20.9635 14.5137 21.086C12.6171 21.4185 11.543 20.3926 11.344 19.8304C11.2018 19.4301 11.3505 18.9969 11.1668 18.6207C10.9787 18.2335 10.5937 18.0804 10.1868 18.2094C8.85241 18.6338 9.27678 20.0929 9.86741 20.8957C10.4996 21.7554 11.2762 22.2738 12.149 22.5582C15.4062 23.6191 16.9724 21.9435 17.2458 20.7163C17.4471 19.8173 17.4252 19.0385 16.8521 18.3166Z" fill="#6B4B46"/>
<path d="M16.0688 10.7188C13.2972 16.6381 12.8203 24.1128 12.8203 24.1128" stroke="#6B4B46" stroke-miterlimit="10"/>
<path d="M18.3618 6.99137C20.2081 7.59293 20.6171 9.26199 20.4837 9.71699C20.324 10.2507 18.2787 8.17262 15.2381 8.2973C14.1749 8.34105 14.4834 7.68918 14.9756 7.31293C15.6252 6.81637 16.7168 6.45762 18.3618 6.99137Z" fill="#6D4C41"/>
<path d="M18.3618 6.99137C20.2081 7.59293 20.6171 9.26199 20.4837 9.71699C20.324 10.2507 18.2787 8.17262 15.2381 8.2973C14.1749 8.34105 14.4834 7.68918 14.9756 7.31293C15.6252 6.81637 16.7168 6.45762 18.3618 6.99137Z" fill="#6B4B46"/>
<path d="M21.6079 12.8758C21.8397 12.7161 22.6185 12.9918 22.8372 14.5164C22.9444 15.2624 22.9772 15.9843 22.9772 15.9843C22.9772 15.9843 22.0585 15.1596 21.7544 14.5799C21.3716 13.8471 21.2229 13.1383 21.6079 12.8758Z" fill="#E2A610"/>
</svg>
