<svg width="79" height="59" viewBox="0 0 79 59" fill="none" xmlns="http://www.w3.org/2000/svg">
<mask id="mask0_2106_5564" style="mask-type:alpha" maskUnits="userSpaceOnUse" x="0" y="0" width="25" height="25">
<rect x="0.6875" y="0.763672" width="24" height="24" fill="#D9D9D9"/>
</mask>
<g mask="url(#mask0_2106_5564)">
<path d="M13.9625 18.2642H16.3625V18.1892L12.2375 13.8142L12.2625 13.7392H12.5125C13.4125 13.7392 14.1583 13.4642 14.75 12.9142C15.3417 12.3642 15.7042 11.7225 15.8375 10.9892H16.8375V9.81416H15.8125C15.7625 9.56416 15.675 9.32666 15.55 9.10166C15.425 8.87666 15.2708 8.65583 15.0875 8.43916H16.8375V7.26416H8.5375V8.68916H12.4375C12.8708 8.68916 13.225 8.79749 13.5 9.01416C13.775 9.23083 13.9625 9.49749 14.0625 9.81416H8.5375V10.9892H14.0875C13.9875 11.3225 13.7958 11.61 13.5125 11.8517C13.2292 12.0933 12.8458 12.2142 12.3625 12.2142H9.8625V13.8142L13.9625 18.2642ZM12.6875 22.7642C11.3042 22.7642 10.0042 22.5017 8.7875 21.9767C7.57083 21.4517 6.5125 20.7392 5.6125 19.8392C4.7125 18.9392 4 17.8808 3.475 16.6642C2.95 15.4475 2.6875 14.1475 2.6875 12.7642C2.6875 11.3808 2.95 10.0808 3.475 8.86416C4 7.64749 4.7125 6.58916 5.6125 5.68916C6.5125 4.78916 7.57083 4.07666 8.7875 3.55166C10.0042 3.02666 11.3042 2.76416 12.6875 2.76416C14.0708 2.76416 15.3708 3.02666 16.5875 3.55166C17.8042 4.07666 18.8625 4.78916 19.7625 5.68916C20.6625 6.58916 21.375 7.64749 21.9 8.86416C22.425 10.0808 22.6875 11.3808 22.6875 12.7642C22.6875 14.1475 22.425 15.4475 21.9 16.6642C21.375 17.8808 20.6625 18.9392 19.7625 19.8392C18.8625 20.7392 17.8042 21.4517 16.5875 21.9767C15.3708 22.5017 14.0708 22.7642 12.6875 22.7642Z" fill="#303030"/>
</g>
<mask id="mask1_2106_5564" style="mask-type:alpha" maskUnits="userSpaceOnUse" x="21" y="0" width="58" height="59">
<rect x="21.6875" y="0.763672" width="57.3125" height="57.3125" fill="#D9D9D9"/>
</mask>
<g mask="url(#mask1_2106_5564)">
<path d="M53.3859 42.5553H59.1171V42.3762L49.2665 31.9286L49.3262 31.7495H49.9232C52.0725 31.7495 53.8535 31.0928 55.2664 29.7794C56.6794 28.466 57.545 26.9337 57.8634 25.1825H60.2514V22.3766H57.8037C57.6843 21.7796 57.4754 21.2124 57.1769 20.6751C56.8784 20.1378 56.5102 19.6104 56.0724 19.093H60.2514V16.2871H40.4309V19.69H49.7441C50.779 19.69 51.6247 19.9487 52.2814 20.4661C52.9381 20.9836 53.3859 21.6204 53.6247 22.3766H40.4309V25.1825H53.6844C53.4456 25.9785 52.9879 26.6651 52.3113 27.2422C51.6347 27.8193 50.7193 28.1078 49.565 28.1078H43.595V31.9286L53.3859 42.5553ZM50.3411 53.3014C47.0377 53.3014 43.9333 52.6746 41.0279 51.4209C38.1224 50.1672 35.5951 48.4657 33.4459 46.3165C31.2967 44.1673 29.5952 41.6399 28.3415 38.7345C27.0878 35.8291 26.4609 32.7247 26.4609 29.4212C26.4609 26.1178 27.0878 23.0134 28.3415 20.1079C29.5952 17.2025 31.2967 14.6752 33.4459 12.526C35.5951 10.3768 38.1224 8.67529 41.0279 7.42158C43.9333 6.16787 47.0377 5.54102 50.3411 5.54102C53.6446 5.54102 56.749 6.16787 59.6544 7.42158C62.5599 8.67529 65.0872 10.3768 67.2364 12.526C69.3856 14.6752 71.0871 17.2025 72.3408 20.1079C73.5945 23.0134 74.2214 26.1178 74.2214 29.4212C74.2214 32.7247 73.5945 35.8291 72.3408 38.7345C71.0871 41.6399 69.3856 44.1673 67.2364 46.3165C65.0872 48.4657 62.5599 50.1672 59.6544 51.4209C56.749 52.6746 53.6446 53.3014 50.3411 53.3014Z" fill="#303030"/>
</g>
</svg>
