<svg width="24" height="24" viewBox="0 0 24 24" fill="none" xmlns="http://www.w3.org/2000/svg">
<mask id="mask0_1927_5513" style="mask-type:alpha" maskUnits="userSpaceOnUse" x="0" y="0" width="24" height="24">
<rect width="24" height="24" fill="#D9D9D9"/>
</mask>
<g mask="url(#mask0_1927_5513)">
<path d="M2.43516 10.587L6.63516 6.387C6.86849 6.15367 7.14349 5.987 7.46016 5.887C7.77682 5.787 8.10183 5.77033 8.43516 5.837L9.73516 6.112C8.83516 7.17867 8.12683 8.14533 7.61016 9.012C7.09349 9.87866 6.59349 10.9287 6.11016 12.162L2.43516 10.587ZM7.56016 12.862C7.94349 11.662 8.46433 10.5287 9.12266 9.462C9.78099 8.39533 10.5768 7.39533 11.5102 6.462C12.9768 4.99533 14.6518 3.8995 16.5352 3.1745C18.4185 2.4495 20.1768 2.22867 21.8102 2.512C22.0935 4.14533 21.8768 5.90367 21.1602 7.787C20.4435 9.67033 19.3518 11.3453 17.8852 12.812C16.9685 13.7287 15.9685 14.5245 14.8852 15.1995C13.8018 15.8745 12.6602 16.4037 11.4602 16.787L7.56016 12.862ZM14.4602 9.862C14.8435 10.2453 15.3143 10.437 15.8727 10.437C16.431 10.437 16.9018 10.2453 17.2852 9.862C17.6685 9.47866 17.8602 9.00783 17.8602 8.4495C17.8602 7.89117 17.6685 7.42033 17.2852 7.037C16.9018 6.65367 16.431 6.462 15.8727 6.462C15.3143 6.462 14.8435 6.65367 14.4602 7.037C14.0768 7.42033 13.8852 7.89117 13.8852 8.4495C13.8852 9.00783 14.0768 9.47866 14.4602 9.862ZM13.7602 21.887L12.1602 18.212C13.3935 17.7287 14.4477 17.2287 15.3227 16.712C16.1977 16.1953 17.1685 15.487 18.2352 14.587L18.4852 15.887C18.5518 16.2203 18.5352 16.5495 18.4352 16.8745C18.3352 17.1995 18.1685 17.4787 17.9352 17.712L13.7602 21.887ZM4.03516 16.062C4.61849 15.4787 5.32682 15.1828 6.16016 15.1745C6.99349 15.1662 7.70182 15.4537 8.28516 16.037C8.86849 16.6203 9.16016 17.3287 9.16016 18.162C9.16016 18.9953 8.86849 19.7037 8.28516 20.287C7.86849 20.7037 7.17266 21.062 6.19766 21.362C5.22266 21.662 3.87682 21.9287 2.16016 22.162C2.39349 20.4453 2.66016 19.1037 2.96016 18.137C3.26016 17.1703 3.61849 16.4787 4.03516 16.062Z" fill="#FFF200"/>
</g>
</svg>
