<svg width="564" height="192" viewBox="0 0 564 192" fill="none" xmlns="http://www.w3.org/2000/svg">
<g filter="url(#filter0_i_2106_5138)">
<rect x="38" y="32" width="151" height="128" rx="12" fill="#1F1F20"/>
<rect x="38" y="32" width="151" height="128" rx="12" fill="url(#paint0_radial_2106_5138)" fill-opacity="0.4"/>
<path d="M127.5 93.4019C129.5 94.5566 129.5 97.4434 127.5 98.5981L108.75 109.423C106.75 110.578 104.25 109.135 104.25 106.825L104.25 85.1747C104.25 82.8653 106.75 81.4219 108.75 82.5766L127.5 93.4019Z" fill="url(#paint1_linear_2106_5138)"/>
</g>
<g filter="url(#filter1_i_2106_5138)">
<rect x="207" y="32" width="151" height="128" rx="12" fill="#1F1F20"/>
<rect x="207" y="32" width="151" height="128" rx="12" fill="url(#paint2_radial_2106_5138)" fill-opacity="0.3"/>
<rect x="207" y="32" width="151" height="128" rx="12" fill="url(#paint3_radial_2106_5138)" fill-opacity="0.1"/>
<rect x="207" y="32" width="151" height="128" rx="12" fill="url(#paint4_radial_2106_5138)" fill-opacity="0.8"/>
<rect x="207.5" y="32.5" width="150" height="127" rx="11.5" stroke="url(#paint5_linear_2106_5138)" style="mix-blend-mode:overlay"/>
<path d="M296.5 93.4019C298.5 94.5566 298.5 97.4434 296.5 98.5981L277.75 109.423C275.75 110.578 273.25 109.135 273.25 106.825L273.25 85.1747C273.25 82.8653 275.75 81.4219 277.75 82.5766L296.5 93.4019Z" fill="url(#paint6_linear_2106_5138)"/>
</g>
<g filter="url(#filter2_i_2106_5138)">
<rect x="376" y="32" width="151" height="128" rx="12" fill="#1F1F20"/>
<rect x="376" y="32" width="151" height="128" rx="12" fill="url(#paint7_radial_2106_5138)" fill-opacity="0.4"/>
<path d="M465.5 93.4019C467.5 94.5566 467.5 97.4434 465.5 98.5981L446.75 109.423C444.75 110.578 442.25 109.135 442.25 106.825L442.25 85.1747C442.25 82.8653 444.75 81.4219 446.75 82.5766L465.5 93.4019Z" fill="url(#paint8_linear_2106_5138)"/>
</g>
<g filter="url(#filter3_d_2106_5138)">
<path d="M250.264 72.2075C250.333 73.0712 249.346 73.6083 248.658 73.081L229.676 58.5228C228.886 57.9169 229.37 56.6547 230.363 56.7323L240.619 57.5345C241.013 57.5653 241.388 57.3612 241.576 57.0136L246.473 47.966C246.947 47.0905 248.27 47.3697 248.35 48.362L250.264 72.2075Z" fill="#FFF200"/>
</g>
<defs>
<filter id="filter0_i_2106_5138" x="38" y="32" width="151" height="128" filterUnits="userSpaceOnUse" color-interpolation-filters="sRGB">
<feFlood flood-opacity="0" result="BackgroundImageFix"/>
<feBlend mode="normal" in="SourceGraphic" in2="BackgroundImageFix" result="shape"/>
<feColorMatrix in="SourceAlpha" type="matrix" values="0 0 0 0 0 0 0 0 0 0 0 0 0 0 0 0 0 0 127 0" result="hardAlpha"/>
<feOffset/>
<feGaussianBlur stdDeviation="3"/>
<feComposite in2="hardAlpha" operator="arithmetic" k2="-1" k3="1"/>
<feColorMatrix type="matrix" values="0 0 0 0 1 0 0 0 0 1 0 0 0 0 1 0 0 0 0.15 0"/>
<feBlend mode="normal" in2="shape" result="effect1_innerShadow_2106_5138"/>
</filter>
<filter id="filter1_i_2106_5138" x="207" y="32" width="151" height="128" filterUnits="userSpaceOnUse" color-interpolation-filters="sRGB">
<feFlood flood-opacity="0" result="BackgroundImageFix"/>
<feBlend mode="normal" in="SourceGraphic" in2="BackgroundImageFix" result="shape"/>
<feColorMatrix in="SourceAlpha" type="matrix" values="0 0 0 0 0 0 0 0 0 0 0 0 0 0 0 0 0 0 127 0" result="hardAlpha"/>
<feOffset/>
<feGaussianBlur stdDeviation="3"/>
<feComposite in2="hardAlpha" operator="arithmetic" k2="-1" k3="1"/>
<feColorMatrix type="matrix" values="0 0 0 0 1 0 0 0 0 1 0 0 0 0 1 0 0 0 0.15 0"/>
<feBlend mode="normal" in2="shape" result="effect1_innerShadow_2106_5138"/>
</filter>
<filter id="filter2_i_2106_5138" x="376" y="32" width="151" height="128" filterUnits="userSpaceOnUse" color-interpolation-filters="sRGB">
<feFlood flood-opacity="0" result="BackgroundImageFix"/>
<feBlend mode="normal" in="SourceGraphic" in2="BackgroundImageFix" result="shape"/>
<feColorMatrix in="SourceAlpha" type="matrix" values="0 0 0 0 0 0 0 0 0 0 0 0 0 0 0 0 0 0 127 0" result="hardAlpha"/>
<feOffset/>
<feGaussianBlur stdDeviation="3"/>
<feComposite in2="hardAlpha" operator="arithmetic" k2="-1" k3="1"/>
<feColorMatrix type="matrix" values="0 0 0 0 1 0 0 0 0 1 0 0 0 0 1 0 0 0 0.15 0"/>
<feBlend mode="normal" in2="shape" result="effect1_innerShadow_2106_5138"/>
</filter>
<filter id="filter3_d_2106_5138" x="225.281" y="47.441" width="28.9844" height="34.8488" filterUnits="userSpaceOnUse" color-interpolation-filters="sRGB">
<feFlood flood-opacity="0" result="BackgroundImageFix"/>
<feColorMatrix in="SourceAlpha" type="matrix" values="0 0 0 0 0 0 0 0 0 0 0 0 0 0 0 0 0 0 127 0" result="hardAlpha"/>
<feOffset dy="5"/>
<feGaussianBlur stdDeviation="2"/>
<feComposite in2="hardAlpha" operator="out"/>
<feColorMatrix type="matrix" values="0 0 0 0 1 0 0 0 0 0.94902 0 0 0 0 0 0 0 0 0.25 0"/>
<feBlend mode="normal" in2="BackgroundImageFix" result="effect1_dropShadow_2106_5138"/>
<feBlend mode="normal" in="SourceGraphic" in2="effect1_dropShadow_2106_5138" result="shape"/>
</filter>
<radialGradient id="paint0_radial_2106_5138" cx="0" cy="0" r="1" gradientUnits="userSpaceOnUse" gradientTransform="translate(113.5 32) rotate(90) scale(128 151)">
<stop stop-color="#AEAEAE"/>
<stop offset="1" stop-opacity="0"/>
</radialGradient>
<linearGradient id="paint1_linear_2106_5138" x1="113.5" y1="77.5" x2="113.5" y2="114.5" gradientUnits="userSpaceOnUse">
<stop stop-color="#939393"/>
<stop offset="1" stop-color="#464646"/>
</linearGradient>
<radialGradient id="paint2_radial_2106_5138" cx="0" cy="0" r="1" gradientUnits="userSpaceOnUse" gradientTransform="translate(282.5 32) rotate(90) scale(128 151)">
<stop stop-color="#FFF30C"/>
<stop offset="1" stop-opacity="0"/>
</radialGradient>
<radialGradient id="paint3_radial_2106_5138" cx="0" cy="0" r="1" gradientUnits="userSpaceOnUse" gradientTransform="translate(282.5 32) rotate(90) scale(144 169.875)">
<stop stop-opacity="0"/>
<stop offset="1" stop-color="#FFF30C"/>
</radialGradient>
<radialGradient id="paint4_radial_2106_5138" cx="0" cy="0" r="1" gradientUnits="userSpaceOnUse" gradientTransform="translate(282.5 96) rotate(131.022) scale(64 75.5)">
<stop stop-color="#FFF200"/>
<stop offset="1" stop-color="#202020" stop-opacity="0"/>
</radialGradient>
<linearGradient id="paint5_linear_2106_5138" x1="282.5" y1="32" x2="282.5" y2="160" gradientUnits="userSpaceOnUse">
<stop stop-color="white"/>
<stop offset="1" stop-color="#C7C7C7"/>
</linearGradient>
<linearGradient id="paint6_linear_2106_5138" x1="282.5" y1="77.5" x2="282.5" y2="114.5" gradientUnits="userSpaceOnUse">
<stop stop-color="#FFFBA8"/>
<stop offset="1" stop-color="#FFF200"/>
</linearGradient>
<radialGradient id="paint7_radial_2106_5138" cx="0" cy="0" r="1" gradientUnits="userSpaceOnUse" gradientTransform="translate(451.5 32) rotate(90) scale(128 151)">
<stop stop-color="#AEAEAE"/>
<stop offset="1" stop-opacity="0"/>
</radialGradient>
<linearGradient id="paint8_linear_2106_5138" x1="451.5" y1="77.5" x2="451.5" y2="114.5" gradientUnits="userSpaceOnUse">
<stop stop-color="#939393"/>
<stop offset="1" stop-color="#464646"/>
</linearGradient>
</defs>
</svg>
