<svg width="16" height="17" viewBox="0 0 16 17" fill="none" xmlns="http://www.w3.org/2000/svg">
<mask id="mask0_2106_5676" style="mask-type:alpha" maskUnits="userSpaceOnUse" x="0" y="0" width="16" height="17">
<rect y="0.419922" width="16" height="16" fill="#D9D9D9"/>
</mask>
<g mask="url(#mask0_2106_5676)">
<path d="M10.1987 11.5534L11.132 10.6201L8.66536 8.15342V5.08675H7.33203V8.68675L10.1987 11.5534ZM7.9987 15.0868C7.07648 15.0868 6.20981 14.9117 5.3987 14.5618C4.58759 14.2118 3.88203 13.7368 3.28203 13.1368C2.68203 12.5368 2.20703 11.8312 1.85703 11.0201C1.50703 10.209 1.33203 9.34231 1.33203 8.42008C1.33203 7.49786 1.50703 6.6312 1.85703 5.82008C2.20703 5.00897 2.68203 4.30342 3.28203 3.70342C3.88203 3.10342 4.58759 2.62842 5.3987 2.27842C6.20981 1.92842 7.07648 1.75342 7.9987 1.75342C8.92092 1.75342 9.78759 1.92842 10.5987 2.27842C11.4098 2.62842 12.1154 3.10342 12.7154 3.70342C13.3154 4.30342 13.7904 5.00897 14.1404 5.82008C14.4904 6.6312 14.6654 7.49786 14.6654 8.42008C14.6654 9.34231 14.4904 10.209 14.1404 11.0201C13.7904 11.8312 13.3154 12.5368 12.7154 13.1368C12.1154 13.7368 11.4098 14.2118 10.5987 14.5618C9.78759 14.9117 8.92092 15.0868 7.9987 15.0868ZM7.9987 13.7534C9.47647 13.7534 10.7348 13.234 11.7737 12.1951C12.8126 11.1562 13.332 9.89786 13.332 8.42008C13.332 6.94231 12.8126 5.68397 11.7737 4.64508C10.7348 3.6062 9.47647 3.08675 7.9987 3.08675C6.52092 3.08675 5.26259 3.6062 4.2237 4.64508C3.18481 5.68397 2.66536 6.94231 2.66536 8.42008C2.66536 9.89786 3.18481 11.1562 4.2237 12.1951C5.26259 13.234 6.52092 13.7534 7.9987 13.7534Z" fill="white"/>
</g>
</svg>
