<svg width="20" height="21" viewBox="0 0 20 21" fill="none" xmlns="http://www.w3.org/2000/svg">
<mask id="mask0_2025_4988" style="mask-type:alpha" maskUnits="userSpaceOnUse" x="0" y="0" width="20" height="21">
<rect y="0.419922" width="20" height="20" fill="#D9D9D9"/>
</mask>
<g mask="url(#mask0_2025_4988)">
<path d="M9.9974 14.5863C10.2335 14.5863 10.4314 14.5064 10.5911 14.3467C10.7509 14.187 10.8307 13.989 10.8307 13.7529C10.8307 13.5168 10.7509 13.3189 10.5911 13.1592C10.4314 12.9995 10.2335 12.9196 9.9974 12.9196C9.76128 12.9196 9.56337 12.9995 9.40365 13.1592C9.24392 13.3189 9.16406 13.5168 9.16406 13.7529C9.16406 13.989 9.24392 14.187 9.40365 14.3467C9.56337 14.5064 9.76128 14.5863 9.9974 14.5863ZM9.9974 11.2529C10.2335 11.2529 10.4314 11.1731 10.5911 11.0133C10.7509 10.8536 10.8307 10.6557 10.8307 10.4196C10.8307 10.1835 10.7509 9.98557 10.5911 9.82585C10.4314 9.66612 10.2335 9.58626 9.9974 9.58626C9.76128 9.58626 9.56337 9.66612 9.40365 9.82585C9.24392 9.98557 9.16406 10.1835 9.16406 10.4196C9.16406 10.6557 9.24392 10.8536 9.40365 11.0133C9.56337 11.1731 9.76128 11.2529 9.9974 11.2529ZM9.9974 7.9196C10.2335 7.9196 10.4314 7.83974 10.5911 7.68001C10.7509 7.52029 10.8307 7.32237 10.8307 7.08626C10.8307 6.85015 10.7509 6.65224 10.5911 6.49251C10.4314 6.33279 10.2335 6.25293 9.9974 6.25293C9.76128 6.25293 9.56337 6.33279 9.40365 6.49251C9.24392 6.65224 9.16406 6.85015 9.16406 7.08626C9.16406 7.32237 9.24392 7.52029 9.40365 7.68001C9.56337 7.83974 9.76128 7.9196 9.9974 7.9196ZM16.6641 17.0863H3.33073C2.8724 17.0863 2.48003 16.9231 2.15365 16.5967C1.82726 16.2703 1.66406 15.8779 1.66406 15.4196V12.0863C2.1224 12.0863 2.51476 11.9231 2.84115 11.5967C3.16753 11.2703 3.33073 10.8779 3.33073 10.4196C3.33073 9.96126 3.16753 9.5689 2.84115 9.24251C2.51476 8.91612 2.1224 8.75293 1.66406 8.75293V5.4196C1.66406 4.96126 1.82726 4.5689 2.15365 4.24251C2.48003 3.91612 2.8724 3.75293 3.33073 3.75293H16.6641C17.1224 3.75293 17.5148 3.91612 17.8411 4.24251C18.1675 4.5689 18.3307 4.96126 18.3307 5.4196V8.75293C17.8724 8.75293 17.48 8.91612 17.1536 9.24251C16.8273 9.5689 16.6641 9.96126 16.6641 10.4196C16.6641 10.8779 16.8273 11.2703 17.1536 11.5967C17.48 11.9231 17.8724 12.0863 18.3307 12.0863V15.4196C18.3307 15.8779 18.1675 16.2703 17.8411 16.5967C17.5148 16.9231 17.1224 17.0863 16.6641 17.0863Z" fill="white"/>
</g>
</svg>
