<svg width="24" height="24" viewBox="0 0 24 24" fill="none" xmlns="http://www.w3.org/2000/svg">
<mask id="mask0_2106_5071" style="mask-type:alpha" maskUnits="userSpaceOnUse" x="0" y="0" width="24" height="24">
<rect width="24" height="24" fill="#D9D9D9"/>
</mask>
<g mask="url(#mask0_2106_5071)">
<path d="M5.95078 21C5.63411 21 5.38411 20.8708 5.20078 20.6125C5.01745 20.3542 4.96745 20.075 5.05078 19.775L9.50078 3.7C9.56745 3.48333 9.68411 3.3125 9.85078 3.1875C10.0174 3.0625 10.2091 3 10.4258 3C10.7591 3 11.0174 3.12917 11.2008 3.3875C11.3841 3.64583 11.4341 3.925 11.3508 4.225L10.8508 6H16.4758L17.1008 3.7C17.1674 3.48333 17.2883 3.3125 17.4633 3.1875C17.6383 3.0625 17.8341 3 18.0508 3C18.3674 3 18.6174 3.12917 18.8008 3.3875C18.9841 3.64583 19.0341 3.925 18.9508 4.225L14.5008 20.3C14.4341 20.5167 14.3174 20.6875 14.1508 20.8125C13.9841 20.9375 13.7924 21 13.5758 21C13.2424 21 12.9841 20.8708 12.8008 20.6125C12.6174 20.3542 12.5674 20.075 12.6508 19.775L13.1508 18H7.52578L6.90078 20.3C6.83411 20.5167 6.71328 20.6875 6.53828 20.8125C6.36328 20.9375 6.16745 21 5.95078 21ZM9.47578 11H15.0758L15.9008 8H10.3008L9.47578 11ZM8.10078 16H13.7008L14.5258 13H8.92578L8.10078 16Z" fill="#FFF200"/>
</g>
</svg>
