<svg width="64" height="64" viewBox="0 0 64 64" fill="none" xmlns="http://www.w3.org/2000/svg">
<path d="M27.6909 54.6508C40.3184 57.5994 51.8384 49.2794 51.8384 34.5594C51.8384 17.1932 44.1584 15.9994 29.8919 11.365C24.2671 9.89766 11.8439 6.8163 7.14844 6.22937" stroke="#4C4C4C" stroke-width="1.14634" stroke-linecap="round" stroke-dasharray="2.29 3.44"/>
<circle cx="15.9505" cy="48.0476" r="14.6732" fill="white"/>
<circle cx="51.1697" cy="28.9706" r="10.2712" fill="#4C4C4C"/>
<ellipse cx="24.7546" cy="9.89591" rx="7.33658" ry="7.33659" fill="#4C4C4C"/>
<path d="M17.5633 43.52V54.1914H15.3071V45.6616H15.2446L12.8008 47.1935V45.1926L15.4426 43.52H17.5633Z" fill="black"/>
<path d="M48.9609 32.0904V31.5276L51.0744 29.2141C51.3224 28.9431 51.5267 28.7076 51.6871 28.5075C51.8476 28.3053 51.9664 28.1157 52.0436 27.9385C52.1228 27.7593 52.1624 27.5717 52.1624 27.3758C52.1624 27.1507 52.1082 26.9558 51.9998 26.7911C51.8935 26.6265 51.7476 26.4993 51.5621 26.4097C51.3766 26.3201 51.1682 26.2753 50.9368 26.2753C50.6909 26.2753 50.4762 26.3263 50.2928 26.4285C50.1114 26.5285 49.9708 26.6692 49.8707 26.8505C49.7728 27.0319 49.7238 27.2445 49.7238 27.4883H48.9859C48.9859 27.1131 49.0724 26.7838 49.2454 26.5004C49.4184 26.2169 49.654 25.996 49.952 25.8376C50.2521 25.6792 50.5887 25.6 50.9618 25.6C51.337 25.6 51.6694 25.6792 51.9591 25.8376C52.2489 25.996 52.476 26.2096 52.6407 26.4785C52.8054 26.7474 52.8877 27.0465 52.8877 27.3758C52.8877 27.6113 52.845 27.8416 52.7595 28.0667C52.6761 28.2897 52.5302 28.5388 52.3218 28.8139C52.1155 29.0869 51.8289 29.4204 51.462 29.8143L50.0239 31.3525V31.4025H53.0002V32.0904H48.9609Z" fill="#9C9C9C"/>
<path d="M24.7397 12.0653C24.4646 12.0653 24.2193 12.0181 24.004 11.9236C23.79 11.8291 23.6198 11.6978 23.4933 11.5297C23.3683 11.3602 23.3002 11.1635 23.2891 10.9398H23.8143C23.8254 11.0774 23.8727 11.1962 23.956 11.2962C24.0394 11.3949 24.1485 11.4713 24.2833 11.5255C24.418 11.5797 24.5674 11.6068 24.7314 11.6068C24.9148 11.6068 25.0774 11.5748 25.2191 11.5109C25.3608 11.447 25.472 11.3581 25.5526 11.2441C25.6332 11.1302 25.6735 10.9982 25.6735 10.8481C25.6735 10.6911 25.6345 10.5529 25.5567 10.4334C25.4789 10.3125 25.365 10.218 25.2149 10.1499C25.0648 10.0818 24.8814 10.0478 24.6647 10.0478H24.3229V9.58923H24.6647C24.8342 9.58923 24.9829 9.55866 25.1107 9.49753C25.2399 9.43639 25.3407 9.35024 25.4129 9.23908C25.4866 9.12792 25.5234 8.9973 25.5234 8.84724C25.5234 8.70273 25.4914 8.57698 25.4275 8.46999C25.3636 8.363 25.2733 8.27963 25.1566 8.21988C25.0412 8.16013 24.9051 8.13025 24.748 8.13025C24.6008 8.13025 24.4618 8.15735 24.3312 8.21154C24.202 8.26434 24.0964 8.34146 24.0144 8.44289C23.9324 8.54294 23.8879 8.66382 23.881 8.80555H23.3808C23.3891 8.58184 23.4565 8.38592 23.5829 8.21779C23.7094 8.04827 23.8747 7.91627 24.079 7.82178C24.2846 7.7273 24.5104 7.68005 24.7564 7.68005C25.0204 7.68005 25.2469 7.73355 25.4358 7.84054C25.6248 7.94614 25.77 8.08579 25.8715 8.25948C25.9729 8.43317 26.0236 8.62075 26.0236 8.82223C26.0236 9.06261 25.9604 9.26756 25.8339 9.43708C25.7089 9.6066 25.5387 9.72402 25.3233 9.78932V9.82267C25.5929 9.86713 25.8034 9.98177 25.9548 10.1666C26.1063 10.35 26.182 10.5772 26.182 10.8481C26.182 11.0802 26.1188 11.2886 25.9923 11.4734C25.8673 11.6568 25.6964 11.8013 25.4796 11.9069C25.2629 12.0125 25.0162 12.0653 24.7397 12.0653Z" fill="#9C9C9C"/>
</svg>
