<svg width="56" height="63" viewBox="0 0 56 63" fill="none" xmlns="http://www.w3.org/2000/svg">
<path fill-rule="evenodd" clip-rule="evenodd" d="M1.12932 40.4101L22.5742 52.7915L22.5742 28.0288L1.12932 15.6474L1.12932 40.4101Z" fill="#4C4C4C"/>
<path d="M23.8168 25.5494L45.2617 13.1681L23.8168 0.786722L2.37192 13.1681L23.8168 25.5494Z" fill="#4C4C4C"/>
<path d="M51.1498 44.1821L52.466 49.9454C53.6599 55.1735 50.481 60.4656 45.2718 61.716C44.0082 62.0225 42.6959 62.0723 41.4127 61.8625C40.1295 61.6526 38.9014 61.1874 37.8013 60.4943C34.7371 58.4473 30.493 52.7096 30.493 52.7096C30.3219 52.5254 30.1899 52.3083 30.1052 52.0715C30.0205 51.8347 29.9847 51.5832 30.0001 51.3322C30.0155 51.0812 30.0817 50.836 30.1947 50.6113C30.3077 50.3867 30.4651 50.1873 30.6574 50.0253C31.4209 49.3747 32.5708 49.4883 33.2502 50.2214L36.5683 53.8023C36.6615 53.9059 36.7833 53.9797 36.9183 54.0143C37.0533 54.0489 37.1956 54.0429 37.3271 53.9969L37.3407 53.9938C37.5496 53.9067 37.7206 53.7479 37.8229 53.546C37.9252 53.3441 37.9521 53.1124 37.8988 52.8924L34.8043 39.3424C34.748 39.0972 34.7421 38.8431 34.787 38.5955C34.8319 38.348 34.9266 38.1121 35.0654 37.9022C35.2042 37.6924 35.3842 37.5129 35.5945 37.3748C35.8047 37.2366 36.0409 37.1426 36.2886 37.0984C37.2732 36.9212 38.2141 37.5897 38.4366 38.5641L40.2862 46.6631C40.3143 46.7872 40.3676 46.9043 40.4428 47.007C40.518 47.1097 40.6136 47.1958 40.7235 47.2601C40.8334 47.3243 40.9553 47.3652 41.0817 47.3803C41.2081 47.3954 41.3363 47.3844 41.4583 47.3479C41.6865 47.2747 41.8785 47.1179 41.9958 46.9089C42.1131 46.6999 42.1469 46.4542 42.0904 46.2213L41.6833 44.439C41.627 44.1938 41.6211 43.9397 41.666 43.6921C41.7109 43.4445 41.8056 43.2087 41.9444 42.9988C42.0832 42.789 42.2632 42.6095 42.4735 42.4713C42.6837 42.3332 42.9199 42.2391 43.1676 42.195C44.1522 42.0177 45.0931 42.6863 45.3156 43.6606L45.9248 46.3279C45.9528 46.452 46.0061 46.5691 46.0813 46.6718C46.1566 46.7745 46.2521 46.8606 46.362 46.9249C46.4719 46.9891 46.5939 47.03 46.7203 47.0451C46.8467 47.0603 46.9748 47.0492 47.0968 47.0127C47.325 46.9396 47.5171 46.7827 47.6343 46.5737C47.7516 46.3647 47.7854 46.119 47.7289 45.8861L47.5407 45.0623C47.3182 44.0879 47.8764 43.0806 48.8396 42.8094C49.0815 42.7418 49.3346 42.7239 49.5837 42.7569C49.8327 42.7899 50.0725 42.8731 50.2884 43.0014C50.5044 43.1297 50.6921 43.3005 50.8401 43.5035C50.9882 43.7064 51.0935 43.9373 51.1498 44.1821Z" fill="white"/>
<path d="M46.4961 40.4111L44.9414 41.3086C44.3556 40.987 43.662 40.8499 42.9404 40.9795L42.9375 40.9805C42.5262 41.0543 42.1335 41.21 41.7842 41.4395C41.4339 41.6697 41.1336 41.9697 40.9023 42.3193C40.8074 42.463 40.7277 42.6159 40.6582 42.7725L39.6348 38.292C39.2756 36.7194 37.7423 35.582 36.0615 35.8838L36.0625 35.8828L36.0596 35.8838V35.8848C35.6481 35.9586 35.2547 36.1132 34.9053 36.3428C34.555 36.573 34.2547 36.8731 34.0234 37.2227C33.7923 37.5722 33.6353 37.9656 33.5605 38.3779C33.4858 38.79 33.4954 39.2129 33.5889 39.6211L35.251 46.9023L32.5615 48.4561C31.6481 48.2328 30.6422 48.4097 29.8506 49.0811C29.5301 49.351 29.2674 49.6843 29.0791 50.0586C28.994 50.228 28.9255 50.4048 28.873 50.5859L25.0508 52.793V28.0303L46.4961 15.6484V40.4111ZM36.4629 37.0791C37.3785 37.01 38.2191 37.6539 38.4277 38.5674L39.7393 44.3115L36.374 46.2549L34.7959 39.3457C34.7396 39.1006 34.7325 38.8461 34.7773 38.5986C34.811 38.4134 34.8729 38.2345 34.96 38.0684L35.0557 37.9062C35.1598 37.7488 35.2877 37.6069 35.4336 37.4883L35.585 37.3779C35.7952 37.2398 36.0326 37.1457 36.2803 37.1016L36.4629 37.0791ZM41.8965 43.0664L41.9346 43.0029C42.0387 42.8455 42.1666 42.7036 42.3125 42.585L42.4648 42.4746C42.675 42.3366 42.9117 42.2424 43.1592 42.1982L43.3418 42.1748C43.3763 42.1722 43.4111 42.1725 43.4453 42.1719L41.8965 43.0664Z" fill="white"/>
</svg>
