<svg width="64" height="64" viewBox="0 0 64 64" fill="none" xmlns="http://www.w3.org/2000/svg">
<path fill-rule="evenodd" clip-rule="evenodd" d="M60.1613 14.08C61.5751 14.08 62.7213 15.2262 62.7213 16.64V47.36C62.7213 48.7739 61.5751 49.92 60.1613 49.92H3.84125C2.4274 49.92 1.28125 48.7739 1.28125 47.36V16.64C1.28125 15.2262 2.4274 14.08 3.84125 14.08H60.1613ZM50.2413 41.28C50.0645 41.28 49.9213 41.4233 49.9213 41.6V47.36C49.9213 47.5367 50.0645 47.68 50.2413 47.68H52.1613C52.338 47.68 52.4813 47.5367 52.4813 47.36V41.6C52.4813 41.4233 52.338 41.28 52.1613 41.28H50.2413ZM50.2413 32.96C50.0645 32.96 49.9213 33.1033 49.9213 33.28V39.04C49.9213 39.2167 50.0645 39.36 50.2413 39.36H52.1613C52.338 39.36 52.4813 39.2167 52.4813 39.04V33.28C52.4813 33.1033 52.338 32.96 52.1613 32.96H50.2413ZM50.2413 24.64C50.0645 24.64 49.9213 24.7833 49.9213 24.96V30.72C49.9213 30.8967 50.0645 31.04 50.2413 31.04H52.1613C52.338 31.04 52.4813 30.8967 52.4813 30.72V24.96C52.4813 24.7833 52.338 24.64 52.1613 24.64H50.2413ZM50.2413 16.32C50.0645 16.32 49.9213 16.4633 49.9213 16.64V22.4C49.9213 22.5767 50.0645 22.72 50.2413 22.72H52.1613C52.338 22.72 52.4813 22.5767 52.4813 22.4V16.64C52.4813 16.4633 52.338 16.32 52.1613 16.32H50.2413Z" fill="#4C4C4C"/>
<path d="M42.2409 31.9993C42.2411 33.5182 41.7744 35.0041 40.8998 36.2671C40.0253 37.5299 38.7817 38.5137 37.3274 39.095C35.8731 39.6762 34.2728 39.8289 32.7289 39.5326C31.185 39.2363 29.7665 38.5042 28.6534 37.4301L28.6011 37.377L20.4768 28.5238C19.7663 27.8464 18.8641 27.3865 17.8837 27.2025C16.903 27.0187 15.8873 27.1189 14.9655 27.4902C14.0435 27.8618 13.2555 28.489 12.7016 29.2914C12.148 30.0936 11.8524 31.0356 11.8523 31.9993C11.8523 32.9633 12.1478 33.9063 12.7016 34.7086C13.2555 35.511 14.0435 36.1382 14.9655 36.5098C15.8873 36.8811 16.903 36.9813 17.8837 36.7975C18.8641 36.6136 19.7663 36.1536 20.4768 35.4762L21.6158 34.2327C21.7418 34.0953 21.8958 33.9832 22.0666 33.9028C22.2373 33.8225 22.4226 33.775 22.6121 33.7637C22.8017 33.7524 22.9921 33.7778 23.1717 33.8373C23.3516 33.897 23.5182 33.9912 23.6607 34.1127C23.803 34.2343 23.9193 34.3816 24.0027 34.5463C24.0859 34.711 24.1351 34.8898 24.1468 35.0726C24.1585 35.2558 24.1323 35.4404 24.0705 35.614C24.0086 35.7872 23.9122 35.9471 23.7864 36.0844L22.6079 37.3688L22.5542 37.4233C21.4412 38.497 20.0165 39.235 18.4729 39.5313C16.9293 39.8275 15.3286 39.676 13.8745 39.095C12.4202 38.5137 11.1765 37.5285 10.302 36.2657C9.42769 35.003 8.96094 33.518 8.96094 31.9993C8.96105 30.4807 9.42763 28.9956 10.302 27.7329C11.1765 26.4703 12.4204 25.4862 13.8745 24.9051C15.3286 24.324 16.9293 24.1725 18.4729 24.4687C19.92 24.7465 21.2567 25.4061 22.3351 26.3722L22.5471 26.5699L22.5994 26.6231L30.7335 35.4844C31.4427 36.1571 32.3418 36.6144 33.3182 36.7975C34.2989 36.9812 35.3146 36.8813 36.2364 36.5098C37.1583 36.1382 37.945 35.5109 38.4989 34.7086C39.0528 33.9062 39.3482 32.9634 39.3482 31.9993C39.3481 31.0355 39.0526 30.0936 38.4989 29.2914C37.945 28.4891 37.1583 27.8618 36.2364 27.4902C35.3146 27.1188 34.2989 27.0188 33.3182 27.2025C32.342 27.3856 31.4427 27.8418 30.7335 28.5142L29.5846 29.7659C29.3302 30.0436 28.9718 30.2122 28.5884 30.235C28.205 30.2577 27.8275 30.1327 27.5398 29.8873C27.2523 29.6418 27.0772 29.2957 27.0537 28.926C27.0302 28.5563 27.1611 28.1918 27.4154 27.9143L28.594 26.6312L28.6463 26.5767L28.8653 26.3722C29.944 25.4057 31.2814 24.7452 32.7289 24.4674C34.2728 24.1711 35.8731 24.3238 37.3274 24.9051C38.7817 25.4863 40.0253 26.47 40.8998 27.7329C41.7743 28.9957 42.2409 30.4806 42.2409 31.9993Z" fill="white"/>
<path d="M29.4414 57.6H62.0814" stroke="#4C4C4C" stroke-width="1.14634" stroke-linecap="round" stroke-dasharray="2.29 3.44"/>
<path d="M8.96094 6.40002H29.4409" stroke="#4C4C4C" stroke-width="1.14634" stroke-linecap="round" stroke-dasharray="2.29 3.44"/>
<path d="M43.5195 1.28003H50.5595" stroke="#4C4C4C" stroke-width="1.14634" stroke-linecap="round" stroke-dasharray="2.29 3.44"/>
</svg>
