<svg width="64" height="64" viewBox="0 0 64 64" fill="none" xmlns="http://www.w3.org/2000/svg">
<rect y="7.67999" width="64" height="46.08" rx="2" fill="#4C4C4C"/>
<rect x="29.4414" y="53.76" width="5.12" height="5.12" fill="#4C4C4C"/>
<rect x="16.6406" y="58.88" width="30.72" height="2.56" fill="#4C4C4C"/>
<path d="M8.99316 20.649C10.345 19.8769 12.0683 20.4545 12.6816 21.8854L16.5459 30.901C16.9638 31.876 18.0704 32.3551 19.0674 31.9928L24.3311 30.0787V30.1627C26.0113 29.5958 28.4415 29.4791 31.9551 29.4791L29.3438 42.5309L33.6865 46.6647L37.2334 42.444L34.6387 29.4801C44.8132 29.4789 46.4884 30.7193 47.3037 44.7985C47.3854 46.2098 46.2272 47.3588 44.8135 47.359H23.0537C21.64 47.3588 20.4827 46.2098 20.5645 44.7985C20.5645 42.0702 20.5627 39.8237 20.6416 37.9752L17.0996 38.1842C14.9267 38.312 12.9201 37.0195 12.1387 34.9879L7.85352 23.8473C7.3917 22.6462 7.87604 21.2876 8.99316 20.649ZM35.8496 42.0924L33.5742 44.8004L30.7305 42.0924L33.0059 30.7203H33.5742L35.8496 42.0924ZM33.29 15.36C36.8245 15.3602 39.6895 18.2259 39.6895 21.7604C39.6892 25.2947 36.8244 28.1596 33.29 28.1598C29.7555 28.1598 26.8899 25.2948 26.8896 21.7604C26.8896 18.2258 29.7554 15.36 33.29 15.36Z" fill="white"/>
<path d="M6.17483 20.2565C6.3239 20.331 6.47297 20.4056 6.62204 20.4801C6.66455 20.3857 6.7142 20.2882 6.76612 20.1952C7.67126 18.4576 9.91909 17.4459 11.8443 18.316C11.9495 18.3567 12.0523 18.3999 12.1584 18.4483C12.0561 18.3925 11.9566 18.3416 11.8542 18.2931C10.0089 17.2675 7.4863 18.1137 6.3606 19.9478C6.29531 20.0468 6.23174 20.1519 6.17483 20.2565Z" fill="white"/>
<path d="M3.60977 19.7433C3.76315 19.8085 3.91654 19.8737 4.06992 19.9389C4.08464 19.8936 4.10293 19.8455 4.12253 19.7985C4.50398 18.9545 5.22933 18.1172 6.23275 17.9396C6.28828 17.9307 6.3433 17.9242 6.39984 17.92C6.3433 17.9158 6.28756 17.914 6.23062 17.9147C5.18711 17.9438 4.27708 18.6848 3.70052 19.5804C3.6689 19.6326 3.63792 19.6877 3.60977 19.7433Z" fill="white"/>
</svg>
