<svg width="64" height="64" viewBox="0 0 64 64" fill="none" xmlns="http://www.w3.org/2000/svg">
<rect y="7.67999" width="64" height="46.08" rx="4" fill="#4C4C4C"/>
<path d="M39.3554 19.2438L36.2422 21.7754L37.1907 25.5613C37.243 25.7668 37.2295 25.9823 37.152 26.1806C37.0744 26.3789 36.9362 26.5511 36.7548 26.6755C36.5734 26.7998 36.357 26.8707 36.1329 26.8791C35.9088 26.8876 35.6871 26.8333 35.4957 26.7231L32.002 24.6968L28.5061 26.7231C28.3148 26.8327 28.0933 26.8865 27.8696 26.8777C27.6459 26.8689 27.4299 26.7979 27.2489 26.6737C27.0679 26.5495 26.93 26.3776 26.8524 26.1796C26.7749 25.9817 26.7613 25.7665 26.8132 25.5613L27.7652 21.7754L24.6519 19.2438C24.4826 19.106 24.3602 18.9241 24.2999 18.7211C24.2396 18.518 24.2442 18.3027 24.313 18.102C24.3817 17.9014 24.5117 17.7243 24.6867 17.5928C24.8617 17.4614 25.0738 17.3814 25.2967 17.3629L29.3785 17.0526L30.9531 13.4616C31.0384 13.2659 31.1834 13.0985 31.3699 12.9807C31.5563 12.8629 31.7757 12.8 32.0002 12.8C32.2247 12.8 32.4441 12.8629 32.6306 12.9807C32.817 13.0985 32.9621 13.2659 33.0473 13.4616L34.6212 17.0526L38.703 17.3629C38.9264 17.3807 39.1392 17.4603 39.3148 17.5915C39.4904 17.7228 39.6209 17.9 39.6902 18.1009C39.7594 18.3018 39.7641 18.5174 39.7038 18.7209C39.6436 18.9243 39.5209 19.1064 39.3513 19.2445L39.3554 19.2438Z" fill="white"/>
<path d="M53.6343 26.6447L51.115 27.7725L51.0712 30.4569C51.0693 30.6027 51.022 30.7435 50.9352 30.8615C50.8483 30.9794 50.7258 31.0692 50.5832 31.1195C50.4405 31.1699 50.2841 31.1784 50.1337 31.1442C49.9833 31.1099 49.8456 31.0343 49.7381 30.927L47.7775 28.9587L45.0939 29.6826C44.9473 29.7214 44.7906 29.7177 44.6435 29.672C44.4964 29.6263 44.3655 29.5407 44.2674 29.426C44.1693 29.3112 44.1082 29.1724 44.0919 29.0271C44.0756 28.8818 44.1049 28.7364 44.1759 28.6093L45.4825 26.2632L43.8646 24.0269C43.7767 23.9052 43.7277 23.7625 43.7238 23.6169C43.7199 23.4712 43.7612 23.329 43.8427 23.2079C43.9241 23.0868 44.042 22.9923 44.1817 22.9361C44.3213 22.8799 44.4765 22.8646 44.6279 22.892L47.3953 23.4125L49.0809 21.3068C49.1723 21.1919 49.2985 21.1065 49.4434 21.0615C49.5882 21.0164 49.7452 21.0136 49.8944 21.0536C50.0435 21.0936 50.1781 21.1744 50.281 21.2859C50.3839 21.3974 50.4505 21.5344 50.4723 21.6797L50.8788 24.3459L53.5356 25.2788C53.6809 25.3304 53.8081 25.4211 53.9014 25.5396C53.9947 25.658 54.0499 25.799 54.0602 25.9448C54.0704 26.0906 54.0351 26.2348 53.9589 26.3592C53.8826 26.4837 53.7687 26.5828 53.6314 26.6444L53.6343 26.6447Z" fill="white"/>
<path d="M10.3658 26.6447L12.885 27.7725L12.9288 30.4569C12.9307 30.6027 12.978 30.7435 13.0648 30.8615C13.1517 30.9794 13.2742 31.0692 13.4168 31.1195C13.5595 31.1699 13.7159 31.1784 13.8663 31.1442C14.0167 31.1099 14.1544 31.0343 14.2619 30.927L16.2225 28.9587L18.9061 29.6826C19.0527 29.7214 19.2094 29.7177 19.3565 29.672C19.5036 29.6263 19.6345 29.5407 19.7326 29.426C19.8307 29.3112 19.8918 29.1724 19.9081 29.0271C19.9244 28.8818 19.8951 28.7364 19.8241 28.6093L18.5175 26.2632L20.1354 24.0269C20.2233 23.9052 20.2723 23.7625 20.2762 23.6169C20.2801 23.4712 20.2388 23.329 20.1573 23.2079C20.0759 23.0868 19.958 22.9923 19.8183 22.9361C19.6787 22.8799 19.5235 22.8646 19.3721 22.892L16.6047 23.4125L14.9191 21.3068C14.8277 21.1919 14.7015 21.1065 14.5566 21.0615C14.4118 21.0164 14.2548 21.0136 14.1056 21.0536C13.9565 21.0936 13.8219 21.1744 13.719 21.2859C13.6161 21.3974 13.5495 21.5344 13.5277 21.6796L13.1212 24.3459L10.4644 25.2788C10.3191 25.3304 10.1919 25.4211 10.0986 25.5396C10.0053 25.658 9.95007 25.799 9.93985 25.9448C9.92962 26.0906 9.96486 26.2348 10.0411 26.3592C10.1174 26.4837 10.2313 26.5828 10.3686 26.6444L10.3658 26.6447Z" fill="white"/>
<rect x="11.5195" y="35.84" width="42.24" height="3.84" rx="1.92" fill="white"/>
<rect x="21.7617" y="42.24" width="21.76" height="3.84" rx="1.92" fill="white"/>
</svg>
