<svg width="68" height="4" viewBox="0 0 68 4" fill="none" xmlns="http://www.w3.org/2000/svg">
<path d="M0.456062 2.71257C0.323912 2.7236 0.201808 2.7867 0.116643 2.88836C0.0314767 2.98999 -0.00977385 3.12185 0.00193429 3.25457C0.0136424 3.38729 0.0773411 3.50989 0.178986 3.59505C0.280632 3.68022 0.411898 3.72097 0.543938 3.7087C0.543938 3.7087 0.543938 3.7087 0.543938 3.7087C1.62999 3.60766 2.7497 3.50644 3.88175 3.40656C23.923 1.77807 44.0455 0.0091393 64.1603 0.62145C65.2478 0.682398 66.4109 0.771141 67.4768 0.898868C67.526 0.904757 67.5755 0.890822 67.6146 0.860261C67.6537 0.829692 67.6791 0.785002 67.6852 0.735887C67.6913 0.686773 67.6777 0.637219 67.6473 0.597994C67.6169 0.558776 67.5723 0.5331 67.5232 0.526747C67.5232 0.526747 67.5232 0.526747 67.5232 0.526747C66.4472 0.387276 65.2775 0.287657 64.185 0.215951C44.0075 -0.585637 23.882 0.998305 3.80103 2.44118C2.66678 2.53079 1.54472 2.62176 0.456062 2.71257Z" fill="#FFF200"/>
</svg>
