<svg width="25" height="24" viewBox="0 0 25 24" fill="none" xmlns="http://www.w3.org/2000/svg">
<path opacity="0.2" d="M20.75 12C20.75 13.6317 20.2661 15.2268 19.3596 16.5835C18.4531 17.9402 17.1646 18.9976 15.6571 19.622C14.1497 20.2464 12.4909 20.4098 10.8905 20.0915C9.29017 19.7732 7.82016 18.9874 6.66637 17.8336C5.51259 16.6798 4.72685 15.2098 4.40853 13.6095C4.0902 12.0092 4.25357 10.3504 4.878 8.84286C5.50242 7.33537 6.55984 6.0469 7.91655 5.14038C9.27325 4.23385 10.8683 3.75 12.5 3.75C14.688 3.75 16.7865 4.61919 18.3336 6.16637C19.8808 7.71354 20.75 9.81196 20.75 12Z" fill="white"/>
<path d="M23.0005 5.24916V9.74916C23.0005 9.94807 22.9215 10.1388 22.7808 10.2795C22.6402 10.4201 22.4494 10.4992 22.2505 10.4992H17.7505C17.5516 10.4992 17.3608 10.4201 17.2202 10.2795C17.0795 10.1388 17.0005 9.94807 17.0005 9.74916C17.0005 9.55024 17.0795 9.35948 17.2202 9.21883C17.3608 9.07818 17.5516 8.99916 17.7505 8.99916H20.3192L17.8264 6.71541L17.803 6.69291C16.7606 5.65087 15.4342 4.93908 13.9896 4.64648C12.545 4.35388 11.0462 4.49342 9.6804 5.04769C8.31463 5.60195 7.14246 6.54636 6.31031 7.76293C5.47817 8.97951 5.02294 10.4143 5.00149 11.8881C4.98005 13.3619 5.39334 14.8093 6.18974 16.0496C6.98615 17.2899 8.13035 18.268 9.47941 18.8617C10.8285 19.4555 12.3226 19.6386 13.7751 19.3881C15.2276 19.1377 16.5741 18.4648 17.6464 17.4535C17.791 17.3168 17.984 17.2431 18.1829 17.2486C18.3819 17.2541 18.5705 17.3385 18.7072 17.4831C18.844 17.6276 18.9177 17.8206 18.9121 18.0196C18.9066 18.2185 18.8223 18.4071 18.6777 18.5438C17.0103 20.1252 14.7985 21.0043 12.5005 20.9992H12.3767C10.9028 20.979 9.45628 20.597 8.16446 19.8869C6.87265 19.1768 5.77504 18.1602 4.96811 16.9265C4.16118 15.6929 3.66964 14.2799 3.53668 12.8117C3.40373 11.3436 3.63343 9.8653 4.2056 8.50674C4.77777 7.14818 5.67489 5.95096 6.81811 5.02031C7.96133 4.08966 9.31566 3.45407 10.762 3.1694C12.2084 2.88474 13.7026 2.95971 15.1132 3.38774C16.5239 3.81576 17.8077 4.58374 18.8521 5.62416L21.5005 8.04291V5.24916C21.5005 5.05024 21.5795 4.85948 21.7202 4.71883C21.8608 4.57817 22.0516 4.49916 22.2505 4.49916C22.4494 4.49916 22.6402 4.57817 22.7808 4.71883C22.9215 4.85948 23.0005 5.05024 23.0005 5.24916Z" fill="white"/>
</svg>
