<svg width="25" height="24" viewBox="0 0 25 24" fill="none" xmlns="http://www.w3.org/2000/svg">
<path opacity="0.2" d="M8 13.5V17.25C8 17.6478 7.84196 18.0294 7.56066 18.3107C7.27936 18.592 6.89782 18.75 6.5 18.75H5C4.60218 18.75 4.22064 18.592 3.93934 18.3107C3.65804 18.0294 3.5 17.6478 3.5 17.25V12H6.5C6.89782 12 7.27936 12.158 7.56066 12.4393C7.84196 12.7206 8 13.1022 8 13.5ZM18.5 12C18.1022 12 17.7206 12.158 17.4393 12.4393C17.158 12.7206 17 13.1022 17 13.5V17.25C17 17.6478 17.158 18.0294 17.4393 18.3107C17.7206 18.592 18.1022 18.75 18.5 18.75H21.5V12H18.5Z" fill="white"/>
<path d="M19.4272 5.1244C18.0651 3.75433 16.3269 2.81944 14.433 2.4382C12.539 2.05697 10.5745 2.24655 8.78838 2.98292C7.00227 3.7193 5.47496 4.96931 4.39998 6.57457C3.32501 8.17983 2.75076 10.0681 2.75 12V17.25C2.75 17.8468 2.98705 18.4191 3.40901 18.841C3.83097 19.263 4.40326 19.5 5 19.5H6.5C7.09674 19.5 7.66903 19.263 8.09099 18.841C8.51295 18.4191 8.75 17.8468 8.75 17.25V13.5C8.75 12.9033 8.51295 12.331 8.09099 11.909C7.66903 11.4871 7.09674 11.25 6.5 11.25H4.28375C4.42839 9.68621 5.01578 8.19603 5.97709 6.95412C6.93839 5.71222 8.23377 4.77005 9.71141 4.23805C11.189 3.70605 12.7877 3.60626 14.32 3.95038C15.8524 4.29449 17.2548 5.06825 18.3631 6.18096C19.7177 7.54249 20.5509 9.33665 20.7172 11.25H18.5C17.9033 11.25 17.331 11.4871 16.909 11.909C16.4871 12.331 16.25 12.9033 16.25 13.5V17.25C16.25 17.8468 16.4871 18.4191 16.909 18.841C17.331 19.263 17.9033 19.5 18.5 19.5H20.75C20.75 20.0968 20.5129 20.6691 20.091 21.091C19.669 21.513 19.0967 21.75 18.5 21.75H13.25C13.0511 21.75 12.8603 21.829 12.7197 21.9697C12.579 22.1103 12.5 22.3011 12.5 22.5C12.5 22.6989 12.579 22.8897 12.7197 23.0304C12.8603 23.171 13.0511 23.25 13.25 23.25H18.5C19.4946 23.25 20.4484 22.8549 21.1517 22.1517C21.8549 21.4484 22.25 20.4946 22.25 19.5V12C22.2549 10.7246 22.0081 9.4608 21.5237 8.28095C21.0393 7.10111 20.3268 6.02844 19.4272 5.1244ZM6.5 12.75C6.69891 12.75 6.88968 12.829 7.03033 12.9697C7.17098 13.1103 7.25 13.3011 7.25 13.5V17.25C7.25 17.4489 7.17098 17.6397 7.03033 17.7804C6.88968 17.921 6.69891 18 6.5 18H5C4.80109 18 4.61032 17.921 4.46967 17.7804C4.32902 17.6397 4.25 17.4489 4.25 17.25V12.75H6.5ZM18.5 18C18.3011 18 18.1103 17.921 17.9697 17.7804C17.829 17.6397 17.75 17.4489 17.75 17.25V13.5C17.75 13.3011 17.829 13.1103 17.9697 12.9697C18.1103 12.829 18.3011 12.75 18.5 12.75H20.75V18H18.5Z" fill="white"/>
</svg>
