<svg width="24" height="24" viewBox="0 0 24 24" fill="none" xmlns="http://www.w3.org/2000/svg">
<mask id="mask0_3666_10937" style="mask-type:alpha" maskUnits="userSpaceOnUse" x="0" y="0" width="24" height="24">
<rect width="24" height="24" fill="#D9D9D9"/>
</mask>
<g mask="url(#mask0_3666_10937)">
<path d="M14.3484 8.54981C14.1484 8.04981 13.8526 7.65814 13.4609 7.3748C13.0693 7.09147 12.5984 6.94981 12.0484 6.94981C11.7484 6.94981 11.4568 6.99147 11.1734 7.07481C10.8901 7.15814 10.6318 7.31647 10.3984 7.54981L8.94844 6.0998C9.18177 5.86647 9.49844 5.65397 9.89844 5.4623C10.2984 5.27064 10.6651 5.1498 10.9984 5.0998V2.9998H12.9984V5.0498C13.7484 5.19981 14.4068 5.50397 14.9734 5.96231C15.5401 6.42064 15.9651 7.01647 16.2484 7.7498L14.3484 8.54981ZM19.7984 22.5998L15.1984 17.9998C14.9484 18.2498 14.6068 18.454 14.1734 18.6123C13.7401 18.7706 13.3484 18.8665 12.9984 18.8998V20.9998H10.9984V18.8498C10.0651 18.6165 9.28594 18.1915 8.66094 17.5748C8.03594 16.9581 7.58177 16.1831 7.29844 15.2498L9.29844 14.4498C9.49844 15.1498 9.83594 15.7498 10.3109 16.2498C10.7859 16.7498 11.4151 16.9998 12.1984 16.9998C12.4984 16.9998 12.7734 16.9623 13.0234 16.8873C13.2734 16.8123 13.5151 16.6998 13.7484 16.5498L1.39844 4.1998L2.79844 2.7998L21.1984 21.1998L19.7984 22.5998Z" fill="#FF0808"/>
</g>
</svg>
