<svg width="508" height="194" viewBox="0 0 508 194" fill="none" xmlns="http://www.w3.org/2000/svg">
<g filter="url(#filter0_i_4437_11167)">
<rect x="1" y="17" width="423" height="34" fill="#1F1F20"/>
<rect x="1" y="17" width="423" height="34" fill="url(#paint0_radial_4437_11167)" fill-opacity="0.3"/>
<rect x="1" y="17" width="423" height="34" fill="url(#paint1_radial_4437_11167)" fill-opacity="0.1"/>
<rect x="1" y="17" width="423" height="34" fill="url(#paint2_radial_4437_11167)" fill-opacity="0.2"/>
</g>
<rect x="1.5" y="17.5" width="422" height="33" stroke="url(#paint3_linear_4437_11167)" style="mix-blend-mode:overlay"/>
<g filter="url(#filter1_i_4437_11167)">
<rect x="1" y="58" width="354" height="34" fill="#1F1F20"/>
<rect x="1" y="58" width="354" height="34" fill="url(#paint4_radial_4437_11167)" fill-opacity="0.4"/>
</g>
<g clip-path="url(#clip0_4437_11167)">
<path d="M365 57H401V93H365V57Z" fill="#F3F3F3"/>
<path d="M366.562 58.5625H382.215V74.2147H366.562V58.5625Z" fill="#F35325"/>
<path d="M383.781 58.5625H399.433V74.2147H383.781V58.5625Z" fill="#81BC06"/>
<path d="M366.562 75.7812H382.215V91.4334H366.562V75.7812Z" fill="#05A6F0"/>
<path d="M383.781 75.7812H399.433V91.4334H383.781V75.7812Z" fill="#FFBA08"/>
</g>
<g filter="url(#filter2_i_4437_11167)">
<rect x="1" y="141" width="175" height="34" fill="#1F1F20"/>
<rect x="1" y="141" width="175" height="34" fill="url(#paint5_radial_4437_11167)" fill-opacity="0.4"/>
</g>
<g clip-path="url(#clip1_4437_11167)">
<path fill-rule="evenodd" clip-rule="evenodd" d="M238.776 165.35C239.268 165.553 240 165.683 240.973 165.742V166.149H230.004V165.742C230.972 165.683 231.705 165.553 232.205 165.35C232.696 165.153 233.035 164.834 233.222 164.394C233.417 163.964 233.514 163.325 233.514 162.478V149.233H233.426L225.898 166.545H225.81L217.74 149.283H217.652V162.478C217.652 163.325 217.753 163.964 217.955 164.394C218.15 164.834 218.489 165.153 218.973 165.35C219.465 165.553 220.193 165.683 221.159 165.742V166.149H212.793V165.742C213.761 165.683 214.491 165.553 214.983 165.35C215.464 165.153 215.802 164.834 215.997 164.394C216.201 163.964 216.304 163.325 216.304 162.478V149.194C216.304 148.347 216.201 147.703 215.997 147.263C215.802 146.83 215.464 146.517 214.983 146.322C214.491 146.12 213.761 145.988 212.793 145.926V145.523H220.306L227.158 160.469L233.818 145.523H240.973V145.926C240 145.988 239.268 146.12 238.776 146.322C238.277 146.517 237.93 146.839 237.735 147.29C237.53 147.73 237.432 148.365 237.44 149.194V162.478C237.432 163.325 237.53 163.964 237.735 164.394C237.93 164.834 238.277 165.153 238.776 165.35ZM203.756 157.151V162.478C203.756 163.307 203.875 163.942 204.113 164.383C204.359 164.831 204.757 165.153 205.308 165.35C205.868 165.553 206.712 165.683 207.839 165.742V166.149H196.32V165.742C197.296 165.683 198.025 165.553 198.509 165.35C198.998 165.153 199.342 164.834 199.539 164.394C199.733 163.964 199.831 163.325 199.831 162.478V149.283C199.831 146.575 198.609 146.019 196.743 146.019C194.696 146.019 193.436 146.564 193.436 149.194V163.953C193.436 167.282 191.262 170.458 186.979 170.458C186.649 170.458 186.323 170.437 186 170.396V170.039C187.018 169.974 187.844 169.632 188.466 168.995C189.16 168.293 189.507 167.141 189.507 165.539V149.194C189.507 148.365 189.409 147.725 189.215 147.274C189.012 146.834 188.666 146.513 188.174 146.31C187.682 146.116 186.958 145.988 186 145.926V145.508H206.325C210.95 145.508 213.811 147.823 213.811 151.303C213.811 155.297 209.897 157.151 206.387 157.151H203.756ZM203.756 156.364H205.169C207.585 156.364 209.617 154.951 209.617 151.33C209.617 146.921 206.694 146.31 205.246 146.31H203.756V156.364Z" fill="white"/>
</g>
<g filter="url(#filter3_i_4437_11167)">
<rect x="1" y="100" width="251" height="34" fill="#1F1F20"/>
<rect x="1" y="100" width="251" height="34" fill="url(#paint6_radial_4437_11167)" fill-opacity="0.4"/>
</g>
<g clip-path="url(#clip2_4437_11167)">
<path d="M279.051 112.135C279.051 112.867 279.13 113.461 279.268 113.896C279.426 114.331 279.623 114.806 279.9 115.32C279.998 115.478 280.038 115.636 280.038 115.775C280.038 115.973 279.919 116.17 279.663 116.368L278.419 117.199C278.242 117.318 278.064 117.377 277.906 117.377C277.709 117.377 277.512 117.278 277.314 117.1C277.038 116.803 276.801 116.487 276.604 116.17C276.406 115.834 276.209 115.458 275.992 115.003C274.452 116.823 272.518 117.733 270.189 117.733C268.531 117.733 267.209 117.258 266.242 116.309C265.275 115.359 264.781 114.093 264.781 112.511C264.781 110.83 265.373 109.465 266.577 108.436C267.781 107.408 269.38 106.893 271.413 106.893C272.084 106.893 272.775 106.953 273.505 107.052C274.235 107.151 274.985 107.309 275.775 107.487V106.043C275.775 104.54 275.459 103.491 274.847 102.878C274.215 102.265 273.15 101.968 271.63 101.968C270.939 101.968 270.229 102.047 269.498 102.225C268.768 102.403 268.058 102.621 267.367 102.898C267.051 103.036 266.814 103.115 266.676 103.155C266.538 103.195 266.439 103.214 266.36 103.214C266.084 103.214 265.946 103.017 265.946 102.601V101.632C265.946 101.315 265.985 101.078 266.084 100.94C266.183 100.801 266.36 100.663 266.637 100.524C267.327 100.168 268.156 99.8715 269.123 99.6341C270.09 99.377 271.117 99.2583 272.202 99.2583C274.551 99.2583 276.268 99.7924 277.373 100.861C278.459 101.929 279.012 103.551 279.012 105.726V112.135H279.051ZM271.038 115.142C271.689 115.142 272.36 115.023 273.071 114.786C273.781 114.548 274.413 114.113 274.946 113.52C275.262 113.144 275.498 112.729 275.617 112.254C275.735 111.779 275.814 111.206 275.814 110.533V109.702C275.242 109.564 274.63 109.445 273.998 109.366C273.367 109.287 272.755 109.247 272.143 109.247C270.821 109.247 269.854 109.504 269.202 110.039C268.551 110.573 268.235 111.324 268.235 112.313C268.235 113.243 268.472 113.935 268.965 114.41C269.439 114.904 270.13 115.142 271.038 115.142ZM286.887 117.278C286.531 117.278 286.294 117.219 286.137 117.08C285.979 116.962 285.84 116.685 285.722 116.309L281.084 101.019C280.965 100.623 280.906 100.366 280.906 100.228C280.906 99.9111 281.064 99.733 281.38 99.733H283.314C283.689 99.733 283.946 99.7924 284.084 99.9308C284.242 100.05 284.36 100.326 284.479 100.702L287.794 113.797L290.873 100.702C290.972 100.307 291.09 100.05 291.248 99.9308C291.406 99.8122 291.683 99.733 292.038 99.733H293.617C293.992 99.733 294.248 99.7924 294.406 99.9308C294.564 100.05 294.702 100.326 294.781 100.702L297.9 113.955L301.314 100.702C301.433 100.307 301.571 100.05 301.709 99.9308C301.867 99.8122 302.123 99.733 302.479 99.733H304.314C304.63 99.733 304.808 99.8913 304.808 100.228C304.808 100.326 304.788 100.425 304.768 100.544C304.748 100.663 304.709 100.821 304.63 101.039L299.873 116.329C299.755 116.724 299.617 116.981 299.459 117.1C299.301 117.219 299.044 117.298 298.709 117.298H297.012C296.637 117.298 296.38 117.239 296.222 117.1C296.064 116.962 295.926 116.704 295.847 116.309L292.788 103.551L289.748 116.289C289.65 116.685 289.531 116.942 289.373 117.08C289.215 117.219 288.939 117.278 288.584 117.278H286.887ZM312.248 117.812C311.222 117.812 310.196 117.693 309.209 117.456C308.222 117.219 307.452 116.962 306.939 116.665C306.623 116.487 306.406 116.289 306.327 116.111C306.248 115.933 306.209 115.735 306.209 115.557V114.548C306.209 114.133 306.367 113.935 306.663 113.935C306.781 113.935 306.9 113.955 307.018 113.995C307.137 114.034 307.314 114.113 307.512 114.192C308.183 114.489 308.913 114.726 309.683 114.885C310.472 115.043 311.242 115.122 312.031 115.122C313.275 115.122 314.242 114.904 314.913 114.469C315.584 114.034 315.939 113.401 315.939 112.59C315.939 112.036 315.762 111.581 315.406 111.206C315.051 110.83 314.38 110.493 313.413 110.177L310.551 109.287C309.11 108.832 308.044 108.159 307.393 107.269C306.742 106.399 306.406 105.43 306.406 104.401C306.406 103.57 306.584 102.839 306.939 102.206C307.294 101.573 307.768 101.019 308.36 100.584C308.952 100.129 309.623 99.7924 310.413 99.555C311.202 99.3177 312.031 99.2188 312.9 99.2188C313.334 99.2188 313.788 99.2385 314.222 99.2979C314.676 99.3572 315.09 99.4363 315.505 99.5155C315.9 99.6144 316.275 99.7133 316.63 99.8319C316.985 99.9506 317.262 100.069 317.459 100.188C317.735 100.346 317.933 100.504 318.051 100.682C318.169 100.841 318.229 101.058 318.229 101.335V102.265C318.229 102.68 318.071 102.898 317.775 102.898C317.617 102.898 317.36 102.819 317.025 102.661C315.9 102.146 314.637 101.889 313.235 101.889C312.11 101.889 311.222 102.067 310.61 102.443C309.998 102.819 309.683 103.392 309.683 104.203C309.683 104.757 309.88 105.232 310.275 105.608C310.669 105.984 311.4 106.359 312.446 106.696L315.248 107.586C316.669 108.041 317.696 108.674 318.308 109.485C318.919 110.296 319.215 111.225 319.215 112.254C319.215 113.104 319.038 113.876 318.702 114.548C318.347 115.221 317.873 115.814 317.262 116.289C316.65 116.784 315.919 117.14 315.071 117.397C314.183 117.674 313.255 117.812 312.248 117.812Z" fill="white"/>
<path fill-rule="evenodd" clip-rule="evenodd" d="M315.979 127.428C309.486 132.235 300.052 134.786 291.94 134.786C280.571 134.786 270.328 130.573 262.591 123.571C261.979 123.017 262.532 122.265 263.262 122.7C271.63 127.566 281.953 130.514 292.63 130.514C299.834 130.514 307.749 129.01 315.032 125.925C316.117 125.43 317.045 126.637 315.979 127.428Z" fill="#FF9900"/>
<path fill-rule="evenodd" clip-rule="evenodd" d="M318.681 124.34C317.852 123.271 313.194 123.825 311.082 124.082C310.451 124.162 310.352 123.608 310.925 123.192C314.635 120.581 320.734 121.333 321.444 122.203C322.155 123.093 321.247 129.206 317.773 132.133C317.24 132.588 316.727 132.351 316.964 131.757C317.753 129.799 319.51 125.388 318.681 124.34Z" fill="#FF9900"/>
</g>
<path d="M1 0L0.999992 194" stroke="#454545"/>
<g clip-path="url(#clip3_4437_11167)">
<path d="M451.48 45.1875H439V46.9979H451.48V45.1875Z" fill="#1F70C1"/>
<path d="M451.48 41.7266H439V43.5369H451.48V41.7266Z" fill="#1F70C1"/>
<path d="M447.916 38.2734H442.562V40.0838H447.916V38.2734Z" fill="#1F70C1"/>
<path d="M447.916 34.8203H442.562V36.6307H447.916V34.8203Z" fill="#1F70C1"/>
<path d="M447.916 31.3672H442.562V33.1776H447.916V31.3672Z" fill="#1F70C1"/>
<path d="M447.916 27.9062H442.562V29.7166H447.916V27.9062Z" fill="#1F70C1"/>
<path d="M451.48 24.4531H439V26.2635H451.48V24.4531Z" fill="#1F70C1"/>
<path d="M451.48 21H439V22.8104H451.48V21Z" fill="#1F70C1"/>
<path d="M453.258 46.9786L466.551 46.9979C468.332 46.9979 469.94 46.3046 471.142 45.1875H453.258L453.258 46.9786Z" fill="#1F70C1"/>
<path d="M453.258 43.5369H472.451C472.776 42.9784 473.017 42.3685 473.163 41.7266H453.258L453.258 43.5369Z" fill="#1F70C1"/>
<path d="M462.167 38.2734H456.82V40.0838H462.167V38.2734Z" fill="#1F70C1"/>
<path d="M467.523 38.2734V40.0838H473.36C473.36 39.4611 473.277 38.8513 473.118 38.2734H467.523Z" fill="#1F70C1"/>
<path d="M470.953 34.8203H456.82V36.6307H472.447C472.04 35.9373 471.538 35.3275 470.953 34.8203H470.953Z" fill="#1F70C1"/>
<path d="M456.82 31.3672V33.1776H470.953C471.551 32.6704 472.053 32.0605 472.447 31.3672H456.82Z" fill="#1F70C1"/>
<path d="M462.167 27.9062H456.82V29.7166H462.167V27.9062Z" fill="#1F70C1"/>
<path d="M467.523 29.7166H473.118C473.277 29.1389 473.36 28.529 473.36 27.9062H467.523V29.7166Z" fill="#1F70C1"/>
<path d="M472.451 24.4531H453.258V26.2635H473.163C472.998 25.6215 472.756 25.0117 472.451 24.4531H472.451Z" fill="#1F70C1"/>
<path d="M466.551 21H453.258V22.8104H471.136C469.94 21.6933 468.319 21 466.552 21H466.551Z" fill="#1F70C1"/>
<path d="M474.656 26.2635H486.665L486.049 24.4531H474.656V26.2635Z" fill="#1F70C1"/>
<path d="M474.656 22.8104H485.483L484.866 21H474.656V22.8104Z" fill="#1F70C1"/>
<path d="M494.266 46.9977V45.1875H503.186V46.9977H494.266Z" fill="#1F70C1"/>
<path d="M494.266 43.5368V41.7266H503.186V43.5368H494.266Z" fill="#1F70C1"/>
<path d="M488.919 32.8307L488.417 31.3672H483.572H478.219V33.1774H483.572V31.515L484.138 33.1774H493.7L494.265 31.515V33.1774H499.618V31.3672H494.265H489.421L488.919 32.8307Z" fill="#1F70C1"/>
<path d="M499.616 27.9062H490.601L489.984 29.7165H499.616V27.9062Z" fill="#1F70C1"/>
<path d="M503.186 22.8104V21H492.976L492.359 22.8104H503.186Z" fill="#1F70C1"/>
<path d="M488.297 45.1875L488.913 46.9783L489.53 45.1875H488.297Z" fill="#1F70C1"/>
<path d="M487.102 41.7266L487.731 43.5368H490.096L490.732 41.7266H487.102Z" fill="#1F70C1"/>
<path d="M485.898 38.2734L486.528 40.0837H491.296L491.926 38.2734H485.898Z" fill="#1F70C1"/>
<path d="M485.336 36.6306H492.501L493.111 34.8203H484.719L485.336 36.6306Z" fill="#1F70C1"/>
<path d="M478.219 29.7165H487.851L487.234 27.9062H478.219V29.7165Z" fill="#1F70C1"/>
<path d="M503.181 24.4531H491.782L491.172 26.2635H503.181V24.4531Z" fill="#1F70C1"/>
<path d="M483.576 45.1875H474.656V46.9979H483.576V45.1875Z" fill="#1F70C1"/>
<path d="M483.576 41.7266H474.656V43.5369H483.576V41.7266Z" fill="#1F70C1"/>
<path d="M483.572 38.2734H478.219V40.0838H483.572V38.2734Z" fill="#1F70C1"/>
<path d="M483.572 34.8203H478.219V36.6307H483.572V34.8203Z" fill="#1F70C1"/>
<path d="M499.619 34.8203H494.266V36.6307H499.619V34.8203Z" fill="#1F70C1"/>
<path d="M499.619 38.2734H494.266V40.0838H499.619V38.2734Z" fill="#1F70C1"/>
<path d="M506.521 44.1484C506.147 44.1484 505.788 44.2987 505.523 44.5661C505.258 44.8335 505.109 45.1962 505.109 45.5743C505.109 45.9525 505.258 46.3152 505.523 46.5826C505.788 46.85 506.147 47.0002 506.521 47.0002C506.896 47.0002 507.255 46.85 507.52 46.5826C507.785 46.3152 507.934 45.9525 507.934 45.5743C507.934 45.1962 507.785 44.8335 507.52 44.5661C507.255 44.2987 506.896 44.1484 506.521 44.1484ZM506.521 44.4077C506.828 44.4077 507.122 44.5306 507.338 44.7494C507.555 44.9682 507.677 45.2649 507.677 45.5743C507.677 45.8838 507.555 46.1805 507.338 46.3993C507.122 46.6181 506.828 46.741 506.521 46.741C506.215 46.741 505.921 46.6181 505.705 46.3993C505.488 46.1805 505.366 45.8838 505.366 45.5743C505.366 45.2649 505.488 44.9682 505.705 44.7494C505.921 44.5306 506.215 44.4077 506.521 44.4077ZM505.921 44.848V46.3007H506.271V45.7997H506.47L506.738 46.3007H507.121L506.799 45.7445C506.957 45.682 507.06 45.536 507.06 45.307C507.06 45.0424 506.895 44.848 506.573 44.848H505.921ZM506.271 45.126H506.532C506.642 45.126 506.703 45.1746 506.703 45.2786V45.3832C506.703 45.4872 506.642 45.5361 506.532 45.5361H506.271V45.126Z" fill="#1F70C1"/>
</g>
<defs>
<filter id="filter0_i_4437_11167" x="1" y="17" width="423" height="34" filterUnits="userSpaceOnUse" color-interpolation-filters="sRGB">
<feFlood flood-opacity="0" result="BackgroundImageFix"/>
<feBlend mode="normal" in="SourceGraphic" in2="BackgroundImageFix" result="shape"/>
<feColorMatrix in="SourceAlpha" type="matrix" values="0 0 0 0 0 0 0 0 0 0 0 0 0 0 0 0 0 0 127 0" result="hardAlpha"/>
<feOffset/>
<feGaussianBlur stdDeviation="3"/>
<feComposite in2="hardAlpha" operator="arithmetic" k2="-1" k3="1"/>
<feColorMatrix type="matrix" values="0 0 0 0 1 0 0 0 0 1 0 0 0 0 1 0 0 0 0.15 0"/>
<feBlend mode="normal" in2="shape" result="effect1_innerShadow_4437_11167"/>
</filter>
<filter id="filter1_i_4437_11167" x="1" y="58" width="354" height="34" filterUnits="userSpaceOnUse" color-interpolation-filters="sRGB">
<feFlood flood-opacity="0" result="BackgroundImageFix"/>
<feBlend mode="normal" in="SourceGraphic" in2="BackgroundImageFix" result="shape"/>
<feColorMatrix in="SourceAlpha" type="matrix" values="0 0 0 0 0 0 0 0 0 0 0 0 0 0 0 0 0 0 127 0" result="hardAlpha"/>
<feOffset/>
<feGaussianBlur stdDeviation="3"/>
<feComposite in2="hardAlpha" operator="arithmetic" k2="-1" k3="1"/>
<feColorMatrix type="matrix" values="0 0 0 0 1 0 0 0 0 1 0 0 0 0 1 0 0 0 0.15 0"/>
<feBlend mode="normal" in2="shape" result="effect1_innerShadow_4437_11167"/>
</filter>
<filter id="filter2_i_4437_11167" x="1" y="141" width="175" height="34" filterUnits="userSpaceOnUse" color-interpolation-filters="sRGB">
<feFlood flood-opacity="0" result="BackgroundImageFix"/>
<feBlend mode="normal" in="SourceGraphic" in2="BackgroundImageFix" result="shape"/>
<feColorMatrix in="SourceAlpha" type="matrix" values="0 0 0 0 0 0 0 0 0 0 0 0 0 0 0 0 0 0 127 0" result="hardAlpha"/>
<feOffset/>
<feGaussianBlur stdDeviation="3"/>
<feComposite in2="hardAlpha" operator="arithmetic" k2="-1" k3="1"/>
<feColorMatrix type="matrix" values="0 0 0 0 1 0 0 0 0 1 0 0 0 0 1 0 0 0 0.15 0"/>
<feBlend mode="normal" in2="shape" result="effect1_innerShadow_4437_11167"/>
</filter>
<filter id="filter3_i_4437_11167" x="1" y="100" width="251" height="34" filterUnits="userSpaceOnUse" color-interpolation-filters="sRGB">
<feFlood flood-opacity="0" result="BackgroundImageFix"/>
<feBlend mode="normal" in="SourceGraphic" in2="BackgroundImageFix" result="shape"/>
<feColorMatrix in="SourceAlpha" type="matrix" values="0 0 0 0 0 0 0 0 0 0 0 0 0 0 0 0 0 0 127 0" result="hardAlpha"/>
<feOffset/>
<feGaussianBlur stdDeviation="3"/>
<feComposite in2="hardAlpha" operator="arithmetic" k2="-1" k3="1"/>
<feColorMatrix type="matrix" values="0 0 0 0 1 0 0 0 0 1 0 0 0 0 1 0 0 0 0.15 0"/>
<feBlend mode="normal" in2="shape" result="effect1_innerShadow_4437_11167"/>
</filter>
<radialGradient id="paint0_radial_4437_11167" cx="0" cy="0" r="1" gradientUnits="userSpaceOnUse" gradientTransform="translate(212.5 17) rotate(90) scale(34 423)">
<stop stop-color="#FFF30C"/>
<stop offset="1" stop-opacity="0"/>
</radialGradient>
<radialGradient id="paint1_radial_4437_11167" cx="0" cy="0" r="1" gradientUnits="userSpaceOnUse" gradientTransform="translate(212.5 17) rotate(90) scale(38.25 475.875)">
<stop stop-opacity="0"/>
<stop offset="1" stop-color="#FFF30C"/>
</radialGradient>
<radialGradient id="paint2_radial_4437_11167" cx="0" cy="0" r="1" gradientUnits="userSpaceOnUse" gradientTransform="translate(416.5 17) rotate(175.321) scale(410.308 111.186)">
<stop stop-color="#FFF200"/>
<stop offset="1" stop-color="#202020" stop-opacity="0"/>
</radialGradient>
<linearGradient id="paint3_linear_4437_11167" x1="212.5" y1="17" x2="212.5" y2="51" gradientUnits="userSpaceOnUse">
<stop stop-color="white"/>
<stop offset="1" stop-color="#C7C7C7"/>
</linearGradient>
<radialGradient id="paint4_radial_4437_11167" cx="0" cy="0" r="1" gradientUnits="userSpaceOnUse" gradientTransform="translate(178 58) rotate(90) scale(34 354)">
<stop stop-color="#AEAEAE"/>
<stop offset="1" stop-opacity="0"/>
</radialGradient>
<radialGradient id="paint5_radial_4437_11167" cx="0" cy="0" r="1" gradientUnits="userSpaceOnUse" gradientTransform="translate(88.5 141) rotate(90) scale(34 175)">
<stop stop-color="#AEAEAE"/>
<stop offset="1" stop-opacity="0"/>
</radialGradient>
<radialGradient id="paint6_radial_4437_11167" cx="0" cy="0" r="1" gradientUnits="userSpaceOnUse" gradientTransform="translate(126.5 100) rotate(90) scale(34 251)">
<stop stop-color="#AEAEAE"/>
<stop offset="1" stop-opacity="0"/>
</radialGradient>
<clipPath id="clip0_4437_11167">
<rect width="36" height="36" fill="white" transform="translate(365 57)"/>
</clipPath>
<clipPath id="clip1_4437_11167">
<rect width="55" height="25" fill="white" transform="translate(186 145.5)"/>
</clipPath>
<clipPath id="clip2_4437_11167">
<rect width="60" height="36" fill="white" transform="translate(262 99)"/>
</clipPath>
<clipPath id="clip3_4437_11167">
<rect width="69" height="26" fill="white" transform="translate(439 21)"/>
</clipPath>
</defs>
</svg>
