<svg width="612" height="413" viewBox="0 0 612 413" fill="none" xmlns="http://www.w3.org/2000/svg">
<path d="M16.1566 410.194C15.3379 410.194 14.6353 409.987 14.0487 409.572C13.4653 409.155 13.0162 408.553 12.7013 407.768C12.3898 406.979 12.234 406.029 12.234 404.919C12.2373 403.809 12.3948 402.864 12.7063 402.085C13.0212 401.303 13.4703 400.706 14.0536 400.295C14.6403 399.884 15.3413 399.679 16.1566 399.679C16.9719 399.679 17.6729 399.884 18.2596 400.295C18.8462 400.706 19.2953 401.303 19.6069 402.085C19.9218 402.867 20.0792 403.812 20.0792 404.919C20.0792 406.033 19.9218 406.984 19.6069 407.773C19.2953 408.558 18.8462 409.158 18.2596 409.572C17.6763 409.987 16.9753 410.194 16.1566 410.194ZM16.1566 408.638C16.793 408.638 17.2951 408.325 17.663 407.698C18.0342 407.068 18.2198 406.142 18.2198 404.919C18.2198 404.11 18.1353 403.431 17.9663 402.881C17.7972 402.33 17.5586 401.916 17.2504 401.638C16.9421 401.356 16.5775 401.215 16.1566 401.215C15.5236 401.215 15.0231 401.53 14.6552 402.16C14.2873 402.786 14.1017 403.706 14.0984 404.919C14.0951 405.731 14.1763 406.414 14.342 406.967C14.511 407.521 14.7496 407.938 15.0579 408.22C15.3661 408.499 15.7324 408.638 16.1566 408.638ZM25.3031 410V399.818H27.1475V408.454H31.6319V410H25.3031ZM33.2328 410V399.818H37.051C37.8332 399.818 38.4894 399.964 39.0197 400.256C39.5533 400.547 39.956 400.948 40.2278 401.459C40.5029 401.966 40.6404 402.543 40.6404 403.189C40.6404 403.842 40.5029 404.422 40.2278 404.929C39.9527 405.436 39.5467 405.835 39.0098 406.127C38.4728 406.415 37.8116 406.56 37.0261 406.56H34.4956V405.043H36.7775C37.2349 405.043 37.6094 404.964 37.9011 404.805C38.1928 404.646 38.4082 404.427 38.5474 404.148C38.6899 403.87 38.7612 403.55 38.7612 403.189C38.7612 402.828 38.6899 402.509 38.5474 402.234C38.4082 401.959 38.1911 401.746 37.8961 401.593C37.6045 401.437 37.2283 401.359 36.7676 401.359H35.0772V410H33.2328ZM42.4153 410H40.4466L44.0311 399.818H46.3081L49.8975 410H47.9288L45.2093 401.906H45.1298L42.4153 410ZM42.4799 406.008H47.8493V407.489H42.4799V406.008Z" fill="#8A8A8A"/>
<path d="M90.8771 408.111V406.644L95.1974 399.818H96.4205V401.906H95.6747L92.7663 406.515V406.594H98.7969V408.111H90.8771ZM95.7344 410V407.663L95.7543 407.007V399.818H97.4943V410H95.7344ZM103.957 410V399.818H105.802V408.454H110.286V410H103.957ZM111.887 410V399.818H115.705C116.487 399.818 117.144 399.964 117.674 400.256C118.208 400.547 118.61 400.948 118.882 401.459C119.157 401.966 119.295 402.543 119.295 403.189C119.295 403.842 119.157 404.422 118.882 404.929C118.607 405.436 118.201 405.835 117.664 406.127C117.127 406.415 116.466 406.56 115.68 406.56H113.15V405.043H115.432C115.889 405.043 116.264 404.964 116.555 404.805C116.847 404.646 117.063 404.427 117.202 404.148C117.344 403.87 117.415 403.55 117.415 403.189C117.415 402.828 117.344 402.509 117.202 402.234C117.063 401.959 116.845 401.746 116.55 401.593C116.259 401.437 115.883 401.359 115.422 401.359H113.732V410H111.887ZM121.07 410H119.101L122.685 399.818H124.962L128.552 410H126.583L123.864 401.906H123.784L121.07 410ZM121.134 406.008H126.504V407.489H121.134V406.008Z" fill="#8A8A8A"/>
<path d="M173.344 410.139C172.605 410.139 171.949 410.015 171.376 409.766C170.806 409.518 170.358 409.178 170.033 408.747C169.712 408.313 169.553 407.821 169.556 407.271C169.553 406.843 169.646 406.45 169.835 406.092C170.023 405.734 170.279 405.436 170.6 405.197C170.925 404.955 171.286 404.801 171.684 404.735V404.665C171.16 404.549 170.736 404.283 170.411 403.865C170.09 403.444 169.931 402.959 169.934 402.408C169.931 401.885 170.076 401.417 170.371 401.006C170.666 400.595 171.071 400.272 171.585 400.037C172.098 399.798 172.685 399.679 173.344 399.679C173.997 399.679 174.579 399.798 175.089 400.037C175.603 400.272 176.008 400.595 176.303 401.006C176.601 401.417 176.75 401.885 176.75 402.408C176.75 402.959 176.586 403.444 176.258 403.865C175.933 404.283 175.514 404.549 175 404.665V404.735C175.398 404.801 175.756 404.955 176.074 405.197C176.395 405.436 176.651 405.734 176.839 406.092C177.032 406.45 177.128 406.843 177.128 407.271C177.128 407.821 176.965 408.313 176.641 408.747C176.316 409.178 175.868 409.518 175.298 409.766C174.732 410.015 174.08 410.139 173.344 410.139ZM173.344 408.717C173.726 408.717 174.057 408.653 174.339 408.523C174.621 408.391 174.839 408.205 174.995 407.967C175.151 407.728 175.23 407.453 175.234 407.141C175.23 406.817 175.146 406.53 174.98 406.281C174.818 406.029 174.594 405.832 174.309 405.69C174.027 405.547 173.706 405.476 173.344 405.476C172.98 405.476 172.655 405.547 172.37 405.69C172.085 405.832 171.86 406.029 171.694 406.281C171.531 406.53 171.452 406.817 171.455 407.141C171.452 407.453 171.528 407.728 171.684 407.967C171.84 408.202 172.058 408.386 172.34 408.518C172.625 408.651 172.96 408.717 173.344 408.717ZM173.344 404.079C173.656 404.079 173.931 404.016 174.17 403.89C174.412 403.764 174.602 403.588 174.741 403.363C174.881 403.138 174.952 402.877 174.955 402.582C174.952 402.291 174.882 402.036 174.746 401.817C174.611 401.595 174.422 401.424 174.18 401.305C173.938 401.182 173.659 401.121 173.344 401.121C173.023 401.121 172.74 401.182 172.494 401.305C172.252 401.424 172.063 401.595 171.928 401.817C171.795 402.036 171.73 402.291 171.734 402.582C171.73 402.877 171.797 403.138 171.933 403.363C172.072 403.585 172.262 403.761 172.504 403.89C172.75 404.016 173.03 404.079 173.344 404.079ZM179.59 410.109C179.288 410.109 179.03 410.003 178.814 409.791C178.599 409.579 178.493 409.321 178.496 409.016C178.493 408.717 178.599 408.462 178.814 408.25C179.03 408.038 179.288 407.932 179.59 407.932C179.882 407.932 180.135 408.038 180.351 408.25C180.569 408.462 180.68 408.717 180.684 409.016C180.68 409.218 180.627 409.402 180.525 409.567C180.425 409.733 180.293 409.866 180.127 409.965C179.965 410.061 179.786 410.109 179.59 410.109ZM185.939 410.139C185.276 410.139 184.683 410.015 184.159 409.766C183.635 409.514 183.219 409.17 182.911 408.732C182.606 408.295 182.444 407.794 182.424 407.231H184.214C184.247 407.648 184.427 407.99 184.756 408.255C185.084 408.517 185.478 408.648 185.939 408.648C186.3 408.648 186.622 408.565 186.903 408.399C187.185 408.233 187.407 408.003 187.569 407.708C187.732 407.413 187.811 407.077 187.808 406.699C187.811 406.314 187.73 405.973 187.564 405.675C187.399 405.376 187.172 405.143 186.883 404.974C186.595 404.801 186.264 404.715 185.889 404.715C185.584 404.712 185.284 404.768 184.989 404.884C184.694 405 184.461 405.153 184.288 405.342L182.623 405.068L183.155 399.818H189.061V401.359H184.681L184.388 404.059H184.447C184.636 403.837 184.903 403.653 185.248 403.507C185.592 403.358 185.97 403.283 186.381 403.283C186.998 403.283 187.548 403.429 188.032 403.721C188.516 404.009 188.897 404.407 189.175 404.914C189.454 405.421 189.593 406.001 189.593 406.654C189.593 407.327 189.437 407.927 189.126 408.454C188.817 408.978 188.388 409.39 187.838 409.692C187.291 409.99 186.658 410.139 185.939 410.139ZM194.83 410V399.818H196.675V408.454H201.159V410H194.83ZM202.76 410V399.818H206.578C207.36 399.818 208.017 399.964 208.547 400.256C209.081 400.547 209.483 400.948 209.755 401.459C210.03 401.966 210.168 402.543 210.168 403.189C210.168 403.842 210.03 404.422 209.755 404.929C209.48 405.436 209.074 405.835 208.537 406.127C208 406.415 207.339 406.56 206.553 406.56H204.023V405.043H206.305C206.762 405.043 207.137 404.964 207.428 404.805C207.72 404.646 207.936 404.427 208.075 404.148C208.217 403.87 208.289 403.55 208.289 403.189C208.289 402.828 208.217 402.509 208.075 402.234C207.936 401.959 207.718 401.746 207.423 401.593C207.132 401.437 206.756 401.359 206.295 401.359H204.605V410H202.76ZM211.943 410H209.974L213.558 399.818H215.835L219.425 410H217.456L214.737 401.906H214.657L211.943 410ZM212.007 406.008H217.377V407.489H212.007V406.008Z" fill="#FFF200"/>
<path d="M264.534 399.818V410H262.69V401.613H262.63L260.249 403.134V401.444L262.779 399.818H264.534ZM267.12 410V408.668L270.654 405.202C270.993 404.861 271.274 404.558 271.5 404.293C271.725 404.027 271.894 403.771 272.007 403.522C272.119 403.273 272.176 403.008 272.176 402.727C272.176 402.405 272.103 402.13 271.957 401.901C271.811 401.669 271.611 401.49 271.355 401.364C271.1 401.238 270.81 401.175 270.485 401.175C270.151 401.175 269.857 401.245 269.605 401.384C269.354 401.52 269.158 401.714 269.019 401.966C268.883 402.218 268.815 402.518 268.815 402.866H267.06C267.06 402.219 267.208 401.658 267.502 401.18C267.797 400.703 268.203 400.334 268.721 400.072C269.241 399.81 269.837 399.679 270.51 399.679C271.193 399.679 271.793 399.807 272.31 400.062C272.827 400.317 273.228 400.667 273.513 401.111C273.801 401.555 273.946 402.062 273.946 402.632C273.946 403.013 273.873 403.388 273.727 403.756C273.581 404.124 273.324 404.531 272.956 404.979C272.592 405.426 272.08 405.968 271.42 406.604L269.665 408.389V408.459H274.1V410H267.12ZM279.387 410V399.818H281.232V408.454H285.716V410H279.387ZM287.317 410V399.818H291.135C291.917 399.818 292.573 399.964 293.104 400.256C293.637 400.547 294.04 400.948 294.312 401.459C294.587 401.966 294.724 402.543 294.724 403.189C294.724 403.842 294.587 404.422 294.312 404.929C294.037 405.436 293.631 405.835 293.094 406.127C292.557 406.415 291.896 406.56 291.11 406.56H288.58V405.043H290.862C291.319 405.043 291.693 404.964 291.985 404.805C292.277 404.646 292.492 404.427 292.631 404.148C292.774 403.87 292.845 403.55 292.845 403.189C292.845 402.828 292.774 402.509 292.631 402.234C292.492 401.959 292.275 401.746 291.98 401.593C291.688 401.437 291.312 401.359 290.852 401.359H289.161V410H287.317ZM296.499 410H294.531L298.115 399.818H300.392L303.982 410H302.013L299.293 401.906H299.214L296.499 410ZM296.564 406.008H301.933V407.489H296.564V406.008Z" fill="#8A8A8A"/>
<path d="M349.202 399.818V410H347.358V401.613H347.298L344.917 403.134V401.444L347.447 399.818H349.202ZM355.516 410.139C355.029 410.136 354.554 410.051 354.089 409.886C353.625 409.717 353.208 409.443 352.837 409.065C352.465 408.684 352.17 408.179 351.952 407.549C351.733 406.916 351.625 406.132 351.629 405.197C351.629 404.326 351.721 403.549 351.907 402.866C352.093 402.183 352.359 401.606 352.707 401.136C353.055 400.662 353.475 400.3 353.965 400.052C354.459 399.803 355.011 399.679 355.621 399.679C356.26 399.679 356.827 399.805 357.321 400.057C357.818 400.309 358.219 400.653 358.524 401.091C358.829 401.525 359.018 402.016 359.091 402.562H357.276C357.183 402.171 356.993 401.86 356.705 401.628C356.42 401.393 356.058 401.275 355.621 401.275C354.915 401.275 354.371 401.581 353.99 402.195C353.612 402.808 353.422 403.65 353.418 404.72H353.488C353.65 404.429 353.861 404.178 354.119 403.969C354.378 403.761 354.67 403.6 354.994 403.487C355.322 403.371 355.669 403.313 356.033 403.313C356.63 403.313 357.165 403.456 357.639 403.741C358.116 404.026 358.494 404.419 358.773 404.919C359.051 405.416 359.189 405.986 359.185 406.629C359.189 407.299 359.036 407.9 358.728 408.434C358.42 408.964 357.991 409.382 357.44 409.687C356.89 409.992 356.249 410.143 355.516 410.139ZM355.506 408.648C355.868 408.648 356.191 408.56 356.476 408.384C356.761 408.209 356.986 407.972 357.152 407.673C357.318 407.375 357.399 407.04 357.396 406.669C357.399 406.304 357.319 405.975 357.157 405.68C356.998 405.385 356.777 405.151 356.496 404.979C356.214 404.806 355.893 404.72 355.531 404.72C355.263 404.72 355.013 404.772 354.781 404.874C354.549 404.977 354.346 405.12 354.174 405.302C354.002 405.481 353.866 405.69 353.766 405.928C353.67 406.164 353.621 406.415 353.617 406.684C353.621 407.039 353.703 407.365 353.866 407.663C354.028 407.962 354.252 408.2 354.537 408.379C354.822 408.558 355.145 408.648 355.506 408.648ZM361.557 410.109C361.255 410.109 360.997 410.003 360.781 409.791C360.566 409.579 360.46 409.321 360.463 409.016C360.46 408.717 360.566 408.462 360.781 408.25C360.997 408.038 361.255 407.932 361.557 407.932C361.848 407.932 362.102 408.038 362.317 408.25C362.536 408.462 362.647 408.717 362.651 409.016C362.647 409.218 362.594 409.402 362.491 409.567C362.392 409.733 362.259 409.866 362.094 409.965C361.931 410.061 361.752 410.109 361.557 410.109ZM364.489 410V408.668L368.024 405.202C368.362 404.861 368.643 404.558 368.869 404.293C369.094 404.027 369.263 403.771 369.376 403.522C369.489 403.273 369.545 403.008 369.545 402.727C369.545 402.405 369.472 402.13 369.326 401.901C369.18 401.669 368.98 401.49 368.725 401.364C368.469 401.238 368.179 401.175 367.855 401.175C367.52 401.175 367.227 401.245 366.975 401.384C366.723 401.52 366.527 401.714 366.388 401.966C366.252 402.218 366.184 402.518 366.184 402.866H364.429C364.429 402.219 364.577 401.658 364.872 401.18C365.167 400.703 365.573 400.334 366.09 400.072C366.61 399.81 367.207 399.679 367.879 399.679C368.562 399.679 369.162 399.807 369.679 400.062C370.196 400.317 370.597 400.667 370.882 401.111C371.171 401.555 371.315 402.062 371.315 402.632C371.315 403.013 371.242 403.388 371.096 403.756C370.95 404.124 370.693 404.531 370.325 404.979C369.961 405.426 369.449 405.968 368.789 406.604L367.034 408.389V408.459H371.469V410H364.489ZM376.756 410V399.818H378.601V408.454H383.085V410H376.756ZM384.686 410V399.818H388.504C389.286 399.818 389.943 399.964 390.473 400.256C391.006 400.547 391.409 400.948 391.681 401.459C391.956 401.966 392.094 402.543 392.094 403.189C392.094 403.842 391.956 404.422 391.681 404.929C391.406 405.436 391 405.835 390.463 406.127C389.926 406.415 389.265 406.56 388.479 406.56H385.949V405.043H388.231C388.688 405.043 389.063 404.964 389.354 404.805C389.646 404.646 389.861 404.427 390.001 404.148C390.143 403.87 390.214 403.55 390.214 403.189C390.214 402.828 390.143 402.509 390.001 402.234C389.861 401.959 389.644 401.746 389.349 401.593C389.058 401.437 388.681 401.359 388.221 401.359H386.53V410H384.686ZM393.868 410H391.9L395.484 399.818H397.761L401.351 410H399.382L396.662 401.906H396.583L393.868 410ZM393.933 406.008H399.302V407.489H393.933V406.008Z" fill="#FFF200"/>
<path d="M442.725 410V408.668L446.26 405.202C446.598 404.861 446.88 404.558 447.105 404.293C447.33 404.027 447.5 403.771 447.612 403.522C447.725 403.273 447.781 403.008 447.781 402.727C447.781 402.405 447.708 402.13 447.562 401.901C447.417 401.669 447.216 401.49 446.961 401.364C446.706 401.238 446.416 401.175 446.091 401.175C445.756 401.175 445.463 401.245 445.211 401.384C444.959 401.52 444.763 401.714 444.624 401.966C444.488 402.218 444.42 402.518 444.42 402.866H442.665C442.665 402.219 442.813 401.658 443.108 401.18C443.403 400.703 443.809 400.334 444.326 400.072C444.846 399.81 445.443 399.679 446.116 399.679C446.799 399.679 447.398 399.807 447.915 400.062C448.433 400.317 448.834 400.667 449.119 401.111C449.407 401.555 449.551 402.062 449.551 402.632C449.551 403.013 449.478 403.388 449.332 403.756C449.187 404.124 448.93 404.531 448.562 404.979C448.197 405.426 447.685 405.968 447.026 406.604L445.271 408.389V408.459H449.705V410H442.725ZM455.184 410.194C454.365 410.194 453.663 409.987 453.076 409.572C452.493 409.155 452.044 408.553 451.729 407.768C451.417 406.979 451.261 406.029 451.261 404.919C451.265 403.809 451.422 402.864 451.734 402.085C452.049 401.303 452.498 400.706 453.081 400.295C453.668 399.884 454.369 399.679 455.184 399.679C455.999 399.679 456.7 399.884 457.287 400.295C457.874 400.706 458.323 401.303 458.634 402.085C458.949 402.867 459.107 403.812 459.107 404.919C459.107 406.033 458.949 406.984 458.634 407.773C458.323 408.558 457.874 409.158 457.287 409.572C456.704 409.987 456.003 410.194 455.184 410.194ZM455.184 408.638C455.82 408.638 456.322 408.325 456.69 407.698C457.062 407.068 457.247 406.142 457.247 404.919C457.247 404.11 457.163 403.431 456.994 402.881C456.825 402.33 456.586 401.916 456.278 401.638C455.969 401.356 455.605 401.215 455.184 401.215C454.551 401.215 454.05 401.53 453.683 402.16C453.315 402.786 453.129 403.706 453.126 404.919C453.122 405.731 453.204 406.414 453.369 406.967C453.538 407.521 453.777 407.938 454.085 408.22C454.393 408.499 454.76 408.638 455.184 408.638ZM464.33 410V399.818H466.175V408.454H470.659V410H464.33ZM472.26 410V399.818H476.078C476.86 399.818 477.517 399.964 478.047 400.256C478.581 400.547 478.983 400.948 479.255 401.459C479.53 401.966 479.668 402.543 479.668 403.189C479.668 403.842 479.53 404.422 479.255 404.929C478.98 405.436 478.574 405.835 478.037 406.127C477.5 406.415 476.839 406.56 476.053 406.56H473.523V405.043H475.805C476.262 405.043 476.637 404.964 476.928 404.805C477.22 404.646 477.436 404.427 477.575 404.148C477.717 403.87 477.789 403.55 477.789 403.189C477.789 402.828 477.717 402.509 477.575 402.234C477.436 401.959 477.218 401.746 476.923 401.593C476.632 401.437 476.256 401.359 475.795 401.359H474.105V410H472.26ZM481.443 410H479.474L483.058 399.818H485.335L488.925 410H486.956L484.237 401.906H484.157L481.443 410ZM481.507 406.008H486.877V407.489H481.507V406.008Z" fill="#8A8A8A"/>
<path d="M530.393 410V408.668L533.928 405.202C534.266 404.861 534.548 404.558 534.773 404.293C534.998 404.027 535.167 403.771 535.28 403.522C535.393 403.273 535.449 403.008 535.449 402.727C535.449 402.405 535.376 402.13 535.23 401.901C535.085 401.669 534.884 401.49 534.629 401.364C534.374 401.238 534.084 401.175 533.759 401.175C533.424 401.175 533.131 401.245 532.879 401.384C532.627 401.52 532.431 401.714 532.292 401.966C532.156 402.218 532.088 402.518 532.088 402.866H530.333C530.333 402.219 530.481 401.658 530.776 401.18C531.071 400.703 531.477 400.334 531.994 400.072C532.514 399.81 533.111 399.679 533.784 399.679C534.467 399.679 535.066 399.807 535.583 400.062C536.1 400.317 536.502 400.667 536.787 401.111C537.075 401.555 537.219 402.062 537.219 402.632C537.219 403.013 537.146 403.388 537 403.756C536.855 404.124 536.598 404.531 536.23 404.979C535.865 405.426 535.353 405.968 534.694 406.604L532.939 408.389V408.459H537.373V410H530.393ZM538.686 408.111V406.644L543.006 399.818H544.229V401.906H543.483L540.575 406.515V406.594H546.605V408.111H538.686ZM543.543 410V407.663L543.563 407.007V399.818H545.303V410H543.543ZM551.766 410V399.818H553.61V408.454H558.095V410H551.766ZM559.696 410V399.818H563.514C564.296 399.818 564.952 399.964 565.483 400.256C566.016 400.547 566.419 400.948 566.691 401.459C566.966 401.966 567.103 402.543 567.103 403.189C567.103 403.842 566.966 404.422 566.691 404.929C566.416 405.436 566.01 405.835 565.473 406.127C564.936 406.415 564.275 406.56 563.489 406.56H560.958V405.043H563.24C563.698 405.043 564.072 404.964 564.364 404.805C564.656 404.646 564.871 404.427 565.01 404.148C565.153 403.87 565.224 403.55 565.224 403.189C565.224 402.828 565.153 402.509 565.01 402.234C564.871 401.959 564.654 401.746 564.359 401.593C564.067 401.437 563.691 401.359 563.23 401.359H561.54V410H559.696ZM568.878 410H566.909L570.494 399.818H572.771L576.36 410H574.392L571.672 401.906H571.593L568.878 410ZM568.943 406.008H574.312V407.489H568.943V406.008Z" fill="#8A8A8A"/>
<path d="M0.488281 317L103.19 281.707C131.058 272.131 155.345 254.285 172.812 230.551C210.644 179.144 263.627 140.879 324.321 121.127L331.259 118.869C362.625 108.662 395.132 102.372 428.041 100.14L453.654 98.404C500.137 95.2526 543.693 74.5816 575.527 40.5645L613.488 0" stroke="#FFF200" stroke-width="3"/>
<path d="M103.19 281.707L0.488281 317V383.5H613.488V0L575.527 40.5645C543.693 74.5816 500.137 95.2526 453.654 98.404L428.041 100.14C395.132 102.372 362.625 108.662 331.259 118.869L324.321 121.127C263.627 140.879 210.644 179.144 172.812 230.551C155.345 254.285 131.058 272.131 103.19 281.707Z" fill="url(#paint0_radial_4437_11085)" fill-opacity="0.3"/>
<path d="M103.19 281.707L0.488281 317V383.5H613.488V0L575.527 40.5645C543.693 74.5816 500.137 95.2526 453.654 98.404L428.041 100.14C395.132 102.372 362.625 108.662 331.259 118.869L324.321 121.127C263.627 140.879 210.644 179.144 172.812 230.551C155.345 254.285 131.058 272.131 103.19 281.707Z" fill="url(#paint1_radial_4437_11085)" fill-opacity="0.8"/>
<mask id="mask0_4437_11085" style="mask-type:alpha" maskUnits="userSpaceOnUse" x="207" y="66" width="174" height="324">
<rect x="207.488" y="66" width="173" height="324" fill="#D9D9D9"/>
</mask>
<g mask="url(#mask0_4437_11085)">
<path d="M103.19 281.707L0.488281 317V383.5H613.488V0L575.527 40.5645C543.693 74.5816 500.137 95.2526 453.654 98.404L428.041 100.14C395.132 102.372 362.625 108.662 331.259 118.869L324.321 121.127C263.627 140.879 210.644 179.144 172.812 230.551C155.345 254.285 131.058 272.131 103.19 281.707Z" fill="url(#paint2_radial_4437_11085)" fill-opacity="0.3"/>
<path d="M103.19 281.707L0.488281 317V383.5H613.488V0L575.527 40.5645C543.693 74.5816 500.137 95.2526 453.654 98.404L428.041 100.14C395.132 102.372 362.625 108.662 331.259 118.869L324.321 121.127C263.627 140.879 210.644 179.144 172.812 230.551C155.345 254.285 131.058 272.131 103.19 281.707Z" fill="url(#paint3_radial_4437_11085)" fill-opacity="0.8"/>
<path d="M103.19 281.707L0.488281 317V383.5H613.488V0L575.527 40.5645C543.693 74.5816 500.137 95.2526 453.654 98.404L428.041 100.14C395.132 102.372 362.625 108.662 331.259 118.869L324.321 121.127C263.627 140.879 210.644 179.144 172.812 230.551C155.345 254.285 131.058 272.131 103.19 281.707Z" fill="url(#paint4_radial_4437_11085)" fill-opacity="0.3"/>
<path d="M103.19 281.707L0.488281 317V383.5H613.488V0L575.527 40.5645C543.693 74.5816 500.137 95.2526 453.654 98.404L428.041 100.14C395.132 102.372 362.625 108.662 331.259 118.869L324.321 121.127C263.627 140.879 210.644 179.144 172.812 230.551C155.345 254.285 131.058 272.131 103.19 281.707Z" fill="url(#paint5_radial_4437_11085)" fill-opacity="0.8"/>
</g>
<circle cx="7" cy="7" r="7" transform="matrix(-1 0 0 1 387.488 99)" fill="#FEF103"/>
<circle cx="7" cy="7" r="7" transform="matrix(-1 0 0 1 214.488 182)" fill="#FEF103"/>
<path d="M11.4883 378.5H576.988" stroke="#454545"/>
<path d="M12.4883 379V385" stroke="#454545"/>
<path d="M24 379V385" stroke="#454545"/>
<path d="M35.5078 379V385" stroke="#454545"/>
<path d="M47.0195 379V385" stroke="#454545"/>
<path d="M58.5273 379V385" stroke="#454545"/>
<path d="M70.0391 379V385" stroke="#454545"/>
<path d="M81.5508 379V385" stroke="#454545"/>
<path d="M93.0586 379V385" stroke="#454545"/>
<path d="M104.57 379V385" stroke="#454545"/>
<path d="M116.082 379V385" stroke="#454545"/>
<path d="M127.59 379V385" stroke="#454545"/>
<path d="M139.102 379V385" stroke="#454545"/>
<path d="M150.609 379V385" stroke="#454545"/>
<path d="M162.121 379V385" stroke="#454545"/>
<path d="M173.633 379V385" stroke="#454545"/>
<path d="M185.141 379V385" stroke="#454545"/>
<path d="M196.652 379V385" stroke="#454545"/>
<path d="M208.16 379V385" stroke="#454545"/>
<path d="M219.672 379V385" stroke="#454545"/>
<path d="M231.184 379V385" stroke="#454545"/>
<path d="M242.691 379V385" stroke="#454545"/>
<path d="M254.203 379V385" stroke="#454545"/>
<path d="M265.711 379V385" stroke="#454545"/>
<path d="M277.223 379V385" stroke="#454545"/>
<path d="M288.734 379V385" stroke="#454545"/>
<path d="M300.242 379V385" stroke="#454545"/>
<path d="M311.754 379V385" stroke="#454545"/>
<path d="M323.266 379V385" stroke="#454545"/>
<path d="M334.773 379V385" stroke="#454545"/>
<path d="M346.285 379V385" stroke="#454545"/>
<path d="M357.793 379V385" stroke="#454545"/>
<path d="M369.305 379V385" stroke="#454545"/>
<path d="M380.816 379V385" stroke="#454545"/>
<path d="M392.324 379V385" stroke="#454545"/>
<path d="M403.836 379V385" stroke="#454545"/>
<path d="M415.344 379V385" stroke="#454545"/>
<path d="M426.855 379V385" stroke="#454545"/>
<path d="M438.367 379V385" stroke="#454545"/>
<path d="M449.875 379V385" stroke="#454545"/>
<path d="M461.387 379V385" stroke="#454545"/>
<path d="M472.895 379V385" stroke="#454545"/>
<path d="M484.406 379V385" stroke="#454545"/>
<path d="M495.918 379V385" stroke="#454545"/>
<path d="M507.426 379V385" stroke="#454545"/>
<path d="M518.938 379V385" stroke="#454545"/>
<path d="M530.449 379V385" stroke="#454545"/>
<path d="M541.957 379V385" stroke="#454545"/>
<path d="M553.469 379V385" stroke="#454545"/>
<path d="M564.977 379V385" stroke="#454545"/>
<path d="M576.488 379V385" stroke="#454545"/>
<path opacity="0.5" d="M207.488 380L207.488 191.5" stroke="url(#paint6_linear_4437_11085)" stroke-dasharray="5 5"/>
<path opacity="0.5" d="M380.488 381L380.488 105.5" stroke="url(#paint7_linear_4437_11085)" stroke-dasharray="5 5"/>
<path d="M225.73 68.594C225.514 68.474 225.394 68.342 225.37 68.198C225.358 68.054 225.442 67.802 225.622 67.442C225.802 67.082 226.084 66.524 226.468 65.768C226.756 65.228 226.972 64.808 227.116 64.508C227.272 64.196 227.374 63.974 227.422 63.842C227.482 63.71 227.512 63.626 227.512 63.59C227.488 63.482 227.5 63.398 227.548 63.338C227.596 63.266 227.674 63.206 227.782 63.158C227.842 63.098 227.938 62.99 228.07 62.834C228.214 62.678 228.346 62.492 228.466 62.276C228.574 62.024 228.7 61.766 228.844 61.502C228.988 61.238 229.18 60.908 229.42 60.512C229.66 60.104 229.972 59.576 230.356 58.928C230.596 58.508 230.86 58.082 231.148 57.65C231.436 57.206 231.742 56.768 232.066 56.336C232.198 56.168 232.318 56.036 232.426 55.94C232.534 55.832 232.642 55.784 232.75 55.796C232.894 55.796 233.056 55.844 233.236 55.94C233.428 56.036 233.602 56.162 233.758 56.318C233.914 56.474 234.028 56.642 234.1 56.822C234.16 56.918 234.184 57.122 234.172 57.434C234.16 57.746 234.136 58.124 234.1 58.568C234.064 59.012 234.022 59.486 233.974 59.99C233.938 60.482 233.884 61.064 233.812 61.736C233.74 62.408 233.668 63.11 233.596 63.842C233.536 64.574 233.488 65.282 233.452 65.966C233.416 66.638 233.416 67.226 233.452 67.73C233.464 67.838 233.464 67.94 233.452 68.036C233.44 68.132 233.434 68.21 233.434 68.27C233.362 68.342 233.242 68.372 233.074 68.36C232.918 68.36 232.762 68.324 232.606 68.252C232.462 68.18 232.378 68.09 232.354 67.982C232.318 67.946 232.294 67.898 232.282 67.838C232.282 67.766 232.288 67.622 232.3 67.406C232.312 67.19 232.324 66.848 232.336 66.38L232.426 63.464L232.192 63.482C232.084 63.482 231.88 63.494 231.58 63.518C231.28 63.542 230.956 63.578 230.608 63.626C230.26 63.662 229.936 63.704 229.636 63.752C229.348 63.788 229.15 63.824 229.042 63.86C228.934 63.86 228.802 63.932 228.646 64.076C228.502 64.22 228.364 64.406 228.232 64.634C228.184 64.802 228.094 64.982 227.962 65.174C227.842 65.354 227.782 65.474 227.782 65.534C227.698 65.594 227.626 65.666 227.566 65.75C227.518 65.834 227.494 65.876 227.494 65.876C227.494 65.948 227.434 66.128 227.314 66.416C227.206 66.692 227.068 67.004 226.9 67.352C226.732 67.688 226.564 67.982 226.396 68.234L226.018 68.81L225.73 68.594ZM229.456 62.798C229.456 62.798 229.516 62.786 229.636 62.762C229.768 62.738 229.918 62.714 230.086 62.69C230.266 62.654 230.428 62.636 230.572 62.636C231.076 62.516 231.442 62.438 231.67 62.402C231.898 62.354 232.054 62.33 232.138 62.33C232.234 62.33 232.318 62.348 232.39 62.384C232.438 62.444 232.48 62.48 232.516 62.492C232.564 62.504 232.588 62.51 232.588 62.51C232.6 62.486 232.618 62.348 232.642 62.096C232.666 61.844 232.696 61.532 232.732 61.16C232.78 60.788 232.822 60.404 232.858 60.008C232.906 59.6 232.942 59.228 232.966 58.892C232.99 58.544 233.008 58.28 233.02 58.1C233.032 57.872 233.044 57.668 233.056 57.488C233.068 57.296 233.074 57.2 233.074 57.2C233.002 57.2 232.846 57.332 232.606 57.596C232.378 57.86 232.12 58.208 231.832 58.64C231.544 59.072 231.274 59.534 231.022 60.026C230.902 60.254 230.788 60.458 230.68 60.638C230.572 60.818 230.488 60.908 230.428 60.908C230.404 60.932 230.332 61.04 230.212 61.232C230.104 61.412 229.984 61.622 229.852 61.862C229.72 62.09 229.612 62.3 229.528 62.492C229.444 62.672 229.42 62.774 229.456 62.798ZM236.73 66.902C236.646 66.83 236.538 66.614 236.406 66.254C236.286 65.894 236.166 65.474 236.046 64.994C235.938 64.502 235.848 64.052 235.776 63.644C235.728 63.404 235.674 63.2 235.614 63.032C235.566 62.864 235.524 62.726 235.488 62.618C235.428 62.402 235.41 62.222 235.434 62.078C235.458 61.934 235.542 61.82 235.686 61.736C235.746 61.7 235.818 61.676 235.902 61.664C235.998 61.64 236.07 61.634 236.118 61.646C236.262 61.694 236.394 61.916 236.514 62.312C236.634 62.696 236.742 63.206 236.838 63.842C236.886 64.214 236.946 64.532 237.018 64.796C237.09 65.06 237.126 65.216 237.126 65.264C237.174 65.36 237.228 65.456 237.288 65.552C237.36 65.636 237.444 65.63 237.54 65.534C237.588 65.486 237.684 65.378 237.828 65.21C237.984 65.042 238.134 64.862 238.278 64.67C238.53 64.334 238.728 64.058 238.872 63.842C239.028 63.626 239.202 63.398 239.394 63.158C239.478 63.038 239.574 62.906 239.682 62.762C239.79 62.618 239.898 62.486 240.006 62.366C240.126 62.234 240.234 62.156 240.33 62.132C240.618 62.084 240.774 62.144 240.798 62.312C240.822 62.48 240.714 62.732 240.474 63.068C240.378 63.212 240.3 63.35 240.24 63.482C240.192 63.602 240.144 63.686 240.096 63.734C240 63.926 239.85 64.172 239.646 64.472C239.442 64.76 239.244 65.03 239.052 65.282C238.86 65.522 238.728 65.678 238.656 65.75C238.608 65.798 238.5 65.888 238.332 66.02C238.176 66.152 238.026 66.32 237.882 66.524C237.594 66.8 237.366 66.968 237.198 67.028C237.03 67.088 236.874 67.046 236.73 66.902ZM244.363 67.37C244.111 67.586 243.817 67.712 243.481 67.748C243.157 67.784 242.839 67.736 242.527 67.604C242.215 67.46 241.957 67.244 241.753 66.956C241.549 66.692 241.417 66.392 241.357 66.056C241.297 65.708 241.291 65.258 241.339 64.706C241.375 64.238 241.525 63.77 241.789 63.302C242.053 62.822 242.371 62.396 242.743 62.024C243.127 61.652 243.505 61.394 243.877 61.25C244.057 61.13 244.207 61.076 244.327 61.088C244.459 61.088 244.657 61.1 244.921 61.124C245.197 61.16 245.401 61.214 245.533 61.286C245.677 61.358 245.791 61.454 245.875 61.574C246.055 61.754 246.175 61.934 246.235 62.114C246.295 62.282 246.325 62.45 246.325 62.618C246.277 62.882 246.097 63.206 245.785 63.59C245.485 63.962 245.089 64.268 244.597 64.508C244.333 64.592 244.045 64.628 243.733 64.616C243.421 64.604 243.163 64.526 242.959 64.382C242.731 64.286 242.581 64.304 242.509 64.436C242.437 64.556 242.371 64.856 242.311 65.336C242.263 65.792 242.299 66.128 242.419 66.344C242.539 66.548 242.701 66.668 242.905 66.704C243.145 66.752 243.331 66.788 243.463 66.812C243.607 66.824 243.781 66.77 243.985 66.65C244.177 66.53 244.297 66.464 244.345 66.452C244.393 66.428 244.429 66.404 244.453 66.38C244.489 66.344 244.567 66.266 244.687 66.146C244.771 66.062 244.837 66.002 244.885 65.966C244.933 65.918 244.987 65.894 245.047 65.894C245.107 65.894 245.161 65.924 245.209 65.984C245.257 66.032 245.305 66.068 245.353 66.092C245.473 66.092 245.497 66.164 245.425 66.308C245.365 66.452 245.239 66.626 245.047 66.83C244.855 67.022 244.627 67.202 244.363 67.37ZM244.345 63.554C244.477 63.494 244.615 63.41 244.759 63.302C244.903 63.182 245.023 63.056 245.119 62.924C245.227 62.78 245.281 62.66 245.281 62.564C245.281 62.396 245.203 62.258 245.047 62.15C244.891 62.03 244.657 62.012 244.345 62.096C244.213 62.132 244.063 62.222 243.895 62.366C243.727 62.498 243.565 62.648 243.409 62.816C243.265 62.984 243.145 63.134 243.049 63.266C242.965 63.398 242.935 63.476 242.959 63.5C242.995 63.56 243.097 63.608 243.265 63.644C243.433 63.668 243.619 63.674 243.823 63.662C244.039 63.65 244.213 63.614 244.345 63.554ZM248.146 67.442C248.11 67.454 248.05 67.448 247.966 67.424C247.882 67.4 247.798 67.37 247.714 67.334C247.63 67.298 247.576 67.268 247.552 67.244C247.504 67.196 247.456 67.124 247.408 67.028C247.372 66.932 247.372 66.794 247.408 66.614C247.444 66.422 247.564 66.176 247.768 65.876C247.828 65.756 247.9 65.576 247.984 65.336C248.068 65.096 248.152 64.844 248.236 64.58C248.332 64.304 248.416 64.058 248.488 63.842C248.572 63.626 248.632 63.476 248.668 63.392C248.692 63.188 248.68 63.044 248.632 62.96C248.596 62.864 248.494 62.81 248.326 62.798C248.206 62.798 248.11 62.786 248.038 62.762C247.978 62.738 247.948 62.618 247.948 62.402C247.972 62.234 248.014 62.12 248.074 62.06C248.146 61.988 248.242 61.91 248.362 61.826C248.482 61.766 248.602 61.724 248.722 61.7C248.854 61.676 248.98 61.67 249.1 61.682C249.22 61.694 249.316 61.736 249.388 61.808C249.472 61.856 249.526 61.964 249.55 62.132C249.574 62.288 249.586 62.45 249.586 62.618C249.598 62.786 249.61 62.912 249.622 62.996C249.742 62.9 249.904 62.768 250.108 62.6C250.324 62.42 250.51 62.252 250.666 62.096C250.858 61.964 251.086 61.832 251.35 61.7C251.614 61.556 251.806 61.484 251.926 61.484C252.058 61.484 252.19 61.52 252.322 61.592C252.454 61.652 252.544 61.73 252.592 61.826C252.712 62.03 252.766 62.21 252.754 62.366C252.754 62.522 252.688 62.684 252.556 62.852C252.436 63.008 252.286 63.116 252.106 63.176C251.938 63.236 251.83 63.266 251.782 63.266C251.71 63.266 251.62 63.212 251.512 63.104C251.404 62.996 251.344 62.906 251.332 62.834C251.332 62.798 251.254 62.834 251.098 62.942C250.954 63.038 250.792 63.164 250.612 63.32C250.432 63.464 250.282 63.596 250.162 63.716C249.958 63.968 249.742 64.31 249.514 64.742C249.286 65.174 249.016 65.696 248.704 66.308C248.56 66.608 248.458 66.866 248.398 67.082C248.338 67.286 248.254 67.406 248.146 67.442ZM255.064 67.478C254.968 67.502 254.842 67.514 254.686 67.514C254.53 67.502 254.392 67.484 254.272 67.46C254.164 67.424 254.11 67.388 254.11 67.352C254.11 67.292 254.08 67.262 254.02 67.262C254.02 67.262 253.99 67.238 253.93 67.19C253.882 67.142 253.804 67.094 253.696 67.046C253.588 66.878 253.534 66.698 253.534 66.506C253.534 66.302 253.588 65.984 253.696 65.552C253.732 65.252 253.846 64.904 254.038 64.508C254.242 64.1 254.488 63.686 254.776 63.266C255.064 62.846 255.364 62.468 255.676 62.132C256 61.796 256.294 61.55 256.558 61.394C256.726 61.226 256.93 61.136 257.17 61.124C257.41 61.112 257.638 61.166 257.854 61.286C257.974 61.346 258.094 61.442 258.214 61.574C258.334 61.706 258.448 61.85 258.556 62.006C258.664 62.162 258.754 62.318 258.826 62.474C258.862 62.606 258.88 62.726 258.88 62.834C258.892 62.93 258.892 63.05 258.88 63.194C258.88 63.338 258.862 63.554 258.826 63.842C258.766 64.058 258.712 64.322 258.664 64.634C258.628 64.946 258.61 65.216 258.61 65.444C258.586 65.672 258.61 65.834 258.682 65.93C258.766 66.026 258.886 66.032 259.042 65.948C259.186 65.876 259.324 65.846 259.456 65.858C259.588 65.858 259.69 65.894 259.762 65.966C259.846 66.038 259.888 66.146 259.888 66.29C259.888 66.434 259.816 66.584 259.672 66.74C259.54 66.884 259.372 67.01 259.168 67.118C258.976 67.214 258.79 67.262 258.61 67.262C258.478 67.262 258.352 67.184 258.232 67.028C258.112 66.86 258.004 66.662 257.908 66.434C257.824 66.194 257.746 65.966 257.674 65.75L257.566 65.336L256.792 66.074C256.636 66.242 256.48 66.398 256.324 66.542C256.18 66.674 256.09 66.77 256.054 66.83C255.994 66.938 255.88 67.046 255.712 67.154C255.556 67.262 255.34 67.37 255.064 67.478ZM255.118 66.416C255.322 66.296 255.556 66.122 255.82 65.894C256.084 65.654 256.342 65.396 256.594 65.12C256.846 64.832 257.056 64.568 257.224 64.328C257.428 64.052 257.584 63.794 257.692 63.554C257.8 63.314 257.878 63.086 257.926 62.87C257.878 62.738 257.8 62.6 257.692 62.456C257.584 62.3 257.488 62.216 257.404 62.204C257.14 62.204 256.858 62.372 256.558 62.708C256.27 63.032 255.988 63.386 255.712 63.77C255.664 63.83 255.598 63.926 255.514 64.058C255.43 64.19 255.346 64.316 255.262 64.436C255.19 64.544 255.142 64.616 255.118 64.652C255.082 64.7 255.01 64.838 254.902 65.066C254.806 65.282 254.71 65.504 254.614 65.732C254.518 65.948 254.47 66.092 254.47 66.164C254.47 66.236 254.476 66.314 254.488 66.398C254.512 66.482 254.572 66.536 254.668 66.56C254.764 66.584 254.914 66.536 255.118 66.416ZM262.973 71.438C262.745 71.534 262.493 71.564 262.217 71.528C261.953 71.504 261.689 71.426 261.425 71.294C261.173 71.162 260.945 71 260.741 70.808C260.657 70.724 260.567 70.592 260.471 70.412C260.387 70.244 260.321 70.082 260.273 69.926C260.237 69.77 260.243 69.68 260.291 69.656C260.339 69.62 260.405 69.608 260.489 69.62C260.573 69.632 260.651 69.65 260.723 69.674C260.807 69.71 260.849 69.752 260.849 69.8C260.921 69.86 261.047 69.95 261.227 70.07C261.407 70.202 261.545 70.28 261.641 70.304C261.893 70.388 262.079 70.424 262.199 70.412C262.319 70.4 262.427 70.358 262.523 70.286C262.715 70.118 262.865 69.914 262.973 69.674C263.081 69.434 263.195 69.104 263.315 68.684L263.369 68.45C263.465 68.006 263.573 67.532 263.693 67.028C263.813 66.524 263.915 66.128 263.999 65.84C264.059 65.564 264.077 65.378 264.053 65.282C264.041 65.186 263.987 65.204 263.891 65.336C263.843 65.348 263.777 65.372 263.693 65.408C263.621 65.444 263.537 65.486 263.441 65.534C263.297 65.606 263.153 65.678 263.009 65.75C262.865 65.81 262.745 65.852 262.649 65.876C262.553 65.876 262.463 65.882 262.379 65.894C262.295 65.894 262.253 65.894 262.253 65.894C262.157 65.954 261.983 65.948 261.731 65.876C261.491 65.792 261.275 65.672 261.083 65.516C260.975 65.372 260.897 65.264 260.849 65.192C260.801 65.108 260.771 65.024 260.759 64.94C260.747 64.844 260.741 64.7 260.741 64.508C260.729 64.316 260.819 64.04 261.011 63.68C261.215 63.308 261.461 62.96 261.749 62.636C261.977 62.408 262.271 62.174 262.631 61.934C262.991 61.694 263.351 61.496 263.711 61.34C264.083 61.184 264.389 61.112 264.629 61.124C264.749 61.136 264.863 61.154 264.971 61.178C265.079 61.19 265.199 61.244 265.331 61.34C265.499 61.424 265.619 61.514 265.691 61.61C265.763 61.706 265.859 61.892 265.979 62.168C266.051 62.36 266.105 62.552 266.141 62.744C266.177 62.924 266.195 63.098 266.195 63.266C266.195 63.446 266.171 63.608 266.123 63.752C266.075 63.896 266.009 64.01 265.925 64.094C265.901 64.094 265.871 64.1 265.835 64.112C265.811 64.112 265.787 64.118 265.763 64.13C265.691 64.154 265.631 64.166 265.583 64.166C265.547 64.166 265.505 64.208 265.457 64.292C265.409 64.364 265.373 64.46 265.349 64.58C265.337 64.652 265.319 64.724 265.295 64.796C265.283 64.868 265.265 64.934 265.241 64.994C265.217 65.054 265.193 65.108 265.169 65.156C265.157 65.192 265.151 65.222 265.151 65.246C265.151 65.282 265.145 65.312 265.133 65.336C265.121 65.36 265.103 65.39 265.079 65.426C265.043 65.486 265.007 65.564 264.971 65.66C264.947 65.744 264.935 65.834 264.935 65.93L264.863 66.128C264.827 66.248 264.791 66.356 264.755 66.452C264.731 66.548 264.719 66.608 264.719 66.632L264.647 66.992C264.623 67.076 264.593 67.154 264.557 67.226C264.533 67.286 264.509 67.382 264.485 67.514C264.461 67.634 264.431 67.832 264.395 68.108C264.155 69.14 263.915 69.914 263.675 70.43C263.435 70.958 263.201 71.294 262.973 71.438ZM261.731 64.904C262.043 65.024 262.367 65.036 262.703 64.94C263.039 64.844 263.423 64.628 263.855 64.292C264.131 64.088 264.359 63.854 264.539 63.59C264.731 63.314 264.869 63.032 264.953 62.744C265.013 62.564 265.031 62.438 265.007 62.366C264.983 62.282 264.905 62.234 264.773 62.222C264.569 62.174 264.311 62.21 263.999 62.33C263.687 62.438 263.369 62.594 263.045 62.798C262.985 62.882 262.913 62.96 262.829 63.032C262.745 63.104 262.667 63.164 262.595 63.212C262.535 63.248 262.505 63.266 262.505 63.266C262.493 63.29 262.475 63.32 262.451 63.356C262.439 63.392 262.409 63.422 262.361 63.446C262.241 63.554 262.121 63.716 262.001 63.932C261.881 64.148 261.791 64.352 261.731 64.544C261.683 64.736 261.683 64.856 261.731 64.904ZM268.417 67.568C267.949 67.376 267.643 67.112 267.499 66.776C267.367 66.428 267.343 65.894 267.427 65.174C267.451 64.802 267.463 64.556 267.463 64.436C267.463 64.316 267.397 64.196 267.265 64.076C267.229 64.028 267.163 63.962 267.067 63.878C266.983 63.794 266.947 63.722 266.959 63.662C266.947 63.578 266.953 63.488 266.977 63.392C267.001 63.284 267.037 63.23 267.085 63.23C267.133 63.23 267.181 63.218 267.229 63.194C267.289 63.17 267.343 63.17 267.391 63.194C267.439 63.194 267.493 63.2 267.553 63.212C267.613 63.224 267.643 63.254 267.643 63.302C267.691 63.386 267.769 63.398 267.877 63.338C267.985 63.266 268.099 63.11 268.219 62.87C268.339 62.678 268.495 62.486 268.687 62.294C268.891 62.102 269.089 61.928 269.281 61.772C269.485 61.604 269.653 61.484 269.785 61.412C269.845 61.388 269.935 61.358 270.055 61.322C270.175 61.286 270.301 61.256 270.433 61.232C270.577 61.208 270.697 61.202 270.793 61.214C271.009 61.226 271.189 61.286 271.333 61.394C271.489 61.502 271.633 61.628 271.765 61.772C271.921 61.88 272.017 62.024 272.053 62.204C272.101 62.384 272.113 62.576 272.089 62.78C272.065 62.984 272.011 63.17 271.927 63.338C271.891 63.458 271.789 63.602 271.621 63.77C271.453 63.938 271.261 64.1 271.045 64.256C270.829 64.412 270.631 64.526 270.451 64.598C270.295 64.634 270.091 64.664 269.839 64.688C269.599 64.712 269.371 64.724 269.155 64.724C268.951 64.712 268.813 64.688 268.741 64.652C268.657 64.604 268.591 64.67 268.543 64.85C268.495 65.03 268.459 65.288 268.435 65.624C268.411 65.888 268.411 66.08 268.435 66.2C268.459 66.32 268.483 66.404 268.507 66.452C268.591 66.536 268.705 66.644 268.849 66.776C269.005 66.896 269.221 66.914 269.497 66.83C269.725 66.77 269.947 66.614 270.163 66.362C270.391 66.11 270.601 65.906 270.793 65.75C270.841 65.666 270.919 65.618 271.027 65.606C271.147 65.582 271.273 65.588 271.405 65.624C271.537 65.708 271.591 65.81 271.567 65.93C271.555 66.038 271.495 66.206 271.387 66.434C271.351 66.518 271.267 66.626 271.135 66.758C271.015 66.878 270.877 67.004 270.721 67.136C270.577 67.256 270.445 67.352 270.325 67.424C269.965 67.616 269.629 67.718 269.317 67.73C269.005 67.73 268.705 67.676 268.417 67.568ZM269.479 63.914C269.743 63.854 269.953 63.812 270.109 63.788C270.265 63.764 270.415 63.698 270.559 63.59C270.703 63.47 270.883 63.248 271.099 62.924C271.147 62.792 271.159 62.66 271.135 62.528C271.123 62.396 271.093 62.306 271.045 62.258C270.937 62.138 270.805 62.102 270.649 62.15C270.505 62.186 270.367 62.252 270.235 62.348C270.151 62.384 270.025 62.474 269.857 62.618C269.701 62.75 269.545 62.906 269.389 63.086C269.233 63.254 269.107 63.41 269.011 63.554C268.915 63.698 268.891 63.782 268.939 63.806C268.915 63.854 268.981 63.884 269.137 63.896C269.305 63.908 269.419 63.914 269.479 63.914ZM276.812 68.594C276.596 68.474 276.476 68.342 276.452 68.198C276.44 68.054 276.524 67.802 276.704 67.442C276.884 67.082 277.166 66.524 277.55 65.768C277.838 65.228 278.054 64.808 278.198 64.508C278.354 64.196 278.456 63.974 278.504 63.842C278.564 63.71 278.594 63.626 278.594 63.59C278.57 63.482 278.582 63.398 278.63 63.338C278.678 63.266 278.756 63.206 278.864 63.158C278.924 63.098 279.02 62.99 279.152 62.834C279.296 62.678 279.428 62.492 279.548 62.276C279.656 62.024 279.782 61.766 279.926 61.502C280.07 61.238 280.262 60.908 280.502 60.512C280.742 60.104 281.054 59.576 281.438 58.928C281.678 58.508 281.942 58.082 282.23 57.65C282.518 57.206 282.824 56.768 283.148 56.336C283.28 56.168 283.4 56.036 283.508 55.94C283.616 55.832 283.724 55.784 283.832 55.796C283.976 55.796 284.138 55.844 284.318 55.94C284.51 56.036 284.684 56.162 284.84 56.318C284.996 56.474 285.11 56.642 285.182 56.822C285.242 56.918 285.266 57.122 285.254 57.434C285.242 57.746 285.218 58.124 285.182 58.568C285.146 59.012 285.104 59.486 285.056 59.99C285.02 60.482 284.966 61.064 284.894 61.736C284.822 62.408 284.75 63.11 284.678 63.842C284.618 64.574 284.57 65.282 284.534 65.966C284.498 66.638 284.498 67.226 284.534 67.73C284.546 67.838 284.546 67.94 284.534 68.036C284.522 68.132 284.516 68.21 284.516 68.27C284.444 68.342 284.324 68.372 284.156 68.36C284 68.36 283.844 68.324 283.688 68.252C283.544 68.18 283.46 68.09 283.436 67.982C283.4 67.946 283.376 67.898 283.364 67.838C283.364 67.766 283.37 67.622 283.382 67.406C283.394 67.19 283.406 66.848 283.418 66.38L283.508 63.464L283.274 63.482C283.166 63.482 282.962 63.494 282.662 63.518C282.362 63.542 282.038 63.578 281.69 63.626C281.342 63.662 281.018 63.704 280.718 63.752C280.43 63.788 280.232 63.824 280.124 63.86C280.016 63.86 279.884 63.932 279.728 64.076C279.584 64.22 279.446 64.406 279.314 64.634C279.266 64.802 279.176 64.982 279.044 65.174C278.924 65.354 278.864 65.474 278.864 65.534C278.78 65.594 278.708 65.666 278.648 65.75C278.6 65.834 278.576 65.876 278.576 65.876C278.576 65.948 278.516 66.128 278.396 66.416C278.288 66.692 278.15 67.004 277.982 67.352C277.814 67.688 277.646 67.982 277.478 68.234L277.1 68.81L276.812 68.594ZM280.538 62.798C280.538 62.798 280.598 62.786 280.718 62.762C280.85 62.738 281 62.714 281.168 62.69C281.348 62.654 281.51 62.636 281.654 62.636C282.158 62.516 282.524 62.438 282.752 62.402C282.98 62.354 283.136 62.33 283.22 62.33C283.316 62.33 283.4 62.348 283.472 62.384C283.52 62.444 283.562 62.48 283.598 62.492C283.646 62.504 283.67 62.51 283.67 62.51C283.682 62.486 283.7 62.348 283.724 62.096C283.748 61.844 283.778 61.532 283.814 61.16C283.862 60.788 283.904 60.404 283.94 60.008C283.988 59.6 284.024 59.228 284.048 58.892C284.072 58.544 284.09 58.28 284.102 58.1C284.114 57.872 284.126 57.668 284.138 57.488C284.15 57.296 284.156 57.2 284.156 57.2C284.084 57.2 283.928 57.332 283.688 57.596C283.46 57.86 283.202 58.208 282.914 58.64C282.626 59.072 282.356 59.534 282.104 60.026C281.984 60.254 281.87 60.458 281.762 60.638C281.654 60.818 281.57 60.908 281.51 60.908C281.486 60.932 281.414 61.04 281.294 61.232C281.186 61.412 281.066 61.622 280.934 61.862C280.802 62.09 280.694 62.3 280.61 62.492C280.526 62.672 280.502 62.774 280.538 62.798ZM292.602 67.172C292.362 67.172 292.164 67.124 292.008 67.028C291.852 66.92 291.72 66.746 291.612 66.506C291.564 66.338 291.522 66.152 291.486 65.948C291.462 65.732 291.45 65.534 291.45 65.354C291.45 65.162 291.468 65.036 291.504 64.976C291.552 64.928 291.57 64.844 291.558 64.724C291.558 64.592 291.558 64.454 291.558 64.31C291.546 64.07 291.486 63.938 291.378 63.914C291.282 63.878 291.138 63.914 290.946 64.022C290.73 64.154 290.448 64.334 290.1 64.562C289.752 64.778 289.386 65.018 289.002 65.282C288.63 65.546 288.276 65.822 287.94 66.11C287.676 66.398 287.514 66.62 287.454 66.776C287.406 66.92 287.334 66.992 287.238 66.992C287.142 67.04 287.058 67.046 286.986 67.01C286.926 66.962 286.836 66.89 286.716 66.794C286.632 66.698 286.548 66.608 286.464 66.524C286.38 66.428 286.326 66.356 286.302 66.308C286.302 66.248 286.32 66.122 286.356 65.93C286.392 65.738 286.434 65.546 286.482 65.354C286.542 65.162 286.584 65.036 286.608 64.976C286.668 64.976 286.716 64.916 286.752 64.796C286.8 64.676 286.872 64.544 286.968 64.4C286.992 64.256 287.052 64.064 287.148 63.824C287.256 63.572 287.352 63.35 287.436 63.158C287.604 62.87 287.718 62.63 287.778 62.438C287.85 62.246 287.898 62.006 287.922 61.718C287.91 61.67 287.922 61.628 287.958 61.592C287.994 61.544 288.036 61.52 288.084 61.52C288.18 61.424 288.294 61.4 288.426 61.448C288.558 61.484 288.678 61.574 288.786 61.718C289.002 62.006 289.086 62.306 289.038 62.618C289.002 62.918 288.81 63.35 288.462 63.914C288.378 64.106 288.312 64.256 288.264 64.364C288.228 64.46 288.21 64.538 288.21 64.598C288.21 64.598 288.27 64.556 288.39 64.472C288.522 64.388 288.666 64.292 288.822 64.184C288.99 64.064 289.122 63.974 289.218 63.914C289.278 63.854 289.416 63.746 289.632 63.59C289.848 63.434 290.076 63.284 290.316 63.14C290.568 62.984 290.754 62.894 290.874 62.87C290.97 62.822 291.072 62.78 291.18 62.744C291.288 62.696 291.366 62.672 291.414 62.672C291.51 62.672 291.63 62.726 291.774 62.834C291.93 62.93 292.074 63.05 292.206 63.194C292.338 63.326 292.416 63.44 292.44 63.536C292.44 63.584 292.44 63.632 292.44 63.68C292.452 63.728 292.464 63.776 292.476 63.824C292.524 63.98 292.548 64.19 292.548 64.454C292.56 64.718 292.554 64.958 292.53 65.174C292.506 65.39 292.464 65.516 292.404 65.552C292.404 65.552 292.404 65.57 292.404 65.606C292.416 65.63 292.446 65.642 292.494 65.642C292.494 65.69 292.494 65.72 292.494 65.732C292.434 65.732 292.41 65.786 292.422 65.894C292.434 65.99 292.47 66.098 292.53 66.218C292.602 66.338 292.674 66.434 292.746 66.506C292.89 66.65 292.95 66.788 292.926 66.92C292.902 67.04 292.794 67.124 292.602 67.172ZM299.913 67.784C299.793 67.784 299.667 67.718 299.535 67.586C299.415 67.454 299.307 67.292 299.211 67.1C299.127 66.896 299.085 66.704 299.085 66.524C299.085 66.344 299.127 66.008 299.211 65.516C299.307 65.024 299.421 64.526 299.553 64.022C299.649 63.71 299.679 63.53 299.643 63.482C299.607 63.434 299.445 63.5 299.157 63.68C298.989 63.764 298.839 63.854 298.707 63.95C298.575 64.034 298.461 64.13 298.365 64.238C298.305 64.286 298.215 64.364 298.095 64.472C297.975 64.58 297.849 64.682 297.717 64.778C297.561 64.898 297.363 65.066 297.123 65.282C296.883 65.498 296.643 65.714 296.403 65.93C296.175 66.146 296.001 66.314 295.881 66.434C295.857 66.482 295.821 66.524 295.773 66.56C295.725 66.596 295.671 66.62 295.611 66.632C295.551 66.632 295.485 66.62 295.413 66.596C295.281 66.56 295.155 66.482 295.035 66.362C294.927 66.242 294.873 66.104 294.873 65.948C294.873 65.828 294.921 65.624 295.017 65.336C295.113 65.036 295.239 64.676 295.395 64.256C295.563 63.836 295.755 63.392 295.971 62.924C296.007 62.864 296.037 62.792 296.061 62.708C296.085 62.612 296.103 62.51 296.115 62.402C296.139 62.294 296.151 62.192 296.151 62.096C296.151 62.036 296.157 61.976 296.169 61.916C296.193 61.844 296.217 61.778 296.241 61.718C296.277 61.646 296.307 61.598 296.331 61.574C296.379 61.478 296.463 61.454 296.583 61.502C296.703 61.538 296.805 61.622 296.889 61.754C297.069 61.922 297.159 62.132 297.159 62.384C297.171 62.636 297.111 62.948 296.979 63.32C296.931 63.404 296.889 63.488 296.853 63.572C296.829 63.644 296.805 63.71 296.781 63.77C296.757 63.818 296.739 63.86 296.727 63.896C296.715 63.92 296.709 63.932 296.709 63.932C296.757 63.932 296.865 63.878 297.033 63.77C297.201 63.662 297.399 63.542 297.627 63.41C297.807 63.278 297.963 63.158 298.095 63.05C298.239 62.93 298.359 62.84 298.455 62.78C298.551 62.708 298.611 62.672 298.635 62.672C298.683 62.672 298.743 62.654 298.815 62.618C298.887 62.582 298.947 62.54 298.995 62.492C299.043 62.444 299.079 62.42 299.103 62.42C299.139 62.408 299.157 62.402 299.157 62.402C299.157 62.402 299.181 62.402 299.229 62.402C299.277 62.39 299.325 62.36 299.373 62.312C299.469 62.24 299.595 62.222 299.751 62.258C299.907 62.282 300.051 62.342 300.183 62.438C300.315 62.534 300.381 62.642 300.381 62.762C300.381 62.81 300.393 62.852 300.417 62.888C300.453 62.912 300.471 62.924 300.471 62.924C300.567 62.924 300.627 63.074 300.651 63.374C300.687 63.674 300.657 63.962 300.561 64.238C300.561 64.418 300.525 64.634 300.453 64.886C300.393 65.138 300.339 65.378 300.291 65.606C300.195 65.906 300.129 66.17 300.093 66.398C300.057 66.626 300.051 66.818 300.075 66.974C300.099 67.13 300.141 67.256 300.201 67.352C300.249 67.436 300.249 67.532 300.201 67.64C300.153 67.736 300.057 67.784 299.913 67.784ZM306.739 67.964C306.619 67.844 306.499 67.682 306.379 67.478C306.259 67.262 306.163 67.016 306.091 66.74C306.067 66.644 306.055 66.512 306.055 66.344C306.067 66.176 306.067 66.056 306.055 65.984C306.019 66.068 305.959 66.158 305.875 66.254C305.803 66.338 305.731 66.41 305.659 66.47C305.611 66.518 305.503 66.614 305.335 66.758C305.167 66.89 304.999 66.998 304.831 67.082C304.435 67.334 304.105 67.472 303.841 67.496C303.589 67.52 303.349 67.388 303.121 67.1C302.929 66.944 302.791 66.77 302.707 66.578C302.635 66.386 302.635 66.122 302.707 65.786C302.731 65.366 302.791 64.958 302.887 64.562C302.983 64.154 303.181 63.614 303.481 62.942C303.733 62.45 303.925 62.09 304.057 61.862C304.189 61.622 304.273 61.478 304.309 61.43C304.489 61.37 304.639 61.376 304.759 61.448C304.879 61.508 304.951 61.622 304.975 61.79C305.047 61.91 305.035 62.114 304.939 62.402C304.855 62.69 304.705 63.044 304.489 63.464C304.321 63.872 304.165 64.28 304.021 64.688C303.889 65.096 303.811 65.444 303.787 65.732C303.763 66.02 303.835 66.194 304.003 66.254C304.111 66.314 304.297 66.296 304.561 66.2C304.837 66.104 305.143 65.864 305.479 65.48C305.827 65.096 306.163 64.514 306.487 63.734C306.583 63.494 306.655 63.284 306.703 63.104C306.751 62.912 306.781 62.702 306.793 62.474C306.769 62.33 306.775 62.204 306.811 62.096C306.859 61.976 306.955 61.874 307.099 61.79C307.147 61.73 307.213 61.676 307.297 61.628C307.381 61.568 307.435 61.568 307.459 61.628L307.747 61.61C307.795 61.598 307.825 61.628 307.837 61.7C307.861 61.76 307.903 61.814 307.963 61.862C308.095 61.97 308.131 62.204 308.071 62.564C308.011 62.924 307.843 63.428 307.567 64.076C307.339 64.568 307.183 64.94 307.099 65.192C307.027 65.444 306.985 65.69 306.973 65.93C306.973 66.146 307.015 66.35 307.099 66.542C307.183 66.734 307.315 66.908 307.495 67.064C307.627 67.148 307.699 67.244 307.711 67.352C307.735 67.46 307.741 67.586 307.729 67.73C307.705 67.838 307.633 67.928 307.513 68C307.405 68.06 307.279 68.09 307.135 68.09C306.991 68.09 306.859 68.048 306.739 67.964ZM310.629 67.478C310.533 67.502 310.407 67.514 310.251 67.514C310.095 67.502 309.957 67.484 309.837 67.46C309.729 67.424 309.675 67.388 309.675 67.352C309.675 67.292 309.645 67.262 309.585 67.262C309.585 67.262 309.555 67.238 309.495 67.19C309.447 67.142 309.369 67.094 309.261 67.046C309.153 66.878 309.099 66.698 309.099 66.506C309.099 66.302 309.153 65.984 309.261 65.552C309.297 65.252 309.411 64.904 309.603 64.508C309.807 64.1 310.053 63.686 310.341 63.266C310.629 62.846 310.929 62.468 311.241 62.132C311.565 61.796 311.859 61.55 312.123 61.394C312.291 61.226 312.495 61.136 312.735 61.124C312.975 61.112 313.203 61.166 313.419 61.286C313.539 61.346 313.659 61.442 313.779 61.574C313.899 61.706 314.013 61.85 314.121 62.006C314.229 62.162 314.319 62.318 314.391 62.474C314.427 62.606 314.445 62.726 314.445 62.834C314.457 62.93 314.457 63.05 314.445 63.194C314.445 63.338 314.427 63.554 314.391 63.842C314.331 64.058 314.277 64.322 314.229 64.634C314.193 64.946 314.175 65.216 314.175 65.444C314.151 65.672 314.175 65.834 314.247 65.93C314.331 66.026 314.451 66.032 314.607 65.948C314.751 65.876 314.889 65.846 315.021 65.858C315.153 65.858 315.255 65.894 315.327 65.966C315.411 66.038 315.453 66.146 315.453 66.29C315.453 66.434 315.381 66.584 315.237 66.74C315.105 66.884 314.937 67.01 314.733 67.118C314.541 67.214 314.355 67.262 314.175 67.262C314.043 67.262 313.917 67.184 313.797 67.028C313.677 66.86 313.569 66.662 313.473 66.434C313.389 66.194 313.311 65.966 313.239 65.75L313.131 65.336L312.357 66.074C312.201 66.242 312.045 66.398 311.889 66.542C311.745 66.674 311.655 66.77 311.619 66.83C311.559 66.938 311.445 67.046 311.277 67.154C311.121 67.262 310.905 67.37 310.629 67.478ZM310.683 66.416C310.887 66.296 311.121 66.122 311.385 65.894C311.649 65.654 311.907 65.396 312.159 65.12C312.411 64.832 312.621 64.568 312.789 64.328C312.993 64.052 313.149 63.794 313.257 63.554C313.365 63.314 313.443 63.086 313.491 62.87C313.443 62.738 313.365 62.6 313.257 62.456C313.149 62.3 313.053 62.216 312.969 62.204C312.705 62.204 312.423 62.372 312.123 62.708C311.835 63.032 311.553 63.386 311.277 63.77C311.229 63.83 311.163 63.926 311.079 64.058C310.995 64.19 310.911 64.316 310.827 64.436C310.755 64.544 310.707 64.616 310.683 64.652C310.647 64.7 310.575 64.838 310.467 65.066C310.371 65.282 310.275 65.504 310.179 65.732C310.083 65.948 310.035 66.092 310.035 66.164C310.035 66.236 310.041 66.314 310.053 66.398C310.077 66.482 310.137 66.536 310.233 66.56C310.329 66.584 310.479 66.536 310.683 66.416ZM316.341 68.162C316.185 68.102 316.071 68.012 315.999 67.892C315.927 67.76 315.885 67.574 315.873 67.334C315.873 67.19 315.897 66.998 315.945 66.758C315.993 66.518 316.047 66.242 316.107 65.93C316.107 65.906 316.107 65.882 316.107 65.858C316.119 65.822 316.125 65.798 316.125 65.786C316.137 65.738 316.149 65.666 316.161 65.57C316.185 65.474 316.203 65.402 316.215 65.354C316.227 65.294 316.233 65.294 316.233 65.354L316.359 64.868C316.419 64.652 316.479 64.436 316.539 64.22C316.599 64.004 316.653 63.818 316.701 63.662C316.749 63.494 316.779 63.398 316.791 63.374C316.791 63.374 316.815 63.308 316.863 63.176C316.911 63.032 316.959 62.894 317.007 62.762C317.211 62.198 317.397 61.724 317.565 61.34C317.733 60.944 317.883 60.656 318.015 60.476C318.027 60.44 318.045 60.398 318.069 60.35C318.093 60.29 318.111 60.242 318.123 60.206C318.135 60.11 318.147 60.038 318.159 59.99C318.183 59.93 318.213 59.876 318.249 59.828C318.273 59.78 318.309 59.72 318.357 59.648C318.405 59.564 318.459 59.462 318.519 59.342L318.591 59.144C318.663 58.988 318.753 58.814 318.861 58.622C318.969 58.43 319.047 58.292 319.095 58.208C319.143 58.1 319.215 57.974 319.311 57.83C319.407 57.674 319.479 57.572 319.527 57.524L319.509 57.506C319.569 57.398 319.641 57.338 319.725 57.326C319.821 57.302 319.923 57.29 320.031 57.29C320.199 57.29 320.295 57.314 320.319 57.362C320.343 57.41 320.355 57.518 320.355 57.686C320.355 57.866 320.349 57.998 320.337 58.082C320.337 58.154 320.289 58.238 320.193 58.334H320.211C320.235 58.31 320.229 58.34 320.193 58.424C320.157 58.496 320.127 58.55 320.103 58.586C320.079 58.646 320.049 58.712 320.013 58.784C319.989 58.856 319.959 58.91 319.923 58.946C319.887 58.994 319.797 59.156 319.653 59.432C319.521 59.696 319.365 60.008 319.185 60.368C319.017 60.728 318.855 61.076 318.699 61.412C318.543 61.748 318.429 62.006 318.357 62.186L318.267 62.456C318.243 62.504 318.231 62.54 318.231 62.564C318.195 62.648 318.159 62.732 318.123 62.816C318.087 62.9 318.051 62.972 318.015 63.032L317.709 64.076L317.619 64.454L317.457 64.85L317.349 65.192C317.325 65.264 317.307 65.33 317.295 65.39C317.283 65.45 317.259 65.498 317.223 65.534C317.223 65.546 317.217 65.564 317.205 65.588C317.205 65.6 317.205 65.612 317.205 65.624C317.157 65.816 317.103 66.086 317.043 66.434C316.983 66.782 316.941 67.148 316.917 67.532C316.917 67.544 316.911 67.556 316.899 67.568C316.899 67.58 316.899 67.592 316.899 67.604C316.863 67.856 316.803 68.024 316.719 68.108C316.635 68.192 316.509 68.21 316.341 68.162ZM326.496 68.9C326.28 68.84 326.106 68.786 325.974 68.738C325.842 68.702 325.776 68.684 325.776 68.684C325.8 68.624 325.788 68.57 325.74 68.522C325.704 68.474 325.62 68.444 325.488 68.432C325.308 68.324 325.14 68.186 324.984 68.018C324.84 67.862 324.72 67.706 324.624 67.55C324.528 67.394 324.456 67.262 324.408 67.154C324.324 66.974 324.282 66.866 324.282 66.83C324.294 66.782 324.366 66.728 324.498 66.668C324.63 66.572 324.726 66.542 324.786 66.578C324.858 66.614 324.942 66.734 325.038 66.938C325.194 67.214 325.458 67.424 325.83 67.568C326.214 67.712 326.64 67.778 327.108 67.766C327.588 67.742 328.044 67.634 328.476 67.442C328.92 67.262 329.196 67.076 329.304 66.884C329.424 66.68 329.382 66.422 329.178 66.11C329.142 66.014 329.1 65.936 329.052 65.876C329.004 65.816 328.926 65.738 328.818 65.642C328.722 65.546 328.56 65.39 328.332 65.174C328.152 65.09 327.984 65.012 327.828 64.94C327.684 64.868 327.528 64.79 327.36 64.706C327.168 64.61 326.934 64.472 326.658 64.292C326.394 64.1 326.142 63.89 325.902 63.662C325.662 63.434 325.488 63.224 325.38 63.032C325.188 62.852 325.044 62.606 324.948 62.294C324.852 61.97 324.816 61.628 324.84 61.268C324.864 60.908 324.954 60.584 325.11 60.296C325.182 60.128 325.302 59.924 325.47 59.684C325.65 59.432 325.848 59.18 326.064 58.928C326.28 58.676 326.49 58.448 326.694 58.244C326.898 58.04 327.066 57.896 327.198 57.812C327.294 57.716 327.396 57.62 327.504 57.524C327.612 57.416 327.666 57.362 327.666 57.362C327.678 57.302 327.696 57.272 327.72 57.272C327.756 57.272 327.774 57.272 327.774 57.272C327.834 57.236 327.966 57.176 328.17 57.092C328.374 57.008 328.596 56.852 328.836 56.624C329.64 56.24 330.294 55.958 330.798 55.778C331.302 55.598 331.716 55.508 332.04 55.508C332.34 55.52 332.61 55.592 332.85 55.724C333.102 55.844 333.306 56.006 333.462 56.21C333.63 56.414 333.732 56.66 333.768 56.948C333.852 57.236 333.828 57.572 333.696 57.956C333.564 58.328 333.366 58.682 333.102 59.018C332.85 59.342 332.574 59.588 332.274 59.756C331.938 59.9 331.71 59.966 331.59 59.954C331.482 59.93 331.434 59.804 331.446 59.576C331.446 59.48 331.476 59.366 331.536 59.234C331.608 59.102 331.794 58.868 332.094 58.532C332.478 57.968 332.712 57.518 332.796 57.182C332.88 56.846 332.802 56.66 332.562 56.624C332.49 56.6 332.358 56.6 332.166 56.624C331.986 56.648 331.782 56.684 331.554 56.732C331.338 56.768 331.152 56.81 330.996 56.858C330.84 56.894 330.762 56.924 330.762 56.948C330.762 56.948 330.762 56.966 330.762 57.002C330.762 57.038 330.738 57.05 330.69 57.038C330.666 57.038 330.564 57.086 330.384 57.182C330.204 57.278 329.988 57.404 329.736 57.56C329.484 57.716 329.232 57.872 328.98 58.028C328.728 58.184 328.512 58.322 328.332 58.442C328.164 58.55 328.074 58.616 328.062 58.64C328.038 58.772 327.9 58.892 327.648 59C327.408 59.144 327.186 59.354 326.982 59.63C326.79 59.906 326.574 60.248 326.334 60.656C326.13 60.932 325.986 61.232 325.902 61.556C325.818 61.868 325.818 62.12 325.902 62.312C325.962 62.504 326.148 62.75 326.46 63.05C326.772 63.35 327.162 63.638 327.63 63.914C328.038 64.142 328.404 64.37 328.728 64.598C329.052 64.814 329.316 65.024 329.52 65.228C329.736 65.432 329.88 65.612 329.952 65.768C330.096 65.972 330.198 66.182 330.258 66.398C330.33 66.602 330.366 66.8 330.366 66.992C330.378 67.184 330.36 67.358 330.312 67.514C330.228 67.706 330.078 67.904 329.862 68.108C329.658 68.312 329.484 68.408 329.34 68.396C329.208 68.432 329.106 68.474 329.034 68.522C328.974 68.57 328.902 68.612 328.818 68.648C328.734 68.696 328.554 68.744 328.278 68.792C328.014 68.84 327.72 68.87 327.396 68.882C327.072 68.906 326.772 68.912 326.496 68.9ZM333.594 67.406C333.45 67.43 333.294 67.406 333.126 67.334C332.958 67.262 332.808 67.16 332.676 67.028C332.556 66.896 332.478 66.758 332.442 66.614C332.394 66.362 332.424 66.05 332.532 65.678C332.652 65.294 332.82 64.892 333.036 64.472C333.264 64.04 333.516 63.626 333.792 63.23C334.08 62.834 334.374 62.492 334.674 62.204C334.986 61.904 335.274 61.7 335.538 61.592C335.67 61.508 335.772 61.454 335.844 61.43C335.928 61.394 336.012 61.388 336.096 61.412C336.192 61.436 336.33 61.496 336.51 61.592C336.678 61.64 336.804 61.694 336.888 61.754C336.972 61.814 337.08 61.934 337.212 62.114C337.308 62.294 337.38 62.474 337.428 62.654C337.476 62.834 337.518 63.038 337.554 63.266C337.65 63.566 337.686 63.764 337.662 63.86C337.638 63.944 337.602 64.01 337.554 64.058C337.458 64.178 337.434 64.238 337.482 64.238C337.482 64.238 337.476 64.262 337.464 64.31C337.464 64.346 337.44 64.406 337.392 64.49C337.308 64.754 337.242 65.03 337.194 65.318C337.158 65.594 337.164 65.822 337.212 66.002C337.308 66.266 337.482 66.422 337.734 66.47C337.986 66.518 338.244 66.41 338.508 66.146C338.64 66.05 338.766 65.966 338.886 65.894C339.006 65.81 339.066 65.816 339.066 65.912C339.066 65.912 339.084 65.93 339.12 65.966C339.156 65.99 339.198 66.002 339.246 66.002C339.306 66.002 339.342 66.026 339.354 66.074C339.378 66.122 339.378 66.188 339.354 66.272C339.342 66.344 339.306 66.428 339.246 66.524C339.066 66.704 338.976 66.824 338.976 66.884C338.976 66.884 338.952 66.908 338.904 66.956C338.868 66.992 338.802 67.052 338.706 67.136C338.49 67.268 338.214 67.334 337.878 67.334C337.554 67.334 337.302 67.268 337.122 67.136C336.942 67.004 336.774 66.824 336.618 66.596C336.474 66.368 336.378 66.17 336.33 66.002L336.24 65.822L335.718 66.164C335.586 66.296 335.442 66.422 335.286 66.542C335.142 66.662 335.046 66.746 334.998 66.794C334.962 66.842 334.92 66.884 334.872 66.92C334.836 66.956 334.794 66.974 334.746 66.974C334.698 66.974 334.656 66.974 334.62 66.974C334.584 66.974 334.566 66.974 334.566 66.974C334.566 67.022 334.506 67.082 334.386 67.154C334.278 67.226 334.146 67.286 333.99 67.334C333.846 67.382 333.714 67.406 333.594 67.406ZM333.414 66.434C333.486 66.434 333.612 66.38 333.792 66.272C333.984 66.152 334.194 66.014 334.422 65.858C334.662 65.702 334.872 65.546 335.052 65.39C335.244 65.234 335.376 65.114 335.448 65.03C335.496 64.982 335.574 64.904 335.682 64.796C335.79 64.676 335.886 64.574 335.97 64.49C336.246 64.178 336.438 63.836 336.546 63.464C336.654 63.08 336.642 62.78 336.51 62.564C336.462 62.432 336.402 62.36 336.33 62.348C336.258 62.336 336.108 62.378 335.88 62.474C335.736 62.558 335.556 62.72 335.34 62.96C335.136 63.188 334.914 63.458 334.674 63.77C334.446 64.07 334.23 64.382 334.026 64.706C333.822 65.03 333.654 65.33 333.522 65.606C333.39 65.882 333.324 66.098 333.324 66.254C333.324 66.302 333.336 66.344 333.36 66.38C333.396 66.416 333.414 66.434 333.414 66.434ZM340.401 68C340.173 68.06 339.987 68.012 339.843 67.856C339.711 67.7 339.633 67.46 339.609 67.136C339.585 66.812 339.621 66.428 339.717 65.984C339.777 65.84 339.825 65.702 339.861 65.57C339.897 65.426 339.915 65.312 339.915 65.228C339.939 65.108 339.987 64.934 340.059 64.706C340.131 64.466 340.209 64.22 340.293 63.968C340.377 63.716 340.455 63.494 340.527 63.302C340.611 63.098 340.665 62.972 340.689 62.924C340.737 62.924 340.779 62.882 340.815 62.798C340.851 62.714 340.869 62.63 340.869 62.546C340.869 62.45 340.887 62.342 340.923 62.222C340.971 62.102 341.019 62.018 341.067 61.97C341.067 61.91 341.079 61.844 341.103 61.772C341.139 61.688 341.157 61.622 341.157 61.574C341.157 61.526 341.169 61.478 341.193 61.43C341.229 61.382 341.247 61.334 341.247 61.286C341.331 61.13 341.439 60.884 341.571 60.548C341.715 60.2 341.865 59.816 342.021 59.396C342.189 58.976 342.345 58.562 342.489 58.154C342.633 57.746 342.747 57.404 342.831 57.128C342.927 56.84 342.975 56.666 342.975 56.606C342.975 56.51 342.999 56.438 343.047 56.39C343.095 56.342 343.167 56.318 343.263 56.318C343.299 56.282 343.341 56.258 343.389 56.246C343.449 56.234 343.503 56.228 343.551 56.228C343.551 56.228 343.575 56.252 343.623 56.3C343.671 56.348 343.743 56.42 343.839 56.516C343.935 56.6 343.989 56.696 344.001 56.804C344.025 56.912 344.037 57.038 344.037 57.182C344.037 57.338 344.019 57.476 343.983 57.596C343.947 57.716 343.875 57.89 343.767 58.118C343.659 58.346 343.491 58.7 343.263 59.18C343.167 59.42 343.065 59.648 342.957 59.864C342.849 60.068 342.795 60.194 342.795 60.242C342.795 60.29 342.771 60.362 342.723 60.458C342.687 60.554 342.645 60.674 342.597 60.818C342.549 60.914 342.483 61.058 342.399 61.25C342.315 61.43 342.225 61.628 342.129 61.844C342.045 62.048 341.973 62.228 341.913 62.384C341.853 62.528 341.823 62.612 341.823 62.636C341.823 62.684 341.817 62.732 341.805 62.78C341.805 62.828 341.781 62.876 341.733 62.924C341.685 62.924 341.655 62.96 341.643 63.032C341.643 63.092 341.643 63.122 341.643 63.122C341.643 63.242 341.547 63.56 341.355 64.076C341.163 64.736 340.983 65.342 340.815 65.894C340.659 66.446 340.581 66.89 340.581 67.226C340.581 67.514 340.575 67.706 340.563 67.802C340.551 67.886 340.497 67.952 340.401 68ZM343.028 67.352C342.98 67.256 342.92 67.184 342.848 67.136C342.776 67.076 342.74 67.022 342.74 66.974C342.74 66.926 342.734 66.878 342.722 66.83C342.722 66.77 342.698 66.716 342.65 66.668C342.59 66.596 342.596 66.434 342.668 66.182C342.74 65.918 342.86 65.6 343.028 65.228C343.196 64.844 343.394 64.442 343.622 64.022C343.718 63.926 343.814 63.8 343.91 63.644C344.006 63.488 344.078 63.386 344.126 63.338C344.126 63.29 344.144 63.248 344.18 63.212C344.216 63.164 344.258 63.14 344.306 63.14V63.032C344.306 62.972 344.36 62.87 344.468 62.726C344.588 62.582 344.732 62.426 344.9 62.258C345.068 62.078 345.242 61.91 345.422 61.754C345.602 61.586 345.752 61.466 345.872 61.394C346.124 61.226 346.382 61.124 346.646 61.088C346.922 61.052 347.156 61.112 347.348 61.268C347.384 61.304 347.444 61.364 347.528 61.448C347.612 61.532 347.708 61.628 347.816 61.736C347.936 61.832 348.056 61.934 348.176 62.042L348.842 62.636L348.518 63.536C348.362 64.016 348.32 64.436 348.392 64.796C348.476 65.156 348.596 65.468 348.752 65.732C348.812 65.864 348.932 65.99 349.112 66.11C349.304 66.23 349.484 66.302 349.652 66.326C349.748 66.338 349.838 66.374 349.922 66.434C350.006 66.494 350.048 66.59 350.048 66.722C350.048 66.842 350.024 66.938 349.976 67.01C349.928 67.082 349.844 67.13 349.724 67.154C349.328 67.202 348.956 67.106 348.608 66.866C348.272 66.626 347.96 66.23 347.672 65.678C347.624 65.606 347.558 65.474 347.474 65.282C347.402 65.078 347.36 64.946 347.348 64.886C347.3 64.946 347.21 65.06 347.078 65.228C346.946 65.384 346.844 65.498 346.772 65.57C345.92 66.434 345.182 67.016 344.558 67.316C343.946 67.604 343.436 67.616 343.028 67.352ZM343.676 66.344C343.676 66.428 343.802 66.428 344.054 66.344C344.318 66.248 344.6 66.08 344.9 65.84C345.308 65.492 345.716 65.108 346.124 64.688C346.544 64.268 346.88 63.878 347.132 63.518L347.528 62.87C347.408 62.594 347.276 62.408 347.132 62.312C347 62.204 346.886 62.15 346.79 62.15C346.634 62.15 346.4 62.294 346.088 62.582C345.788 62.87 345.464 63.254 345.116 63.734C344.768 64.214 344.438 64.742 344.126 65.318C344.006 65.558 343.898 65.792 343.802 66.02C343.718 66.236 343.676 66.344 343.676 66.344ZM351.857 67.442C351.821 67.454 351.761 67.448 351.677 67.424C351.593 67.4 351.509 67.37 351.425 67.334C351.341 67.298 351.287 67.268 351.263 67.244C351.215 67.196 351.167 67.124 351.119 67.028C351.083 66.932 351.083 66.794 351.119 66.614C351.155 66.422 351.275 66.176 351.479 65.876C351.539 65.756 351.611 65.576 351.695 65.336C351.779 65.096 351.863 64.844 351.947 64.58C352.043 64.304 352.127 64.058 352.199 63.842C352.283 63.626 352.343 63.476 352.379 63.392C352.403 63.188 352.391 63.044 352.343 62.96C352.307 62.864 352.205 62.81 352.037 62.798C351.917 62.798 351.821 62.786 351.749 62.762C351.689 62.738 351.659 62.618 351.659 62.402C351.683 62.234 351.725 62.12 351.785 62.06C351.857 61.988 351.953 61.91 352.073 61.826C352.193 61.766 352.313 61.724 352.433 61.7C352.565 61.676 352.691 61.67 352.811 61.682C352.931 61.694 353.027 61.736 353.099 61.808C353.183 61.856 353.237 61.964 353.261 62.132C353.285 62.288 353.297 62.45 353.297 62.618C353.309 62.786 353.321 62.912 353.333 62.996C353.453 62.9 353.615 62.768 353.819 62.6C354.035 62.42 354.221 62.252 354.377 62.096C354.569 61.964 354.797 61.832 355.061 61.7C355.325 61.556 355.517 61.484 355.637 61.484C355.769 61.484 355.901 61.52 356.033 61.592C356.165 61.652 356.255 61.73 356.303 61.826C356.423 62.03 356.477 62.21 356.465 62.366C356.465 62.522 356.399 62.684 356.267 62.852C356.147 63.008 355.997 63.116 355.817 63.176C355.649 63.236 355.541 63.266 355.493 63.266C355.421 63.266 355.331 63.212 355.223 63.104C355.115 62.996 355.055 62.906 355.043 62.834C355.043 62.798 354.965 62.834 354.809 62.942C354.665 63.038 354.503 63.164 354.323 63.32C354.143 63.464 353.993 63.596 353.873 63.716C353.669 63.968 353.453 64.31 353.225 64.742C352.997 65.174 352.727 65.696 352.415 66.308C352.271 66.608 352.169 66.866 352.109 67.082C352.049 67.286 351.965 67.406 351.857 67.442ZM358.505 72.14C358.493 72.164 358.439 72.14 358.343 72.068C358.259 71.996 358.175 71.906 358.091 71.798C358.007 71.702 357.971 71.618 357.983 71.546C357.935 71.378 357.941 71.168 358.001 70.916C358.073 70.676 358.223 70.316 358.451 69.836C358.571 69.644 358.679 69.416 358.775 69.152C358.883 68.888 359.003 68.624 359.135 68.36C359.195 68.252 359.327 68.018 359.531 67.658C359.735 67.298 359.951 66.89 360.179 66.434C360.419 65.978 360.617 65.546 360.773 65.138C360.461 65.462 360.173 65.792 359.909 66.128C359.645 66.452 359.399 66.716 359.171 66.92C358.955 67.124 358.751 67.22 358.559 67.208C358.403 67.172 358.235 67.118 358.055 67.046C357.887 66.962 357.773 66.818 357.713 66.614C357.665 66.35 357.647 66.014 357.659 65.606C357.683 65.198 357.761 64.58 357.893 63.752C357.989 63.344 358.043 63.032 358.055 62.816C358.079 62.588 358.073 62.42 358.037 62.312C358.001 62.204 357.935 62.108 357.839 62.024C357.683 61.88 357.599 61.754 357.587 61.646C357.587 61.526 357.671 61.424 357.839 61.34C358.091 61.28 358.271 61.262 358.379 61.286C358.487 61.298 358.619 61.394 358.775 61.574C358.871 61.73 358.955 61.88 359.027 62.024C359.111 62.156 359.153 62.39 359.153 62.726C359.153 62.87 359.129 63.062 359.081 63.302C359.045 63.542 359.009 63.77 358.973 63.986C358.949 64.19 358.931 64.334 358.919 64.418C358.799 64.862 358.721 65.246 358.685 65.57C358.661 65.894 358.679 66.056 358.739 66.056C358.979 65.864 359.207 65.648 359.423 65.408C359.651 65.156 359.885 64.874 360.125 64.562C360.377 64.238 360.653 63.872 360.953 63.464C361.061 63.26 361.169 63.062 361.277 62.87C361.385 62.678 361.475 62.48 361.547 62.276C361.619 62.12 361.691 61.994 361.763 61.898C361.835 61.802 361.895 61.748 361.943 61.736C362.003 61.712 362.075 61.718 362.159 61.754C362.255 61.79 362.339 61.832 362.411 61.88C362.495 61.916 362.537 61.946 362.537 61.97C362.549 61.982 362.579 61.994 362.627 62.006C362.675 62.018 362.723 62.03 362.771 62.042C362.831 62.042 362.861 62.06 362.861 62.096C362.861 62.12 362.831 62.198 362.771 62.33C362.723 62.462 362.663 62.612 362.591 62.78C362.531 62.936 362.477 63.08 362.429 63.212C362.381 63.332 362.363 63.404 362.375 63.428C362.399 63.452 362.381 63.542 362.321 63.698C362.261 63.842 362.189 64.004 362.105 64.184C362.033 64.364 361.967 64.526 361.907 64.67C361.787 65.066 361.649 65.462 361.493 65.858C361.337 66.242 361.151 66.626 360.935 67.01C360.863 67.154 360.755 67.376 360.611 67.676C360.479 67.976 360.347 68.27 360.215 68.558C360.095 68.858 359.999 69.086 359.927 69.242C359.879 69.338 359.807 69.488 359.711 69.692C359.627 69.908 359.531 70.142 359.423 70.394C359.327 70.646 359.231 70.88 359.135 71.096C359.039 71.324 358.967 71.498 358.919 71.618C358.895 71.846 358.841 72.014 358.757 72.122C358.709 72.122 358.655 72.122 358.595 72.122C358.535 72.134 358.505 72.14 358.505 72.14Z" fill="url(#paint8_linear_4437_11085)"/>
<defs>
<radialGradient id="paint0_radial_4437_11085" cx="0" cy="0" r="1" gradientUnits="userSpaceOnUse" gradientTransform="translate(306.988) rotate(90) scale(383.5 613)">
<stop stop-color="#FFF30C"/>
<stop offset="1" stop-opacity="0"/>
</radialGradient>
<radialGradient id="paint1_radial_4437_11085" cx="0" cy="0" r="1" gradientUnits="userSpaceOnUse" gradientTransform="translate(297.304 0.568181) rotate(90) scale(397.701 475.047)">
<stop stop-color="#FFF200" stop-opacity="0.4"/>
<stop offset="1" stop-color="#202020" stop-opacity="0"/>
</radialGradient>
<radialGradient id="paint2_radial_4437_11085" cx="0" cy="0" r="1" gradientUnits="userSpaceOnUse" gradientTransform="translate(306.988) rotate(90) scale(383.5 613)">
<stop stop-color="#FFF30C"/>
<stop offset="1" stop-opacity="0"/>
</radialGradient>
<radialGradient id="paint3_radial_4437_11085" cx="0" cy="0" r="1" gradientUnits="userSpaceOnUse" gradientTransform="translate(297.304 0.568181) rotate(90) scale(397.701 475.047)">
<stop stop-color="#FFF200" stop-opacity="0.4"/>
<stop offset="1" stop-color="#202020" stop-opacity="0"/>
</radialGradient>
<radialGradient id="paint4_radial_4437_11085" cx="0" cy="0" r="1" gradientUnits="userSpaceOnUse" gradientTransform="translate(306.988) rotate(90) scale(383.5 613)">
<stop stop-color="#FFF30C"/>
<stop offset="1" stop-opacity="0"/>
</radialGradient>
<radialGradient id="paint5_radial_4437_11085" cx="0" cy="0" r="1" gradientUnits="userSpaceOnUse" gradientTransform="translate(297.304 0.568181) rotate(90) scale(397.701 475.047)">
<stop stop-color="#FFF200" stop-opacity="0.4"/>
<stop offset="1" stop-color="#202020" stop-opacity="0"/>
</radialGradient>
<linearGradient id="paint6_linear_4437_11085" x1="288.988" y1="113" x2="288.988" y2="380" gradientUnits="userSpaceOnUse">
<stop stop-color="#FFF200"/>
<stop offset="1" stop-color="#FFF200" stop-opacity="0.25"/>
</linearGradient>
<linearGradient id="paint7_linear_4437_11085" x1="380.988" y1="69" x2="380.988" y2="381" gradientUnits="userSpaceOnUse">
<stop stop-color="#FFF200"/>
<stop offset="1" stop-color="#FFF200" stop-opacity="0.25"/>
</linearGradient>
<linearGradient id="paint8_linear_4437_11085" x1="224.488" y1="62" x2="362.488" y2="62" gradientUnits="userSpaceOnUse">
<stop stop-color="#FFFBA8"/>
<stop offset="1" stop-color="#FFF200"/>
</linearGradient>
</defs>
</svg>
