<svg width="594" height="196" viewBox="0 0 594 196" fill="none" xmlns="http://www.w3.org/2000/svg">
<g clip-path="url(#clip0_4437_13789)">
<g filter="url(#filter0_i_4437_13789)">
<circle cx="297.001" cy="86.4422" r="86.3521" stroke="#1F1F20"/>
<circle cx="297.001" cy="86.4422" r="86.3521" stroke="url(#paint0_radial_4437_13789)" stroke-opacity="0.4"/>
</g>
<g opacity="0.6" filter="url(#filter1_i_4437_13789)">
<circle cx="296.999" cy="86.4422" r="110.417" stroke="#1F1F20"/>
<circle cx="296.999" cy="86.4422" r="110.417" stroke="url(#paint1_radial_4437_13789)" stroke-opacity="0.4"/>
</g>
<g opacity="0.4" filter="url(#filter2_i_4437_13789)">
<circle cx="297.001" cy="86.4422" r="137.629" stroke="#1F1F20"/>
<circle cx="297.001" cy="86.4422" r="137.629" stroke="url(#paint2_radial_4437_13789)" stroke-opacity="0.4"/>
</g>
<g opacity="0.2" filter="url(#filter3_i_4437_13789)">
<circle cx="296.999" cy="86.4422" r="165.308" stroke="#1F1F20"/>
<circle cx="296.999" cy="86.4422" r="165.308" stroke="url(#paint3_radial_4437_13789)" stroke-opacity="0.4"/>
</g>
<g filter="url(#filter4_i_4437_13789)">
<circle cx="297.002" cy="86.4422" r="62.8298" stroke="#1F1F20"/>
<circle cx="297.002" cy="86.4422" r="62.8298" stroke="url(#paint4_radial_4437_13789)" stroke-opacity="0.4"/>
</g>
<g filter="url(#filter5_i_4437_13789)">
<circle cx="296.999" cy="86.4422" r="38.6157" fill="#1F1F20"/>
<circle cx="296.999" cy="86.4422" r="38.6157" fill="url(#paint5_radial_4437_13789)" fill-opacity="0.3"/>
<circle cx="296.999" cy="86.4422" r="38.6157" fill="url(#paint6_radial_4437_13789)" fill-opacity="0.1"/>
<circle cx="296.999" cy="86.4422" r="38.6157" fill="url(#paint7_radial_4437_13789)" fill-opacity="0.2"/>
</g>
<circle cx="296.999" cy="86.4422" r="38.1157" stroke="url(#paint8_linear_4437_13789)" style="mix-blend-mode:overlay"/>
<g clip-path="url(#clip1_4437_13789)">
<path d="M288.437 82.0154C289.823 82.7711 291.204 83.5318 292.565 84.3308C293.191 84.6977 293.819 85.0592 294.448 85.4187C294.494 85.445 294.54 85.4716 294.588 85.4988C295.114 85.7994 295.642 86.0961 296.172 86.3904V95.7654C294.786 95.0096 293.405 94.249 292.044 93.4499C291.419 93.0831 290.79 92.7215 290.161 92.3621C290.092 92.3225 290.092 92.3223 290.021 92.282C289.495 91.9813 288.967 91.6847 288.437 91.3904V82.0154Z" fill="#FFF200"/>
<path d="M306.251 91.3904L304.141 92.5622C303.656 92.846 303.657 92.8465 303.173 93.1326C302.66 93.4359 302.141 93.7293 301.624 94.0242C301.094 94.3261 300.565 94.6286 300.037 94.9343C299.99 94.9617 299.942 94.9891 299.893 95.0173C299.666 95.1487 299.439 95.281 299.213 95.4128C299.093 95.4822 299.093 95.4826 298.971 95.5535C298.9 95.5946 298.829 95.6351 298.756 95.6775C298.595 95.7652 298.595 95.7654 298.516 95.7654C298.5 94.5614 298.488 93.3571 298.48 92.1531C298.477 91.5941 298.472 91.0352 298.464 90.4763C298.457 89.9891 298.453 89.5017 298.451 89.0144C298.45 88.7563 298.447 88.498 298.442 88.24C298.437 87.9518 298.437 87.6639 298.437 87.3757C298.435 87.2905 298.432 87.2048 298.43 87.1169C298.437 86.55 298.436 86.5497 298.671 86.3132C298.849 86.1926 299.026 86.0935 299.22 85.9997C299.295 85.9549 299.371 85.9103 299.449 85.864C299.515 85.8276 299.582 85.7912 299.65 85.7537C299.726 85.7115 299.802 85.6691 299.881 85.6257C299.961 85.5817 300.041 85.5372 300.123 85.4919C300.785 85.1247 301.443 84.7519 302.096 84.3689C302.884 83.9065 303.676 83.4519 304.471 82.9997C304.982 82.7086 305.491 82.4135 305.997 82.114C306.173 82.0155 306.173 82.0154 306.251 82.0154V91.3904Z" fill="#FFF200"/>
<path d="M296.993 75.6833C297.25 75.5851 297.392 75.6139 297.656 75.6872C297.88 75.7935 297.88 75.7941 298.114 75.9304C298.202 75.9809 298.29 76.0307 298.38 76.0828C298.474 76.138 298.568 76.1935 298.662 76.2488C298.76 76.3057 298.859 76.3628 298.957 76.4197C299.253 76.5913 299.548 76.7642 299.844 76.9372C300.085 77.0784 300.327 77.2199 300.568 77.3611C300.72 77.45 300.872 77.5395 301.024 77.6287C301.587 77.9576 302.155 78.276 302.724 78.5925C303.32 78.9244 303.913 79.2607 304.497 79.613C304.556 79.6485 304.616 79.6839 304.678 79.7204C304.814 79.8038 304.946 79.8934 305.078 79.9841V80.1404C304.856 80.2673 304.633 80.3943 304.411 80.5212C304.215 80.6334 304.018 80.7459 303.822 80.8581C303.325 81.1424 302.827 81.4268 302.33 81.7107C301.516 82.1752 300.702 82.6401 299.89 83.1091C299.718 83.2085 299.546 83.308 299.374 83.407C299.008 83.617 298.643 83.8284 298.283 84.0476C298.226 84.0818 298.168 84.1159 298.109 84.1511C298.007 84.2124 297.905 84.2746 297.804 84.3386C297.572 84.4752 297.462 84.5262 297.197 84.4578C296.964 84.3639 296.757 84.2587 296.54 84.1316C296.461 84.0857 296.382 84.0402 296.301 83.9929C296.216 83.9432 296.132 83.8928 296.045 83.8415C295.909 83.762 295.772 83.6826 295.636 83.6033C295.541 83.5482 295.446 83.4934 295.351 83.4382C294.891 83.1693 294.427 82.9045 293.964 82.6404C293.106 82.1516 292.25 81.6587 291.395 81.1648C290.801 80.8215 290.206 80.4798 289.609 80.1404C289.704 79.8557 289.766 79.8399 290.022 79.6999C290.093 79.6606 290.164 79.6204 290.237 79.5798C290.315 79.5376 290.393 79.4954 290.474 79.4519C290.639 79.3603 290.804 79.2683 290.97 79.1765C291.055 79.1293 291.141 79.0826 291.228 79.0339C291.626 78.8113 292.019 78.5795 292.412 78.3484C293.129 77.9279 293.851 77.5183 294.578 77.116C295.002 76.8806 295.421 76.6395 295.836 76.3884C295.963 76.3118 295.964 76.3113 296.094 76.2331C296.256 76.1351 296.418 76.0356 296.579 75.9353C296.652 75.8914 296.725 75.8477 296.8 75.8025C296.895 75.7436 296.896 75.7434 296.993 75.6833Z" fill="#FFF200"/>
<path fill-rule="evenodd" clip-rule="evenodd" d="M294.374 67.406C295.554 65.8663 297.717 65.518 299.349 66.5271C300.144 67.0995 300.73 67.8328 300.93 68.8093C301.006 69.3199 301.04 69.7897 300.936 70.2966C300.992 70.3172 301.047 70.3379 301.103 70.3591C301.338 70.4576 301.552 70.574 301.772 70.7009C301.902 70.7755 301.903 70.7751 302.036 70.8513C302.13 70.9056 302.224 70.9601 302.318 71.0144C302.416 71.0708 302.514 71.128 302.612 71.1843C302.864 71.3292 303.117 71.4736 303.369 71.6189C303.592 71.7477 303.816 71.877 304.039 72.0056C304.457 72.2463 304.874 72.487 305.292 72.7283C305.552 72.8785 305.812 73.0285 306.072 73.1785C306.159 73.2285 306.245 73.2792 306.335 73.3308C306.506 73.4296 306.678 73.5281 306.849 73.6267C307.243 73.8528 307.635 74.0806 308.023 74.3142C308.092 74.355 308.16 74.3962 308.23 74.4382C308.357 74.5138 308.484 74.5895 308.609 74.6667C308.692 74.7162 308.692 74.7169 308.777 74.7673C308.825 74.7963 308.873 74.8254 308.922 74.8552C309.104 74.9223 309.193 74.8928 309.374 74.8279C309.558 74.7393 309.74 74.6488 309.921 74.5544C310.756 74.1195 311.686 74.073 312.611 74.2566C313.542 74.5762 314.342 75.2067 314.794 76.0828C315.23 76.991 315.328 78.0416 315.028 79.0124C314.621 80.0441 313.901 80.7843 312.89 81.2341H312.733V90.7654L313.202 90.9216C314.166 91.4415 314.735 92.185 315.088 93.2136C315.311 94.1693 315.205 95.1714 314.739 96.0349C314.21 96.886 313.473 97.4769 312.505 97.7634C311.591 97.953 310.538 97.871 309.744 97.3738C309.641 97.3056 309.539 97.2351 309.44 97.1609C309.235 97.0659 309.122 97.1131 308.905 97.1716C308.702 97.2689 308.701 97.269 308.494 97.3943C308.414 97.4408 308.334 97.4879 308.252 97.5359C308.166 97.5865 308.08 97.637 307.992 97.6892C307.901 97.7423 307.81 97.7954 307.72 97.8484C307.531 97.9585 307.342 98.0689 307.154 98.1794C306.724 98.4318 306.291 98.6805 305.858 98.9294C305.689 99.0269 305.52 99.1249 305.351 99.2224C305.009 99.4199 304.667 99.6172 304.324 99.8142C304.152 99.9132 303.98 100.012 303.807 100.111C303.724 100.159 303.641 100.207 303.556 100.257C303.138 100.497 302.722 100.74 302.307 100.987C302.228 101.034 302.147 101.082 302.065 101.131C301.915 101.221 301.764 101.311 301.614 101.402C301.514 101.462 301.514 101.461 301.412 101.522C301.354 101.557 301.295 101.593 301.235 101.629C301.092 101.703 301.092 101.703 300.936 101.703C300.948 101.77 300.947 101.77 300.959 101.839C301.098 102.859 300.863 103.727 300.311 104.593C299.778 105.29 298.992 105.818 298.124 106C296.822 106.109 295.866 105.912 294.836 105.089C294.094 104.422 293.775 103.559 293.681 102.593C293.668 102.282 293.687 102.007 293.749 101.703C293.666 101.672 293.666 101.672 293.581 101.64C293.346 101.542 293.133 101.426 292.913 101.3C292.826 101.25 292.739 101.2 292.649 101.148C292.555 101.094 292.461 101.039 292.367 100.985C292.269 100.929 292.17 100.873 292.072 100.816C291.82 100.671 291.568 100.526 291.316 100.381C291.093 100.252 290.87 100.123 290.646 99.9949C290.229 99.7541 289.811 99.5125 289.393 99.2712C289.133 99.1211 288.873 98.971 288.613 98.821C288.526 98.7709 288.439 98.7213 288.349 98.6697C288.178 98.5708 288.006 98.4724 287.835 98.3738C287.442 98.1478 287.05 97.9198 286.662 97.6863C286.559 97.6251 286.559 97.6247 286.454 97.5622C286.327 97.4866 286.201 97.4101 286.075 97.3328C286.02 97.2999 285.964 97.267 285.907 97.2331C285.86 97.2043 285.812 97.175 285.764 97.1453C285.581 97.0781 285.492 97.1067 285.311 97.1716C285.127 97.2602 284.946 97.3507 284.765 97.4451C283.929 97.8802 282.999 97.9276 282.073 97.7439C281.142 97.4243 280.343 96.7929 279.891 95.9167C279.455 95.0085 279.358 93.9579 279.657 92.9871C280.064 91.9555 280.784 91.2151 281.796 90.7654H281.952V81.2341L281.483 81.0779C280.52 80.558 279.95 79.8154 279.598 78.7869C279.374 77.831 279.48 76.8282 279.945 75.9646C280.474 75.1135 281.212 74.5236 282.181 74.2371C283.094 74.0476 284.147 74.1288 284.94 74.6257C285.044 74.6939 285.146 74.7653 285.245 74.8396C285.45 74.9344 285.563 74.8864 285.78 74.8279C285.983 74.7307 285.984 74.7306 286.191 74.6052C286.271 74.5587 286.351 74.5125 286.433 74.4646C286.519 74.4139 286.605 74.3625 286.693 74.3103C286.784 74.2572 286.875 74.2041 286.966 74.1511C287.154 74.0411 287.343 73.9305 287.531 73.8201C287.962 73.5677 288.395 73.319 288.827 73.0701C288.996 72.9727 289.165 72.8755 289.334 72.7781C289.676 72.5806 290.019 72.3833 290.361 72.1863C290.533 72.0872 290.706 71.9875 290.878 71.8884C290.961 71.8406 291.044 71.7931 291.13 71.7439C291.547 71.5031 291.964 71.2601 292.378 71.0134C292.457 70.9661 292.537 70.9187 292.619 70.8699C292.77 70.7798 292.921 70.6891 293.071 70.5984C293.171 70.5389 293.171 70.5389 293.272 70.4783C293.331 70.4432 293.389 70.4079 293.449 70.3718C293.592 70.2972 293.593 70.2966 293.749 70.2966C293.741 70.2522 293.734 70.2077 293.726 70.1619C293.587 69.1414 293.823 68.2725 294.374 67.406ZM299.692 72.4138C299.467 72.5118 299.256 72.6326 299.042 72.7527C298.249 73.1679 297.368 73.2885 296.485 73.1072C296.098 72.9822 295.748 72.7995 295.391 72.6062C294.982 72.3958 294.843 72.3731 294.439 72.614C294.319 72.6846 294.319 72.6845 294.196 72.7566C294.067 72.8346 294.066 72.8344 293.934 72.9138C293.843 72.9676 293.752 73.0213 293.661 73.0749C293.471 73.1866 293.282 73.2994 293.093 73.4119C292.663 73.6668 292.229 73.9148 291.796 74.1638C291.627 74.2613 291.457 74.3592 291.288 74.4568C290.948 74.6532 290.607 74.8495 290.266 75.0456C289.326 75.5874 288.388 76.1313 287.451 76.6794C287.377 76.7225 287.303 76.7659 287.227 76.8103C287.131 76.867 287.13 76.8666 287.031 76.9246C286.928 76.9837 286.824 77.0404 286.718 77.0935C286.722 77.1956 286.721 77.1963 286.725 77.3005C286.752 78.46 286.508 79.518 285.704 80.3894C285.377 80.6824 284.978 80.929 284.56 81.0681C284.334 81.2692 284.341 81.3276 284.32 81.6208C284.316 81.7896 284.314 81.9589 284.314 82.1277C284.313 82.2195 284.311 82.3114 284.309 82.406C284.306 82.6588 284.304 82.912 284.304 83.1648C284.303 83.3228 284.301 83.4813 284.3 83.6394C284.295 84.191 284.293 84.743 284.293 85.2947C284.292 85.8083 284.287 86.3221 284.279 86.8357C284.273 87.277 284.269 87.7186 284.269 88.1599C284.269 88.4233 284.268 88.6866 284.263 88.9499C284.188 89.964 284.188 89.9642 284.466 90.905C284.712 91.1356 284.994 91.2217 285.311 91.3122C286.007 91.7588 286.454 92.5507 286.64 93.3435C286.709 93.6963 286.726 94.029 286.723 94.3884C286.722 94.4857 286.721 94.5832 286.721 94.6833C286.72 94.7568 286.719 94.8303 286.718 94.906C286.77 94.935 286.822 94.964 286.876 94.9939C288.64 95.9762 288.64 95.9765 289.484 96.4773C289.977 96.7696 290.474 97.0563 290.971 97.3425C291.056 97.3918 291.141 97.4412 291.229 97.4919C291.588 97.6988 291.948 97.9063 292.307 98.113C292.491 98.2187 292.675 98.3247 292.858 98.4304C293.03 98.5293 293.202 98.6275 293.374 98.7263C293.453 98.7716 293.531 98.8173 293.612 98.864C293.725 98.9288 293.725 98.9288 293.841 98.9949C293.989 99.0824 294.137 99.1727 294.282 99.2654C294.351 99.3091 294.42 99.3531 294.491 99.3982C294.551 99.4377 294.612 99.4776 294.674 99.5183C294.837 99.609 294.837 99.6091 295.007 99.5749C295.23 99.4862 295.434 99.3642 295.643 99.2468C296.437 98.8317 297.317 98.7109 298.2 98.8923C298.587 99.0173 298.936 99.201 299.293 99.3943C299.558 99.5337 299.558 99.533 299.843 99.5935C300.041 99.5149 300.041 99.5152 300.246 99.3865C300.326 99.3394 300.407 99.2924 300.489 99.2439C300.576 99.1919 300.662 99.1393 300.751 99.0857C300.842 99.0319 300.933 98.9782 301.024 98.9245C301.214 98.813 301.403 98.7009 301.592 98.5886C302.022 98.3335 302.456 98.0848 302.89 97.8357L307.968 94.906C307.967 94.8328 307.965 94.7597 307.964 94.6843C307.963 94.5874 307.963 94.4903 307.962 94.3904C307.961 94.2945 307.96 94.1981 307.959 94.0994C307.988 93.1776 308.35 92.2934 308.975 91.616C309.371 91.2605 309.837 90.9999 310.311 90.7654C310.333 89.5323 310.35 88.2993 310.36 87.0662C310.365 86.4934 310.371 85.92 310.382 85.3474C310.391 84.8484 310.397 84.3494 310.399 83.8503C310.401 83.586 310.403 83.3216 310.41 83.0574C310.492 82.0402 310.492 82.0401 310.22 81.0945C309.974 80.8632 309.692 80.7773 309.374 80.6872C308.678 80.2409 308.231 79.4487 308.046 78.656C307.974 78.3034 307.959 77.9705 307.963 77.6111C307.963 77.5139 307.964 77.4163 307.965 77.3162C307.966 77.2063 307.966 77.2059 307.968 77.0935C307.923 77.0685 307.878 77.0441 307.832 77.0183C306.888 76.488 305.948 75.951 305.014 75.404C304.44 75.0685 303.866 74.7349 303.29 74.4031C303.207 74.3551 303.124 74.307 303.038 74.2576C302.78 74.109 302.522 73.9607 302.265 73.8122C301.937 73.6234 301.609 73.4348 301.281 73.2458C301.15 73.1701 301.018 73.094 300.887 73.0183C300.807 72.9723 300.727 72.9261 300.644 72.8787C300.574 72.8383 300.504 72.7982 300.432 72.7566C300.293 72.6762 300.157 72.5933 300.021 72.5085C299.855 72.3926 299.855 72.392 299.692 72.4138Z" fill="#FFF200"/>
</g>
<mask id="mask0_4437_13789" style="mask-type:alpha" maskUnits="userSpaceOnUse" x="395" y="79" width="25" height="25">
<rect x="395.918" y="79.8203" width="24" height="24" fill="#D9D9D9"/>
</mask>
<g mask="url(#mask0_4437_13789)">
<path d="M399.918 100.82C399.085 100.82 398.376 100.529 397.793 99.9453C397.21 99.362 396.918 98.6536 396.918 97.8203C396.918 97.387 397.001 96.9745 397.168 96.5828C397.335 96.1911 397.585 95.8536 397.918 95.5703V90.8203H399.918V84.8203H407.918L412.618 95.8953C412.718 96.1286 412.793 96.362 412.843 96.5953C412.893 96.8286 412.918 97.0703 412.918 97.3203C412.918 98.287 412.576 99.112 411.893 99.7953C411.21 100.479 410.385 100.82 409.418 100.82C408.735 100.82 408.105 100.641 407.53 100.283C406.955 99.9245 406.526 99.437 406.243 98.8203H402.743C402.526 99.4203 402.16 99.9036 401.643 100.27C401.126 100.637 400.551 100.82 399.918 100.82ZM413.918 99.8203V83.8203H415.918V97.8203H418.918V99.8203H413.918ZM399.918 98.8203C400.201 98.8203 400.439 98.7245 400.63 98.5328C400.822 98.3411 400.918 98.1036 400.918 97.8203C400.918 97.537 400.822 97.2995 400.63 97.1078C400.439 96.9161 400.201 96.8203 399.918 96.8203C399.635 96.8203 399.397 96.9161 399.205 97.1078C399.014 97.2995 398.918 97.537 398.918 97.8203C398.918 98.1036 399.014 98.3411 399.205 98.5328C399.397 98.7245 399.635 98.8203 399.918 98.8203ZM409.418 98.8203C409.835 98.8203 410.189 98.6745 410.48 98.3828C410.772 98.0911 410.918 97.737 410.918 97.3203C410.918 96.9036 410.772 96.5495 410.48 96.2578C410.189 95.9661 409.835 95.8203 409.418 95.8203C409.001 95.8203 408.647 95.9661 408.355 96.2578C408.064 96.5495 407.918 96.9036 407.918 97.3203C407.918 97.737 408.064 98.0911 408.355 98.3828C408.647 98.6745 409.001 98.8203 409.418 98.8203ZM404.843 93.8203H409.568L406.593 86.8203H401.918V90.8203L404.843 93.8203Z" fill="#FFF200"/>
</g>
<mask id="mask1_4437_13789" style="mask-type:alpha" maskUnits="userSpaceOnUse" x="171" y="86" width="25" height="24">
<rect x="171.52" y="86" width="24" height="24" fill="#D9D9D9"/>
</mask>
<g mask="url(#mask1_4437_13789)">
<path d="M176.52 107C175.97 107 175.499 106.804 175.107 106.413C174.715 106.021 174.52 105.55 174.52 105V92.525C174.52 92.2917 174.557 92.0667 174.632 91.85C174.707 91.6333 174.82 91.4333 174.97 91.25L176.22 89.725C176.403 89.4917 176.632 89.3125 176.907 89.1875C177.182 89.0625 177.47 89 177.77 89H189.27C189.57 89 189.857 89.0625 190.132 89.1875C190.407 89.3125 190.636 89.4917 190.82 89.725L192.07 91.25C192.22 91.4333 192.332 91.6333 192.407 91.85C192.482 92.0667 192.52 92.2917 192.52 92.525V97.425C192.203 97.3083 191.878 97.2125 191.545 97.1375C191.211 97.0625 190.87 97.025 190.52 97.025C189.97 97.025 189.44 97.0875 188.932 97.2125C188.424 97.3375 187.953 97.5333 187.52 97.8V94H179.52V102L183.52 100L184.97 100.725C184.836 101.075 184.728 101.438 184.645 101.812C184.561 102.188 184.52 102.575 184.52 102.975C184.52 103.725 184.653 104.446 184.92 105.138C185.186 105.829 185.57 106.45 186.07 107H176.52ZM189.52 107V104H186.52V102H189.52V99H191.52V102H194.52V104H191.52V107H189.52ZM176.92 92H190.12L189.27 91H177.77L176.92 92Z" fill="#FFF200"/>
</g>
<mask id="mask2_4437_13789" style="mask-type:alpha" maskUnits="userSpaceOnUse" x="240" y="-1" width="25" height="25">
<rect x="240.16" y="-0.409943" width="24" height="24" fill="#D9D9D9"/>
</mask>
<g mask="url(#mask2_4437_13789)">
<path d="M250.66 16.5901H253.66V13.0901H257.16V10.0901H253.66V6.59006H250.66V10.0901H247.16V13.0901H250.66V16.5901ZM245.16 20.5901C244.61 20.5901 244.139 20.3942 243.748 20.0026C243.356 19.6109 243.16 19.1401 243.16 18.5901V4.59006C243.16 4.04006 243.356 3.56922 243.748 3.17756C244.139 2.78589 244.61 2.59006 245.16 2.59006H259.16C259.71 2.59006 260.181 2.78589 260.573 3.17756C260.964 3.56922 261.16 4.04006 261.16 4.59006V18.5901C261.16 19.1401 260.964 19.6109 260.573 20.0026C260.181 20.3942 259.71 20.5901 259.16 20.5901H245.16Z" fill="#FFF200"/>
</g>
<mask id="mask3_4437_13789" style="mask-type:alpha" maskUnits="userSpaceOnUse" x="279" y="153" width="25" height="25">
<rect x="279.32" y="153.588" width="24" height="24" fill="#D9D9D9"/>
</mask>
<g mask="url(#mask3_4437_13789)">
<path d="M286.72 169.588L289.77 166.538L291.77 168.538L295.32 165.013V166.588H297.32V161.588H292.32V163.588H293.895L291.77 165.713L289.77 163.713L285.32 168.188L286.72 169.588ZM284.32 174.588C283.77 174.588 283.299 174.393 282.908 174.001C282.516 173.609 282.32 173.138 282.32 172.588V158.588C282.32 158.038 282.516 157.568 282.908 157.176C283.299 156.784 283.77 156.588 284.32 156.588H298.32C298.87 156.588 299.341 156.784 299.733 157.176C300.124 157.568 300.32 158.038 300.32 158.588V172.588C300.32 173.138 300.124 173.609 299.733 174.001C299.341 174.393 298.87 174.588 298.32 174.588H284.32Z" fill="#FFF200"/>
</g>
</g>
<defs>
<filter id="filter0_i_4437_13789" x="210.148" y="-0.409943" width="173.703" height="173.704" filterUnits="userSpaceOnUse" color-interpolation-filters="sRGB">
<feFlood flood-opacity="0" result="BackgroundImageFix"/>
<feBlend mode="normal" in="SourceGraphic" in2="BackgroundImageFix" result="shape"/>
<feColorMatrix in="SourceAlpha" type="matrix" values="0 0 0 0 0 0 0 0 0 0 0 0 0 0 0 0 0 0 127 0" result="hardAlpha"/>
<feOffset/>
<feGaussianBlur stdDeviation="3"/>
<feComposite in2="hardAlpha" operator="arithmetic" k2="-1" k3="1"/>
<feColorMatrix type="matrix" values="0 0 0 0 1 0 0 0 0 1 0 0 0 0 1 0 0 0 0.15 0"/>
<feBlend mode="normal" in2="shape" result="effect1_innerShadow_4437_13789"/>
</filter>
<filter id="filter1_i_4437_13789" x="186.082" y="-24.4752" width="221.836" height="221.835" filterUnits="userSpaceOnUse" color-interpolation-filters="sRGB">
<feFlood flood-opacity="0" result="BackgroundImageFix"/>
<feBlend mode="normal" in="SourceGraphic" in2="BackgroundImageFix" result="shape"/>
<feColorMatrix in="SourceAlpha" type="matrix" values="0 0 0 0 0 0 0 0 0 0 0 0 0 0 0 0 0 0 127 0" result="hardAlpha"/>
<feOffset/>
<feGaussianBlur stdDeviation="3"/>
<feComposite in2="hardAlpha" operator="arithmetic" k2="-1" k3="1"/>
<feColorMatrix type="matrix" values="0 0 0 0 1 0 0 0 0 1 0 0 0 0 1 0 0 0 0.15 0"/>
<feBlend mode="normal" in2="shape" result="effect1_innerShadow_4437_13789"/>
</filter>
<filter id="filter2_i_4437_13789" x="158.871" y="-51.6873" width="276.258" height="276.259" filterUnits="userSpaceOnUse" color-interpolation-filters="sRGB">
<feFlood flood-opacity="0" result="BackgroundImageFix"/>
<feBlend mode="normal" in="SourceGraphic" in2="BackgroundImageFix" result="shape"/>
<feColorMatrix in="SourceAlpha" type="matrix" values="0 0 0 0 0 0 0 0 0 0 0 0 0 0 0 0 0 0 127 0" result="hardAlpha"/>
<feOffset/>
<feGaussianBlur stdDeviation="3"/>
<feComposite in2="hardAlpha" operator="arithmetic" k2="-1" k3="1"/>
<feColorMatrix type="matrix" values="0 0 0 0 1 0 0 0 0 1 0 0 0 0 1 0 0 0 0.15 0"/>
<feBlend mode="normal" in2="shape" result="effect1_innerShadow_4437_13789"/>
</filter>
<filter id="filter3_i_4437_13789" x="131.191" y="-79.3658" width="331.617" height="331.616" filterUnits="userSpaceOnUse" color-interpolation-filters="sRGB">
<feFlood flood-opacity="0" result="BackgroundImageFix"/>
<feBlend mode="normal" in="SourceGraphic" in2="BackgroundImageFix" result="shape"/>
<feColorMatrix in="SourceAlpha" type="matrix" values="0 0 0 0 0 0 0 0 0 0 0 0 0 0 0 0 0 0 127 0" result="hardAlpha"/>
<feOffset/>
<feGaussianBlur stdDeviation="3"/>
<feComposite in2="hardAlpha" operator="arithmetic" k2="-1" k3="1"/>
<feColorMatrix type="matrix" values="0 0 0 0 1 0 0 0 0 1 0 0 0 0 1 0 0 0 0.15 0"/>
<feBlend mode="normal" in2="shape" result="effect1_innerShadow_4437_13789"/>
</filter>
<filter id="filter4_i_4437_13789" x="233.672" y="23.1125" width="126.66" height="126.66" filterUnits="userSpaceOnUse" color-interpolation-filters="sRGB">
<feFlood flood-opacity="0" result="BackgroundImageFix"/>
<feBlend mode="normal" in="SourceGraphic" in2="BackgroundImageFix" result="shape"/>
<feColorMatrix in="SourceAlpha" type="matrix" values="0 0 0 0 0 0 0 0 0 0 0 0 0 0 0 0 0 0 127 0" result="hardAlpha"/>
<feOffset/>
<feGaussianBlur stdDeviation="3"/>
<feComposite in2="hardAlpha" operator="arithmetic" k2="-1" k3="1"/>
<feColorMatrix type="matrix" values="0 0 0 0 1 0 0 0 0 1 0 0 0 0 1 0 0 0 0.15 0"/>
<feBlend mode="normal" in2="shape" result="effect1_innerShadow_4437_13789"/>
</filter>
<filter id="filter5_i_4437_13789" x="258.383" y="47.8265" width="77.2305" height="77.2314" filterUnits="userSpaceOnUse" color-interpolation-filters="sRGB">
<feFlood flood-opacity="0" result="BackgroundImageFix"/>
<feBlend mode="normal" in="SourceGraphic" in2="BackgroundImageFix" result="shape"/>
<feColorMatrix in="SourceAlpha" type="matrix" values="0 0 0 0 0 0 0 0 0 0 0 0 0 0 0 0 0 0 127 0" result="hardAlpha"/>
<feOffset/>
<feGaussianBlur stdDeviation="3"/>
<feComposite in2="hardAlpha" operator="arithmetic" k2="-1" k3="1"/>
<feColorMatrix type="matrix" values="0 0 0 0 1 0 0 0 0 1 0 0 0 0 1 0 0 0 0.15 0"/>
<feBlend mode="normal" in2="shape" result="effect1_innerShadow_4437_13789"/>
</filter>
<radialGradient id="paint0_radial_4437_13789" cx="0" cy="0" r="1" gradientUnits="userSpaceOnUse" gradientTransform="translate(297.001 -0.409943) rotate(90) scale(173.704)">
<stop stop-color="#AEAEAE"/>
<stop offset="1" stop-opacity="0"/>
</radialGradient>
<radialGradient id="paint1_radial_4437_13789" cx="0" cy="0" r="1" gradientUnits="userSpaceOnUse" gradientTransform="translate(296.999 -24.4752) rotate(90) scale(221.835)">
<stop stop-color="#AEAEAE"/>
<stop offset="1" stop-opacity="0"/>
</radialGradient>
<radialGradient id="paint2_radial_4437_13789" cx="0" cy="0" r="1" gradientUnits="userSpaceOnUse" gradientTransform="translate(297.001 -51.6873) rotate(90) scale(276.259)">
<stop stop-color="#AEAEAE"/>
<stop offset="1" stop-opacity="0"/>
</radialGradient>
<radialGradient id="paint3_radial_4437_13789" cx="0" cy="0" r="1" gradientUnits="userSpaceOnUse" gradientTransform="translate(296.999 -79.3658) rotate(90) scale(331.616)">
<stop stop-color="#AEAEAE"/>
<stop offset="1" stop-opacity="0"/>
</radialGradient>
<radialGradient id="paint4_radial_4437_13789" cx="0" cy="0" r="1" gradientUnits="userSpaceOnUse" gradientTransform="translate(297.002 23.1125) rotate(90) scale(126.66)">
<stop stop-color="#AEAEAE"/>
<stop offset="1" stop-opacity="0"/>
</radialGradient>
<radialGradient id="paint5_radial_4437_13789" cx="0" cy="0" r="1" gradientUnits="userSpaceOnUse" gradientTransform="translate(296.999 47.8265) rotate(90) scale(77.2314)">
<stop stop-color="#FFF30C"/>
<stop offset="1" stop-opacity="0"/>
</radialGradient>
<radialGradient id="paint6_radial_4437_13789" cx="0" cy="0" r="1" gradientUnits="userSpaceOnUse" gradientTransform="translate(296.999 47.8265) rotate(90) scale(86.8853)">
<stop stop-opacity="0"/>
<stop offset="1" stop-color="#FFF30C"/>
</radialGradient>
<radialGradient id="paint7_radial_4437_13789" cx="0" cy="0" r="1" gradientTransform="matrix(-74.6644 76.0338 -1.6561 -251.72 334.245 47.8265)" gradientUnits="userSpaceOnUse">
<stop stop-color="#FFF200"/>
<stop offset="1" stop-color="#202020" stop-opacity="0"/>
</radialGradient>
<linearGradient id="paint8_linear_4437_13789" x1="296.999" y1="47.8265" x2="296.999" y2="125.058" gradientUnits="userSpaceOnUse">
<stop stop-color="white"/>
<stop offset="1" stop-color="#C7C7C7"/>
</linearGradient>
<clipPath id="clip0_4437_13789">
<rect width="594" height="196" fill="white"/>
</clipPath>
<clipPath id="clip1_4437_13789">
<rect width="40" height="40" fill="white" transform="translate(277.344 66)"/>
</clipPath>
</defs>
</svg>
