<svg width="134" height="56" viewBox="0 0 134 56" fill="none" xmlns="http://www.w3.org/2000/svg">
<path fill-rule="evenodd" clip-rule="evenodd" d="M23.1547 55.3373H21.5537L23.6833 45.9028H25.2844L23.1547 55.3373ZM25.2391 55.3373H27.3537L27.2932 54.8955C27.2932 54.6378 27.3537 54.3064 27.4443 53.9014L27.7162 52.644L27.7917 52.1059C27.7917 51.9558 27.7615 51.8341 27.7011 51.7415L27.5651 51.6084C27.4141 51.5169 27.1573 51.4706 26.7797 51.4706H26.1L25.2391 55.3373ZM29.3625 55.3373H31.4016L33.4104 45.9028H29.4833C29.6948 45.9925 29.9063 46.1086 30.0724 46.2502C30.5406 46.6373 30.7823 47.1574 30.7823 47.8107V47.9749L30.6917 48.5291L30.6464 48.7226C30.5255 49.2654 30.3292 49.6751 30.0724 49.9517C29.8156 50.2189 29.4229 50.435 28.8641 50.6002C29.5136 50.8032 29.8458 51.2771 29.8458 52.0502C29.8458 52.2806 29.8005 52.5798 29.725 52.948L29.4682 54.0808C29.3625 54.4763 29.3172 54.785 29.3172 55.0059L29.3625 55.3373ZM20.3755 51.2771L19.4844 55.3373H17.3849L18.2912 51.2771H20.3755ZM17.4302 45.9028L15.3156 55.3373H0L1.85781 46.3663C2.62813 42.7583 4.15365 39.5874 6.41927 36.8545C8.63959 34.1225 12.2948 31.2612 17.4 28.2706C22.3995 25.3319 25.8281 22.9086 27.6859 21.0017C29.438 19.2487 30.3141 17.186 30.3141 14.8147C30.3141 11.5154 28.6073 9.86523 25.2089 9.86523C21.9615 9.86523 19.9073 11.6957 19.0313 15.3565L17.9438 20.305H7.58229L8.82084 14.1964C10.7693 5.01962 16.4484 0.430786 25.8281 0.430786C28.5771 0.430786 30.9787 0.826327 33.063 1.61741C34.5583 2.18098 35.8724 2.94563 37.0354 3.91041C39.875 6.23079 41.2948 9.53011 41.2948 13.8093C41.2948 17.8827 39.9052 21.5946 37.1261 24.9458C34.2865 28.2451 29.2266 32.1118 21.9615 36.5458C18.2458 38.7623 15.9349 40.3351 14.9984 41.263C14.0167 42.242 13.3823 43.4286 13.0651 44.8201L12.8385 45.9028H17.4302ZM18.6688 49.593L19.5146 45.9028H21.599L20.7531 49.593H18.6688ZM27.0214 47.3557L26.4776 49.7856H27.0516C27.9125 49.7856 28.4109 49.4448 28.562 48.7641L28.6677 48.3223L28.6979 48.0316C28.6979 47.5813 28.4261 47.3557 27.8823 47.3557H27.0214Z" fill="url(#paint0_linear_5320_12282)"/>
<path fill-rule="evenodd" clip-rule="evenodd" d="M72.2394 38.8671C73.6621 38.8671 74.8148 39.2134 75.6964 39.9092C76.5776 40.5897 77.0179 41.5496 77.018 42.7866C77.0179 43.173 76.9729 43.5921 76.8802 44.0402L75.3244 51.4167C75.046 52.7619 74.4669 53.7923 73.5856 54.5036C72.7195 55.2149 71.5811 55.5704 70.1739 55.5704C68.736 55.5703 67.5757 55.2292 66.6943 54.549C65.8286 53.8686 65.3955 52.9083 65.3953 51.6716C65.3954 51.2702 65.4425 50.8449 65.535 50.3972L67.0889 43.0188C67.6766 40.2503 69.3936 38.8671 72.2394 38.8671ZM72.1469 41.6972C71.157 41.6972 70.5619 42.2148 70.3608 43.251L68.7598 50.8145C68.7135 51.0459 68.6899 51.2325 68.6899 51.3714C68.6902 51.8037 68.822 52.1438 69.0845 52.391C69.3628 52.6226 69.7493 52.7402 70.2438 52.7402C71.2333 52.7402 71.8377 52.213 72.0544 51.1618L73.6554 43.5984C73.7016 43.4135 73.7233 43.2429 73.7234 43.0887C73.7234 42.6558 73.5842 42.3147 73.3061 42.0673C73.0433 41.8201 72.6568 41.6973 72.1469 41.6972Z" fill="url(#paint1_linear_5320_12282)"/>
<path d="M84.0263 38.8671C85.4027 38.8671 86.5084 39.199 87.3436 39.8639C88.1783 40.5289 88.5971 41.4799 88.5972 42.7167C88.5971 43.1647 88.5501 43.5986 88.4575 44.0157L88.2951 44.735H85.1856L85.4423 43.5758C85.4886 43.3445 85.512 43.1506 85.5122 42.9962C85.5122 42.5635 85.38 42.2221 85.1176 41.9747C84.8547 41.7273 84.4975 41.6028 84.049 41.6028C83.075 41.6031 82.4722 42.1532 82.2402 43.251L80.6165 50.8598C80.5703 51.0605 80.5467 51.2632 80.5467 51.4639C80.5469 51.8965 80.6714 52.2381 80.9186 52.4854C81.1814 52.7165 81.5376 52.8328 81.9854 52.8328C82.9592 52.8326 83.562 52.2819 83.7941 51.1845L84.2359 49.2361H87.3436L86.881 51.4167C86.2777 54.1845 84.5909 55.5702 81.823 55.5704C80.4468 55.5704 79.3409 55.2364 78.5057 54.5716C77.6708 53.8913 77.2524 52.9328 77.2521 51.6962C77.2521 51.2789 77.2991 50.8526 77.3918 50.4199L78.9683 43.0188C79.5715 40.2503 81.2579 38.8671 84.0263 38.8671Z" fill="url(#paint2_linear_5320_12282)"/>
<path d="M117.233 38.8671C118.656 38.8671 119.785 39.1917 120.62 39.8413C121.47 40.4909 121.896 41.4108 121.896 42.6016C121.896 42.9879 121.851 43.3908 121.758 43.808H118.626L118.696 43.5286C118.742 43.3282 118.764 43.134 118.764 42.949C118.764 42.5164 118.617 42.184 118.324 41.9521C118.03 41.7201 117.659 41.6028 117.21 41.6028C116.7 41.6028 116.29 41.7742 115.981 42.1145C115.688 42.4546 115.539 42.8878 115.539 43.4134C115.54 43.8768 115.702 44.3107 116.026 44.7124C116.367 45.0989 116.948 45.5556 117.767 46.0812C119.484 47.1793 120.342 48.5646 120.342 50.2348C120.342 51.8735 119.886 53.1731 118.974 54.1317C118.077 55.0903 116.823 55.5704 115.215 55.5704C113.761 55.5703 112.601 55.2454 111.735 54.5962C110.869 53.9467 110.436 53.0245 110.436 51.834C110.436 51.4634 110.483 51.0689 110.576 50.6521L110.621 50.3972H113.731L113.613 50.9542C113.583 51.2314 113.568 51.395 113.568 51.4413C113.569 51.8734 113.708 52.2137 113.985 52.4608C114.264 52.708 114.659 52.8328 115.169 52.8328C115.741 52.8327 116.182 52.6624 116.491 52.323C116.815 51.9829 116.978 51.4934 116.978 50.8598C116.978 50.3808 116.815 49.9471 116.491 49.5608C116.181 49.1743 115.624 48.7175 114.82 48.192C113.073 47.0478 112.2 45.6545 112.199 44.0157C112.2 42.4697 112.656 41.2244 113.568 40.2812C114.465 39.338 115.687 38.8672 117.233 38.8671Z" fill="url(#paint3_linear_5320_12282)"/>
<path d="M128.304 38.8671C129.727 38.8671 130.856 39.1917 131.691 39.8413C132.542 40.4909 132.968 41.4108 132.968 42.6016C132.968 42.9879 132.922 43.3908 132.83 43.808H129.698L129.767 43.5286C129.814 43.3282 129.835 43.134 129.835 42.949C129.835 42.5164 129.689 42.184 129.395 41.9521C129.102 41.7201 128.73 41.6028 128.282 41.6028C127.771 41.6028 127.362 41.7742 127.052 42.1145C126.759 42.4546 126.611 42.8878 126.611 43.4134C126.611 43.8768 126.773 44.3107 127.098 44.7124C127.438 45.0989 128.019 45.5556 128.839 46.0812C130.555 47.1793 131.414 48.5646 131.414 50.2348C131.413 51.8735 130.957 53.1731 130.045 54.1317C129.148 55.0903 127.894 55.5704 126.286 55.5704C124.833 55.5703 123.672 55.2454 122.806 54.5962C121.94 53.9467 121.508 53.0245 121.507 51.834C121.507 51.4634 121.554 51.0689 121.647 50.6521L121.692 50.3972H124.802L124.685 50.9542C124.654 51.2314 124.64 51.395 124.64 51.4413C124.64 51.8734 124.779 52.2137 125.057 52.4608C125.335 52.708 125.73 52.8328 126.241 52.8328C126.812 52.8327 127.253 52.6624 127.562 52.323C127.887 51.9829 128.049 51.4934 128.049 50.8598C128.049 50.3808 127.887 49.9471 127.562 49.5608C127.253 49.1743 126.695 48.7175 125.891 48.192C124.144 47.0478 123.271 45.6545 123.271 44.0157C123.271 42.4697 123.727 41.2244 124.64 40.2812C125.536 39.338 126.758 38.8672 128.304 38.8671Z" fill="url(#paint4_linear_5320_12282)"/>
<path fill-rule="evenodd" clip-rule="evenodd" d="M49.2697 39.0993C50.5689 39.0993 51.5897 39.4239 52.3321 40.0735C53.0894 40.723 53.4686 41.5964 53.4687 42.6941C53.4686 43.0804 53.4217 43.4833 53.329 43.9005L53.1213 44.8747C52.781 46.4671 52.2162 47.5662 51.4277 48.1693C50.6544 48.7568 49.3933 49.051 47.646 49.051H45.9298L44.6063 55.3382H41.2891L44.746 39.0993H49.2697ZM46.5321 46.2209H47.9481C48.5352 46.2208 48.9688 46.0961 49.2471 45.849C49.525 45.6016 49.7348 45.1531 49.8739 44.5047L50.0816 43.5305C50.1124 43.315 50.1286 43.159 50.1288 43.066C50.1288 42.3084 49.6955 41.9296 48.8298 41.9294H47.461L46.5321 46.2209Z" fill="url(#paint5_linear_5320_12282)"/>
<path fill-rule="evenodd" clip-rule="evenodd" d="M60.7942 39.0993C62.0934 39.0993 63.1142 39.4239 63.8566 40.0735C64.6139 40.723 64.9931 41.5964 64.9932 42.6941C64.9931 43.0804 64.9462 43.4833 64.8535 43.9005L64.7855 44.2253C64.5844 45.1373 64.274 45.8269 63.8566 46.2908C63.4544 46.7389 62.8119 47.1019 61.9308 47.3801V47.4273C62.9669 47.7213 63.4846 48.5185 63.4846 49.8176C63.4845 50.2039 63.4231 50.7067 63.2996 51.3242L62.8824 53.2273C62.7279 53.8917 62.6502 54.4102 62.6501 54.7812C62.6502 54.9664 62.6737 55.1529 62.72 55.3382H59.5179C59.4562 55.0296 59.4255 54.7816 59.4254 54.5962C59.4254 54.1633 59.5031 53.6054 59.6576 52.9253L60.0975 50.8145C60.1746 50.3827 60.2144 50.0805 60.2146 49.9101C60.2146 49.5082 60.0898 49.2284 59.8426 49.0737C59.6106 48.9194 59.1932 48.8415 58.5909 48.8415H57.4996L56.1308 55.3382H52.8135L56.2705 39.0993H60.7942ZM58.1038 46.0113H59.0308C60.407 46.0113 61.2114 45.439 61.4437 44.2951L61.6061 43.5531C61.6369 43.3375 61.6531 43.1743 61.6533 43.066C61.6533 42.3084 61.2199 41.9296 60.3543 41.9294H58.9855L58.1038 46.0113Z" fill="url(#paint6_linear_5320_12282)"/>
<path d="M91.973 52.508H97.2387L96.6364 55.3382H88.0516L91.5085 39.0993H94.8258L91.973 52.508Z" fill="url(#paint7_linear_5320_12282)"/>
<path fill-rule="evenodd" clip-rule="evenodd" d="M108.816 55.3382H105.637L105.731 52.3928H102.087L100.928 55.3382H97.7031L104.525 39.0993H108.909L108.816 55.3382ZM103.178 49.608H105.801L106.031 42.3467L103.178 49.608Z" fill="url(#paint8_linear_5320_12282)"/>
<path d="M49.9085 30.9417H55.1742L54.5719 33.7738H45.9871L49.444 17.5311H52.7613L49.9085 30.9417Z" fill="url(#paint9_linear_5320_12282)"/>
<path d="M59.696 33.7738H56.3787L59.8357 17.5311H63.153L59.696 33.7738Z" fill="url(#paint10_linear_5320_12282)"/>
<path d="M85.5015 20.3632H79.9809L79.169 24.1222H83.553L82.9489 26.9524H78.5649L77.7304 30.9417H83.2509L82.6487 33.7738H73.8089L77.2659 17.5311H86.1056L85.5015 20.3632Z" fill="url(#paint11_linear_5320_12282)"/>
<path d="M67.5407 30.0147L72.2966 17.5311H75.4987L68.9095 33.7492H64.6407L64.9182 17.5311H68.1203L67.5407 30.0147Z" fill="url(#paint12_linear_5320_12282)"/>
<path d="M115.867 18.6047C117.587 20.7247 118.618 23.4121 118.618 26.3381C118.618 29.2639 117.587 31.9515 115.867 34.0714L114.594 33.8127C116.385 31.8238 117.475 29.2071 117.475 26.3381C117.475 23.4686 116.386 20.8506 114.594 18.8615L115.867 18.6047Z" fill="url(#paint13_linear_5320_12282)"/>
<path d="M115.867 18.6047C117.587 20.7247 118.618 23.4121 118.618 26.3381C118.618 29.2639 117.587 31.9515 115.867 34.0714L114.594 33.8127C116.385 31.8238 117.475 29.2071 117.475 26.3381C117.475 23.4686 116.386 20.8506 114.594 18.8615L115.867 18.6047Z" fill="#FF0000"/>
<path d="M97.334 19.0579C95.646 21.0214 94.6266 23.5623 94.6266 26.3381C94.6267 29.1134 95.6464 31.653 97.334 33.6164L96.0766 33.8713C94.4524 31.7834 93.4845 29.1728 93.4844 26.3381C93.4844 23.5028 94.452 20.8911 96.0766 18.803L97.334 19.0579Z" fill="url(#paint14_linear_5320_12282)"/>
<path d="M97.334 19.0579C95.646 21.0214 94.6266 23.5623 94.6266 26.3381C94.6267 29.1134 95.6464 31.653 97.334 33.6164L96.0766 33.8713C94.4524 31.7834 93.4845 29.1728 93.4844 26.3381C93.4844 23.5028 94.452 20.8911 96.0766 18.803L97.334 19.0579Z" fill="#FF0000"/>
<path d="M110.386 19.7111C112.589 21.1155 114.049 23.5586 114.049 26.3381C114.049 29.1171 112.589 31.5588 110.386 32.9631L108.617 32.6044C111.131 31.6026 112.906 29.1758 112.906 26.3381C112.906 23.5 111.131 21.0716 108.617 20.0698L110.386 19.7111Z" fill="url(#paint15_linear_5320_12282)"/>
<path d="M110.386 19.7111C112.589 21.1155 114.049 23.5586 114.049 26.3381C114.049 29.1171 112.589 31.5588 110.386 32.9631L108.617 32.6044C111.131 31.6026 112.906 29.1758 112.906 26.3381C112.906 23.5 111.131 21.0716 108.617 20.0698L110.386 19.7111Z" fill="#FF0000"/>
<path d="M103.117 20.2265C100.799 21.3106 99.1956 23.6402 99.1956 26.3381C99.1958 29.0356 100.799 31.3637 103.117 32.4477L101.448 32.7857C99.3955 31.3583 98.0535 29.003 98.0534 26.3381C98.0534 23.6728 99.3951 21.316 101.448 19.8886L103.117 20.2265Z" fill="url(#paint16_linear_5320_12282)"/>
<path d="M103.117 20.2265C100.799 21.3106 99.1956 23.6402 99.1956 26.3381C99.1958 29.0356 100.799 31.3637 103.117 32.4477L101.448 32.7857C99.3955 31.3583 98.0535 29.003 98.0534 26.3381C98.0534 23.6728 99.3951 21.316 101.448 19.8886L103.117 20.2265Z" fill="#FF0000"/>
<path d="M106.051 22.9585C107.944 22.9585 109.478 24.4716 109.478 26.3381C109.478 28.2044 107.944 29.7176 106.051 29.7176C104.158 29.7176 102.625 28.2044 102.624 26.3381C102.624 24.4716 104.158 22.9585 106.051 22.9585Z" fill="url(#paint17_linear_5320_12282)"/>
<path d="M106.051 22.9585C107.944 22.9585 109.478 24.4716 109.478 26.3381C109.478 28.2044 107.944 29.7176 106.051 29.7176C104.158 29.7176 102.625 28.2044 102.624 26.3381C102.624 24.4716 104.158 22.9585 106.051 22.9585Z" fill="#FF0000"/>
<defs>
<linearGradient id="paint0_linear_5320_12282" x1="-0.151041" y1="8.93727" x2="33.6823" y2="55.3373" gradientUnits="userSpaceOnUse">
<stop offset="0.254808" stop-color="#FFF200"/>
<stop offset="0.5" stop-color="#FFFA89"/>
<stop offset="0.990385" stop-color="#FFF200"/>
</linearGradient>
<linearGradient id="paint1_linear_5320_12282" x1="32.522" y1="16.6696" x2="244.435" y2="22.518" gradientUnits="userSpaceOnUse">
<stop stop-color="#FFF200"/>
<stop offset="0.297577" stop-color="#FFF876"/>
<stop offset="0.546559" stop-color="#FFF200"/>
<stop offset="0.783686" stop-color="#FFF876"/>
<stop offset="1" stop-color="#FFF200"/>
</linearGradient>
<linearGradient id="paint2_linear_5320_12282" x1="32.522" y1="16.6696" x2="244.435" y2="22.518" gradientUnits="userSpaceOnUse">
<stop stop-color="#FFF200"/>
<stop offset="0.297577" stop-color="#FFF876"/>
<stop offset="0.546559" stop-color="#FFF200"/>
<stop offset="0.783686" stop-color="#FFF876"/>
<stop offset="1" stop-color="#FFF200"/>
</linearGradient>
<linearGradient id="paint3_linear_5320_12282" x1="32.522" y1="16.6696" x2="244.435" y2="22.518" gradientUnits="userSpaceOnUse">
<stop stop-color="#FFF200"/>
<stop offset="0.297577" stop-color="#FFF876"/>
<stop offset="0.546559" stop-color="#FFF200"/>
<stop offset="0.783686" stop-color="#FFF876"/>
<stop offset="1" stop-color="#FFF200"/>
</linearGradient>
<linearGradient id="paint4_linear_5320_12282" x1="32.522" y1="16.6696" x2="244.435" y2="22.518" gradientUnits="userSpaceOnUse">
<stop stop-color="#FFF200"/>
<stop offset="0.297577" stop-color="#FFF876"/>
<stop offset="0.546559" stop-color="#FFF200"/>
<stop offset="0.783686" stop-color="#FFF876"/>
<stop offset="1" stop-color="#FFF200"/>
</linearGradient>
<linearGradient id="paint5_linear_5320_12282" x1="32.522" y1="16.6696" x2="244.435" y2="22.518" gradientUnits="userSpaceOnUse">
<stop stop-color="#FFF200"/>
<stop offset="0.297577" stop-color="#FFF876"/>
<stop offset="0.546559" stop-color="#FFF200"/>
<stop offset="0.783686" stop-color="#FFF876"/>
<stop offset="1" stop-color="#FFF200"/>
</linearGradient>
<linearGradient id="paint6_linear_5320_12282" x1="32.522" y1="16.6696" x2="244.435" y2="22.518" gradientUnits="userSpaceOnUse">
<stop stop-color="#FFF200"/>
<stop offset="0.297577" stop-color="#FFF876"/>
<stop offset="0.546559" stop-color="#FFF200"/>
<stop offset="0.783686" stop-color="#FFF876"/>
<stop offset="1" stop-color="#FFF200"/>
</linearGradient>
<linearGradient id="paint7_linear_5320_12282" x1="32.522" y1="16.6696" x2="244.435" y2="22.518" gradientUnits="userSpaceOnUse">
<stop stop-color="#FFF200"/>
<stop offset="0.297577" stop-color="#FFF876"/>
<stop offset="0.546559" stop-color="#FFF200"/>
<stop offset="0.783686" stop-color="#FFF876"/>
<stop offset="1" stop-color="#FFF200"/>
</linearGradient>
<linearGradient id="paint8_linear_5320_12282" x1="32.522" y1="16.6696" x2="244.435" y2="22.518" gradientUnits="userSpaceOnUse">
<stop stop-color="#FFF200"/>
<stop offset="0.297577" stop-color="#FFF876"/>
<stop offset="0.546559" stop-color="#FFF200"/>
<stop offset="0.783686" stop-color="#FFF876"/>
<stop offset="1" stop-color="#FFF200"/>
</linearGradient>
<linearGradient id="paint9_linear_5320_12282" x1="32.522" y1="16.6696" x2="244.435" y2="22.518" gradientUnits="userSpaceOnUse">
<stop stop-color="#FFF200"/>
<stop offset="0.297577" stop-color="#FFF876"/>
<stop offset="0.546559" stop-color="#FFF200"/>
<stop offset="0.783686" stop-color="#FFF876"/>
<stop offset="1" stop-color="#FFF200"/>
</linearGradient>
<linearGradient id="paint10_linear_5320_12282" x1="32.522" y1="16.6696" x2="244.435" y2="22.518" gradientUnits="userSpaceOnUse">
<stop stop-color="#FFF200"/>
<stop offset="0.297577" stop-color="#FFF876"/>
<stop offset="0.546559" stop-color="#FFF200"/>
<stop offset="0.783686" stop-color="#FFF876"/>
<stop offset="1" stop-color="#FFF200"/>
</linearGradient>
<linearGradient id="paint11_linear_5320_12282" x1="32.522" y1="16.6696" x2="244.435" y2="22.518" gradientUnits="userSpaceOnUse">
<stop stop-color="#FFF200"/>
<stop offset="0.297577" stop-color="#FFF876"/>
<stop offset="0.546559" stop-color="#FFF200"/>
<stop offset="0.783686" stop-color="#FFF876"/>
<stop offset="1" stop-color="#FFF200"/>
</linearGradient>
<linearGradient id="paint12_linear_5320_12282" x1="32.522" y1="16.6696" x2="244.435" y2="22.518" gradientUnits="userSpaceOnUse">
<stop stop-color="#FFF200"/>
<stop offset="0.297577" stop-color="#FFF876"/>
<stop offset="0.546559" stop-color="#FFF200"/>
<stop offset="0.783686" stop-color="#FFF876"/>
<stop offset="1" stop-color="#FFF200"/>
</linearGradient>
<linearGradient id="paint13_linear_5320_12282" x1="32.5202" y1="16.6694" x2="244.433" y2="22.5178" gradientUnits="userSpaceOnUse">
<stop stop-color="#FFF200"/>
<stop offset="0.297577" stop-color="#FFF876"/>
<stop offset="0.546559" stop-color="#FFF200"/>
<stop offset="0.783686" stop-color="#FFF876"/>
<stop offset="1" stop-color="#FFF200"/>
</linearGradient>
<linearGradient id="paint14_linear_5320_12282" x1="32.5202" y1="16.6694" x2="244.433" y2="22.5178" gradientUnits="userSpaceOnUse">
<stop stop-color="#FFF200"/>
<stop offset="0.297577" stop-color="#FFF876"/>
<stop offset="0.546559" stop-color="#FFF200"/>
<stop offset="0.783686" stop-color="#FFF876"/>
<stop offset="1" stop-color="#FFF200"/>
</linearGradient>
<linearGradient id="paint15_linear_5320_12282" x1="32.5202" y1="16.6694" x2="244.433" y2="22.5178" gradientUnits="userSpaceOnUse">
<stop stop-color="#FFF200"/>
<stop offset="0.297577" stop-color="#FFF876"/>
<stop offset="0.546559" stop-color="#FFF200"/>
<stop offset="0.783686" stop-color="#FFF876"/>
<stop offset="1" stop-color="#FFF200"/>
</linearGradient>
<linearGradient id="paint16_linear_5320_12282" x1="32.5202" y1="16.6694" x2="244.433" y2="22.5178" gradientUnits="userSpaceOnUse">
<stop stop-color="#FFF200"/>
<stop offset="0.297577" stop-color="#FFF876"/>
<stop offset="0.546559" stop-color="#FFF200"/>
<stop offset="0.783686" stop-color="#FFF876"/>
<stop offset="1" stop-color="#FFF200"/>
</linearGradient>
<linearGradient id="paint17_linear_5320_12282" x1="32.5202" y1="16.6694" x2="244.433" y2="22.5178" gradientUnits="userSpaceOnUse">
<stop stop-color="#FFF200"/>
<stop offset="0.297577" stop-color="#FFF876"/>
<stop offset="0.546559" stop-color="#FFF200"/>
<stop offset="0.783686" stop-color="#FFF876"/>
<stop offset="1" stop-color="#FFF200"/>
</linearGradient>
</defs>
</svg>
