<svg width="24" height="24" viewBox="0 0 24 24" fill="none" xmlns="http://www.w3.org/2000/svg">
<path d="M21.9638 10.7666C21.9646 10.7665 21.965 10.7675 21.9644 10.768L18.3612 13.8772C17.9843 14.2024 17.8196 14.7104 17.934 15.1949L19.0331 19.8505C19.1041 20.146 19.0858 20.4559 18.9807 20.7411C18.8755 21.0263 18.6882 21.2739 18.4425 21.4526C18.1967 21.6314 17.9034 21.7333 17.5997 21.7455C17.2961 21.7577 16.9956 21.6796 16.7363 21.5211L12.8697 19.1415C12.3375 18.8139 11.6662 18.8138 11.1339 19.1412L7.26471 21.5211C7.00542 21.6787 6.7053 21.756 6.40215 21.7434C6.099 21.7308 5.80636 21.6287 5.56108 21.4501C5.31581 21.2715 5.12887 21.0243 5.02381 20.7396C4.91874 20.455 4.90024 20.1456 4.97064 19.8505L6.02873 15.3852C6.17123 14.7838 5.96704 14.1531 5.49913 13.7493L2.04189 10.7661C1.81249 10.5678 1.64657 10.3064 1.56488 10.0144C1.48318 9.72238 1.48932 9.41278 1.58253 9.12425C1.67574 8.83571 1.85189 8.58103 2.08898 8.39202C2.32607 8.203 2.6136 8.08802 2.91564 8.06143L7.43649 7.6967C8.05663 7.64667 8.59642 7.25333 8.83402 6.67833L10.5806 2.45143C10.6961 2.17001 10.8927 1.92929 11.1454 1.75987C11.398 1.59046 11.6954 1.5 11.9996 1.5C12.3037 1.5 12.6011 1.59046 12.8537 1.75987C13.1064 1.92929 13.303 2.17001 13.4185 2.45143L15.1642 6.67811C15.4018 7.25323 15.9416 7.64667 16.5618 7.69671L21.0825 8.06143C21.3852 8.08703 21.6735 8.20137 21.9115 8.39013C22.1494 8.57888 22.3264 8.83366 22.4202 9.12255C22.514 9.41143 22.5204 9.72157 22.4387 10.0141C22.3573 10.3057 22.1919 10.5669 21.9631 10.7652C21.9625 10.7657 21.963 10.7667 21.9638 10.7666Z" fill="url(#paint0_linear_5124_12866)"/>
<defs>
<linearGradient id="paint0_linear_5124_12866" x1="1.50781" y1="11.6234" x2="22.4956" y2="11.6234" gradientUnits="userSpaceOnUse">
<stop stop-color="#4B4B4B"/>
<stop offset="1" stop-color="#242424"/>
</linearGradient>
</defs>
</svg>
