<svg width="59" height="29" viewBox="0 0 59 29" fill="none" xmlns="http://www.w3.org/2000/svg">
<path d="M52.6772 28.3748C52.3307 28.8049 51.7012 28.8727 51.2711 28.5262L44.2623 22.8802C43.8322 22.5338 43.7644 21.9042 44.1109 21.4741C44.4574 21.044 45.0869 20.9763 45.517 21.3227L51.747 26.3414L56.7656 20.1113C57.1121 19.6812 57.7416 19.6134 58.1717 19.9599C58.6018 20.3064 58.6696 20.9359 58.3232 21.366L52.6772 28.3748ZM27.14 16.0264L27.8616 15.3341V15.3341L27.14 16.0264ZM28.4141 4.71503L27.9016 5.57372V5.57372L28.4141 4.71503ZM16.8879 1.35663L17.0386 0.368051V0.368051L16.8879 1.35663ZM1.23456 3.54356C0.698137 3.67498 0.156743 3.34666 0.0253244 2.81024C-0.106094 2.27382 0.222227 1.73243 0.758647 1.60101L0.996602 2.57228L1.23456 3.54356ZM28.4141 4.71503L27.9016 5.57372C25.3168 4.031 21.7026 3.10205 16.7372 2.34522L16.8879 1.35663L17.0386 0.368051C22.0371 1.12993 25.9852 2.10077 28.9266 3.85634L28.4141 4.71503ZM16.8879 1.35663L16.7372 2.34522C10.3603 1.37324 4.7979 2.67057 1.23456 3.54356L0.996602 2.57228L0.758647 1.60101C4.34711 0.721863 10.2424 -0.667835 17.0386 0.368051L16.8879 1.35663ZM51.8984 27.7474L50.9042 27.8545C50.0456 19.882 47.5753 14.7447 44.5974 11.6107C41.6261 8.48367 38.086 7.28133 34.9227 7.27744C31.7198 7.27351 28.9816 8.49239 27.5751 10.0969C26.8819 10.8878 26.5392 11.7353 26.5468 12.5679C26.5543 13.3927 26.9068 14.3388 27.8616 15.3341L27.14 16.0264L26.4183 16.7187C25.1846 15.4327 24.56 14.0184 24.5469 12.5862C24.5339 11.1619 25.127 9.85575 26.0711 8.77862C27.9393 6.64724 31.2816 5.27296 34.9251 5.27744C38.6081 5.28197 42.6803 6.68963 46.0472 10.233C49.4075 13.7694 52.0013 19.3629 52.8927 27.6404L51.8984 27.7474ZM27.14 16.0264L27.8616 15.3341C28.2796 15.7698 28.6535 15.958 28.9517 16.0227C29.2434 16.0859 29.5357 16.0474 29.8343 15.9015C30.465 15.5933 31.1298 14.787 31.4926 13.5752C32.1976 11.2205 31.6088 7.78633 27.9016 5.57372L28.4141 4.71503L28.9266 3.85634C33.4808 6.57446 34.3556 10.9857 33.4086 14.1489C32.9453 15.696 32.0052 17.0668 30.7123 17.6985C30.049 18.0225 29.2998 18.1446 28.528 17.9773C27.7625 17.8114 27.0507 17.3778 26.4183 16.7187L27.14 16.0264Z" fill="white"/>
</svg>
