<svg width="28" height="28" viewBox="0 0 28 28" fill="none" xmlns="http://www.w3.org/2000/svg">
<path d="M0 14C0 6.26801 6.26801 0 14 0C21.732 0 28 6.26801 28 14C28 21.732 21.732 28 14 28C6.26801 28 0 21.732 0 14Z" fill="#2D2B00"/>
<mask id="mask0_5979_12534" style="mask-type:alpha" maskUnits="userSpaceOnUse" x="6" y="6" width="16" height="16">
<rect x="6" y="6" width="16" height="16" fill="#D9D9D9"/>
</mask>
<g mask="url(#mask0_5979_12534)">
<path d="M13.0693 17.0667L17.7693 12.3667L16.8359 11.4333L13.0693 15.2L11.1693 13.3L10.2359 14.2333L13.0693 17.0667ZM14.0026 20.6667C13.0804 20.6667 12.2137 20.4917 11.4026 20.1417C10.5915 19.7917 9.88594 19.3167 9.28594 18.7167C8.68594 18.1167 8.21094 17.4111 7.86094 16.6C7.51094 15.7889 7.33594 14.9222 7.33594 14C7.33594 13.0778 7.51094 12.2111 7.86094 11.4C8.21094 10.5889 8.68594 9.88334 9.28594 9.28334C9.88594 8.68334 10.5915 8.20834 11.4026 7.85834C12.2137 7.50834 13.0804 7.33334 14.0026 7.33334C14.9248 7.33334 15.7915 7.50834 16.6026 7.85834C17.4137 8.20834 18.1193 8.68334 18.7193 9.28334C19.3193 9.88334 19.7943 10.5889 20.1443 11.4C20.4943 12.2111 20.6693 13.0778 20.6693 14C20.6693 14.9222 20.4943 15.7889 20.1443 16.6C19.7943 17.4111 19.3193 18.1167 18.7193 18.7167C18.1193 19.3167 17.4137 19.7917 16.6026 20.1417C15.7915 20.4917 14.9248 20.6667 14.0026 20.6667Z" fill="#FFF200"/>
</g>
</svg>
