<svg width="133" height="4" viewBox="0 0 133 4" fill="none" xmlns="http://www.w3.org/2000/svg">
<path d="M0.477634 2.71135C0.345144 2.71696 0.220438 2.775 0.130959 2.87287C0.0414787 2.97073 -0.0054456 3.10042 0.00050047 3.23321C0.0064466 3.36601 0.0647737 3.49098 0.162642 3.58045C0.260511 3.66994 0.389905 3.7166 0.522366 3.71035C0.522366 3.71035 0.522366 3.71035 0.522366 3.71035C2.66752 3.60908 4.87805 3.50768 7.11358 3.4076C46.6801 1.77611 86.2979 0.0097111 125.927 0.621601C128.072 0.682564 130.373 0.771456 132.488 0.900147C132.538 0.90316 132.586 0.886345 132.624 0.853468C132.661 0.820588 132.684 0.77434 132.687 0.72483C132.69 0.67532 132.673 0.626584 132.64 0.589274C132.608 0.551969 132.561 0.529146 132.512 0.525895C132.512 0.525895 132.512 0.525895 132.512 0.525895C130.392 0.386438 128.087 0.287012 125.94 0.215545C86.2786 -0.584303 46.6593 0.995241 7.07251 2.43972C4.83585 2.52943 2.62412 2.62045 0.477634 2.71135Z" fill="#FF0000"/>
</svg>
