<svg width="30" height="18" viewBox="0 0 30 18" fill="none" xmlns="http://www.w3.org/2000/svg">
<path d="M25.9797 0C27.9759 2.46066 29.1726 5.57999 29.1726 8.97619C29.1725 12.3723 27.9758 15.4918 25.9797 17.9524L24.5026 17.6522C26.5815 15.3436 27.8467 12.3063 27.8468 8.97619C27.8468 5.64552 26.582 2.6068 24.5026 0.298038L25.9797 0Z" fill="url(#paint0_linear_5192_15573)"/>
<path d="M25.9797 0C27.9759 2.46066 29.1726 5.57999 29.1726 8.97619C29.1725 12.3723 27.9758 15.4918 25.9797 17.9524L24.5026 17.6522C26.5815 15.3436 27.8467 12.3063 27.8468 8.97619C27.8468 5.64552 26.582 2.6068 24.5026 0.298038L25.9797 0Z" fill="#FF0000"/>
<path d="M4.46837 0.525949C2.50897 2.80506 1.32583 5.75426 1.32583 8.97619C1.32594 12.1976 2.50945 15.1453 4.46837 17.4242L3.00887 17.7201C1.12359 15.2966 0.000104067 12.2666 0 8.97619C0 5.68529 1.12313 2.65381 3.00887 0.230103L4.46837 0.525949Z" fill="url(#paint1_linear_5192_15573)"/>
<path d="M4.46837 0.525949C2.50897 2.80506 1.32583 5.75426 1.32583 8.97619C1.32594 12.1976 2.50945 15.1453 4.46837 17.4242L3.00887 17.7201C1.12359 15.2966 0.000104067 12.2666 0 8.97619C0 5.68529 1.12313 2.65381 3.00887 0.230103L4.46837 0.525949Z" fill="#FF0000"/>
<path d="M19.6179 1.28419C22.1752 2.91425 23.8693 5.75005 23.8693 8.97619C23.8692 12.2019 22.1748 15.036 19.6179 16.666L17.5645 16.2496C20.4822 15.0868 22.5433 12.27 22.5435 8.97619C22.5435 5.68206 20.4825 2.86337 17.5645 1.70057L19.6179 1.28419Z" fill="url(#paint2_linear_5192_15573)"/>
<path d="M19.6179 1.28419C22.1752 2.91425 23.8693 5.75005 23.8693 8.97619C23.8692 12.2019 22.1748 15.036 19.6179 16.666L17.5645 16.2496C20.4822 15.0868 22.5433 12.27 22.5435 8.97619C22.5435 5.68206 20.4825 2.86337 17.5645 1.70057L19.6179 1.28419Z" fill="#FF0000"/>
<path d="M11.1808 1.88246C8.49034 3.14069 6.62915 5.84475 6.62915 8.97619C6.62933 12.1072 8.49074 14.8095 11.1808 16.0677L9.24355 16.46C6.86113 14.8032 5.30347 12.0694 5.30332 8.97619C5.30332 5.88253 6.86067 3.14699 9.24355 1.49019L11.1808 1.88246Z" fill="url(#paint3_linear_5192_15573)"/>
<path d="M11.1808 1.88246C8.49034 3.14069 6.62915 5.84475 6.62915 8.97619C6.62933 12.1072 8.49074 14.8095 11.1808 16.0677L9.24355 16.46C6.86113 14.8032 5.30347 12.0694 5.30332 8.97619C5.30332 5.88253 6.86067 3.14699 9.24355 1.49019L11.1808 1.88246Z" fill="#FF0000"/>
<path d="M14.5863 5.05349C16.7833 5.05349 18.5638 6.80973 18.5638 8.97619C18.5636 11.1425 16.7832 12.8989 14.5863 12.8989C12.3894 12.8989 10.6091 11.1425 10.6088 8.97619C10.6088 6.80973 12.3893 5.05349 14.5863 5.05349Z" fill="url(#paint4_linear_5192_15573)"/>
<path d="M14.5863 5.05349C16.7833 5.05349 18.5638 6.80973 18.5638 8.97619C18.5636 11.1425 16.7832 12.8989 14.5863 12.8989C12.3894 12.8989 10.6091 11.1425 10.6088 8.97619C10.6088 6.80973 12.3893 5.05349 14.5863 5.05349Z" fill="#FF0000"/>
<defs>
<linearGradient id="paint0_linear_5192_15573" x1="-70.762" y1="-2.24634" x2="175.208" y2="4.54198" gradientUnits="userSpaceOnUse">
<stop stop-color="#FFF200"/>
<stop offset="0.297577" stop-color="#FFF876"/>
<stop offset="0.546559" stop-color="#FFF200"/>
<stop offset="0.783686" stop-color="#FFF876"/>
<stop offset="1" stop-color="#FFF200"/>
</linearGradient>
<linearGradient id="paint1_linear_5192_15573" x1="-70.762" y1="-2.24634" x2="175.208" y2="4.54198" gradientUnits="userSpaceOnUse">
<stop stop-color="#FFF200"/>
<stop offset="0.297577" stop-color="#FFF876"/>
<stop offset="0.546559" stop-color="#FFF200"/>
<stop offset="0.783686" stop-color="#FFF876"/>
<stop offset="1" stop-color="#FFF200"/>
</linearGradient>
<linearGradient id="paint2_linear_5192_15573" x1="-70.762" y1="-2.24634" x2="175.208" y2="4.54198" gradientUnits="userSpaceOnUse">
<stop stop-color="#FFF200"/>
<stop offset="0.297577" stop-color="#FFF876"/>
<stop offset="0.546559" stop-color="#FFF200"/>
<stop offset="0.783686" stop-color="#FFF876"/>
<stop offset="1" stop-color="#FFF200"/>
</linearGradient>
<linearGradient id="paint3_linear_5192_15573" x1="-70.762" y1="-2.24634" x2="175.208" y2="4.54198" gradientUnits="userSpaceOnUse">
<stop stop-color="#FFF200"/>
<stop offset="0.297577" stop-color="#FFF876"/>
<stop offset="0.546559" stop-color="#FFF200"/>
<stop offset="0.783686" stop-color="#FFF876"/>
<stop offset="1" stop-color="#FFF200"/>
</linearGradient>
<linearGradient id="paint4_linear_5192_15573" x1="-70.762" y1="-2.24634" x2="175.208" y2="4.54198" gradientUnits="userSpaceOnUse">
<stop stop-color="#FFF200"/>
<stop offset="0.297577" stop-color="#FFF876"/>
<stop offset="0.546559" stop-color="#FFF200"/>
<stop offset="0.783686" stop-color="#FFF876"/>
<stop offset="1" stop-color="#FFF200"/>
</linearGradient>
</defs>
</svg>
