<svg width="79" height="79" viewBox="0 0 79 79" fill="none" xmlns="http://www.w3.org/2000/svg">
<g filter="url(#filter0_d_5124_12862)">
<path d="M49.456 38.2666C49.4568 38.2665 49.4572 38.2675 49.4566 38.268L45.8534 41.3772C45.4764 41.7024 45.3118 42.2104 45.4262 42.6949L46.5253 47.3505C46.5962 47.646 46.578 47.9559 46.4729 48.2411C46.3677 48.5263 46.1804 48.7739 45.9346 48.9526C45.6889 49.1314 45.3956 49.2333 45.0919 49.2455C44.7883 49.2577 44.4878 49.1796 44.2285 49.0211L40.3619 46.6415C39.8297 46.3139 39.1584 46.3138 38.6261 46.6412L34.7569 49.0211C34.4976 49.1787 34.1975 49.256 33.8943 49.2434C33.5912 49.2308 33.2985 49.1287 33.0533 48.9501C32.808 48.7715 32.6211 48.5243 32.516 48.2396C32.4109 47.955 32.3924 47.6456 32.4628 47.3505L33.5209 42.8852C33.6634 42.2838 33.4592 41.6531 32.9913 41.2493L29.5341 38.2661C29.3047 38.0678 29.1388 37.8064 29.0571 37.5144C28.9754 37.2224 28.9815 36.9128 29.0747 36.6242C29.1679 36.3357 29.3441 36.081 29.5812 35.892C29.8183 35.703 30.1058 35.588 30.4078 35.5614L34.9287 35.1967C35.5488 35.1467 36.0886 34.7533 36.3262 34.1783L38.0728 29.9514C38.1883 29.67 38.3849 29.4293 38.6376 29.2599C38.8902 29.0905 39.1875 29 39.4917 29C39.7959 29 40.0933 29.0905 40.3459 29.2599C40.5986 29.4293 40.7951 29.67 40.9106 29.9514L42.6564 34.1781C42.894 34.7532 43.4338 35.1467 44.054 35.1967L48.5747 35.5614C48.8774 35.587 49.1657 35.7014 49.4037 35.8901C49.6416 36.0789 49.8186 36.3337 49.9124 36.6225C50.0062 36.9114 50.0126 37.2216 49.9309 37.5141C49.8495 37.8057 49.6841 38.0669 49.4553 38.2652C49.4547 38.2657 49.4552 38.2667 49.456 38.2666Z" fill="url(#paint0_linear_5124_12862)" shape-rendering="crispEdges"/>
<path d="M39.4922 28.5C39.8953 28.5001 40.2892 28.6202 40.624 28.8447C40.9588 29.0692 41.2199 29.3879 41.373 29.7607L43.1182 33.9873C43.284 34.3888 43.6617 34.6633 44.0947 34.6982L48.6152 35.0635H48.6172C49.0178 35.0974 49.3999 35.2482 49.7148 35.498C50.0297 35.7479 50.2635 36.0855 50.3877 36.4678C50.5119 36.8503 50.5203 37.2611 50.4121 37.6484C50.3099 38.0146 50.1071 38.3436 49.8281 38.6006C49.814 38.616 49.7999 38.6321 49.7832 38.6465L46.1797 41.7559C45.9441 41.9593 45.8416 42.2771 45.9131 42.5801L47.0117 47.2334L47.041 47.3818C47.0974 47.7278 47.0642 48.0835 46.9424 48.4141C46.8031 48.792 46.5542 49.1205 46.2285 49.3574C45.903 49.5941 45.5145 49.7289 45.1123 49.7451C44.7099 49.7613 44.3114 49.6573 43.9678 49.4473H43.9668L40.0996 47.0674C39.7281 46.8388 39.2593 46.8388 38.8877 47.0674L35.0186 49.4473L35.0166 49.4482C34.673 49.6571 34.2748 49.7599 33.873 49.7432C33.4715 49.7263 33.0837 49.5911 32.7588 49.3545C32.4338 49.1178 32.1861 48.7902 32.0469 48.4131C31.9076 48.0359 31.8833 47.6255 31.9766 47.2344L33.0342 42.7695C33.1335 42.3499 32.9915 41.9097 32.665 41.6279L29.207 38.6445C28.9033 38.3821 28.6834 38.036 28.5752 37.6494C28.4671 37.2629 28.4753 36.8527 28.5986 36.4707C28.722 36.0887 28.9556 35.7512 29.2695 35.501C29.5834 35.2507 29.9644 35.0987 30.3643 35.0635H30.3672L34.8887 34.6982C35.3215 34.6632 35.6984 34.3887 35.8643 33.9873L37.6104 29.7607C37.7635 29.3879 38.0246 29.0692 38.3594 28.8447C38.6944 28.6201 39.0889 28.5 39.4922 28.5Z" stroke="#FFF20A" stroke-opacity="0.25" shape-rendering="crispEdges"/>
</g>
<defs>
<filter id="filter0_d_5124_12862" x="0" y="0" width="78.9844" height="78.2468" filterUnits="userSpaceOnUse" color-interpolation-filters="sRGB">
<feFlood flood-opacity="0" result="BackgroundImageFix"/>
<feColorMatrix in="SourceAlpha" type="matrix" values="0 0 0 0 0 0 0 0 0 0 0 0 0 0 0 0 0 0 127 0" result="hardAlpha"/>
<feOffset/>
<feGaussianBlur stdDeviation="14"/>
<feComposite in2="hardAlpha" operator="out"/>
<feColorMatrix type="matrix" values="0 0 0 0 1 0 0 0 0 0.968627 0 0 0 0 0.384314 0 0 0 1 0"/>
<feBlend mode="normal" in2="BackgroundImageFix" result="effect1_dropShadow_5124_12862"/>
<feBlend mode="normal" in="SourceGraphic" in2="effect1_dropShadow_5124_12862" result="shape"/>
</filter>
<linearGradient id="paint0_linear_5124_12862" x1="29" y1="39.1234" x2="49.9878" y2="39.1234" gradientUnits="userSpaceOnUse">
<stop stop-color="#FFFBA8"/>
<stop offset="1" stop-color="#FFF200"/>
</linearGradient>
</defs>
</svg>
