<svg width="155" height="65" viewBox="0 0 155 65" fill="none" xmlns="http://www.w3.org/2000/svg">
<path fill-rule="evenodd" clip-rule="evenodd" d="M26.876 64.2308H25.0176L27.4896 53.2801H29.3479L26.876 64.2308ZM29.2954 64.2308H31.7498L31.6797 63.718C31.6797 63.4188 31.7498 63.0342 31.855 62.5642L32.1705 61.1046L32.2582 60.4801C32.2582 60.3059 32.2231 60.1645 32.153 60.0571L31.9952 59.9026C31.8199 59.7963 31.5219 59.7427 31.0836 59.7427H30.2947L29.2954 64.2308ZM34.0815 64.2308H36.4483L38.78 53.2801H34.2217C34.4672 53.3842 34.7126 53.5189 34.9055 53.6833C35.449 54.1325 35.7295 54.7363 35.7295 55.4945V55.6852L35.6243 56.3284L35.5717 56.553C35.4314 57.183 35.2035 57.6586 34.9055 57.9796C34.6074 58.2897 34.1516 58.5406 33.5029 58.7324C34.2568 58.968 34.6425 59.518 34.6425 60.4154C34.6425 60.6828 34.5899 61.0301 34.5022 61.4575L34.2042 62.7723C34.0815 63.2315 34.0289 63.5898 34.0289 63.8462L34.0815 64.2308ZM23.6502 59.518L22.6158 64.2308H20.1789L21.2308 59.518H23.6502ZM20.2315 53.2801L17.7771 64.2308H0L2.15639 53.8181C3.0505 49.6302 4.8212 45.9496 7.45094 42.7775C10.0281 39.6065 14.2707 36.2853 20.1964 32.8141C25.9994 29.4031 29.9791 26.5903 32.1355 24.377C34.1691 22.3422 35.186 19.9481 35.186 17.1956C35.186 13.366 33.2049 11.4507 29.2603 11.4507C25.491 11.4507 23.1067 13.5753 22.0899 17.8245L20.8276 23.5683H8.80088L10.2385 16.4779C12.5001 5.82633 19.0919 0.5 29.9791 0.5C33.1698 0.5 35.9574 0.95911 38.3767 1.87733C40.1124 2.53148 41.6376 3.41902 42.9876 4.53885C46.2835 7.23215 47.9315 11.0617 47.9315 16.0286C47.9315 20.7567 46.3186 25.0651 43.0927 28.9549C39.7968 32.7845 33.9237 37.2726 25.491 42.4192C21.1782 44.992 18.4959 46.8175 17.4089 47.8946C16.2694 49.0308 15.533 50.4082 15.1649 52.0233L14.9019 53.2801H20.2315ZM21.6691 57.5633L22.6509 53.2801H25.0702L24.0885 57.5633H21.6691ZM31.3641 54.9664L30.7329 57.7868H31.3991C32.3984 57.7868 32.977 57.3912 33.1523 56.6012L33.275 56.0884L33.3101 55.7509C33.3101 55.2283 32.9945 54.9664 32.3634 54.9664H31.3641Z" fill="url(#paint0_linear_5173_12946)"/>
<path fill-rule="evenodd" clip-rule="evenodd" d="M83.8542 45.1136C85.5056 45.1136 86.8435 45.5156 87.8667 46.3232C88.8896 47.113 89.4007 48.2272 89.4008 49.663C89.4007 50.1115 89.3484 50.5979 89.2408 51.1181L87.435 59.6801C87.1118 61.2415 86.4397 62.4375 85.4167 63.2632C84.4114 64.0887 83.0901 64.5013 81.4567 64.5013C79.7878 64.5012 78.441 64.1053 77.4179 63.3158C76.4131 62.5261 75.9104 61.4115 75.9102 59.976C75.9102 59.51 75.9649 59.0164 76.0723 58.4968L77.8759 49.9326C78.5581 46.7191 80.551 45.1136 83.8542 45.1136ZM83.7468 48.3985C82.5979 48.3985 81.9071 48.9993 81.6737 50.2021L79.8153 58.9811C79.7617 59.2497 79.7343 59.4662 79.7343 59.6275C79.7346 60.1293 79.8875 60.524 80.1923 60.8109C80.5153 61.0799 80.9639 61.2163 81.5378 61.2164C82.6864 61.2164 83.3879 60.6044 83.6394 59.3843L85.4978 50.6053C85.5514 50.3907 85.5765 50.1926 85.5767 50.0136C85.5767 49.5113 85.4151 49.1153 85.0924 48.8281C84.7872 48.5412 84.3387 48.3986 83.7468 48.3985Z" fill="url(#paint1_linear_5173_12946)"/>
<path d="M97.5354 45.1136C99.1331 45.1136 100.416 45.4988 101.386 46.2706C102.355 47.0425 102.841 48.1463 102.841 49.5819C102.841 50.1018 102.786 50.6055 102.679 51.0896L102.49 51.9246H98.881L99.179 50.579C99.2327 50.3106 99.2599 50.0855 99.2601 49.9063C99.2601 49.4041 99.1067 49.0079 98.8021 48.7207C98.4969 48.4334 98.0823 48.289 97.5617 48.289C96.4312 48.2893 95.7315 48.9278 95.4623 50.2021L93.5777 59.0337C93.524 59.2667 93.4966 59.5019 93.4966 59.7349C93.4968 60.237 93.6413 60.6335 93.9283 60.9205C94.2333 61.1888 94.6468 61.3237 95.1665 61.3237C96.2968 61.3235 96.9965 60.6843 97.2659 59.4106L97.7787 57.149H101.386L100.849 59.6801C100.149 62.8927 98.1908 64.5011 94.978 64.5013C93.3806 64.5013 92.097 64.1137 91.1276 63.3421C90.1586 62.5525 89.6729 61.4399 89.6725 60.0045C89.6725 59.5201 89.7271 59.0253 89.8347 58.5231L91.6645 49.9326C92.3647 46.7192 94.3221 45.1136 97.5354 45.1136Z" fill="url(#paint2_linear_5173_12946)"/>
<path d="M136.079 45.1136C137.73 45.1136 139.041 45.4904 140.01 46.2443C140.997 46.9983 141.492 48.0662 141.492 49.4482C141.491 49.8966 141.439 50.3644 141.332 50.8486H137.696L137.777 50.5243C137.831 50.2916 137.856 50.0663 137.856 49.8515C137.856 49.3494 137.686 48.9636 137.345 48.6944C137.004 48.4251 136.573 48.289 136.052 48.289C135.46 48.289 134.985 48.4879 134.626 48.8829C134.285 49.2777 134.113 49.7805 134.113 50.3906C134.113 50.9285 134.302 51.432 134.678 51.8983C135.073 52.347 135.748 52.877 136.699 53.4871C138.691 54.7617 139.688 56.3696 139.688 58.3083C139.688 60.2103 139.158 61.7188 138.099 62.8315C137.058 63.9441 135.603 64.5013 133.736 64.5013C132.049 64.5012 130.702 64.1241 129.697 63.3706C128.692 62.6168 128.19 61.5463 128.189 60.1645C128.19 59.7343 128.244 59.2764 128.352 58.7926L128.404 58.4968H132.014L131.878 59.1432C131.842 59.4651 131.825 59.6549 131.825 59.7086C131.826 60.2102 131.987 60.6052 132.309 60.892C132.633 61.1789 133.091 61.3237 133.683 61.3237C134.347 61.3236 134.859 61.126 135.217 60.732C135.594 60.3373 135.783 59.7692 135.783 59.0337C135.783 58.4778 135.594 57.9744 135.217 57.5259C134.858 57.0773 134.211 56.5471 133.278 55.9371C131.25 54.609 130.237 52.9918 130.236 51.0896C130.236 49.2952 130.766 47.8498 131.825 46.7549C132.866 45.6602 134.284 45.1137 136.079 45.1136Z" fill="url(#paint3_linear_5173_12946)"/>
<path d="M148.929 45.1136C150.581 45.1136 151.891 45.4904 152.861 46.2443C153.848 46.9983 154.342 48.0662 154.342 49.4482C154.342 49.8966 154.29 50.3644 154.182 50.8486H150.547L150.628 50.5243C150.681 50.2916 150.707 50.0663 150.707 49.8515C150.707 49.3494 150.536 48.9636 150.196 48.6944C149.855 48.4251 149.424 48.289 148.903 48.289C148.311 48.289 147.835 48.4879 147.476 48.8829C147.136 49.2777 146.964 49.7805 146.964 50.3906C146.964 50.9285 147.153 51.432 147.529 51.8983C147.924 52.347 148.599 52.877 149.55 53.4871C151.542 54.7617 152.539 56.3696 152.539 58.3083C152.538 60.2103 152.009 61.7188 150.95 62.8315C149.909 63.9441 148.453 64.5013 146.587 64.5013C144.9 64.5012 143.553 64.1241 142.548 63.3706C141.543 62.6168 141.04 61.5463 141.04 60.1645C141.04 59.7343 141.095 59.2764 141.202 58.7926L141.255 58.4968H144.864L144.728 59.1432C144.693 59.4651 144.676 59.6549 144.676 59.7086C144.676 60.2102 144.838 60.6052 145.16 60.892C145.483 61.1789 145.942 61.3237 146.534 61.3237C147.197 61.3236 147.709 61.126 148.068 60.732C148.445 60.3373 148.633 59.7692 148.634 59.0337C148.633 58.4778 148.445 57.9744 148.068 57.5259C147.709 57.0773 147.062 56.5471 146.129 55.9371C144.101 54.609 143.087 52.9918 143.087 51.0896C143.087 49.2952 143.617 47.8498 144.676 46.7549C145.717 45.6602 147.135 45.1137 148.929 45.1136Z" fill="url(#paint4_linear_5173_12946)"/>
<path fill-rule="evenodd" clip-rule="evenodd" d="M57.193 45.3831C58.701 45.3831 59.8858 45.7599 60.7475 46.5139C61.6265 47.2678 62.0667 48.2816 62.0668 49.5556C62.0667 50.0041 62.0122 50.4717 61.9046 50.956L61.6635 52.0868C61.2686 53.9351 60.613 55.2108 59.6978 55.9108C58.8002 56.5927 57.3364 56.9342 55.3083 56.9342H53.3163L51.7801 64.2318H47.9297L51.9422 45.3831H57.193ZM54.0154 53.6493H55.6589C56.3404 53.6492 56.8436 53.5044 57.1667 53.2175C57.4893 52.9304 57.7328 52.4099 57.8942 51.6572L58.1353 50.5264C58.171 50.2764 58.1899 50.0952 58.1901 49.9873C58.1901 49.1079 57.6871 48.6683 56.6824 48.6681H55.0935L54.0154 53.6493Z" fill="url(#paint5_linear_5173_12946)"/>
<path fill-rule="evenodd" clip-rule="evenodd" d="M70.5696 45.3831C72.0776 45.3831 73.2624 45.7599 74.1241 46.5139C75.0031 47.2678 75.4433 48.2816 75.4434 49.5556C75.4433 50.0041 75.3888 50.4717 75.2812 50.956L75.2023 51.3329C74.9689 52.3916 74.6087 53.192 74.1241 53.7303C73.6573 54.2505 72.9115 54.6719 71.8888 54.9948V55.0496C73.0915 55.3908 73.6924 56.3161 73.6924 57.824C73.6922 58.2724 73.621 58.856 73.4777 59.5728L72.9933 61.7817C72.8141 62.5528 72.7239 63.1547 72.7238 63.5853C72.7239 63.8003 72.7511 64.0168 72.8049 64.2318H69.0882C69.0166 63.8736 68.9809 63.5858 68.9808 63.3706C68.9808 62.8681 69.071 62.2205 69.2503 61.4311L69.7609 58.9811C69.8504 58.4799 69.8966 58.1292 69.8968 57.9314C69.8968 57.4649 69.752 57.1401 69.4651 56.9605C69.1957 56.7814 68.7113 56.6911 68.0122 56.691H66.7455L65.1567 64.2318H61.3063L65.3189 45.3831H70.5696ZM67.4468 53.406H68.5228C70.1201 53.406 71.0539 52.7417 71.3235 51.414L71.5119 50.5527C71.5477 50.3025 71.5665 50.113 71.5667 49.9873C71.5667 49.1079 71.0637 48.6683 70.059 48.6681H68.4702L67.4468 53.406Z" fill="url(#paint6_linear_5173_12946)"/>
<path d="M106.759 60.9468H112.871L112.172 64.2318H102.208L106.22 45.3831H110.071L106.759 60.9468Z" fill="url(#paint7_linear_5173_12946)"/>
<path fill-rule="evenodd" clip-rule="evenodd" d="M126.309 64.2318H122.619L122.728 60.8131H118.499L117.153 64.2318H113.41L121.328 45.3831H126.417L126.309 64.2318ZM119.766 57.5807H122.809L123.077 49.1524L119.766 57.5807Z" fill="url(#paint8_linear_5173_12946)"/>
<path d="M134.499 21.5949C136.495 24.0555 137.692 27.1749 137.692 30.5711C137.692 33.9671 136.495 37.0867 134.499 39.5473L133.022 39.247C135.1 36.9385 136.366 33.9012 136.366 30.5711C136.366 27.2404 135.101 24.2017 133.022 21.8929L134.499 21.5949Z" fill="url(#paint9_linear_5173_12946)"/>
<path d="M112.987 22.1208C111.028 24.3999 109.845 27.3491 109.845 30.5711C109.845 33.7925 111.028 36.7402 112.987 39.0191L111.528 39.315C109.643 36.8915 108.519 33.8614 108.519 30.5711C108.519 27.2802 109.642 24.2487 111.528 21.825L112.987 22.1208Z" fill="url(#paint10_linear_5173_12946)"/>
<path d="M128.137 22.8791C130.694 24.5091 132.388 27.3449 132.388 30.5711C132.388 33.7968 130.694 36.6308 128.137 38.2609L126.083 37.8445C129.001 36.6816 131.062 33.8648 131.062 30.5711C131.062 27.2769 129.002 24.4582 126.083 23.2954L128.137 22.8791Z" fill="url(#paint11_linear_5173_12946)"/>
<path d="M57.9344 35.9145H64.0463L63.3473 39.2017H53.3827L57.3953 20.3486H61.2457L57.9344 35.9145Z" fill="url(#paint12_linear_5173_12946)"/>
<path d="M69.2949 39.2017H65.4445L69.457 20.3486H73.3074L69.2949 39.2017Z" fill="url(#paint13_linear_5173_12946)"/>
<path d="M99.2477 23.6358H92.8398L91.8975 27.999H96.9861L96.2848 31.284H91.1963L90.2276 35.9145H96.6354L95.9364 39.2017H85.676L89.6885 20.3486H99.9489L99.2477 23.6358Z" fill="url(#paint14_linear_5173_12946)"/>
<path d="M78.4004 34.8385L83.9206 20.3486H87.6373L79.9892 39.1732H75.0343L75.3564 20.3486H79.0731L78.4004 34.8385Z" fill="url(#paint15_linear_5173_12946)"/>
<path d="M119.7 23.4773C117.009 24.7356 115.148 27.4396 115.148 30.5711C115.148 33.7021 117.01 36.4043 119.7 37.6626L117.763 38.0549C115.38 36.3981 113.822 33.6643 113.822 30.5711C113.822 27.4774 115.38 24.7419 117.763 23.0851L119.7 23.4773Z" fill="url(#paint16_linear_5173_12946)"/>
<path d="M123.105 26.6484C125.302 26.6484 127.083 28.4046 127.083 30.5711C127.083 32.7373 125.302 34.4938 123.105 34.4938C120.908 34.4938 119.128 32.7373 119.128 30.5711C119.128 28.4046 120.908 26.6484 123.105 26.6484Z" fill="url(#paint17_linear_5173_12946)"/>
<defs>
<linearGradient id="paint0_linear_5173_12946" x1="-0.175316" y1="10.3736" x2="39.0955" y2="64.2308" gradientUnits="userSpaceOnUse">
<stop offset="0.254808" stop-color="#FFF200"/>
<stop offset="0.5" stop-color="#FFFA89"/>
<stop offset="0.990385" stop-color="#FFF200"/>
</linearGradient>
<linearGradient id="paint1_linear_5173_12946" x1="37.7537" y1="19.3486" x2="283.724" y2="26.137" gradientUnits="userSpaceOnUse">
<stop stop-color="#FFF200"/>
<stop offset="0.297577" stop-color="#FFF876"/>
<stop offset="0.546559" stop-color="#FFF200"/>
<stop offset="0.783686" stop-color="#FFF876"/>
<stop offset="1" stop-color="#FFF200"/>
</linearGradient>
<linearGradient id="paint2_linear_5173_12946" x1="37.7537" y1="19.3486" x2="283.724" y2="26.137" gradientUnits="userSpaceOnUse">
<stop stop-color="#FFF200"/>
<stop offset="0.297577" stop-color="#FFF876"/>
<stop offset="0.546559" stop-color="#FFF200"/>
<stop offset="0.783686" stop-color="#FFF876"/>
<stop offset="1" stop-color="#FFF200"/>
</linearGradient>
<linearGradient id="paint3_linear_5173_12946" x1="37.7537" y1="19.3486" x2="283.724" y2="26.137" gradientUnits="userSpaceOnUse">
<stop stop-color="#FFF200"/>
<stop offset="0.297577" stop-color="#FFF876"/>
<stop offset="0.546559" stop-color="#FFF200"/>
<stop offset="0.783686" stop-color="#FFF876"/>
<stop offset="1" stop-color="#FFF200"/>
</linearGradient>
<linearGradient id="paint4_linear_5173_12946" x1="37.7537" y1="19.3486" x2="283.724" y2="26.137" gradientUnits="userSpaceOnUse">
<stop stop-color="#FFF200"/>
<stop offset="0.297577" stop-color="#FFF876"/>
<stop offset="0.546559" stop-color="#FFF200"/>
<stop offset="0.783686" stop-color="#FFF876"/>
<stop offset="1" stop-color="#FFF200"/>
</linearGradient>
<linearGradient id="paint5_linear_5173_12946" x1="37.7537" y1="19.3486" x2="283.724" y2="26.137" gradientUnits="userSpaceOnUse">
<stop stop-color="#FFF200"/>
<stop offset="0.297577" stop-color="#FFF876"/>
<stop offset="0.546559" stop-color="#FFF200"/>
<stop offset="0.783686" stop-color="#FFF876"/>
<stop offset="1" stop-color="#FFF200"/>
</linearGradient>
<linearGradient id="paint6_linear_5173_12946" x1="37.7537" y1="19.3486" x2="283.724" y2="26.137" gradientUnits="userSpaceOnUse">
<stop stop-color="#FFF200"/>
<stop offset="0.297577" stop-color="#FFF876"/>
<stop offset="0.546559" stop-color="#FFF200"/>
<stop offset="0.783686" stop-color="#FFF876"/>
<stop offset="1" stop-color="#FFF200"/>
</linearGradient>
<linearGradient id="paint7_linear_5173_12946" x1="37.7537" y1="19.3486" x2="283.724" y2="26.137" gradientUnits="userSpaceOnUse">
<stop stop-color="#FFF200"/>
<stop offset="0.297577" stop-color="#FFF876"/>
<stop offset="0.546559" stop-color="#FFF200"/>
<stop offset="0.783686" stop-color="#FFF876"/>
<stop offset="1" stop-color="#FFF200"/>
</linearGradient>
<linearGradient id="paint8_linear_5173_12946" x1="37.7537" y1="19.3486" x2="283.724" y2="26.137" gradientUnits="userSpaceOnUse">
<stop stop-color="#FFF200"/>
<stop offset="0.297577" stop-color="#FFF876"/>
<stop offset="0.546559" stop-color="#FFF200"/>
<stop offset="0.783686" stop-color="#FFF876"/>
<stop offset="1" stop-color="#FFF200"/>
</linearGradient>
<linearGradient id="paint9_linear_5173_12946" x1="37.7537" y1="19.3486" x2="283.724" y2="26.137" gradientUnits="userSpaceOnUse">
<stop stop-color="#FFF200"/>
<stop offset="0.297577" stop-color="#FFF876"/>
<stop offset="0.546559" stop-color="#FFF200"/>
<stop offset="0.783686" stop-color="#FFF876"/>
<stop offset="1" stop-color="#FFF200"/>
</linearGradient>
<linearGradient id="paint10_linear_5173_12946" x1="37.7537" y1="19.3486" x2="283.724" y2="26.137" gradientUnits="userSpaceOnUse">
<stop stop-color="#FFF200"/>
<stop offset="0.297577" stop-color="#FFF876"/>
<stop offset="0.546559" stop-color="#FFF200"/>
<stop offset="0.783686" stop-color="#FFF876"/>
<stop offset="1" stop-color="#FFF200"/>
</linearGradient>
<linearGradient id="paint11_linear_5173_12946" x1="37.7537" y1="19.3486" x2="283.724" y2="26.137" gradientUnits="userSpaceOnUse">
<stop stop-color="#FFF200"/>
<stop offset="0.297577" stop-color="#FFF876"/>
<stop offset="0.546559" stop-color="#FFF200"/>
<stop offset="0.783686" stop-color="#FFF876"/>
<stop offset="1" stop-color="#FFF200"/>
</linearGradient>
<linearGradient id="paint12_linear_5173_12946" x1="37.7537" y1="19.3486" x2="283.724" y2="26.137" gradientUnits="userSpaceOnUse">
<stop stop-color="#FFF200"/>
<stop offset="0.297577" stop-color="#FFF876"/>
<stop offset="0.546559" stop-color="#FFF200"/>
<stop offset="0.783686" stop-color="#FFF876"/>
<stop offset="1" stop-color="#FFF200"/>
</linearGradient>
<linearGradient id="paint13_linear_5173_12946" x1="37.7537" y1="19.3486" x2="283.724" y2="26.137" gradientUnits="userSpaceOnUse">
<stop stop-color="#FFF200"/>
<stop offset="0.297577" stop-color="#FFF876"/>
<stop offset="0.546559" stop-color="#FFF200"/>
<stop offset="0.783686" stop-color="#FFF876"/>
<stop offset="1" stop-color="#FFF200"/>
</linearGradient>
<linearGradient id="paint14_linear_5173_12946" x1="37.7537" y1="19.3486" x2="283.724" y2="26.137" gradientUnits="userSpaceOnUse">
<stop stop-color="#FFF200"/>
<stop offset="0.297577" stop-color="#FFF876"/>
<stop offset="0.546559" stop-color="#FFF200"/>
<stop offset="0.783686" stop-color="#FFF876"/>
<stop offset="1" stop-color="#FFF200"/>
</linearGradient>
<linearGradient id="paint15_linear_5173_12946" x1="37.7537" y1="19.3486" x2="283.724" y2="26.137" gradientUnits="userSpaceOnUse">
<stop stop-color="#FFF200"/>
<stop offset="0.297577" stop-color="#FFF876"/>
<stop offset="0.546559" stop-color="#FFF200"/>
<stop offset="0.783686" stop-color="#FFF876"/>
<stop offset="1" stop-color="#FFF200"/>
</linearGradient>
<linearGradient id="paint16_linear_5173_12946" x1="37.7537" y1="19.3486" x2="283.724" y2="26.137" gradientUnits="userSpaceOnUse">
<stop stop-color="#FFF200"/>
<stop offset="0.297577" stop-color="#FFF876"/>
<stop offset="0.546559" stop-color="#FFF200"/>
<stop offset="0.783686" stop-color="#FFF876"/>
<stop offset="1" stop-color="#FFF200"/>
</linearGradient>
<linearGradient id="paint17_linear_5173_12946" x1="37.7537" y1="19.3486" x2="283.724" y2="26.137" gradientUnits="userSpaceOnUse">
<stop stop-color="#FFF200"/>
<stop offset="0.297577" stop-color="#FFF876"/>
<stop offset="0.546559" stop-color="#FFF200"/>
<stop offset="0.783686" stop-color="#FFF876"/>
<stop offset="1" stop-color="#FFF200"/>
</linearGradient>
</defs>
</svg>
