<svg width="25" height="25" viewBox="0 0 25 25" fill="none" xmlns="http://www.w3.org/2000/svg">
<mask id="mask0_4039_13663" style="mask-type:alpha" maskUnits="userSpaceOnUse" x="0" y="0" width="25" height="25">
<rect x="0.5" y="0.5" width="24" height="24" fill="#D9D9D9"/>
</mask>
<g mask="url(#mask0_4039_13663)">
<path d="M17.5 22.5C16.6667 22.5 15.9583 22.2083 15.375 21.625C14.7917 21.0417 14.5 20.3333 14.5 19.5C14.5 19.4 14.525 19.1667 14.575 18.8L7.55 14.7C7.28333 14.95 6.975 15.1458 6.625 15.2875C6.275 15.4292 5.9 15.5 5.5 15.5C4.66667 15.5 3.95833 15.2083 3.375 14.625C2.79167 14.0417 2.5 13.3333 2.5 12.5C2.5 11.6667 2.79167 10.9583 3.375 10.375C3.95833 9.79167 4.66667 9.5 5.5 9.5C5.9 9.5 6.275 9.57083 6.625 9.7125C6.975 9.85417 7.28333 10.05 7.55 10.3L14.575 6.2C14.5417 6.08333 14.5208 5.97083 14.5125 5.8625C14.5042 5.75417 14.5 5.63333 14.5 5.5C14.5 4.66667 14.7917 3.95833 15.375 3.375C15.9583 2.79167 16.6667 2.5 17.5 2.5C18.3333 2.5 19.0417 2.79167 19.625 3.375C20.2083 3.95833 20.5 4.66667 20.5 5.5C20.5 6.33333 20.2083 7.04167 19.625 7.625C19.0417 8.20833 18.3333 8.5 17.5 8.5C17.1 8.5 16.725 8.42917 16.375 8.2875C16.025 8.14583 15.7167 7.95 15.45 7.7L8.425 11.8C8.45833 11.9167 8.47917 12.0292 8.4875 12.1375C8.49583 12.2458 8.5 12.3667 8.5 12.5C8.5 12.6333 8.49583 12.7542 8.4875 12.8625C8.47917 12.9708 8.45833 13.0833 8.425 13.2L15.45 17.3C15.7167 17.05 16.025 16.8542 16.375 16.7125C16.725 16.5708 17.1 16.5 17.5 16.5C18.3333 16.5 19.0417 16.7917 19.625 17.375C20.2083 17.9583 20.5 18.6667 20.5 19.5C20.5 20.3333 20.2083 21.0417 19.625 21.625C19.0417 22.2083 18.3333 22.5 17.5 22.5Z" fill="white"/>
</g>
</svg>
