<svg width="36" height="36" viewBox="0 0 36 36" fill="none" xmlns="http://www.w3.org/2000/svg">
<path d="M17.2379 0.880198C17.6399 0.415915 18.3601 0.415915 18.7621 0.880197L19.9717 2.27733C20.2888 2.64355 20.8215 2.73244 21.2403 2.48902L22.838 1.56035C23.369 1.25175 24.0501 1.48559 24.2796 2.05524L24.97 3.76943C25.151 4.21876 25.626 4.47582 26.1011 4.38157L27.9138 4.022C28.5162 3.90251 29.0845 4.34486 29.1166 4.95814L29.213 6.80363C29.2383 7.28738 29.6041 7.68475 30.0841 7.74988L31.9153 7.99838C32.5239 8.08096 32.9178 8.68388 32.7489 9.27433L32.2409 11.0511C32.1077 11.5169 32.3247 12.0115 32.7575 12.229L34.4089 13.0586C34.9576 13.3343 35.1344 14.0324 34.783 14.5361L33.7256 16.0517C33.4484 16.4489 33.493 16.9872 33.8318 17.3334L35.1243 18.6543C35.5538 19.0932 35.4943 19.8109 34.9984 20.1732L33.5062 21.2633C33.115 21.5491 32.9824 22.0726 33.1904 22.5101L33.984 24.1791C34.2477 24.7337 33.9584 25.3932 33.3717 25.5748L31.6064 26.1213C31.1436 26.2646 30.8482 26.7168 30.9029 27.1981L31.1116 29.0343C31.1809 29.6444 30.6931 30.1743 30.0793 30.1556L28.2322 30.0993C27.748 30.0845 27.3218 30.4163 27.2172 30.8893L26.8183 32.6937C26.6858 33.2934 26.0524 33.6361 25.4779 33.4191L23.7491 32.7661C23.296 32.5949 22.7851 32.7703 22.5327 33.1837L21.5695 34.7609C21.2494 35.285 20.5391 35.4035 20.0662 35.0117L18.6431 33.8328C18.2701 33.5237 17.7299 33.5237 17.3569 33.8328L15.9338 35.0117C15.4609 35.4035 14.7506 35.285 14.4305 34.7609L13.4673 33.1837C13.2149 32.7703 12.704 32.5949 12.2509 32.7661L10.5221 33.4191C9.9476 33.6361 9.31421 33.2934 9.18166 32.6937L8.78279 30.8893C8.67824 30.4163 8.25202 30.0845 7.76784 30.0993L5.92069 30.1556C5.30685 30.1743 4.81908 29.6444 4.88842 29.0343L5.09707 27.1981C5.15176 26.7167 4.85635 26.2646 4.39361 26.1213L2.62826 25.5748C2.04161 25.3932 1.75232 24.7337 2.01602 24.1791L2.80958 22.5101C3.01759 22.0726 2.885 21.5491 2.49385 21.2633L1.0016 20.1732C0.505709 19.8109 0.446237 19.0932 0.87574 18.6543L2.16821 17.3334C2.50699 16.9872 2.55159 16.4489 2.27442 16.0517L1.21698 14.5361C0.865584 14.0324 1.04238 13.3343 1.59114 13.0586L3.24245 12.229C3.67531 12.0115 3.89226 11.5169 3.7591 11.0511L3.25107 9.27433C3.08224 8.68388 3.47615 8.08096 4.08469 7.99838L5.91591 7.74988C6.39592 7.68475 6.76172 7.28738 6.787 6.80363L6.88342 4.95814C6.91547 4.34486 7.4838 3.90251 8.08618 4.022L9.89887 4.38157C10.374 4.47582 10.849 4.21876 11.03 3.76943L11.7204 2.05524C11.9499 1.48559 12.631 1.25175 13.162 1.56035L14.7597 2.48902C15.1785 2.73244 15.7112 2.64355 16.0283 2.27733L17.2379 0.880198Z" fill="url(#paint0_linear_4039_11969)"/>
<g filter="url(#filter0_i_4039_11969)">
<path d="M18.0055 4.50781L21.8137 12.7639L30.8425 13.8345L24.1672 20.0076L25.9392 28.9253L18.0055 24.4843L10.0717 28.9253L11.8437 20.0076L5.16844 13.8345L14.1973 12.7639L18.0055 4.50781Z" fill="#FFD68B"/>
</g>
<path d="M18.0052 9.32812L20.4533 14.6356L26.2576 15.3238L21.9663 19.2922L23.1054 25.0251L18.0052 22.1702L12.9049 25.0251L14.044 19.2922L9.75281 15.3238L15.5571 14.6356L18.0052 9.32812Z" fill="url(#paint1_linear_4039_11969)"/>
<defs>
<filter id="filter0_i_4039_11969" x="5.16797" y="4.50781" width="25.6758" height="24.4175" filterUnits="userSpaceOnUse" color-interpolation-filters="sRGB">
<feFlood flood-opacity="0" result="BackgroundImageFix"/>
<feBlend mode="normal" in="SourceGraphic" in2="BackgroundImageFix" result="shape"/>
<feColorMatrix in="SourceAlpha" type="matrix" values="0 0 0 0 0 0 0 0 0 0 0 0 0 0 0 0 0 0 127 0" result="hardAlpha"/>
<feOffset/>
<feGaussianBlur stdDeviation="0.698986"/>
<feComposite in2="hardAlpha" operator="arithmetic" k2="-1" k3="1"/>
<feColorMatrix type="matrix" values="0 0 0 0 0.635294 0 0 0 0 0.415686 0 0 0 0 0.00392157 0 0 0 1 0"/>
<feBlend mode="normal" in2="shape" result="effect1_innerShadow_4039_11969"/>
</filter>
<linearGradient id="paint0_linear_4039_11969" x1="4.09091" y1="7.71429" x2="31.9471" y2="27.0524" gradientUnits="userSpaceOnUse">
<stop stop-color="#C89300"/>
<stop offset="0.475962" stop-color="#FFF200"/>
<stop offset="1" stop-color="#FFB937"/>
</linearGradient>
<linearGradient id="paint1_linear_4039_11969" x1="18.0052" y1="9.32812" x2="18.0052" y2="26.6823" gradientUnits="userSpaceOnUse">
<stop stop-color="#A86D00"/>
<stop offset="1" stop-color="#422B00"/>
</linearGradient>
</defs>
</svg>
