<svg width="24" height="24" viewBox="0 0 24 24" fill="none" xmlns="http://www.w3.org/2000/svg">
<mask id="mask0_4039_11963" style="mask-type:alpha" maskUnits="userSpaceOnUse" x="0" y="0" width="24" height="24">
<rect width="24" height="24" fill="#D9D9D9"/>
</mask>
<g mask="url(#mask0_4039_11963)">
<path d="M10.2104 21.8132C9.28849 22.2064 8.21787 21.8564 7.70616 20.9946L7.14156 20.0437C6.8598 19.5691 6.39446 19.2321 5.85571 19.1124L4.82352 18.883C3.83889 18.6642 3.17128 17.7464 3.26627 16.7423L3.3689 15.6573C3.42067 15.1101 3.24492 14.5656 2.88295 14.1519L2.15238 13.317C1.49259 12.563 1.49259 11.437 2.15238 10.683L2.88295 9.84806C3.24492 9.43438 3.42067 8.88995 3.3689 8.3427L3.26627 7.25772C3.17128 6.25356 3.83889 5.3358 4.82352 5.117L5.85571 4.88762C6.39446 4.7679 6.8598 4.43087 7.14156 3.95632L7.70616 3.00542C8.21787 2.14359 9.28849 1.79362 10.2104 2.18681L11.2154 2.6154C11.7166 2.82915 12.2834 2.82915 12.7846 2.6154L13.7896 2.18681C14.7115 1.79362 15.7821 2.14359 16.2938 3.00541L16.8584 3.95632C17.1402 4.43087 17.6055 4.7679 18.1443 4.88762L19.1765 5.11699C20.1611 5.3358 20.8287 6.25355 20.7337 7.25772L20.6311 8.3427C20.5793 8.88995 20.7551 9.43438 21.1171 9.84806L21.8476 10.683C22.5074 11.437 22.5074 12.563 21.8476 13.317L21.1171 14.1519C20.7551 14.5656 20.5793 15.1101 20.6311 15.6573L20.7337 16.7423C20.8287 17.7464 20.1611 18.6642 19.1765 18.883L18.1443 19.1124C17.6055 19.2321 17.1402 19.5691 16.8584 20.0437L16.2938 20.9946C15.7821 21.8564 14.7115 22.2064 13.7896 21.8132L12.7846 21.3846C12.2834 21.1708 11.7166 21.1708 11.2154 21.3846L10.2104 21.8132ZM10.95 15.55L16.6 9.9L15.2 8.45L10.95 12.7L8.8 10.6L7.4 12L10.95 15.55Z" fill="url(#paint0_linear_4039_11963)"/>
</g>
<defs>
<linearGradient id="paint0_linear_4039_11963" x1="3.5" y1="6" x2="20" y2="18" gradientUnits="userSpaceOnUse">
<stop stop-color="#C89300"/>
<stop offset="0.475962" stop-color="#FFF200"/>
<stop offset="1" stop-color="#FFB937"/>
</linearGradient>
</defs>
</svg>
